<svg xmlns="http://www.w3.org/2000/svg" height="1024" preserveAspectRatio="none" style="display: block;" version="1.1" viewBox="0 0 2048 2048" width="1024">
<defs>
	<linearGradient gradientUnits="userSpaceOnUse" id="Gradient1" x1="893.914" x2="916.063" y1="618.731" y2="578.411">
		<stop class="stop0" offset="0" stop-color="rgb(7,36,40)" stop-opacity="1"></stop>
		<stop class="stop1" offset="1" stop-color="rgb(11,88,56)" stop-opacity="1"></stop>
	</linearGradient>
</defs>
<path d="M 0 0 L 2048 0 L 2048 2048 L 0 2048 L 0 0 z" fill="rgb(254,254,254)" transform="translate(0,0)"></path>
<path d="M 1022.67 84.6951 C 1029.63 87.1413 1074.22 130.633 1081.44 137.74 C 1099.54 122.317 1126.95 105.802 1147.19 90.3711 L 1196.38 152.428 C 1217.24 142.92 1245.83 125.854 1267.12 114.737 C 1280.41 135.723 1295.19 162.373 1308.26 184.141 C 1332.55 174.692 1357.78 163.469 1382.38 153.619 C 1392.91 177.609 1403.78 203.922 1415.47 227.147 C 1441.67 221.01 1467.21 214.052 1493.28 207.644 C 1499.94 233.408 1511.24 260.635 1518.66 286.905 C 1544.76 281.998 1570.98 277.733 1597.29 274.112 C 1600.67 300.591 1608.29 329.261 1611.41 355.997 C 1638.26 356.213 1665.12 355.986 1691.96 355.316 C 1691.24 383.629 1691.61 411.901 1690.94 440.349 C 1718.5 443.555 1745.99 447.37 1773.38 451.791 C 1770.36 478.001 1766.75 504.139 1762.54 530.186 C 1789.27 537.129 1815.75 545.002 1841.92 553.79 C 1833.95 580.144 1827.99 606.814 1820.13 633.141 C 1833.55 637.299 1880.91 658.151 1894.4 665.072 C 1886.9 687.524 1874.16 718.317 1865.01 740.579 C 1888.24 754.283 1911.73 767.523 1935.49 780.291 C 1922.87 803.075 1909.19 827.468 1897.41 850.572 C 1918.52 867.452 1941.54 884.129 1963.11 901.145 C 1958.55 907.908 1949.21 918.991 1943.95 925.655 C 1933.81 938.476 1923.85 951.439 1914.08 964.541 C 1925.22 979.264 1958.22 1007.95 1972.89 1022.63 C 1958.52 1035.88 1926.37 1066.35 1915.38 1080.8 C 1931.21 1099.91 1946.94 1123.31 1963.98 1144.08 C 1942.2 1159.23 1918.64 1178.31 1897.28 1194.63 C 1908.35 1216.99 1923.95 1242.52 1936.03 1265.6 C 1924.09 1274.05 1910.48 1281.3 1898.12 1289.14 C 1887.62 1295.8 1877.68 1302.89 1867.11 1309.51 C 1877.17 1333.57 1888.8 1360.19 1896.68 1384.92 C 1872.82 1396.15 1848.22 1406.08 1824.21 1417.33 C 1827.8 1441.12 1835.76 1471.87 1841.24 1495.66 C 1824.42 1502.32 1783.23 1513.31 1764.77 1517.71 C 1767.8 1544.07 1769.02 1570.86 1772.42 1597.2 C 1745.68 1601.5 1718.91 1605.57 1692.11 1609.4 C 1691.14 1634.11 1689.66 1668.54 1687.65 1692.36 L 1608.46 1693.12 C 1604.95 1719.75 1598.05 1746.3 1594.59 1774.64 C 1568.41 1770.92 1542.19 1767.38 1515.96 1764.03 C 1507.87 1790.37 1499.93 1816.76 1492.14 1843.19 L 1416.09 1823.1 C 1407.23 1839.92 1390.76 1876.46 1383.63 1894.25 C 1360.33 1885.64 1334.93 1873.95 1310.93 1864.79 C 1296.93 1883.74 1279.09 1912.95 1267.66 1933.84 C 1245.84 1921.63 1219.83 1906.96 1196.68 1897.62 C 1181.78 1913.55 1161.24 1941.03 1147.08 1958.89 C 1127.75 1943.15 1101.98 1924.98 1081.46 1910.52 C 1071.64 1921.32 1042.48 1946.72 1030.16 1958.19 L 1023.36 1963.81 C 1005.45 1946.24 983.276 1926.83 964.076 1910.96 C 945.037 1924.81 917.894 1945.95 898.77 1957.79 C 884.417 1939.03 865.717 1913.13 849.995 1896.29 C 826.856 1907.04 801.789 1921.23 778.821 1933.08 C 767.887 1912.24 751.317 1885.77 739.152 1865.17 C 715.19 1874.4 688.92 1883.68 665.75 1894 C 655.165 1869.92 644.287 1844.13 632.953 1820.54 C 608.512 1827.27 580.275 1834.02 556.558 1841.43 C 549.399 1816.25 541.989 1788.07 533.19 1763.67 C 506.1 1766.13 480.161 1770.16 453.331 1773.63 C 449.073 1746.12 444.499 1718.66 439.608 1691.25 C 412.759 1691.27 385.91 1691.55 359.066 1692.08 C 358.48 1664.25 356.456 1636.39 356.002 1608.37 C 330.631 1605.41 302.721 1600.72 277.436 1596.6 C 279.252 1570.25 281.891 1543.95 285.35 1517.76 L 207.012 1496.23 C 212.671 1469.52 219.416 1443.98 226.322 1417.59 C 202.45 1407.78 176.372 1395.47 152.735 1384.7 C 163.764 1359.58 174.636 1334.39 185.354 1309.13 C 166.135 1296.18 136.578 1279.91 115.902 1267.78 C 123.446 1251.11 145.479 1210.31 154.624 1194.64 C 136.67 1180.02 109.035 1162.49 93.0364 1147.89 C 109.595 1125.46 124.514 1102.83 142.097 1081 C 126.697 1062.96 104.744 1042.22 88.2096 1023.75 C 105.97 1004.43 123.245 982.634 141.976 964.436 C 139.241 960.318 136.197 956.419 133.144 952.534 C 119.274 934.885 106.534 916.291 92.1658 899.04 C 112.545 883.205 133.756 864.762 154.279 849.667 C 142.944 825.436 126.701 803.569 115.364 780.625 C 139.259 767.376 161.985 752.325 185.004 737.599 C 176.26 713.974 164.91 687.754 154.613 664.829 C 175.432 654.822 207.57 640.588 229.245 632.798 C 223.188 607.476 214.918 579.645 208.009 554.275 C 233.397 545.506 259.86 539.228 285.184 530.342 C 282.683 505.777 278.791 476.325 274.969 451.949 C 301.055 447.616 333.257 442.088 359.043 438.561 C 359.288 410.828 358.878 383.093 357.814 355.379 C 385.672 355.058 413.836 356.267 441.665 355.328 C 445.523 328.828 448.712 302.236 451.229 275.575 C 478.586 278.836 505.769 280.555 533.498 284.154 C 539.752 258.32 548.402 233.641 554.653 206.965 C 581.454 213.912 608.337 220.541 635.296 226.849 C 645.573 205.889 656.848 177.703 665.814 155.912 C 689.193 162.911 716.87 175.076 741.086 183.184 C 755.439 160.144 766.793 137.407 780.587 114.502 C 804.093 126.308 829.565 141.779 852.491 152.422 C 868.914 131.832 884.938 110.926 900.554 89.7177 C 916.276 101.258 950.916 125.322 964.3 137.355 C 982.25 123.582 1004.9 100.492 1022.67 84.6951 z" fill="rgb(4,57,116)" transform="translate(0,0)"></path>
<path d="M 981.438 179.828 C 1447.28 156.402 1844 514.87 1867.76 980.696 C 1891.52 1446.52 1533.34 1843.5 1067.53 1867.59 C 601.245 1891.71 203.78 1533.09 179.995 1066.79 C 156.209 600.486 515.121 203.278 981.438 179.828 z" fill="rgb(254,254,254)" transform="translate(0,0)"></path>
<path d="M 1011.67 217.842 C 1456.71 210.707 1823.18 565.839 1830.04 1010.87 C 1836.9 1455.91 1481.55 1822.17 1036.51 1828.75 C 591.856 1835.33 225.986 1480.35 219.132 1035.71 C 212.278 591.059 567.032 224.971 1011.67 217.842 z" fill="rgb(4,57,116)" transform="translate(0,0)"></path>
<path d="M 1016.99 257.357 C 1439.9 253.528 1785.89 593.167 1789.9 1016.08 C 1793.9 1438.99 1454.41 1785.12 1031.5 1789.3 C 608.343 1793.49 261.962 1453.75 257.954 1030.59 C 253.946 607.427 593.829 261.188 1016.99 257.357 z" fill="rgb(254,254,254)" transform="translate(0,0)"></path>
<path d="M 856.304 340.662 C 849.275 337.764 841.1 340.007 837.718 331.859 C 840.347 324.271 849.074 324.246 856.033 325.804 C 865.435 327.908 867.244 330.521 872.023 338.129 C 872.012 346.875 867.185 347.522 859.92 350.686 L 860.124 351.717 C 880.687 355.985 897.447 362.836 872.853 381.796 C 879.383 401.169 882.166 404.724 864.923 417.323 C 865.238 426.403 865.732 436.576 867.228 445.554 C 886.567 462.24 892.126 472.853 906.718 490.439 C 925.831 486.102 937.701 473.571 953.709 463.83 C 956.178 462.327 965.009 465.707 968.036 465.228 C 974.947 464.565 982.745 462.538 989.531 460.957 C 982.278 428.569 1012.85 435.176 1032 442.46 C 1043.44 446.813 1050.82 453.535 1063.64 454.375 C 1060.97 449.656 1059.67 448.858 1062.29 443.969 C 1071.12 437.911 1084.5 444.19 1090.65 451.931 C 1102.75 445.531 1136.8 339.982 1157.78 381.901 C 1165.19 404.477 1165.42 430.635 1175.37 452.272 C 1182.17 467.042 1213.82 466.704 1205.89 488.031 C 1203.27 495.059 1208.67 502.235 1203.72 507.707 C 1198.94 512.99 1187.23 519.366 1187.57 527.333 C 1193.23 528.514 1205.34 523.324 1216.52 524.883 C 1223.39 525.841 1242.58 534.774 1244.66 534.461 C 1255.37 532.846 1263.26 540.587 1274.22 543.766 C 1275.76 544.213 1282.15 549.769 1286.17 551.086 C 1293.01 553.325 1300.53 550.196 1305.18 550.827 C 1318.54 552.639 1336.68 562.654 1348.08 569.975 C 1349.43 570.847 1352.47 573.846 1353.56 574.889 L 1356.7 577.839 C 1396.98 580.074 1382.67 584.789 1379.89 617.652 C 1384.06 610.339 1387.26 605.284 1395.99 603.55 C 1414.03 599.966 1421.06 605.771 1427.22 620.261 L 1428.59 620.73 C 1448.57 627.489 1484.93 633.874 1505.93 636.075 C 1515.19 637.045 1536.55 632.918 1545.08 636.26 C 1576.48 648.565 1599.48 685.752 1629.87 700.822 C 1638.95 705.327 1646.42 706.36 1656.39 707.343 C 1668.53 708.54 1688.9 699.332 1695.6 710.257 C 1697.73 713.744 1697.79 722.945 1699.66 728.622 C 1711.85 765.572 1720.13 812.844 1704.99 849.875 C 1697.71 867.403 1687.59 884.017 1670.41 893.267 C 1664.34 896.536 1652.49 904.708 1649.13 910.025 C 1632.84 935.835 1619.16 960.839 1597.03 982.521 C 1593.92 985.562 1591.48 990.246 1589.96 994.218 C 1586.38 1001.94 1587.02 1018.97 1578.62 1022.15 C 1569.77 1025.5 1563.89 1012.08 1556.75 1017.85 C 1549.16 1034.74 1558.64 1061.86 1557.35 1083.54 C 1557.05 1104.7 1551.12 1125.12 1547.99 1145.94 C 1546.45 1156.11 1549.26 1167.84 1546.55 1177.59 C 1543.83 1187.39 1534.05 1188.46 1525.52 1189.41 C 1527.3 1199.97 1530.61 1212.35 1529.26 1223.02 C 1527.94 1233.39 1491.1 1294.98 1483.03 1306.38 C 1480.59 1309.82 1477.79 1312.82 1474.8 1315.79 C 1480.37 1319.14 1492.39 1328.68 1485.7 1334.71 C 1477.62 1341.99 1459.94 1338.11 1451.37 1343.11 C 1438.69 1350.51 1450.98 1370.95 1428.03 1366.15 C 1423.05 1365.11 1417.29 1365.06 1412.56 1364.04 C 1410.09 1364.11 1400.02 1362.49 1397.71 1361.83 C 1375.17 1355.41 1356.87 1362.03 1335.43 1368.82 C 1329.65 1370.65 1342.54 1394.15 1330.88 1397.99 C 1325.71 1396.76 1311.91 1386.71 1305.92 1382.92 C 1294.47 1387.62 1283.53 1393.48 1273.26 1400.39 C 1257.84 1410.61 1244.36 1423.2 1229.85 1434.37 C 1213.37 1447.04 1222.87 1452.6 1218.81 1471.55 L 1218.39 1473.46 C 1239.54 1504.31 1226.52 1505.13 1222.22 1536.76 C 1216.94 1575.68 1200.54 1567.93 1180.01 1591.06 C 1171.84 1600.27 1164.26 1633.07 1154.44 1646.26 C 1144.74 1659.28 1136.04 1673.16 1122.33 1683.73 C 1118.1 1688.33 1106.17 1696.32 1103.21 1701.56 C 1084.81 1734.11 1076.26 1774.13 1030.9 1776.88 C 1033.7 1763.93 1044.02 1742.11 1048.99 1728.05 C 1035.86 1721.95 1036.74 1721.62 1037.05 1707.57 C 1024.65 1700.66 1027.97 1700.68 1019.96 1689.21 C 1009.39 1674.08 991.207 1695.03 984.774 1670.28 C 983.724 1666.24 971.64 1661.72 967.24 1660.48 C 962.434 1664.97 954.681 1672.07 948.648 1666.15 C 947.412 1662.33 948.548 1657.1 949.074 1652.93 C 945.722 1646.78 940.701 1639.47 936.802 1633.46 C 935.306 1633.74 930.83 1634.74 929.464 1634.89 C 917.864 1636.17 909.865 1644.62 897.704 1645.21 C 895.144 1643.01 896.034 1644.37 895.204 1640.86 C 896.118 1635.61 905.589 1626.01 909.081 1620.97 C 914.521 1613.11 919.721 1604.46 925.665 1597.07 C 930.562 1590.99 938.006 1585.61 942.9 1579.38 C 949.618 1569.86 949.198 1562.46 960.175 1553.87 C 974.74 1542.48 991.874 1527.25 1010.44 1523.19 C 1012.33 1522.78 1025.46 1523.82 1027.87 1524 C 1027.37 1507.28 1026 1505.27 1039.05 1494.52 C 1038.61 1486.15 1039.85 1471.51 1035.65 1464.6 C 1029.56 1454.6 1018.7 1469.23 1010.41 1466.39 C 1008.63 1466.44 1003.76 1460.75 1003.91 1458.86 C 1005.11 1443.5 1025.74 1407.64 1009.4 1396.51 C 1006.84 1394.77 993.958 1401.91 989.945 1403.85 C 972.462 1399.22 962.617 1395.31 974.023 1376.77 C 974.523 1367.2 970.976 1343.31 970.041 1331.62 C 943.179 1322.43 905.931 1340.63 878.842 1325.76 C 876.45 1324.45 876.541 1319.89 876.271 1317.55 C 876.691 1315.32 877.206 1313.65 878.956 1312.12 C 888.661 1303.65 888.441 1289.32 889.399 1276.69 C 872.187 1272.27 877.502 1265.52 882.361 1252.72 C 883.09 1250.8 884.065 1244.1 884.577 1241.66 L 884.943 1242.37 C 879.583 1224.57 887.361 1204.74 883.656 1185.94 C 883.21 1183.68 883.448 1184.5 884.734 1181.86 L 885.073 1181.29 C 884.877 1178.41 880.505 1171.5 878.833 1168.66 C 866.559 1147.8 859.727 1125.88 853.285 1102.73 C 839.418 1103.62 825.789 1109.64 812.241 1109.72 C 798.247 1109.8 804.23 1093.54 806.314 1086.59 C 802.29 1084.57 800.923 1084.1 797.652 1081.15 C 793.268 1072.04 805.807 1063.24 812.074 1056.69 C 797.622 1030.42 809.618 1023.32 805.827 1014.87 C 799.54 1011.37 790.451 1013.38 783.135 1014.18 L 768.277 1006.28 C 766.992 1006.97 765.687 1007.63 764.364 1008.25 C 752.541 1013.64 740.04 994.33 724.395 987.472 C 700.155 976.846 693.779 989.627 682.672 985.484 C 675.312 977.625 667.321 969.832 660.422 961.632 C 657.132 957.72 662.298 947.974 660.93 942.914 C 657.716 939.178 654.257 937.951 649.809 935.721 C 644.232 920.595 649.222 894.533 653.072 878.849 L 645.199 876.113 C 628.691 885.436 612.537 893.8 601.124 908.521 C 595.845 914.169 579.411 911.465 573.952 914.412 C 549.607 927.555 554.417 933.543 524.436 931.843 L 518.293 921.048 C 508.185 923.882 477.549 937.451 472.351 922.057 C 470.665 917.065 475.198 911.924 477.894 907.712 C 478.061 904.252 475.065 902.473 473.407 896.095 C 475.642 887.788 477.935 879.498 480.287 871.224 C 467.816 884.604 442.138 908.744 421.321 893.5 C 414.95 888.834 421.173 881.08 420.786 874.688 C 413.684 865.34 372.658 881.83 391.305 847.37 C 381.829 836.981 348.121 783.151 370.125 773.88 C 372.164 774.241 375.349 774.867 377.342 774.554 C 388.32 772.832 394.805 722.331 400.296 718.351 C 411.178 710.238 439.58 705.826 449.995 699.282 C 474.1 684.134 477.855 677.4 502.532 700.771 C 508.031 682.263 511.913 667.22 516.861 647.74 C 523.077 623.266 536.475 595.12 531.943 568.615 C 531.554 566.34 529.763 564.698 527.709 563.843 C 520.18 560.71 517.156 545.626 512.469 538.662 C 510.15 535.215 508.19 532.693 505.416 529.301 C 502.889 525.28 502.016 524.052 503.021 519.562 C 507.836 513.441 517.541 513.598 526.779 509.377 L 528.085 508.764 C 533.47 510.772 538.903 512.925 544.275 514.994 C 536.591 506.884 506.917 485.821 508.66 476.214 C 522.84 462.219 537.511 474.359 551.382 471.342 C 552.405 468.613 552.21 468.514 554.287 466.565 C 562.514 465.034 571.01 466.891 579.177 466.726 C 586.269 466.582 586.14 470.715 591.335 470.597 C 595.294 468.563 596.555 465.889 599.091 462.18 C 599.932 461.849 600.773 461.518 601.614 461.187 C 609.018 459.617 613.148 449.078 620.828 449.007 C 624.025 451.025 623.072 450.544 624.973 454.556 L 623.339 458.198 L 623.066 458.779 C 622.168 462.464 620.062 468.148 616.699 470.128 C 615.712 474.389 612.313 483.087 613.036 485.82 C 614.995 487.683 620.725 492.169 621.865 493.839 C 625.952 497.761 626.989 497.177 633.334 497.069 L 634.532 497.043 C 639.748 495.515 640.993 495.913 646.012 497.392 C 649.512 499.283 649.053 500.936 649.467 504.295 C 652.288 503.679 654.368 503.034 657.093 502.184 C 660.523 502.658 661.336 503.849 663.933 506.17 L 664.861 507.014 C 666.608 506.61 706.734 477.999 710.608 474.28 C 719.474 465.769 732.546 465.474 738.536 460.244 L 738.35 458.622 C 733.075 453.477 722.598 448.273 715.715 445.382 C 712.44 440.438 710.252 435.758 707.626 430.457 C 717.645 400.675 694.247 400.786 697.944 387.764 C 700.564 387.178 701.335 387.33 703.328 385.663 L 703.051 383.291 L 699.339 385.241 C 692.11 384.046 682.12 376.362 688.414 368.399 C 699.559 364.211 719.96 380.161 727.035 381.581 C 734.716 383.123 733.29 353.828 752.532 380.301 C 755.923 381.06 772.239 384.897 774.264 383.298 C 774.804 382.871 780.112 372.389 785.142 370.224 C 791.264 367.589 804.102 370.153 808.965 367.373 C 816.266 363.199 824.852 356.834 832.308 352.518 C 840.275 347.906 848.15 344.747 856.304 340.662 z" fill="rgb(1,103,71)" transform="translate(0,0)"></path>
<path d="M 856.304 340.662 C 849.275 337.764 841.1 340.007 837.718 331.859 C 840.347 324.271 849.074 324.246 856.033 325.804 C 865.435 327.908 867.244 330.521 872.023 338.129 C 872.012 346.875 867.185 347.522 859.92 350.686 L 860.124 351.717 C 880.687 355.985 897.447 362.836 872.853 381.796 C 879.383 401.169 882.166 404.724 864.923 417.323 C 865.238 426.403 865.732 436.576 867.228 445.554 C 886.567 462.24 892.126 472.853 906.718 490.439 C 925.831 486.102 937.701 473.571 953.709 463.83 C 956.178 462.327 965.009 465.707 968.036 465.228 C 974.947 464.565 982.745 462.538 989.531 460.957 C 982.278 428.569 1012.85 435.176 1032 442.46 C 1043.44 446.813 1050.82 453.535 1063.64 454.375 C 1060.97 449.656 1059.67 448.858 1062.29 443.969 C 1071.12 437.911 1084.5 444.19 1090.65 451.931 C 1102.75 445.531 1136.8 339.982 1157.78 381.901 C 1165.19 404.477 1165.42 430.635 1175.37 452.272 C 1182.17 467.042 1213.82 466.704 1205.89 488.031 C 1203.27 495.059 1208.67 502.235 1203.72 507.707 C 1198.94 512.99 1187.23 519.366 1187.57 527.333 C 1193.23 528.514 1205.34 523.324 1216.52 524.883 C 1223.39 525.841 1242.58 534.774 1244.66 534.461 C 1255.37 532.846 1263.26 540.587 1274.22 543.766 C 1275.76 544.213 1282.15 549.769 1286.17 551.086 C 1293.01 553.325 1300.53 550.196 1305.18 550.827 C 1318.54 552.639 1336.68 562.654 1348.08 569.975 C 1349.43 570.847 1352.47 573.846 1353.56 574.889 L 1356.7 577.839 C 1396.98 580.074 1382.67 584.789 1379.89 617.652 C 1384.06 610.339 1387.26 605.284 1395.99 603.55 C 1414.03 599.966 1421.06 605.771 1427.22 620.261 L 1428.59 620.73 C 1448.57 627.489 1484.93 633.874 1505.93 636.075 C 1515.19 637.045 1536.55 632.918 1545.08 636.26 C 1576.48 648.565 1599.48 685.752 1629.87 700.822 C 1638.95 705.327 1646.42 706.36 1656.39 707.343 C 1668.53 708.54 1688.9 699.332 1695.6 710.257 C 1697.73 713.744 1697.79 722.945 1699.66 728.622 C 1711.85 765.572 1720.13 812.844 1704.99 849.875 C 1697.71 867.403 1687.59 884.017 1670.41 893.267 C 1664.34 896.536 1652.49 904.708 1649.13 910.025 C 1632.84 935.835 1619.16 960.839 1597.03 982.521 C 1593.92 985.562 1591.48 990.246 1589.96 994.218 C 1586.38 1001.94 1587.02 1018.97 1578.62 1022.15 C 1569.77 1025.5 1563.89 1012.08 1556.75 1017.85 C 1549.16 1034.74 1558.64 1061.86 1557.35 1083.54 C 1557.05 1104.7 1551.12 1125.12 1547.99 1145.94 C 1546.45 1156.11 1549.26 1167.84 1546.55 1177.59 C 1543.83 1187.39 1534.05 1188.46 1525.52 1189.41 C 1527.3 1199.97 1530.61 1212.35 1529.26 1223.02 C 1527.94 1233.39 1491.1 1294.98 1483.03 1306.38 C 1480.59 1309.82 1477.79 1312.82 1474.8 1315.79 C 1480.37 1319.14 1492.39 1328.68 1485.7 1334.71 C 1477.62 1341.99 1459.94 1338.11 1451.37 1343.11 C 1438.69 1350.51 1450.98 1370.95 1428.03 1366.15 C 1423.05 1365.11 1417.29 1365.06 1412.56 1364.04 C 1410.09 1364.11 1400.02 1362.49 1397.71 1361.83 C 1375.17 1355.41 1356.87 1362.03 1335.43 1368.82 C 1329.65 1370.65 1342.54 1394.15 1330.88 1397.99 C 1325.71 1396.76 1311.91 1386.71 1305.92 1382.92 C 1294.47 1387.62 1283.53 1393.48 1273.26 1400.39 C 1257.84 1410.61 1244.36 1423.2 1229.85 1434.37 C 1213.37 1447.04 1222.87 1452.6 1218.81 1471.55 L 1218.39 1473.46 C 1239.54 1504.31 1226.52 1505.13 1222.22 1536.76 C 1216.94 1575.68 1200.54 1567.93 1180.01 1591.06 C 1171.84 1600.27 1164.26 1633.07 1154.44 1646.26 C 1144.74 1659.28 1136.04 1673.16 1122.33 1683.73 C 1118.1 1688.33 1106.17 1696.32 1103.21 1701.56 C 1084.81 1734.11 1076.26 1774.13 1030.9 1776.88 C 1033.7 1763.93 1044.02 1742.11 1048.99 1728.05 C 1035.86 1721.95 1036.74 1721.62 1037.05 1707.57 C 1024.65 1700.66 1027.97 1700.68 1019.96 1689.21 C 1009.39 1674.08 991.207 1695.03 984.774 1670.28 C 983.724 1666.24 971.64 1661.72 967.24 1660.48 C 962.434 1664.97 954.681 1672.07 948.648 1666.15 C 947.412 1662.33 948.548 1657.1 949.074 1652.93 C 945.722 1646.78 940.701 1639.47 936.802 1633.46 C 935.306 1633.74 930.83 1634.74 929.464 1634.89 C 917.864 1636.17 909.865 1644.62 897.704 1645.21 C 895.144 1643.01 896.034 1644.37 895.204 1640.86 C 896.118 1635.61 905.589 1626.01 909.081 1620.97 C 914.521 1613.11 919.721 1604.46 925.665 1597.07 C 930.562 1590.99 938.006 1585.61 942.9 1579.38 C 949.618 1569.86 949.198 1562.46 960.175 1553.87 C 974.74 1542.48 991.874 1527.25 1010.44 1523.19 C 1012.33 1522.78 1025.46 1523.82 1027.87 1524 C 1027.37 1507.28 1026 1505.27 1039.05 1494.52 C 1038.61 1486.15 1039.85 1471.51 1035.65 1464.6 C 1029.56 1454.6 1018.7 1469.23 1010.41 1466.39 C 1008.63 1466.44 1003.76 1460.75 1003.91 1458.86 C 1005.11 1443.5 1025.74 1407.64 1009.4 1396.51 C 1006.84 1394.77 993.958 1401.91 989.945 1403.85 C 972.462 1399.22 962.617 1395.31 974.023 1376.77 C 974.523 1367.2 970.976 1343.31 970.041 1331.62 C 943.179 1322.43 905.931 1340.63 878.842 1325.76 C 876.45 1324.45 876.541 1319.89 876.271 1317.55 C 876.691 1315.32 877.206 1313.65 878.956 1312.12 C 888.661 1303.65 888.441 1289.32 889.399 1276.69 C 872.187 1272.27 877.502 1265.52 882.361 1252.72 C 883.09 1250.8 884.065 1244.1 884.577 1241.66 L 884.943 1242.37 C 879.583 1224.57 887.361 1204.74 883.656 1185.94 C 883.21 1183.68 883.448 1184.5 884.734 1181.86 C 891.342 1185.57 895.165 1192.72 896.946 1199.91 C 946.792 1272.72 1017.04 1315.36 1105.08 1324.71 C 1181.28 1333.45 1257.8 1311.14 1317.36 1262.82 C 1358.04 1229.7 1386.23 1187.88 1403.48 1138.62 C 1408.83 1123.33 1413.64 1109.58 1415.35 1093.19 C 1421.54 1092.17 1427.15 1091.55 1433.01 1089.34 C 1434.64 1086.12 1444.15 1077.51 1447.61 1076.28 C 1457.86 1062.86 1457.77 1046.3 1449.64 1031.89 L 1448.17 1031.57 C 1445.27 1027.87 1435.12 1017.67 1433.89 1015.72 C 1429.04 1012.9 1420.13 1011.47 1414.49 1010.34 C 1410.41 994.623 1408.12 981.808 1402.93 965.962 C 1389.15 923.912 1360.46 881.197 1328.18 850.799 C 1279.6 804.166 1216.28 775.938 1149.12 770.98 C 1132.56 769.693 1112.96 770.621 1096.39 771.171 L 1094.63 770.228 L 1080.78 688.656 C 1077.56 688.048 1067.8 689.875 1063.81 690.379 C 1050.86 688.883 1037.24 678.579 1034.77 665.296 C 1034.92 664.748 1035.04 662.652 1035.1 661.996 L 1033.88 660.629 C 1032.45 654.969 1032.7 653.851 1033.56 647.968 C 1031.34 643.822 1015.6 638.762 1010.35 636.7 C 997.506 631.733 984.729 626.593 972.023 621.281 C 942.008 608.843 911.911 596.606 881.732 584.572 C 859.278 575.566 837.951 566.522 814.87 559.24 C 810.973 563.203 809.065 564.451 803.556 565.901 C 800.299 566.375 798.348 566.825 795.043 566.757 L 793.87 567.283 C 790.494 567.028 791.779 567.753 789.546 565.847 C 780.139 556.326 783.264 556.961 778.878 545.956 C 770.549 544.856 743.542 537.444 734.98 534.993 C 718.362 530.235 690.71 524.12 675.158 517.752 C 659.509 532.055 646.989 531.604 633.624 515.93 C 633.385 512.948 633.672 514.091 631.955 511.416 C 633.568 510.589 632.993 510.896 634.18 509.265 C 627.975 507.36 621.281 505.875 616.934 501.021 C 615.909 499.376 616.045 499.333 615.42 497.455 C 617.318 494.657 617.844 495.27 621.865 493.839 C 625.952 497.761 626.989 497.177 633.334 497.069 L 634.532 497.043 C 639.748 495.515 640.993 495.913 646.012 497.392 C 649.512 499.283 649.053 500.936 649.467 504.295 C 652.288 503.679 654.368 503.034 657.093 502.184 C 660.523 502.658 661.336 503.849 663.933 506.17 L 664.861 507.014 C 666.608 506.61 706.734 477.999 710.608 474.28 C 719.474 465.769 732.546 465.474 738.536 460.244 L 738.35 458.622 C 733.075 453.477 722.598 448.273 715.715 445.382 C 712.44 440.438 710.252 435.758 707.626 430.457 C 717.645 400.675 694.247 400.786 697.944 387.764 C 700.564 387.178 701.335 387.33 703.328 385.663 L 703.051 383.291 L 699.339 385.241 C 692.11 384.046 682.12 376.362 688.414 368.399 C 699.559 364.211 719.96 380.161 727.035 381.581 C 734.716 383.123 733.29 353.828 752.532 380.301 C 755.923 381.06 772.239 384.897 774.264 383.298 C 774.804 382.871 780.112 372.389 785.142 370.224 C 791.264 367.589 804.102 370.153 808.965 367.373 C 816.266 363.199 824.852 356.834 832.308 352.518 C 840.275 347.906 848.15 344.747 856.304 340.662 z" fill="rgb(0,2,64)" transform="translate(0,0)"></path>
<path d="M 846.807 359.518 C 855.159 363.475 863.774 364.382 871.741 368.257 C 869.78 370.425 870.148 369.772 867.153 371.078 C 860.309 379.366 863.165 391.362 866.282 400.681 C 846.24 410.303 853.684 437.535 856.814 455.598 C 859.135 456.713 866.029 460.022 867.803 461.473 C 880.868 472.161 888.648 489.657 900.813 500.319 C 903.672 502.824 915.254 501.013 919.436 499.421 C 933.035 494.244 943.008 485.489 954.244 476.683 C 955.739 475.524 956.628 475.984 958.182 476.253 C 971.57 478.572 984.47 473.736 998.495 473.862 C 1006.77 473.936 1014.34 479.542 1020.44 475.091 C 1022.58 473.532 1023.94 470.746 1024.32 468.119 C 1019.15 459.715 1004.23 464.451 999.077 456.233 C 998.919 452.107 998.534 454.051 1000.5 450.228 C 1015.11 441.874 1038.55 458.588 1049.8 467.709 C 1051.84 465.981 1051.03 466.509 1053.57 465.561 C 1065 477.073 1078.39 493.85 1089.15 506.457 L 1139.54 564.648 L 1141.6 567.311 L 1142.11 570.386 C 1140.91 571.516 1140.32 571.798 1139.61 573.153 C 1124.71 583.94 1111.77 597.958 1096.42 608.315 C 1094.89 609.347 1093.62 611.601 1093.04 613.359 C 1094.1 619.496 1100.32 618.98 1104.77 616.709 C 1120.02 608.938 1129.56 592.456 1144.96 585.111 C 1146.02 585.378 1147.08 585.644 1148.15 585.91 C 1153.41 592.981 1155.31 595.338 1161.63 601.362 C 1157.08 605.936 1137.17 610.573 1146.1 622.932 C 1157.09 626.412 1168.29 605.944 1180.29 604.954 C 1180.29 604.954 1183.13 604.894 1183.33 605.199 C 1187.45 611.504 1192.46 618.303 1198.04 623.346 C 1200.85 625.887 1202.79 626.87 1206.37 626.683 C 1213.37 624.087 1224.47 607.982 1229.92 601.899 C 1237.88 593.015 1247.99 583.483 1253.91 573.226 C 1257.25 567.459 1256.86 558.03 1261.1 551.62 L 1263.48 551.501 C 1268.77 553.95 1271.25 557.232 1274.19 562.158 C 1276.49 560.851 1275.67 561.172 1278.33 560.525 C 1286.71 597.474 1294.27 630.965 1300.72 668.514 C 1303.63 685.432 1310.07 727.237 1314.73 742.29 L 1312.99 744.069 L 1310.36 743.967 C 1297.2 745.584 1284.72 751.555 1279.09 764.257 L 1278.67 766.595 L 1277.1 767.607 C 1238.78 748.929 1198.19 725.836 1160.1 706.371 C 1148.59 700.49 1107.45 679.294 1100.34 673.269 C 1097.23 680.058 1088.39 687.897 1080.78 688.656 C 1077.56 688.048 1067.8 689.875 1063.81 690.379 C 1050.86 688.883 1037.24 678.579 1034.77 665.296 C 1034.92 664.748 1035.04 662.652 1035.1 661.996 L 1033.88 660.629 C 1032.45 654.969 1032.7 653.851 1033.56 647.968 C 1031.34 643.822 1015.6 638.762 1010.35 636.7 C 997.506 631.733 984.729 626.593 972.023 621.281 C 942.008 608.843 911.911 596.606 881.732 584.572 C 859.278 575.566 837.951 566.522 814.87 559.24 C 810.973 563.203 809.065 564.451 803.556 565.901 C 800.299 566.375 798.348 566.825 795.043 566.757 L 793.87 567.283 C 790.494 567.028 791.779 567.753 789.546 565.847 C 780.139 556.326 783.264 556.961 778.878 545.956 C 780.004 543.448 779.151 544.402 781.54 543.01 C 783.483 539.874 785.856 536.548 787.948 533.469 C 785.457 522.377 783.236 502.946 781.412 490.831 C 777.041 461.811 769.386 426.687 770.007 397.726 L 773.05 398.21 C 782.955 399.121 788.712 396.12 789.293 385.49 C 789.363 384.079 789.401 382.667 789.407 381.255 C 819.074 381.638 821.348 371.296 846.807 359.518 z" fill="rgb(254,254,254)" transform="translate(0,0)"></path>
<path d="M 1035.13 642.493 C 1050.29 591.433 1127.71 632.678 1101.37 671.594 L 1100.34 673.269 C 1097.23 680.058 1088.39 687.897 1080.78 688.656 C 1077.56 688.048 1067.8 689.875 1063.81 690.379 C 1050.86 688.883 1037.24 678.579 1034.77 665.296 C 1034.92 664.748 1035.04 662.652 1035.1 661.996 L 1033.88 660.629 C 1032.45 654.969 1032.7 653.851 1033.56 647.968 C 1035.93 645.555 1035 647.057 1035.13 642.493 z" fill="rgb(1,103,71)" transform="translate(0,0)"></path>
<path d="M 787.948 533.469 C 791.225 536.097 800.854 538.448 804.381 535.387 C 812.881 540.761 813.63 543.885 814.24 553.888 C 863.616 572.614 912.682 592.15 961.417 612.488 C 984.19 621.757 1013.47 632.593 1035.13 642.493 C 1035 647.057 1035.93 645.555 1033.56 647.968 C 1031.34 643.822 1015.6 638.762 1010.35 636.7 C 997.506 631.733 984.729 626.593 972.023 621.281 C 942.008 608.843 911.911 596.606 881.732 584.572 C 859.278 575.566 837.951 566.522 814.87 559.24 C 810.973 563.203 809.065 564.451 803.556 565.901 C 800.299 566.375 798.348 566.825 795.043 566.757 L 793.87 567.283 C 790.494 567.028 791.779 567.753 789.546 565.847 C 780.139 556.326 783.264 556.961 778.878 545.956 C 780.004 543.448 779.151 544.402 781.54 543.01 C 783.483 539.874 785.856 536.548 787.948 533.469 z" fill="url(#Gradient1)" transform="translate(0,0)"></path>
<path d="M 791.792 550.225 C 792.641 552.129 794.383 553.486 796.438 553.843 C 798.492 554.199 800.59 553.509 802.031 552.002 C 806.53 556.905 808.413 553.52 814.87 559.24 C 810.973 563.203 809.065 564.451 803.556 565.901 C 800.299 566.375 798.348 566.825 795.043 566.757 L 794.333 564.865 C 789.628 562.275 789.743 562.928 789.9 558.009 C 790.516 555.411 791.147 552.816 791.792 550.225 z" fill="rgb(1,103,71)" transform="translate(0,0)"></path>
<path d="M 789.9 558.009 C 797.844 556.626 801.252 557.136 803.556 565.901 C 800.299 566.375 798.348 566.825 795.043 566.757 L 794.333 564.865 C 789.628 562.275 789.743 562.928 789.9 558.009 z" fill="rgb(12,69,49)" transform="translate(0,0)"></path>
<path d="M 791.792 550.225 C 790.512 547.353 791.561 543.977 794.244 542.337 C 796.926 540.697 800.409 541.302 802.382 543.75 C 804.354 546.198 804.204 549.73 802.031 552.002 C 800.59 553.509 798.492 554.199 796.438 553.843 C 794.383 553.486 792.641 552.129 791.792 550.225 z" fill="rgb(254,254,254)" transform="translate(0,0)"></path>
<path d="M 1100.34 673.269 L 1101.37 671.594 C 1155.9 697.061 1208.85 728.912 1263.05 755.417 C 1267.95 757.815 1274.62 761.312 1279.09 764.257 L 1278.67 766.595 L 1277.1 767.607 C 1238.78 748.929 1198.19 725.836 1160.1 706.371 C 1148.59 700.49 1107.45 679.294 1100.34 673.269 z" fill="rgb(12,69,49)" transform="translate(0,0)"></path>
<path d="M 1274.19 562.158 C 1276.49 560.851 1275.67 561.172 1278.33 560.525 C 1286.71 597.474 1294.27 630.965 1300.72 668.514 C 1303.63 685.432 1310.07 727.237 1314.73 742.29 L 1312.99 744.069 L 1310.36 743.967 C 1306.21 727.31 1302.92 705.189 1299.89 688.101 C 1295.58 664.06 1291.05 640.057 1286.32 616.095 C 1282.93 598.28 1279.6 579.456 1274.19 562.158 z" fill="rgb(12,69,49)" transform="translate(0,0)"></path>
<path d="M 1049.8 467.709 C 1051.84 465.981 1051.03 466.509 1053.57 465.561 C 1065 477.073 1078.39 493.85 1089.15 506.457 L 1139.54 564.648 L 1141.6 567.311 L 1142.11 570.386 C 1140.91 571.516 1140.32 571.798 1139.61 573.153 C 1133.59 567.558 1124.77 554.987 1119.03 548.109 L 1081.45 503.613 C 1071.91 492.267 1060.31 477.935 1049.8 467.709 z" fill="rgb(12,69,49)" transform="translate(0,0)"></path>
<path d="M 770.007 397.726 L 773.05 398.21 C 773.889 418.56 778.791 449.529 782.029 469.686 L 792.198 533.775 C 798.074 533.492 798.958 533.412 804.381 535.387 C 800.854 538.448 791.225 536.097 787.948 533.469 C 785.457 522.377 783.236 502.946 781.412 490.831 C 777.041 461.811 769.386 426.687 770.007 397.726 z" fill="rgb(12,69,49)" transform="translate(0,0)"></path>
<path d="M 1415.35 1093.19 C 1421.54 1092.17 1427.15 1091.55 1433.01 1089.34 C 1444.97 1116.18 1456.58 1142.55 1467.98 1169.55 C 1475.48 1187.31 1492.64 1233.2 1502.13 1249.05 C 1495 1265.14 1474.51 1306.39 1458.28 1313.07 C 1459.85 1314.48 1461.03 1315.79 1462.87 1316.73 C 1437.59 1320.12 1178.99 1355.71 1176.16 1358.49 C 1176.26 1361.41 1176.44 1362.4 1176.91 1365.2 C 1178.24 1377.25 1174.25 1390.8 1163.14 1397.04 C 1153.9 1403.08 1147.21 1403.45 1136.43 1403.49 C 1132.34 1436.03 1127.69 1468.49 1122.49 1500.87 C 1120.23 1515.63 1116.25 1536.12 1115.18 1550.4 C 1116.47 1551.93 1116.7 1552.31 1118.2 1553.62 C 1114.85 1553.5 1110.91 1553.71 1108.02 1552.28 L 1104.12 1552.63 C 1101.24 1556.55 1099.31 1559.4 1095.85 1562.88 C 1094.21 1562.7 1094.78 1563.08 1093.95 1562.11 L 1093.9 1559.51 C 1088.9 1553.03 1051.42 1535.57 1042.35 1529.25 L 1041.56 1527.14 L 1043.43 1524.62 L 1041.77 1523.95 C 1039.05 1520.47 1039.4 1514.69 1038.94 1509.66 C 1043.24 1505.64 1046.44 1502.1 1050.39 1497.75 C 1049.55 1485.26 1052.62 1465.15 1045.39 1456.76 C 1039.59 1450.03 1034.41 1450.66 1026.39 1450.4 L 1025.65 1450.67 C 1022.49 1452.58 1021.48 1453.51 1017.76 1453.91 L 1017.17 1452.74 C 1022.78 1437.35 1031.48 1411.29 1024.46 1394.45 C 1015.08 1371.96 996.52 1393.97 982.685 1388.92 C 981.805 1384.89 987.017 1374.93 986.399 1372.69 C 983.742 1363.05 983.469 1328.44 978.104 1322.85 C 971.855 1324.81 965.659 1319.51 959.321 1319.18 C 944.447 1318.39 929.312 1322.86 914.658 1322.3 C 901.692 1321.8 889.827 1318.15 876.271 1317.55 C 876.691 1315.32 877.206 1313.65 878.956 1312.12 C 888.661 1303.65 888.441 1289.32 889.399 1276.69 C 872.187 1272.27 877.502 1265.52 882.361 1252.72 C 883.09 1250.8 884.065 1244.1 884.577 1241.66 L 884.943 1242.37 C 879.583 1224.57 887.361 1204.74 883.656 1185.94 C 883.21 1183.68 883.448 1184.5 884.734 1181.86 C 891.342 1185.57 895.165 1192.72 896.946 1199.91 C 946.792 1272.72 1017.04 1315.36 1105.08 1324.71 C 1181.28 1333.45 1257.8 1311.14 1317.36 1262.82 C 1358.04 1229.7 1386.23 1187.88 1403.48 1138.62 C 1408.83 1123.33 1413.64 1109.58 1415.35 1093.19 z" fill="rgb(254,254,254)" transform="translate(0,0)"></path>
<path d="M 1108.94 1371.92 C 1111.23 1388.3 1118.19 1395.82 1132.98 1402.8 C 1128.59 1434.74 1123.88 1466.64 1118.86 1498.5 C 1117.28 1508.94 1112.83 1542.19 1109.85 1550.94 L 1108.02 1552.28 L 1104.12 1552.63 C 1101.24 1556.55 1099.31 1559.4 1095.85 1562.88 C 1094.21 1562.7 1094.78 1563.08 1093.95 1562.11 L 1093.9 1559.51 C 1088.9 1553.03 1051.42 1535.57 1042.35 1529.25 L 1041.56 1527.14 L 1043.43 1524.62 L 1041.77 1523.95 C 1039.05 1520.47 1039.4 1514.69 1038.94 1509.66 C 1043.24 1505.64 1046.44 1502.1 1050.39 1497.75 C 1049.55 1485.26 1052.62 1465.15 1045.39 1456.76 C 1039.59 1450.03 1034.41 1450.66 1026.39 1450.4 C 1026.21 1448.14 1025.49 1444.75 1027.36 1443.11 C 1053.58 1420.06 1081.62 1393.39 1108.94 1371.92 z" fill="rgb(254,254,254)" transform="translate(0,0)"></path>
<path d="M 1043.43 1524.62 L 1044.65 1525.22 C 1055.28 1530.42 1090.47 1552.77 1097.74 1554.86 L 1104.12 1552.63 C 1101.24 1556.55 1099.31 1559.4 1095.85 1562.88 C 1094.21 1562.7 1094.78 1563.08 1093.95 1562.11 L 1093.9 1559.51 C 1088.9 1553.03 1051.42 1535.57 1042.35 1529.25 L 1041.56 1527.14 L 1043.43 1524.62 z" fill="rgb(7,45,52)" transform="translate(0,0)"></path>
<path d="M 1163.14 1397.04 C 1154.89 1397.6 1147.45 1402.94 1137.55 1400.93 C 1087.42 1390.74 1121.09 1313.55 1163.9 1346.61 C 1170.75 1351.89 1171.65 1356.67 1175.89 1363.56 L 1176.91 1365.2 C 1178.24 1377.25 1174.25 1390.8 1163.14 1397.04 z" fill="rgb(1,103,71)" transform="translate(0,0)"></path>
<path d="M 1173.46 1353.3 C 1184.09 1352.47 1198.95 1349.87 1209.97 1348.29 L 1289.96 1336.49 C 1326.52 1331.69 1363.04 1326.62 1399.52 1321.29 C 1419.12 1318.6 1438.81 1316.53 1458.28 1313.07 C 1459.85 1314.48 1461.03 1315.79 1462.87 1316.73 C 1437.59 1320.12 1178.99 1355.71 1176.16 1358.49 C 1176.26 1361.41 1176.44 1362.4 1176.91 1365.2 L 1175.89 1363.56 C 1171.65 1356.67 1170.75 1351.89 1163.9 1346.61 C 1121.09 1313.55 1087.42 1390.74 1137.55 1400.93 C 1147.45 1402.94 1154.89 1397.6 1163.14 1397.04 C 1153.9 1403.08 1147.21 1403.45 1136.43 1403.49 C 1132.34 1436.03 1127.69 1468.49 1122.49 1500.87 C 1120.23 1515.63 1116.25 1536.12 1115.18 1550.4 C 1116.47 1551.93 1116.7 1552.31 1118.2 1553.62 C 1114.85 1553.5 1110.91 1553.71 1108.02 1552.28 L 1109.85 1550.94 C 1112.83 1542.19 1117.28 1508.94 1118.86 1498.5 C 1123.88 1466.64 1128.59 1434.74 1132.98 1402.8 C 1118.19 1395.82 1111.23 1388.3 1108.94 1371.92 C 1081.62 1393.39 1053.58 1420.06 1027.36 1443.11 C 1025.49 1444.75 1026.21 1448.14 1026.39 1450.4 L 1025.65 1450.67 C 1024.99 1448.62 1023.65 1445.46 1023.97 1443.3 C 1025.02 1436.13 1098.57 1374.19 1109.38 1366.06 C 1117.82 1332.04 1151.17 1328.5 1173.46 1353.3 z" fill="rgb(12,69,49)" transform="translate(0,0)"></path>
<path d="M 884.734 1181.86 C 891.342 1185.57 895.165 1192.72 896.946 1199.91 C 895.705 1210.73 894.255 1222.92 893.65 1233.76 C 909.341 1252.18 889.065 1250.42 891.326 1264.3 L 893.183 1264.63 C 897.082 1265.35 899.935 1265.4 902.529 1268.24 C 903.638 1274.64 898.106 1300.59 896.121 1308.25 C 895.768 1309.61 892.446 1315.11 891.5 1316.65 C 900.592 1318.87 909.731 1321.14 919.13 1320.47 C 937.058 1319.2 960.711 1313.5 978.104 1322.85 C 971.855 1324.81 965.659 1319.51 959.321 1319.18 C 944.447 1318.39 929.312 1322.86 914.658 1322.3 C 901.692 1321.8 889.827 1318.15 876.271 1317.55 C 876.691 1315.32 877.206 1313.65 878.956 1312.12 C 888.661 1303.65 888.441 1289.32 889.399 1276.69 C 872.187 1272.27 877.502 1265.52 882.361 1252.72 C 883.09 1250.8 884.065 1244.1 884.577 1241.66 L 884.943 1242.37 C 879.583 1224.57 887.361 1204.74 883.656 1185.94 C 883.21 1183.68 883.448 1184.5 884.734 1181.86 z" fill="rgb(1,4,77)" transform="translate(0,0)"></path>
<path d="M 1100.34 673.269 C 1107.45 679.294 1148.59 700.49 1160.1 706.371 C 1198.19 725.836 1238.78 748.929 1277.1 767.607 L 1278.67 766.595 L 1279.09 764.257 C 1284.72 751.555 1297.2 745.584 1310.36 743.967 L 1312.99 744.069 L 1314.73 742.29 L 1315.92 743.799 C 1346.08 748.871 1356.03 760.173 1352.83 791.234 C 1352.19 792.045 1350.81 793.687 1350.31 794.5 C 1360.91 798.215 1381.49 802.66 1393.01 805.552 L 1478.21 826.816 C 1488.82 829.447 1513.94 835.181 1522.83 839.374 C 1520.41 848.073 1526.32 861.147 1534.32 865.153 C 1519.12 893.488 1498.25 924.573 1481.61 952.347 C 1471.13 969.83 1452.83 1002.49 1440.49 1018.12 C 1437.74 1017.29 1436.6 1016.9 1433.89 1015.72 C 1429.04 1012.9 1420.13 1011.47 1414.49 1010.34 C 1410.41 994.623 1408.12 981.808 1402.93 965.962 C 1389.15 923.912 1360.46 881.197 1328.18 850.799 C 1279.6 804.166 1216.28 775.938 1149.12 770.98 C 1132.56 769.693 1112.96 770.621 1096.39 771.171 L 1094.63 770.228 L 1080.78 688.656 C 1088.39 687.897 1097.23 680.058 1100.34 673.269 z" fill="rgb(254,254,254)" transform="translate(0,0)"></path>
<path d="M 1314.73 742.29 L 1315.92 743.799 C 1346.08 748.871 1356.03 760.173 1352.83 791.234 C 1352.19 792.045 1350.81 793.687 1350.31 794.5 C 1349.46 801.426 1340.36 810.74 1334.3 814.086 C 1324.61 819.31 1313.25 820.49 1302.69 817.368 C 1277.98 810.115 1269.52 791.203 1277.1 767.607 L 1278.67 766.595 L 1279.09 764.257 C 1284.72 751.555 1297.2 745.584 1310.36 743.967 L 1312.99 744.069 L 1314.73 742.29 z" fill="rgb(1,103,71)" transform="translate(0,0)"></path>
<path d="M 1278.33 560.525 C 1289.83 565.544 1293.35 567.841 1304.67 560.625 C 1318.29 566.659 1335.16 572.297 1343.97 583.971 C 1353.75 587.54 1362.03 589.424 1372.16 591.643 C 1369.22 602.42 1367.56 611.231 1370.51 622.216 C 1373.98 635.15 1358.84 637.027 1363.9 647.578 C 1366.88 649.723 1367.54 649.584 1371.12 649.974 C 1377.69 647.249 1383.79 636.505 1388.82 630.653 C 1409.57 623.904 1417.49 625.689 1437.68 635.411 C 1438.91 636.006 1440.04 637.084 1441.07 638.003 C 1449.93 653.983 1467.54 689.798 1476.18 706.201 C 1486.56 725.903 1531.84 806.683 1534.74 821.509 C 1531.99 822.889 1531.45 822.766 1529.54 824.999 C 1527.88 830.327 1526.98 836.217 1522.83 839.374 C 1513.94 835.181 1488.82 829.447 1478.21 826.816 L 1393.01 805.552 C 1381.49 802.66 1360.91 798.215 1350.31 794.5 C 1350.81 793.687 1352.19 792.045 1352.83 791.234 C 1356.03 760.173 1346.08 748.871 1315.92 743.799 L 1314.73 742.29 C 1310.07 727.237 1303.63 685.432 1300.72 668.514 C 1294.27 630.965 1286.71 597.474 1278.33 560.525 z" fill="rgb(254,254,254)" transform="translate(0,0)"></path>
<path d="M 1352.83 791.234 C 1409.43 805.959 1468.03 819.083 1524.23 834.6 C 1526.1 829.802 1526.23 828.741 1529.54 824.999 C 1527.88 830.327 1526.98 836.217 1522.83 839.374 C 1513.94 835.181 1488.82 829.447 1478.21 826.816 L 1393.01 805.552 C 1381.49 802.66 1360.91 798.215 1350.31 794.5 C 1350.81 793.687 1352.19 792.045 1352.83 791.234 z" fill="rgb(12,69,49)" transform="translate(0,0)"></path>
<path d="M 1539.27 819.751 C 1543.63 817.956 1543.83 817.99 1548.63 817.992 C 1551.86 819.612 1560.25 822.569 1563.77 822.394 C 1567.07 824.428 1568.55 824.998 1570.77 828.219 L 1573.43 831.652 C 1578.07 839.986 1579.1 850.481 1571.43 857.389 L 1571.57 859.252 C 1593.3 873.947 1615.64 891.508 1636.64 907.49 C 1635.72 908.62 1634.65 910.009 1633.67 911.099 C 1620.26 933.872 1607.25 959.251 1586.86 976.502 C 1568.09 955.521 1561.98 966.117 1565.31 989.007 C 1553.63 1003.54 1538.26 1016.86 1542.05 1036.36 C 1549.5 1074.71 1544.62 1108.99 1536.98 1146.72 C 1535.4 1154.53 1536.83 1167.89 1536.52 1176.48 C 1509.01 1177.77 1510.78 1185.89 1517.28 1209.51 C 1520.99 1223.01 1511.99 1234.11 1505.33 1245.17 L 1502.13 1249.05 C 1492.64 1233.2 1475.48 1187.31 1467.98 1169.55 C 1456.58 1142.55 1444.97 1116.18 1433.01 1089.34 C 1434.64 1086.12 1444.15 1077.51 1447.61 1076.28 C 1457.86 1062.86 1457.77 1046.3 1449.64 1031.89 L 1448.17 1031.57 C 1445.27 1027.87 1435.12 1017.67 1433.89 1015.72 C 1436.6 1016.9 1437.74 1017.29 1440.49 1018.12 C 1452.83 1002.49 1471.13 969.83 1481.61 952.347 C 1498.25 924.573 1519.12 893.488 1534.32 865.153 C 1526.32 861.147 1520.41 848.073 1522.83 839.374 C 1526.98 836.217 1527.88 830.327 1529.54 824.999 C 1531.45 822.766 1531.99 822.889 1534.74 821.509 C 1537.6 821.433 1536.33 821.503 1539.27 819.751 z" fill="rgb(254,254,254)" transform="translate(0,0)"></path>
<path d="M 1539.27 819.751 C 1543.63 817.956 1543.83 817.99 1548.63 817.992 C 1551.86 819.612 1560.25 822.569 1563.77 822.394 C 1567.07 824.428 1568.55 824.998 1570.77 828.219 L 1573.43 831.652 C 1578.07 839.986 1579.1 850.481 1571.43 857.389 L 1570.05 856.825 C 1567.46 858.857 1567.49 858.643 1566.03 861.552 C 1559.49 868.896 1547.6 871.701 1538.63 867.41 L 1534.32 865.153 C 1526.32 861.147 1520.41 848.073 1522.83 839.374 C 1526.98 836.217 1527.88 830.327 1529.54 824.999 C 1531.45 822.766 1531.99 822.889 1534.74 821.509 C 1537.6 821.433 1536.33 821.503 1539.27 819.751 z" fill="rgb(1,103,71)" transform="translate(0,0)"></path>
<path d="M 1534.32 865.153 L 1538.63 867.41 C 1532.9 877.803 1526.37 888.249 1519.95 898.252 C 1493.75 939.096 1470 981.653 1443.45 1022.25 C 1445.22 1024.84 1448.4 1029.19 1449.64 1031.89 L 1448.17 1031.57 C 1445.27 1027.87 1435.12 1017.67 1433.89 1015.72 C 1436.6 1016.9 1437.74 1017.29 1440.49 1018.12 C 1452.83 1002.49 1471.13 969.83 1481.61 952.347 C 1498.25 924.573 1519.12 893.488 1534.32 865.153 z" fill="rgb(12,69,49)" transform="translate(0,0)"></path>
<path d="M 1433.01 1089.34 C 1434.64 1086.12 1444.15 1077.51 1447.61 1076.28 C 1443.47 1081.62 1441.84 1082.99 1436.8 1087.38 C 1444.63 1106.55 1457.84 1135.33 1465.84 1154.12 C 1471.39 1167.14 1499.52 1238.6 1505.33 1245.17 L 1502.13 1249.05 C 1492.64 1233.2 1475.48 1187.31 1467.98 1169.55 C 1456.58 1142.55 1444.97 1116.18 1433.01 1089.34 z" fill="rgb(12,69,49)" transform="translate(0,0)"></path>
<path d="M 1566.03 861.552 C 1567.49 858.643 1567.46 858.857 1570.05 856.825 L 1571.43 857.389 L 1571.57 859.252 C 1593.3 873.947 1615.64 891.508 1636.64 907.49 C 1635.72 908.62 1634.65 910.009 1633.67 911.099 C 1622.81 900.698 1578.75 867.338 1566.03 861.552 z" fill="rgb(12,69,49)" transform="translate(0,0)"></path>
<path d="M 1441.07 638.003 L 1443.82 635.996 C 1459.82 639.223 1486.45 646.874 1501.1 646.979 C 1538.93 647.251 1541.73 640.649 1571.58 669.171 C 1604.42 700.558 1634.07 727.544 1683.12 716.129 C 1685.08 723.296 1688.88 733.421 1690.31 739.033 L 1691.55 743.936 C 1696.73 752.942 1701.1 783.315 1701.55 794.254 L 1701.99 798.785 C 1661.02 809.433 1614.52 822.656 1573.43 831.652 L 1570.77 828.219 C 1568.55 824.998 1567.07 824.428 1563.77 822.394 C 1560.25 822.569 1551.86 819.612 1548.63 817.992 C 1543.83 817.99 1543.63 817.956 1539.27 819.751 C 1536.33 821.503 1537.6 821.433 1534.74 821.509 C 1531.84 806.683 1486.56 725.903 1476.18 706.201 C 1467.54 689.798 1449.93 653.983 1441.07 638.003 z" fill="rgb(254,254,254)" transform="translate(0,0)"></path>
<path d="M 1691.55 743.936 C 1696.73 752.942 1701.1 783.315 1701.55 794.254 L 1701.99 798.785 C 1661.02 809.433 1614.52 822.656 1573.43 831.652 L 1570.77 828.219 C 1568.55 824.998 1567.07 824.428 1563.77 822.394 C 1568.79 815.851 1677.78 750.878 1691.55 743.936 z" fill="rgb(254,254,254)" transform="translate(0,0)"></path>
<path d="M 1701.55 794.254 L 1701.99 798.785 C 1661.02 809.433 1614.52 822.656 1573.43 831.652 L 1570.77 828.219 C 1579.41 825.056 1597.07 821.36 1606.48 818.852 C 1638.13 810.426 1670.33 804.285 1701.55 794.254 z" fill="rgb(12,69,49)" transform="translate(0,0)"></path>
<path d="M 1441.07 638.003 L 1443.82 635.996 C 1451.14 647.9 1458.15 662.35 1464.64 674.887 L 1494.97 732.823 C 1504.08 750.056 1534.41 803.714 1539.27 819.751 C 1536.33 821.503 1537.6 821.433 1534.74 821.509 C 1531.84 806.683 1486.56 725.903 1476.18 706.201 C 1467.54 689.798 1449.93 653.983 1441.07 638.003 z" fill="rgb(12,69,49)" transform="translate(0,0)"></path>
<path d="M 1560.52 818.887 C 1571.31 809.854 1588.29 800.537 1600.37 792.915 C 1629.77 774.358 1661.03 757.639 1690.31 739.033 L 1691.55 743.936 C 1677.78 750.878 1568.79 815.851 1563.77 822.394 C 1560.25 822.569 1551.86 819.612 1548.63 817.992 C 1552.74 817.819 1556.44 818.411 1560.52 818.887 z" fill="rgb(12,69,49)" transform="translate(0,0)"></path>
<path d="M 1176.91 1365.2 C 1176.44 1362.4 1176.26 1361.41 1176.16 1358.49 C 1178.99 1355.71 1437.59 1320.12 1462.87 1316.73 C 1464.48 1322.36 1466.44 1324.25 1469.98 1328.87 C 1431.42 1329.37 1441.79 1347.93 1429.2 1354.95 L 1424.06 1354.79 C 1419.67 1353.62 1413.5 1353.93 1410.11 1352.87 C 1380.91 1343.77 1356.3 1347.52 1329.07 1360.49 C 1320.68 1364.48 1323.83 1368.68 1320.1 1370.76 C 1318.09 1369.23 1315.24 1366.78 1311.8 1367.98 C 1274.46 1380.92 1238.18 1410.1 1210.19 1437.38 C 1205.73 1441.73 1207.32 1468.96 1206.11 1478.11 C 1208.41 1481.48 1212.79 1486.55 1213.56 1489.96 L 1212.57 1493.53 C 1204.76 1515.94 1196.04 1538.03 1186.42 1559.73 C 1167.13 1561.57 1147.81 1563.17 1128.48 1564.54 C 1126.05 1559.9 1124.81 1556.85 1120.18 1554.12 L 1118.2 1553.62 C 1116.7 1552.31 1116.47 1551.93 1115.18 1550.4 C 1116.25 1536.12 1120.23 1515.63 1122.49 1500.87 C 1127.69 1468.49 1132.34 1436.03 1136.43 1403.49 C 1147.21 1403.45 1153.9 1403.08 1163.14 1397.04 C 1174.25 1390.8 1178.24 1377.25 1176.91 1365.2 z" fill="rgb(254,254,254)" transform="translate(0,0)"></path>
<path d="M 1212.57 1493.53 L 1216.61 1492.33 L 1217.93 1493.4 L 1217.74 1496.2 C 1217.31 1507.39 1209.47 1554.28 1199.7 1560.55 C 1187.3 1568.5 1160.89 1587.28 1159.27 1603.84 C 1156.64 1630.6 1130.88 1661.09 1111.65 1677.47 C 1123.08 1660.5 1121.07 1648.44 1130.97 1631.91 C 1133.97 1626.9 1136.83 1619.97 1130.43 1616.62 C 1114.51 1618.81 1112.9 1645.16 1109.62 1657.28 C 1108.66 1660.84 1105.44 1665.9 1103.5 1669.18 C 1098.02 1669.06 1080.4 1667.68 1080.47 1676.69 C 1080.48 1678.67 1081.88 1682.95 1082.5 1685.04 L 1081.88 1687.62 L 1077.18 1684.5 C 1073.81 1686.06 1068.19 1689.75 1067.66 1693.22 C 1065.94 1704.77 1057.17 1707.06 1050.97 1717.45 C 1049.52 1711.87 1048.17 1706.26 1046.94 1700.62 C 1031.49 1691.68 1031.69 1684.47 1019.9 1675.67 C 1007.49 1666.41 1004.84 1679.72 993.37 1663.16 C 991.926 1660.73 992.05 1660.89 989.51 1659.63 C 1015.25 1640.39 1068.7 1603.6 1094.27 1579.91 C 1094.47 1578.96 1094.68 1578.01 1094.88 1577.06 C 1091.38 1571.59 1091.91 1567.96 1093.95 1562.11 C 1094.78 1563.08 1094.21 1562.7 1095.85 1562.88 C 1099.31 1559.4 1101.24 1556.55 1104.12 1552.63 L 1108.02 1552.28 C 1110.91 1553.71 1114.85 1553.5 1118.2 1553.62 L 1120.18 1554.12 C 1124.81 1556.85 1126.05 1559.9 1128.48 1564.54 C 1147.81 1563.17 1167.13 1561.57 1186.42 1559.73 C 1196.04 1538.03 1204.76 1515.94 1212.57 1493.53 z" fill="rgb(254,254,254)" transform="translate(0,0)"></path>
<path d="M 1212.57 1493.53 L 1216.61 1492.33 L 1217.93 1493.4 L 1217.74 1496.2 C 1215.14 1497.72 1201.46 1538.64 1197.15 1544.97 C 1195.02 1548.11 1190.61 1559.53 1187.72 1564.07 C 1168.33 1565.96 1148.9 1567.38 1129.45 1568.33 C 1125.25 1580.12 1117.13 1590.34 1103.38 1584.73 C 1101.98 1584.14 1100.6 1583.51 1099.24 1582.84 C 1081.19 1597.94 1060.84 1612.62 1041.76 1626.42 C 1025.53 1638.16 1007.95 1649.33 993.37 1663.16 C 991.926 1660.73 992.05 1660.89 989.51 1659.63 C 1015.25 1640.39 1068.7 1603.6 1094.27 1579.91 C 1094.47 1578.96 1094.68 1578.01 1094.88 1577.06 C 1091.38 1571.59 1091.91 1567.96 1093.95 1562.11 C 1094.78 1563.08 1094.21 1562.7 1095.85 1562.88 C 1099.31 1559.4 1101.24 1556.55 1104.12 1552.63 L 1108.02 1552.28 C 1110.91 1553.71 1114.85 1553.5 1118.2 1553.62 L 1120.18 1554.12 C 1124.81 1556.85 1126.05 1559.9 1128.48 1564.54 C 1147.81 1563.17 1167.13 1561.57 1186.42 1559.73 C 1196.04 1538.03 1204.76 1515.94 1212.57 1493.53 z" fill="rgb(12,69,49)" transform="translate(0,0)"></path>
<path d="M 1104.12 1552.63 L 1108.02 1552.28 C 1110.91 1553.71 1114.85 1553.5 1118.2 1553.62 L 1120.18 1554.12 C 1122.42 1559.83 1127.49 1562.88 1126.4 1569.96 C 1125.11 1578.31 1113.94 1586.23 1105.52 1583.71 C 1102.81 1582.9 1098.21 1579.85 1096.88 1577.1 C 1096.21 1577.05 1095.51 1576.84 1094.88 1577.06 C 1091.38 1571.59 1091.91 1567.96 1093.95 1562.11 C 1094.78 1563.08 1094.21 1562.7 1095.85 1562.88 C 1099.31 1559.4 1101.24 1556.55 1104.12 1552.63 z" fill="rgb(1,103,71)" transform="translate(0,0)"></path>
<path d="M 1011.93 1533.78 C 1026.02 1536.84 1029.41 1535.4 1042.35 1529.25 C 1051.42 1535.57 1088.9 1553.03 1093.9 1559.51 L 1093.95 1562.11 C 1091.91 1567.96 1091.38 1571.59 1094.88 1577.06 C 1094.68 1578.01 1094.47 1578.96 1094.27 1579.91 C 1068.7 1603.6 1015.25 1640.39 989.51 1659.63 C 981.213 1653.45 970.374 1648.07 960.361 1652.21 C 954.066 1649.82 952.262 1628.84 942.301 1624.22 C 933.694 1620.22 928.687 1622.65 920.06 1625.27 C 934.621 1605.6 950.918 1587.59 964.277 1566.9 C 971.917 1555.07 998.306 1539.25 1011.93 1533.78 z" fill="rgb(254,254,254)" transform="translate(0,0)"></path>
<path d="M 1144.95 381.972 C 1153.91 402.711 1154.69 438.039 1165.81 460.009 C 1172.39 473.008 1184.34 472.1 1194.5 481.273 C 1195.85 482.491 1192.58 492.324 1191.89 494.254 C 1184.55 514.711 1175.21 511.503 1158.49 522.589 C 1155.67 524.465 1140.76 553.06 1137.67 557.433 C 1137.2 558.09 1139.01 563.195 1139.54 564.648 L 1089.15 506.457 C 1078.39 493.85 1065 477.073 1053.57 465.561 C 1068.17 472.946 1069.55 473.486 1082.73 463.867 C 1086.4 463.958 1091.56 464.244 1095.09 463.973 C 1105.93 457.106 1105.3 452.373 1111.69 442.453 C 1123.98 423.354 1133.22 401.105 1144.95 381.972 z" fill="rgb(254,254,254)" transform="translate(0,0)"></path>
<path d="M 740.999 385.861 C 752.235 391.694 757.896 394.822 770.007 397.726 C 769.386 426.687 777.041 461.811 781.412 490.831 C 783.236 502.946 785.457 522.377 787.948 533.469 C 785.856 536.548 783.483 539.874 781.54 543.01 C 779.151 544.402 780.004 543.448 778.878 545.956 C 770.549 544.856 743.542 537.444 734.98 534.993 C 718.362 530.235 690.71 524.12 675.158 517.752 L 676.951 514.635 C 682.019 510.097 687.677 503.974 692.394 499.775 C 698.064 497.32 703.009 498.008 708.185 493.925 C 712.744 490.394 717.143 478.094 723.416 478.433 C 732.148 478.906 754.668 469.549 750.929 458.012 C 747.743 448.181 730.948 439.788 722.408 434.908 C 720.416 414.792 722.415 414.405 716.701 392.834 C 719.384 396.762 718.542 396.892 722.173 398.325 C 730.041 397.223 734.755 391.381 740.999 385.861 z" fill="rgb(254,254,254)" transform="translate(0,0)"></path>
<path d="M 675.158 517.752 L 676.951 514.635 C 711.668 524.625 746.535 534.084 781.54 543.01 C 779.151 544.402 780.004 543.448 778.878 545.956 C 770.549 544.856 743.542 537.444 734.98 534.993 C 718.362 530.235 690.71 524.12 675.158 517.752 z" fill="rgb(12,69,49)" transform="translate(0,0)"></path>
<path d="M 1573.43 831.652 C 1614.52 822.656 1661.02 809.433 1701.99 798.785 C 1700.97 842.404 1688.49 873.32 1649.75 893.238 C 1645.57 895.383 1639.64 903.492 1636.64 907.49 C 1615.64 891.508 1593.3 873.947 1571.57 859.252 L 1571.43 857.389 C 1579.1 850.481 1578.07 839.986 1573.43 831.652 z" fill="rgb(254,254,254)" transform="translate(0,0)"></path>
<path d="M 1194.68 553.394 C 1210.62 520.391 1225.23 545.782 1248.03 549.857 L 1249.2 550.306 C 1243.98 568.562 1241.5 570.173 1227.24 582.226 C 1224.1 584.875 1221.06 595.848 1215.94 593.023 C 1212.19 590.482 1211.28 588.156 1206.34 587.205 C 1201.06 588.061 1199.3 590.174 1196.12 594.549 C 1195.41 595.504 1194.74 596.485 1194.11 597.491 C 1180.42 591.325 1176.3 589.571 1164.13 599.795 C 1162.09 600.599 1162.51 599.975 1161.63 601.362 C 1155.31 595.338 1153.41 592.981 1148.15 585.91 C 1149.65 583.396 1150.05 583.243 1152.08 581.153 C 1163.38 575.426 1164.99 571.902 1174.22 564.78 C 1177.06 562.592 1190.46 555.777 1194.68 553.394 z" fill="rgb(254,254,254)" transform="translate(0,0)"></path>
<path d="M 1148.15 585.91 C 1149.65 583.396 1150.05 583.243 1152.08 581.153 C 1155.96 588.763 1158.07 593.662 1164.13 599.795 C 1162.09 600.599 1162.51 599.975 1161.63 601.362 C 1155.31 595.338 1153.41 592.981 1148.15 585.91 z" fill="rgb(2,7,52)" transform="translate(0,0)"></path>
<path d="M 1141.6 567.311 C 1143.72 567.544 1146.75 568.21 1148.38 566.413 C 1157.26 556.664 1160.75 532.832 1174.56 528.044 L 1176.04 528.614 C 1174.28 534.667 1169.41 538.294 1169.11 542.601 L 1172.49 547.425 C 1170.1 555.417 1150.33 570.121 1142.11 570.386 L 1141.6 567.311 z" fill="rgb(254,254,254)" transform="translate(0,0)"></path>
<path d="M 616.934 501.021 C 615.909 499.376 616.045 499.333 615.42 497.455 C 617.318 494.657 617.844 495.27 621.865 493.839 C 625.952 497.761 626.989 497.177 633.334 497.069 L 634.532 497.043 C 630.57 500.273 622.634 501.944 617.961 499.941 L 616.934 501.021 z" fill="rgb(1,4,77)" transform="translate(0,0)"></path>
<path d="M 1248.03 549.857 C 1249.39 543.029 1247.05 541.079 1248.2 535.51 L 1248.93 534.754 C 1251.5 536.08 1251.32 536.372 1252.87 538.92 C 1253.09 542.763 1251.53 547.291 1249.2 550.306 L 1248.03 549.857 z" fill="rgb(1,4,77)" transform="translate(0,0)"></path>
<path d="M 1082.5 1692.72 C 1097.71 1708.66 1065.08 1747.43 1052.78 1758.22 L 1050.76 1759.44 C 1049.91 1757.56 1056.9 1744.03 1057.95 1739.4 C 1059.29 1733.52 1060.55 1728.2 1061.69 1722.11 C 1072.78 1710.49 1074.61 1706.95 1082.5 1692.72 z" fill="rgb(254,254,254)" transform="translate(0,0)"></path>
<path d="M 1109.34 1678.41 L 1109.95 1678.95 C 1107.16 1684.18 1102.42 1685.28 1097.31 1682.97 C 1095.14 1682.12 1095.69 1682.41 1093.85 1681.17 C 1095.83 1679.71 1103.9 1679.57 1108.21 1678.66 L 1109.34 1678.41 z" fill="rgb(254,254,254)" transform="translate(0,0)"></path>
<path d="M 1207.85 601.734 C 1208.95 602.542 1208.97 602.862 1209.8 604.028 C 1209.17 607.578 1206.31 610.113 1203.84 612.915 L 1201.81 609.988 C 1202.7 606.198 1204.88 604.91 1207.85 601.734 z" fill="rgb(254,254,254)" transform="translate(0,0)"></path>
<path d="M 599.091 462.18 C 599.932 461.849 600.773 461.518 601.614 461.187 C 609.018 459.617 613.148 449.078 620.828 449.007 C 624.025 451.025 623.072 450.544 624.973 454.556 L 623.339 458.198 L 623.066 458.779 C 622.168 462.464 620.062 468.148 616.699 470.128 C 615.712 474.389 612.313 483.087 613.036 485.82 C 614.995 487.683 620.725 492.169 621.865 493.839 C 617.844 495.27 617.318 494.657 615.42 497.455 C 616.045 499.333 615.909 499.376 616.934 501.021 C 621.281 505.875 627.975 507.36 634.18 509.265 C 632.993 510.896 633.568 510.589 631.955 511.416 C 633.672 514.091 633.385 512.948 633.624 515.93 C 646.989 531.604 659.509 532.055 675.158 517.752 C 690.71 524.12 718.362 530.235 734.98 534.993 C 743.542 537.444 770.549 544.856 778.878 545.956 C 783.264 556.961 780.139 556.326 789.546 565.847 C 791.779 567.753 790.494 567.028 793.87 567.283 L 795.043 566.757 C 798.348 566.825 800.299 566.375 803.556 565.901 C 809.065 564.451 810.973 563.203 814.87 559.24 C 837.951 566.522 859.278 575.566 881.732 584.572 C 911.911 596.606 942.008 608.843 972.023 621.281 C 984.729 626.593 997.506 631.733 1010.35 636.7 C 1015.6 638.762 1031.34 643.822 1033.56 647.968 C 1032.7 653.851 1032.45 654.969 1033.88 660.629 L 1035.1 661.996 C 1035.04 662.652 1034.92 664.748 1034.77 665.296 C 1037.24 678.579 1050.86 688.883 1063.81 690.379 C 1067.8 689.875 1077.56 688.048 1080.78 688.656 L 1094.63 770.228 C 1093.25 771.576 1093.17 771.838 1091.56 772.85 C 1081.56 772.987 1068.2 776.335 1058.28 778.53 C 1007.82 789.696 959.582 817.136 923.555 854.081 C 915.193 862.656 888.633 894.999 884.095 905.763 L 881.482 909.768 C 873.271 924.31 864.233 946.62 858.379 962.491 C 816.631 963.581 774.154 968.553 732.343 970.555 C 726.226 970.847 718.837 971.114 712.832 971.801 C 718.165 971.954 722.477 971.845 727.679 973.083 L 732.675 974.271 L 727.505 975.654 L 727.445 976.843 C 740.302 983.906 746.504 985.667 755.806 996.829 L 765.237 992.683 C 771.965 995.842 777.973 998.644 784.453 1002.27 C 800.646 1001.53 820.449 995.688 819.454 1018.61 C 819.087 1027.08 816.991 1028.03 812.356 1034.89 C 817.382 1041.46 824.127 1049.26 823.54 1057.92 C 822.811 1068.67 806.493 1069.1 815.214 1081.31 C 818.354 1085.7 817.923 1088.9 817.235 1093.98 L 816.676 1098.1 C 826.266 1095.9 841.48 1091.91 850.72 1090.41 C 852.158 1095.47 852.765 1097.55 853.285 1102.73 C 839.418 1103.62 825.789 1109.64 812.241 1109.72 C 798.247 1109.8 804.23 1093.54 806.314 1086.59 C 802.29 1084.57 800.923 1084.1 797.652 1081.15 C 793.268 1072.04 805.807 1063.24 812.074 1056.69 C 797.622 1030.42 809.618 1023.32 805.827 1014.87 C 799.54 1011.37 790.451 1013.38 783.135 1014.18 L 768.277 1006.28 C 766.992 1006.97 765.687 1007.63 764.364 1008.25 C 752.541 1013.64 740.04 994.33 724.395 987.472 C 700.155 976.846 693.779 989.627 682.672 985.484 C 675.312 977.625 667.321 969.832 660.422 961.632 C 657.132 957.72 662.298 947.974 660.93 942.914 C 657.716 939.178 654.257 937.951 649.809 935.721 C 644.232 920.595 649.222 894.533 653.072 878.849 L 645.199 876.113 C 628.691 885.436 612.537 893.8 601.124 908.521 C 595.845 914.169 579.411 911.465 573.952 914.412 C 549.607 927.555 554.417 933.543 524.436 931.843 L 518.293 921.048 C 508.185 923.882 477.549 937.451 472.351 922.057 C 470.665 917.065 475.198 911.924 477.894 907.712 C 478.061 904.252 475.065 902.473 473.407 896.095 C 475.642 887.788 477.935 879.498 480.287 871.224 C 467.816 884.604 442.138 908.744 421.321 893.5 C 414.95 888.834 421.173 881.08 420.786 874.688 C 413.684 865.34 372.658 881.83 391.305 847.37 C 381.829 836.981 348.121 783.151 370.125 773.88 C 372.164 774.241 375.349 774.867 377.342 774.554 C 388.32 772.832 394.805 722.331 400.296 718.351 C 411.178 710.238 439.58 705.826 449.995 699.282 C 474.1 684.134 477.855 677.4 502.532 700.771 C 508.031 682.263 511.913 667.22 516.861 647.74 C 523.077 623.266 536.475 595.12 531.943 568.615 C 531.554 566.34 529.763 564.698 527.709 563.843 C 520.18 560.71 517.156 545.626 512.469 538.662 C 510.15 535.215 508.19 532.693 505.416 529.301 C 502.889 525.28 502.016 524.052 503.021 519.562 C 507.836 513.441 517.541 513.598 526.779 509.377 L 528.085 508.764 C 533.47 510.772 538.903 512.925 544.275 514.994 C 536.591 506.884 506.917 485.821 508.66 476.214 C 522.84 462.219 537.511 474.359 551.382 471.342 C 552.405 468.613 552.21 468.514 554.287 466.565 C 562.514 465.034 571.01 466.891 579.177 466.726 C 586.269 466.582 586.14 470.715 591.335 470.597 C 595.294 468.563 596.555 465.889 599.091 462.18 z" fill="rgb(254,254,254)" transform="translate(0,0)"></path>
<path d="M 814.87 559.24 C 837.951 566.522 859.278 575.566 881.732 584.572 C 911.911 596.606 942.008 608.843 972.023 621.281 C 984.729 626.593 997.506 631.733 1010.35 636.7 C 1015.6 638.762 1031.34 643.822 1033.56 647.968 C 1032.7 653.851 1032.45 654.969 1033.88 660.629 L 1035.1 661.996 C 1035.04 662.652 1034.92 664.748 1034.77 665.296 C 1037.24 678.579 1050.86 688.883 1063.81 690.379 C 1067.8 689.875 1077.56 688.048 1080.78 688.656 L 1094.63 770.228 C 1093.25 771.576 1093.17 771.838 1091.56 772.85 C 1081.56 772.987 1068.2 776.335 1058.28 778.53 C 1007.82 789.696 959.582 817.136 923.555 854.081 C 915.193 862.656 888.633 894.999 884.095 905.763 C 874.684 900.727 849.895 882.434 840.113 875.24 C 814.346 856.287 785.811 836.718 760.694 817.196 C 768.053 810.194 770.006 796.227 764.781 787.388 C 762.316 785.694 762.858 784.193 762.936 781.64 C 761.466 776.522 754.296 769.205 750.028 765.885 C 748.489 765.911 727.639 760.145 726.637 759.306 L 728.553 758.189 C 730.349 755.359 741.172 719.665 743.381 712.734 C 759.125 663.884 774.514 614.921 789.546 565.847 C 791.779 567.753 790.494 567.028 793.87 567.283 L 795.043 566.757 C 798.348 566.825 800.299 566.375 803.556 565.901 C 809.065 564.451 810.973 563.203 814.87 559.24 z" fill="rgb(254,254,254)" transform="translate(0,0)"></path>
<path d="M 814.87 559.24 C 837.951 566.522 859.278 575.566 881.732 584.572 C 911.911 596.606 942.008 608.843 972.023 621.281 C 984.729 626.593 997.506 631.733 1010.35 636.7 C 1015.6 638.762 1031.34 643.822 1033.56 647.968 C 1032.7 653.851 1032.45 654.969 1033.88 660.629 C 1024.14 666.136 1006.87 673.479 996.151 678.312 L 927.782 709.167 L 826.955 755.278 C 812.02 762.018 777.376 777.746 762.936 781.64 C 761.466 776.522 754.296 769.205 750.028 765.885 C 748.489 765.911 727.639 760.145 726.637 759.306 L 728.553 758.189 C 730.349 755.359 741.172 719.665 743.381 712.734 C 759.125 663.884 774.514 614.921 789.546 565.847 C 791.779 567.753 790.494 567.028 793.87 567.283 L 795.043 566.757 C 798.348 566.825 800.299 566.375 803.556 565.901 C 809.065 564.451 810.973 563.203 814.87 559.24 z" fill="rgb(254,254,254)" transform="translate(0,0)"></path>
<path d="M 789.546 565.847 C 791.779 567.753 790.494 567.028 793.87 567.283 C 780.961 610.787 765.917 653.907 752.506 697.281 C 746.172 717.769 738.859 737.885 733.098 758.573 C 739.745 760.392 744.58 761.388 750.028 765.885 C 748.489 765.911 727.639 760.145 726.637 759.306 L 728.553 758.189 C 730.349 755.359 741.172 719.665 743.381 712.734 C 759.125 663.884 774.514 614.921 789.546 565.847 z" fill="rgb(12,69,49)" transform="translate(0,0)"></path>
<path d="M 1033.88 660.629 L 1035.1 661.996 C 1035.04 662.652 1034.92 664.748 1034.77 665.296 C 962.083 697.991 889.792 731.342 816.969 763.963 C 805.431 769.131 779.602 780.244 766.315 784.871 C 765.888 785.02 764.968 786.774 764.781 787.388 C 762.316 785.694 762.858 784.193 762.936 781.64 C 777.376 777.746 812.02 762.018 826.955 755.278 L 927.782 709.167 L 996.151 678.312 C 1006.87 673.479 1024.14 666.136 1033.88 660.629 z" fill="rgb(12,69,49)" transform="translate(0,0)"></path>
<path d="M 1063.81 690.379 C 1067.8 689.875 1077.56 688.048 1080.78 688.656 L 1094.63 770.228 C 1093.25 771.576 1093.17 771.838 1091.56 772.85 C 1087.36 763.627 1079.9 705.224 1077.5 690.944 C 1071.89 691.152 1069.41 690.992 1063.81 690.379 z" fill="rgb(12,69,49)" transform="translate(0,0)"></path>
<path d="M 547.21 576.818 C 555.245 573.984 565.132 564.934 572.268 559.752 C 589.105 547.527 615.402 524.691 633.624 515.93 C 646.989 531.604 659.509 532.055 675.158 517.752 C 690.71 524.12 718.362 530.235 734.98 534.993 C 743.542 537.444 770.549 544.856 778.878 545.956 C 783.264 556.961 780.139 556.326 789.546 565.847 C 774.514 614.921 759.125 663.884 743.381 712.734 C 741.172 719.665 730.349 755.359 728.553 758.189 C 712.892 758.998 697.076 765.849 691.576 781.779 C 690.813 784.325 691.588 783.385 689.65 784.938 C 674.347 773.545 656.92 762.074 641.129 750.575 C 613.116 729.964 584.887 709.646 556.448 689.625 C 549.363 684.683 530.994 671.216 524.18 668.661 C 524.688 665.753 524.859 663.946 525.108 661.044 C 529.683 641.952 536.277 624.616 542.084 605.932 C 544.088 599.484 545.201 580.784 547.21 576.818 z" fill="rgb(254,254,254)" transform="translate(0,0)"></path>
<path d="M 524.18 668.661 C 524.688 665.753 524.859 663.946 525.108 661.044 C 540.959 674.97 562.893 687.791 579.926 700.704 C 616.252 728.244 655.376 754.392 691.576 781.779 C 690.813 784.325 691.588 783.385 689.65 784.938 C 674.347 773.545 656.92 762.074 641.129 750.575 C 613.116 729.964 584.887 709.646 556.448 689.625 C 549.363 684.683 530.994 671.216 524.18 668.661 z" fill="rgb(12,69,49)" transform="translate(0,0)"></path>
<path d="M 599.091 462.18 C 599.932 461.849 600.773 461.518 601.614 461.187 C 609.018 459.617 613.148 449.078 620.828 449.007 C 624.025 451.025 623.072 450.544 624.973 454.556 L 623.339 458.198 L 623.066 458.779 C 622.168 462.464 620.062 468.148 616.699 470.128 C 615.712 474.389 612.313 483.087 613.036 485.82 C 614.995 487.683 620.725 492.169 621.865 493.839 C 617.844 495.27 617.318 494.657 615.42 497.455 C 616.045 499.333 615.909 499.376 616.934 501.021 C 621.281 505.875 627.975 507.36 634.18 509.265 C 632.993 510.896 633.568 510.589 631.955 511.416 C 633.672 514.091 633.385 512.948 633.624 515.93 C 615.402 524.691 589.105 547.527 572.268 559.752 C 565.132 564.934 555.245 573.984 547.21 576.818 C 545.201 580.784 544.088 599.484 542.084 605.932 C 536.277 624.616 529.683 641.952 525.108 661.044 C 524.859 663.946 524.688 665.753 524.18 668.661 C 522.189 677.926 514.919 712.009 507.967 715.945 C 497.262 722.006 488.169 691.404 471.005 700.218 C 456.621 707.605 439.779 719.078 423.885 722.227 C 417.421 723.364 416.504 723.719 410.257 726.053 C 405.845 739.473 401.16 753.235 396.857 766.352 C 396.438 767.63 398.807 772.15 393.543 775.186 C 391.597 776.308 391.044 779.169 390.575 781.266 L 389.013 784.059 C 385.016 786.85 375.643 789.877 374.182 791.305 C 375.171 802.982 398.742 834.487 402.625 846.559 C 403.035 847.836 398.732 857.03 397.777 859.081 C 405.997 859.486 425.096 858.108 429.892 862.025 C 433.954 869.463 431.356 877.345 430.897 885.936 C 435.966 885.555 437.782 885.512 442.774 884.27 C 456.271 880.912 478.574 852.964 490.945 861.553 C 494.823 869.187 486.607 909.568 482.697 917.982 C 487.173 917.758 491.339 917.611 495.677 916.382 C 508.637 912.708 515.765 906.527 526.948 916.798 C 528.3 918.036 529.621 919.309 530.908 920.614 L 549.068 917.22 C 564.408 898.135 575.581 906.301 590.173 898.49 C 612.374 886.606 624.119 868.155 651.558 864.181 C 654.839 865.667 666.01 869.616 665.814 872.254 C 664.722 886.978 661.121 909.979 659.731 924.391 C 672.196 936.001 680.802 939.8 672.905 957.41 C 675.855 959.041 679.249 960.811 682.092 962.558 C 683.638 966.157 685.306 969.875 686.765 973.493 C 695.23 972.383 704.277 971.509 712.832 971.801 C 718.165 971.954 722.477 971.845 727.679 973.083 L 732.675 974.271 L 727.505 975.654 L 727.445 976.843 C 740.302 983.906 746.504 985.667 755.806 996.829 L 765.237 992.683 C 771.965 995.842 777.973 998.644 784.453 1002.27 C 800.646 1001.53 820.449 995.688 819.454 1018.61 C 819.087 1027.08 816.991 1028.03 812.356 1034.89 C 817.382 1041.46 824.127 1049.26 823.54 1057.92 C 822.811 1068.67 806.493 1069.1 815.214 1081.31 C 818.354 1085.7 817.923 1088.9 817.235 1093.98 L 816.676 1098.1 C 826.266 1095.9 841.48 1091.91 850.72 1090.41 C 852.158 1095.47 852.765 1097.55 853.285 1102.73 C 839.418 1103.62 825.789 1109.64 812.241 1109.72 C 798.247 1109.8 804.23 1093.54 806.314 1086.59 C 802.29 1084.57 800.923 1084.1 797.652 1081.15 C 793.268 1072.04 805.807 1063.24 812.074 1056.69 C 797.622 1030.42 809.618 1023.32 805.827 1014.87 C 799.54 1011.37 790.451 1013.38 783.135 1014.18 L 768.277 1006.28 C 766.992 1006.97 765.687 1007.63 764.364 1008.25 C 752.541 1013.64 740.04 994.33 724.395 987.472 C 700.155 976.846 693.779 989.627 682.672 985.484 C 675.312 977.625 667.321 969.832 660.422 961.632 C 657.132 957.72 662.298 947.974 660.93 942.914 C 657.716 939.178 654.257 937.951 649.809 935.721 C 644.232 920.595 649.222 894.533 653.072 878.849 L 645.199 876.113 C 628.691 885.436 612.537 893.8 601.124 908.521 C 595.845 914.169 579.411 911.465 573.952 914.412 C 549.607 927.555 554.417 933.543 524.436 931.843 L 518.293 921.048 C 508.185 923.882 477.549 937.451 472.351 922.057 C 470.665 917.065 475.198 911.924 477.894 907.712 C 478.061 904.252 475.065 902.473 473.407 896.095 C 475.642 887.788 477.935 879.498 480.287 871.224 C 467.816 884.604 442.138 908.744 421.321 893.5 C 414.95 888.834 421.173 881.08 420.786 874.688 C 413.684 865.34 372.658 881.83 391.305 847.37 C 381.829 836.981 348.121 783.151 370.125 773.88 C 372.164 774.241 375.349 774.867 377.342 774.554 C 388.32 772.832 394.805 722.331 400.296 718.351 C 411.178 710.238 439.58 705.826 449.995 699.282 C 474.1 684.134 477.855 677.4 502.532 700.771 C 508.031 682.263 511.913 667.22 516.861 647.74 C 523.077 623.266 536.475 595.12 531.943 568.615 C 531.554 566.34 529.763 564.698 527.709 563.843 C 520.18 560.71 517.156 545.626 512.469 538.662 C 510.15 535.215 508.19 532.693 505.416 529.301 C 502.889 525.28 502.016 524.052 503.021 519.562 C 507.836 513.441 517.541 513.598 526.779 509.377 L 528.085 508.764 C 533.47 510.772 538.903 512.925 544.275 514.994 C 536.591 506.884 506.917 485.821 508.66 476.214 C 522.84 462.219 537.511 474.359 551.382 471.342 C 552.405 468.613 552.21 468.514 554.287 466.565 C 562.514 465.034 571.01 466.891 579.177 466.726 C 586.269 466.582 586.14 470.715 591.335 470.597 C 595.294 468.563 596.555 465.889 599.091 462.18 z" fill="rgb(0,2,64)" transform="translate(0,0)"></path>
<path d="M 572.78 480.151 C 587.997 483.286 592.758 488.908 605.66 475.304 C 608.991 471.791 611.771 468.39 616.699 470.128 C 615.712 474.389 612.313 483.087 613.036 485.82 C 614.995 487.683 620.725 492.169 621.865 493.839 C 617.844 495.27 617.318 494.657 615.42 497.455 C 616.045 499.333 615.909 499.376 616.934 501.021 C 621.281 505.875 627.975 507.36 634.18 509.265 C 632.993 510.896 633.568 510.589 631.955 511.416 C 633.672 514.091 633.385 512.948 633.624 515.93 C 615.402 524.691 589.105 547.527 572.268 559.752 C 565.132 564.934 555.245 573.984 547.21 576.818 L 546.771 575.751 C 546.148 571.096 545.318 567.42 544.315 562.867 C 532.02 553.235 526.397 539.677 518.668 525.544 L 523.223 523.601 C 523.964 523.586 524.54 523.64 525.234 523.349 C 538.308 517.87 547.675 538.34 559.951 526.264 C 565.945 512.774 532.008 487.827 522.191 480.575 C 534.067 481.184 541.077 483.409 552.522 486.877 L 556.171 483.426 C 559.396 483.423 559.913 486.29 563.862 489.779 L 565.785 489.457 C 569.702 486.287 570.213 484.673 572.78 480.151 z" fill="rgb(254,254,254)" transform="translate(0,0)"></path>
<path d="M 546.771 575.751 C 558.326 564.323 617.851 518.7 631.955 511.416 C 633.672 514.091 633.385 512.948 633.624 515.93 C 615.402 524.691 589.105 547.527 572.268 559.752 C 565.132 564.934 555.245 573.984 547.21 576.818 L 546.771 575.751 z" fill="rgb(7,45,52)" transform="translate(0,0)"></path>
<path d="M 623.066 458.779 C 621.088 461.514 620.693 463.248 617.422 463.262 C 616.092 459.256 617.307 454.096 621.062 451.908 C 623.551 454.046 622.753 453.843 623.339 458.198 L 623.066 458.779 z" fill="rgb(1,4,77)" transform="translate(0,0)"></path>
<path d="M 728.553 758.189 L 726.637 759.306 C 727.639 760.145 748.489 765.911 750.028 765.885 C 754.296 769.205 761.466 776.522 762.936 781.64 C 762.858 784.193 762.316 785.694 764.781 787.388 C 770.006 796.227 768.053 810.194 760.694 817.196 C 758.263 818.344 759.274 817.471 758.121 820.441 C 747.425 835.323 717.511 840.676 701.417 826.7 C 701.206 826.413 700.995 826.126 700.785 825.839 C 698.006 821.643 697.329 820.569 693.658 817.19 C 686.718 809.759 684.802 794.014 689.65 784.938 C 691.588 783.385 690.813 784.325 691.576 781.779 C 697.076 765.849 712.892 758.998 728.553 758.189 z" fill="rgb(1,103,71)" transform="translate(0,0)"></path>
<path d="M 580.247 858.628 C 600.928 858.356 605.978 885.194 581.468 893.629 C 565.159 892.781 561.617 882.223 564 867.74 L 565.105 864.4 C 570.005 860.992 574.422 859.503 580.247 858.628 z" fill="rgb(12,69,49)" transform="translate(0,0)"></path>
<path d="M 565.105 864.4 C 570.005 860.992 574.422 859.503 580.247 858.628 L 578.727 859.653 C 576.567 861.093 575.283 861.69 572.953 862.814 C 571.687 866.396 571.014 868.737 570.081 872.424 C 575.693 871.658 569.991 870.293 574.488 869.987 L 572.251 875.102 C 574.251 880.727 577.336 881.996 583.025 882.537 C 583.019 886.978 583.337 888.071 580.709 891.746 L 581.468 893.629 C 565.159 892.781 561.617 882.223 564 867.74 L 565.105 864.4 z" fill="rgb(7,45,52)" transform="translate(0,0)"></path>
<path d="M 580.709 891.746 C 572.936 887.262 571.71 883.698 572.251 875.102 C 574.251 880.727 577.336 881.996 583.025 882.537 C 583.019 886.978 583.337 888.071 580.709 891.746 z" fill="rgb(1,103,71)" transform="translate(0,0)"></path>
<path d="M 574.488 869.987 C 578.763 869.311 579.652 868.824 583.456 870.393 C 587.386 874.82 585.884 877.827 583.025 882.537 C 577.336 881.996 574.251 880.727 572.251 875.102 L 574.488 869.987 z" fill="rgb(65,175,145)" transform="translate(0,0)"></path>
<path d="M 390.575 781.266 C 403.05 785.228 440.202 803.543 454.223 810.467 C 490.091 828.182 530.296 845.72 565.105 864.4 L 564 867.74 C 557.069 864.807 547.047 859.413 539.947 856.017 L 484.509 829.674 C 454.321 815.291 418.073 799.429 389.013 784.059 L 390.575 781.266 z" fill="rgb(12,69,49)" transform="translate(0,0)"></path>
<path d="M 758.121 820.441 C 759.274 817.471 758.263 818.344 760.694 817.196 C 785.811 836.718 814.346 856.287 840.113 875.24 C 849.895 882.434 874.684 900.727 884.095 905.763 L 881.482 909.768 C 840.009 880.483 798.886 850.705 758.121 820.441 z" fill="rgb(12,69,49)" transform="translate(0,0)"></path>
<path d="M 693.658 817.19 C 697.329 820.569 698.006 821.643 700.785 825.839 C 699.717 824.959 695.95 821.861 694.86 822.275 C 678.422 828.509 625.004 859.351 611.233 860.348 C 613.796 854.611 681.293 826.248 693.658 817.19 z" fill="rgb(12,69,49)" transform="translate(0,0)"></path>
<path d="M 732.675 974.271 C 739.343 975.097 756.681 973.025 764.144 972.782 C 793.973 971.81 827.507 966.904 856.939 966.972 C 843.877 1013.07 842.739 1043.49 850.72 1090.41 C 841.48 1091.91 826.266 1095.9 816.676 1098.1 L 817.235 1093.98 C 817.923 1088.9 818.354 1085.7 815.214 1081.31 C 806.493 1069.1 822.811 1068.67 823.54 1057.92 C 824.127 1049.26 817.382 1041.46 812.356 1034.89 C 816.991 1028.03 819.087 1027.08 819.454 1018.61 C 820.449 995.688 800.646 1001.53 784.453 1002.27 C 777.973 998.644 771.965 995.842 765.237 992.683 L 755.806 996.829 C 746.504 985.667 740.302 983.906 727.445 976.843 L 727.505 975.654 L 732.675 974.271 z" fill="rgb(254,254,254)" transform="translate(0,0)"></path>
<path d="M 1113.33 781.421 C 1113.49 781.408 1113.65 781.394 1113.81 781.381 C 1188.04 777.801 1260.69 803.619 1316.01 853.239 C 1367.83 900.3 1403.69 970.977 1406.94 1041.22 C 1410.43 1109.37 1386.38 1176.06 1340.2 1226.29 C 1291.96 1278.65 1224.11 1312.47 1152.75 1315.29 C 1100.14 1318.44 1047.13 1307.18 1000.14 1282.23 C 986.999 1275.25 963.999 1257.01 952.224 1247.22 C 900.916 1204.57 863.064 1130.2 857.527 1064.06 C 851.528 995.028 873.799 926.518 919.243 874.211 C 969.784 815.181 1037.3 787.262 1113.33 781.421 z" fill="rgb(254,254,254)" transform="translate(0,0)"></path>
<path d="M 1236.92 951.383 C 1270.53 948.296 1285.9 972.795 1299.48 998.684 C 1304.65 1008.55 1326.01 1039.59 1321.22 1050.12 C 1314.06 1065.87 1297.18 1108.04 1282.86 1116.24 C 1283.04 1146 1286.81 1176.14 1288.06 1206.09 C 1288.7 1221.29 1297.9 1259.75 1275.37 1262.94 C 1262.48 1264.76 1254.6 1257.37 1252.71 1244.69 C 1250.64 1230.73 1249.44 1216.47 1248.03 1202.22 C 1245.24 1172.33 1242.22 1142.47 1238.96 1112.62 C 1232.19 1157.79 1228.13 1203.97 1221.58 1249.18 C 1220.31 1257.97 1211.74 1265.11 1202.99 1265.61 C 1197.76 1265.87 1192.65 1263.97 1188.85 1260.36 C 1184.87 1256.62 1182.05 1249.94 1182.41 1244.42 C 1186.94 1173.76 1199.56 1097.52 1198.79 1026.86 C 1188.18 1053.27 1171.31 1086.86 1159.18 1114.11 C 1145.34 1099.12 1121.16 1065.5 1108.53 1048.55 C 1102.42 1040.32 1096.26 1032.13 1090.06 1023.97 C 1091.91 1069.06 1094.24 1114.12 1097.03 1159.17 C 1098.21 1176.72 1099.49 1194.27 1100.87 1211.81 C 1101.87 1224.09 1104.38 1241.03 1103.01 1252.3 C 1100.88 1269.71 1082.72 1275.7 1069.3 1265.51 C 1061.87 1259.87 1060.59 1257.48 1055.82 1250.28 C 1050.82 1262.45 1041.14 1274.24 1027.5 1271.87 C 1000.79 1267.22 1004.67 1237.46 1006.63 1219.9 C 1010.02 1189.57 1010.52 1159.94 1014.27 1130.66 C 995.451 1113.67 977.629 1089.63 959.193 1071.69 C 956.703 1069.27 953.791 1063.83 954.981 1060.21 C 963.169 1035.33 981.989 1011.99 994.906 988.925 C 1007.18 967.545 1031.11 959.698 1055.97 963.13 C 1061.89 963.936 1067.39 966.625 1071.66 970.8 C 1079.82 978.667 1094.46 1001.09 1101.79 1011.26 C 1118.3 1034.22 1134.53 1057.88 1151.44 1080.54 C 1158.53 1062.82 1166.21 1041.93 1172.6 1023.96 C 1185.88 986.667 1190.46 956.736 1236.92 951.383 z" fill="rgb(1,103,71)" transform="translate(0,0)"></path>
<path d="M 1278.23 1009.5 C 1283.2 1012.81 1297.15 1039.71 1300.44 1046.22 C 1296.25 1056.2 1290.54 1066.91 1285.62 1076.67 C 1283.53 1081.45 1281.04 1086.37 1278.75 1091.08 C 1277.98 1063.89 1277.81 1036.69 1278.23 1009.5 z" fill="rgb(254,254,254)" transform="translate(0,0)"></path>
<path d="M 997.378 1037.7 C 1002.17 1045.91 1012.62 1088.71 1013.45 1099.25 C 1010.31 1096.77 1006.59 1092.92 1003.64 1090.05 C 997.754 1083.56 984.483 1069.5 980.989 1062.77 C 984.903 1055.38 992.499 1044.87 997.378 1037.7 z" fill="rgb(254,254,254)" transform="translate(0,0)"></path>
<path d="M 1035.32 880.211 C 1056.71 875.78 1077.64 889.517 1082.09 910.9 C 1086.53 932.282 1072.81 953.223 1051.43 957.683 C 1030.03 962.147 1009.06 948.409 1004.61 927.005 C 1000.16 905.602 1013.92 884.646 1035.32 880.211 z" fill="rgb(1,103,71)" transform="translate(0,0)"></path>
<path d="M 1231.89 872.083 C 1251.92 869.112 1270.55 882.987 1273.45 903.03 C 1276.34 923.073 1262.4 941.653 1242.35 944.474 C 1222.4 947.279 1203.94 933.425 1201.06 913.487 C 1198.18 893.55 1211.96 875.037 1231.89 872.083 z" fill="rgb(1,103,71)" transform="translate(0,0)"></path>
<path d="M 624.973 454.556 L 625.334 455.868 C 627.538 464.126 629.228 472.021 626.108 480.087 C 630.772 486.77 640.177 492.153 646.012 497.392 C 640.993 495.913 639.748 495.515 634.532 497.043 L 633.334 497.069 C 626.989 497.177 625.952 497.761 621.865 493.839 C 620.725 492.169 614.995 487.683 613.036 485.82 C 612.313 483.087 615.712 474.389 616.699 470.128 C 620.062 468.148 622.168 462.464 623.066 458.779 L 623.339 458.198 L 624.973 454.556 z" fill="rgb(2,7,52)" transform="translate(0,0)"></path>
<metadata><recraft-signature>{"signed_by": "recraft", "signature_b64": "fzboLQ2Th6zgGwSmiaBBHJYMQYYjt7RBlsTBm4J6g4xTq2OnEu3xM29T7wwKe4IYTqDeKawiA+dS1Xnu5McwBw==", "signing_algo": "Ed25519", "generation_timestamp": 1782919057, "identifier": "11603810-dcb7-400c-970f-fad036a889bb"}</recraft-signature></metadata></svg>