<svg xmlns="http://www.w3.org/2000/svg" height="512" preserveAspectRatio="none" style="display: block;" version="1.1" viewBox="0 0 2048 2048" width="512">
<path d="M 995.181 220.963 C 1283.1 215.58 1509.87 401.785 1562.01 687.193 C 1583.12 802.75 1568.45 845.518 1529.72 951.833 C 1422.93 1244.91 1218.4 1549.5 1037.29 1808.5 L 1025.02 1826.11 C 1003.97 1800.53 984.946 1767.51 966.115 1739.92 C 824.363 1532.24 455.384 1000.15 477.332 738.96 C 502.132 443.847 711.289 252.22 995.181 220.963 z M 1041.56 1087.71 C 1230.07 1078.34 1375.2 917.789 1365.57 729.295 C 1355.93 540.801 1195.19 395.884 1006.71 405.775 C 818.59 415.646 674.014 576.015 683.629 764.146 C 693.244 952.277 853.416 1097.07 1041.56 1087.71 z" fill="rgb(2,104,243)" transform="translate(0,0)"></path>
<path d="M 1012.94 583.603 C 1099.99 577.085 1175.82 642.42 1182.24 729.474 C 1188.66 816.529 1123.24 892.284 1036.18 898.61 C 949.254 904.927 873.642 839.633 867.23 752.714 C 860.818 665.794 926.029 590.111 1012.94 583.603 z M 1150.03 757.263 C 1155.49 748.404 1148.75 745.037 1140.91 744.172 C 1135.45 753.551 1139.95 757.028 1150.03 757.263 z" fill="rgb(2,104,243)" transform="translate(0,0)"></path>
<path d="M 1048.85 662.193 L 1051.82 661.712 C 1055.34 663.306 1115.14 736.085 1123.82 750.412 C 1118.64 785.546 1060.58 704.429 1057.1 699.265 L 1057.17 802.911 C 1057.18 818.912 1057.73 837.495 1056.4 853.036 C 1055.38 865.016 1037.55 871.348 1032.85 853.067 C 1029.08 838.426 1035.2 768.447 1030.75 759.815 C 1017.53 757.97 1021.3 773.983 1021.34 782.936 C 1021.39 797.567 1024.41 852.146 1016.81 861.612 C 1012.98 866.385 1002.14 865.803 998.41 861.332 C 991.198 852.687 995.104 807.974 995.11 796.477 L 995.181 699.265 C 992.455 701.875 915.012 781.927 920.955 747.088 C 922.457 738.282 989.32 669.341 999.655 662.193 C 1016.01 662.306 1032.51 662.545 1048.85 662.193 z" fill="rgb(254,254,254)" transform="translate(0,0)"></path>
<path d="M 1021.91 610.372 C 1034.14 606.264 1047.38 612.916 1051.38 625.185 C 1055.39 637.455 1048.62 650.637 1036.32 654.537 C 1024.16 658.391 1011.17 651.725 1007.22 639.602 C 1003.26 627.479 1009.82 614.432 1021.91 610.372 z" fill="rgb(254,254,254)" transform="translate(0,0)"></path>
<path d="M 1325.54 798.679 L 1326.42 798.747 C 1320.59 815.45 1318.1 834.465 1312.03 851.773 C 1227.72 1085.33 906.148 1127.4 764.137 903.977 C 745.584 874.833 726.741 836.222 724.412 801.775 C 795.942 857.438 844.394 883.951 930.85 904.315 C 1051.32 932.691 1175.01 903.911 1275.37 832.793 C 1290.6 821.998 1308.38 805.192 1325.54 798.679 z" fill="rgb(2,104,243)" transform="translate(0,0)"></path>
<path d="M 1014.59 442.523 C 1170.36 440.89 1299.06 546.353 1325.54 699.265 C 1253.59 620.54 1153.16 574.375 1048.85 557.905 C 911.094 550.554 831.363 605.315 724.412 683.64 C 727.449 641.56 763.02 580.079 791.442 548.574 C 850.323 483.303 926.583 446.717 1014.59 442.523 z" fill="rgb(2,104,243)" transform="translate(0,0)"></path>
<path d="M 777.322 749.161 C 781.843 749.416 787.656 749.2 792.28 749.161 L 795.739 762.111 L 795.739 766.729 C 799.654 773.106 800.765 776.047 802.761 782.936 C 798.612 785.05 796.192 786.654 792.28 789.24 C 783.315 775.473 779.9 765.462 777.322 749.161 z" fill="rgb(2,104,243)" transform="translate(0,0)"></path>
<path d="M 795.739 762.111 L 795.739 766.729 C 790.555 769.483 790.436 769.753 784.986 769.44 L 785.282 769.248 L 783.017 768.061 C 785.241 763.39 791.156 763.015 795.739 762.111 z" fill="rgb(254,254,254)" transform="translate(0,0)"></path>
<path d="M 866.373 617.904 C 888.405 625.892 855.635 642.619 848.124 650.187 C 844.246 646.184 841.43 643.109 836.945 639.701 C 846.397 629.776 853.756 623.569 866.373 617.904 z" fill="rgb(2,104,243)" transform="translate(0,0)"></path>
<path d="M 832.965 639.701 L 843.961 650.187 C 838.197 654.343 830.756 658.511 824.548 662.193 C 820.653 666.87 815.591 658.519 815.232 654.779 C 823.353 648.573 825.88 647.701 832.965 639.701 z" fill="rgb(2,104,243)" transform="translate(0,0)"></path>
<path d="M 856.712 835.978 C 867.626 838.294 885.674 843.056 871.001 854.278 C 858.637 854.733 846.41 847.569 856.712 835.978 z" fill="rgb(2,104,243)" transform="translate(0,0)"></path>
<path d="M 818.672 806.917 C 822.431 807.574 829.781 814.196 832.965 816.887 C 829.16 820.323 827.651 822.477 824.548 826.477 C 819.651 826.438 812.89 820.172 808.891 816.887 L 818.672 806.917 z" fill="rgb(2,104,243)" transform="translate(0,0)"></path>
<path d="M 836.945 820.562 C 842.108 823.578 846.942 827.654 851.678 831.366 C 849.142 835.453 846.968 838.006 843.961 841.705 C 838.182 838.627 832.732 834.933 827.235 831.366 C 830.475 827.899 833.758 824.112 836.945 820.562 z" fill="rgb(2,104,243)" transform="translate(0,0)"></path>
<path d="M 808.891 662.193 C 813.613 664.564 815 666.286 818.672 669.996 C 814.998 675.903 813.403 678.367 808.891 683.64 C 804.738 681.274 799.824 677.888 795.739 675.24 C 799.372 669.981 804.05 666.42 808.891 662.193 z" fill="rgb(2,104,243)" transform="translate(0,0)"></path>
<path d="M 777.322 727.983 L 792.28 727.983 L 792.28 744.172 C 787.44 744.305 782.198 744.185 777.322 744.172 C 777.112 738.828 777.262 733.341 777.322 727.983 z" fill="rgb(2,104,243)" transform="translate(0,0)"></path>
<path d="M 802.761 786.199 C 806.733 787.933 811.727 795.056 814.279 798.679 C 810.686 800.998 806.31 804.357 802.761 806.917 C 798.817 803.314 795.158 797.191 792.28 792.63 C 795.347 791.298 799.825 788.13 802.761 786.199 z" fill="rgb(2,104,243)" transform="translate(0,0)"></path>
<path d="M 792.28 683.64 C 798.696 687.967 808.457 700.555 795.739 702.59 C 780.068 699.753 783.674 694.179 792.28 683.64 z" fill="rgb(2,104,243)" transform="translate(0,0)"></path>
<path d="M 781.806 706.523 C 795.506 706.965 796.637 709.161 792.28 721.705 L 777.322 721.705 C 778.39 716.972 780.341 711.245 781.806 706.523 z" fill="rgb(2,104,243)" transform="translate(0,0)"></path>
<metadata><recraft-signature>{"signed_by": "recraft", "signature_b64": "euvkWUE4dIIhurVjM/OicbeVQtRqOo3Acv0FsUbYakCnKH7htSe5U6Pjkh4SXBGawfENNzCsBT4zcdakhg1JDA==", "signing_algo": "Ed25519", "generation_timestamp": 1782919058, "identifier": "e8a751f2-f9e4-436c-baf0-8cc9d109138f"}</recraft-signature></metadata></svg>