<svg xmlns="http://www.w3.org/2000/svg" height="1024" preserveAspectRatio="none" style="display: block;" version="1.1" viewBox="0 0 2048 2048" width="1024">
<defs>
	<linearGradient gradientUnits="userSpaceOnUse" id="Gradient1" x1="788.471" x2="546.141" y1="1539.48" y2="1126.19">
		<stop class="stop0" offset="0" stop-color="rgb(3,32,96)" stop-opacity="1"></stop>
		<stop class="stop1" offset="1" stop-color="rgb(6,73,116)" stop-opacity="1"></stop>
	</linearGradient>
	<linearGradient gradientUnits="userSpaceOnUse" id="Gradient2" x1="1093.69" x2="1107.38" y1="1680.04" y2="1687.45">
		<stop class="stop0" offset="0" stop-color="rgb(0,123,95)" stop-opacity="1"></stop>
		<stop class="stop1" offset="1" stop-color="rgb(25,91,106)" stop-opacity="1"></stop>
	</linearGradient>
</defs>
<path d="M 0 0 L 2048 0 L 2048 2048 L 0 2048 L 0 0 z" fill="rgb(255,255,255)" transform="translate(0,0)"></path>
<path d="M 996.634 179.441 C 1046.28 178.088 1095.95 180.958 1145.11 188.019 C 1363.75 219.035 1561.41 334.82 1695.4 510.361 C 1784.87 629.608 1835.3 754.016 1856.47 901.409 C 1867.63 975.621 1868.17 1051.04 1858.08 1125.41 C 1827.12 1351.2 1706.49 1555 1523.43 1690.76 C 1377.1 1799.1 1199.45 1856.81 1017.39 1855.16 C 985.588 1855.03 945.521 1853.4 914.001 1848.8 C 902.964 1848.38 865.618 1841.05 853.524 1838.68 C 740.74 1816.59 634.468 1767.62 539.634 1703.06 C 513.799 1714.97 481.537 1727.15 454.982 1737.66 L 345.716 1781.06 C 355.229 1755.92 363.191 1729.94 371.896 1704.5 L 410.858 1594.02 C 401.299 1580.95 389.864 1569.21 379.533 1556.73 C 364.512 1538.58 348.907 1519.19 335.326 1499.94 C 242.934 1370.12 189.521 1216.62 181.363 1057.49 C 177.877 979.998 185.725 902.414 204.658 827.192 C 238.587 687.067 301.236 562.075 398.461 455.135 C 509.026 334.046 652.129 247.367 810.656 205.46 C 866.549 191.243 939.617 182.134 996.634 179.441 z" fill="rgb(2,57,110)" transform="translate(0,0)"></path>
<path d="M 1013.42 253.527 C 1434.9 248.142 1781.06 585.218 1786.89 1006.69 C 1792.71 1428.16 1455.99 1774.68 1034.53 1780.94 C 612.44 1787.21 265.307 1449.89 259.475 1027.8 C 253.643 605.703 591.323 258.921 1013.42 253.527 z" fill="rgb(255,255,255)" transform="translate(0,0)"></path>
<path d="M 835.067 378.709 C 842.066 368.203 859.458 337.237 874.589 356.377 C 879.549 362.651 874.099 370.914 872.694 378.402 L 872.538 379.284 C 877.055 382.791 885.12 387.64 885.376 393.548 C 886.052 409.153 877.082 424.218 865.763 433.673 C 880.046 454.783 892.155 463.165 894.202 492.437 C 897.774 494.661 902.006 497.473 905.725 499.27 C 916.232 495.644 929.337 493.958 938.107 486.496 C 943.83 481.627 956.361 488.25 958.916 481.791 C 962.004 466.345 969.027 467.634 980.706 474.591 C 989.203 474.056 993.619 473.522 1001.99 471.967 C 1000.79 463.979 998.572 452.06 1010.91 450.81 C 1026.34 449.248 1046.52 457.853 1054.78 471.462 L 1072.68 469.812 C 1076.34 464.503 1080.2 461.856 1086.35 460.202 C 1096.26 457.533 1098.9 474.104 1104.3 463.999 C 1109.25 461.161 1110.54 461.202 1116.26 460.385 C 1115.47 452.678 1112.73 438.251 1118.12 433.171 C 1121.19 430.283 1127.76 429.736 1130.15 426.656 C 1129.86 422.074 1128.99 416.88 1131.06 412.988 C 1135.3 405.017 1149.13 382.126 1157.41 379.23 C 1165.59 382.133 1170.25 403.162 1170.78 411.481 C 1171.6 424.373 1187.01 470.064 1198.19 474.939 C 1245.08 495.388 1208.59 510.228 1197.29 542.747 C 1218.12 552.824 1239.36 552.249 1261.19 557.99 C 1264.27 558.8 1266.92 561.894 1268.29 564.695 L 1269.4 565.036 C 1272.84 565.362 1276.95 566.463 1279.18 569.36 C 1281.04 571.779 1280.77 574.948 1279.92 577.678 C 1277.6 585.129 1238.59 633.25 1232.13 636.358 C 1229.36 637.692 1227.99 637.379 1225.23 636.245 C 1208.23 629.25 1176.65 601.271 1161.47 596.683 L 1160.43 597.273 C 1164.78 607.425 1217.3 641.718 1229.29 652.281 C 1238.07 660.006 1287.58 704.717 1288.83 712.966 C 1284.33 718.071 1283.07 721.546 1280.9 727.999 C 1247.24 726.67 1206.06 723.146 1173.59 723.087 L 1174.07 728.366 C 1174.86 730.123 1175.13 731.902 1177.27 732.115 C 1208.78 735.248 1250.37 736.7 1281.26 737.548 C 1283.21 747.788 1284.3 752.008 1291.09 760.432 L 1204.7 871.439 C 1182.48 855.512 1160.93 865.586 1148.1 887.442 C 1139.77 883.917 1124.54 877.947 1117.71 872.87 L 1110.36 878.548 C 1069.55 909.557 1039.79 920.435 989.883 926.851 L 979.22 927.043 L 978.869 1077.64 C 970.513 1080.03 966.792 1081.24 958.97 1084.9 C 921.226 1037.62 880.374 991.446 842.636 943.99 C 826.744 924.006 809.92 905.32 794.451 884.624 C 804.874 881.551 816.2 879.742 827.161 876.51 L 819.978 869.689 L 786.763 875.565 C 777.572 864.98 764.421 845.991 754.835 837.262 C 758.293 831.013 759.644 828.853 761.707 821.981 C 766.951 821.974 776.121 822.363 780.804 820.961 C 779.508 818.478 778.542 815.627 777.547 812.989 C 771.438 812.515 768.504 812.558 762.47 812.839 C 756.4 800.987 753.29 795.929 743.915 786.672 C 749 768.125 754.849 738.499 761.1 721.724 C 764.878 706.69 766.521 686.572 771.034 668.071 C 770.777 626.347 777.209 583.18 781.508 541.471 C 794.342 539.553 798.985 538.047 809.868 531.429 C 822.952 542.435 836.725 554.136 850.735 563.882 L 858.812 558.551 C 848.744 549.405 825.776 532.081 814.629 524.945 C 825.019 510.44 822.867 494.495 816.25 478.981 C 827.353 472.533 847.841 453.114 856.756 443.037 L 852.204 436.001 C 842.505 445.983 821.944 463.323 810.447 471.335 C 794.495 457.554 774.873 456.779 757.474 468.427 C 751.739 473.73 750.192 475.504 745.518 481.779 C 740.592 493.566 738.746 503.568 743.906 516.077 C 748.154 526.122 756.317 533.999 766.507 537.886 C 768.271 538.561 770.05 539.198 771.842 539.795 C 766.857 594.803 758.608 649.892 752.397 704.822 C 749.538 730.114 739.763 757.155 736.058 782.486 C 710.833 777.78 695.977 784.287 683.481 807.281 C 657.176 802.95 629.945 800.743 603.362 797.74 L 484.213 783.73 C 465.998 781.627 428.333 778.299 411.351 774.719 C 408.977 777.689 406.404 780.793 404.158 783.84 C 401.177 788.689 415.084 812.519 416.836 818.663 C 416.884 818.828 425.81 827.468 428.046 831.379 C 428.01 838.48 427.622 845.858 429.104 852.742 L 429.348 853.914 C 425.021 850.126 422.946 850.342 417.463 850.636 C 418.353 846.19 417.754 841.291 417.485 836.691 C 404.852 822.633 399.334 810.282 392.233 792.914 C 386.451 778.775 399.419 771.75 406.357 759.53 C 413.67 746.65 415.486 720.828 426.915 712.844 C 441.212 703.077 458.032 697.194 473.73 690.115 C 488.435 683.484 490.574 678.336 507.476 681.234 C 511.94 684.605 509.762 687.674 513.281 690.382 C 517.955 687.29 521.875 668.354 523.773 662.469 C 531.551 638.355 538.17 613.733 543.842 589.03 C 544.921 584.333 545.647 575.744 544.864 570.793 C 537.411 550.664 526.973 547.414 520.751 524.992 C 519.891 521.841 519.738 521.794 519.839 518.587 C 524.233 511.786 535.879 510.309 544.25 507.98 C 536.187 496.206 534.442 496.405 527.341 481.994 L 531.03 470.32 C 557.493 465.249 564.345 467.462 590.941 469.259 C 593.125 465.932 610.304 456.028 614.41 455.099 C 627.726 452.087 631.894 478.072 632.494 486.91 C 639.617 495.076 648.059 501.172 655.766 508.83 C 659.918 512.957 661.417 518.183 664.931 520.733 C 669.271 518.551 673.193 508.121 676.353 506.403 C 691.262 498.297 706.74 492.273 721.153 482.999 C 729.952 477.337 733.041 472.828 740.245 465.598 C 725.079 454.017 721.9 453.873 728.084 435.085 C 723.825 427.924 703.184 396.141 702.213 391.135 C 702.746 389.448 702.637 388.424 703.947 387.848 C 712.109 384.257 724.091 392.102 732.424 393.168 C 735.722 393.59 739.296 394.738 742.172 395.576 C 747.312 402.72 751.887 409.556 758.186 415.744 C 761.605 407.058 759.632 402.848 762.822 395.336 C 773.781 386.085 786.978 412.807 798.114 395.69 C 803.07 388.073 812.269 386.705 819.622 382.657 C 826.468 378.887 827.444 378.778 835.067 378.709 z" fill="rgb(1,6,70)" transform="translate(0,0)"></path>
<path d="M 616.093 463.202 C 619.316 473.404 619.731 487.52 625.995 496.251 C 631.105 502.643 637.489 505.796 643.17 511.787 C 649.46 518.421 656.931 537.049 669.187 532.818 C 674.868 530.856 680.18 521.691 682.269 516.229 C 698.901 508.531 714.545 500.559 729.836 490.446 C 734.556 487.325 740.179 483.5 745.518 481.779 C 740.592 493.566 738.746 503.568 743.906 516.077 C 748.154 526.122 756.317 533.999 766.507 537.886 C 768.271 538.561 770.05 539.198 771.842 539.795 C 766.857 594.803 758.608 649.892 752.397 704.822 C 749.538 730.114 739.763 757.155 736.058 782.486 C 710.833 777.78 695.977 784.287 683.481 807.281 C 657.176 802.95 629.945 800.743 603.362 797.74 L 484.213 783.73 C 465.998 781.627 428.333 778.299 411.351 774.719 C 423.298 758.188 423.957 742.843 432.175 725.168 C 436.429 716.018 486.163 699.544 497.148 694.736 C 499.929 693.519 501.398 695.584 503.526 697.131 C 505.699 698.662 508.609 701.563 511.396 701.927 C 532.726 704.373 530.43 682.23 534.517 667.608 C 542.988 637.304 556.907 601.049 557.279 569.724 C 557.364 562.536 535.482 531.965 530.528 524.317 C 535.093 520.965 549.332 518.537 560.217 511.705 C 554.294 499.329 541.232 490.692 540.657 482.617 C 546.03 474.03 580.698 481.619 588.866 486.931 C 597.947 481.047 605.181 470.95 616.093 463.202 z" fill="rgb(0,114,90)" transform="translate(0,0)"></path>
<path d="M 827.161 876.51 C 834.852 881.971 847.426 892.004 855.075 896.423 C 892.563 918.079 936.316 927.718 979.22 927.043 L 978.869 1077.64 C 970.513 1080.03 966.792 1081.24 958.97 1084.9 C 921.226 1037.62 880.374 991.446 842.636 943.99 C 826.744 924.006 809.92 905.32 794.451 884.624 C 804.874 881.551 816.2 879.742 827.161 876.51 z" fill="rgb(0,114,90)" transform="translate(0,0)"></path>
<path d="M 856.756 443.037 C 859.939 446.684 870.226 457.127 872.251 460.624 C 881.99 477.437 879.38 507.083 903.953 511.182 C 911.338 512.414 915.651 509.473 920.988 505.435 L 921.935 504.697 C 933.811 506.658 936.312 502.723 945.447 495.619 C 973.873 502.419 966.124 481.602 972.397 481.849 L 973.525 482.746 C 982.835 490.037 989.98 486.817 1000.78 485.185 C 1006.88 484.263 1008.21 483.206 1011.98 478.425 L 1012.12 462.774 C 1017.58 463.218 1023.02 463.594 1028.45 464.309 C 1030.94 466.373 1032.41 467.546 1035.22 469.335 C 1046.32 476.404 1045.39 488.566 1059.66 485.896 C 1069.3 484.093 1082.42 475.345 1088.21 474.874 C 1092.83 479.204 1086.2 493.668 1084.27 499.065 C 1099.21 523.195 1112.37 546.945 1132.6 567.054 C 1122.09 574.107 1118.82 575.379 1110.05 585.094 C 1102.96 578.815 1097.43 572.472 1089.81 566.556 C 1053.47 538.347 1013.59 519.785 966.692 523.299 C 938.838 525.386 909.932 531.751 885.027 544.766 C 880.658 547.05 861.903 557.78 858.812 558.551 C 848.744 549.405 825.776 532.081 814.629 524.945 C 825.019 510.44 822.867 494.495 816.25 478.981 C 827.353 472.533 847.841 453.114 856.756 443.037 z" fill="rgb(0,114,90)" transform="translate(0,0)"></path>
<path d="M 1174.07 728.366 C 1174.86 730.123 1175.13 731.902 1177.27 732.115 C 1208.78 735.248 1250.37 736.7 1281.26 737.548 C 1283.21 747.788 1284.3 752.008 1291.09 760.432 L 1204.7 871.439 C 1182.48 855.512 1160.93 865.586 1148.1 887.442 C 1139.77 883.917 1124.54 877.947 1117.71 872.87 C 1120.92 867.271 1136.04 853.471 1140.9 846.582 C 1167.5 808.902 1174.52 773.212 1174.07 728.366 z" fill="rgb(0,114,90)" transform="translate(0,0)"></path>
<path d="M 1160.95 612.056 C 1186.75 631.822 1212.41 649.468 1236.93 671.162 C 1247.77 680.759 1275.85 713.619 1288.83 712.966 C 1284.33 718.071 1283.07 721.546 1280.9 727.999 C 1247.24 726.67 1206.06 723.146 1173.59 723.087 C 1171.96 719.3 1169.5 703.384 1168.52 698.346 C 1163.08 670.339 1150.54 647.417 1138 622.087 L 1141.05 619.743 C 1145.54 624.056 1150.59 628.699 1157 629.645 C 1163.44 626.534 1161.38 618.342 1160.95 612.056 z" fill="rgb(0,114,90)" transform="translate(0,0)"></path>
<path d="M 772.215 407.243 C 777.161 409.553 782.91 411.861 788.195 412.225 C 809.587 413.699 802.533 402.678 815.015 396.2 C 821.052 392.736 841.469 390.705 845.52 385.368 C 853.391 374.999 852.102 372.006 863.223 362.809 C 862.001 370.108 861.783 377.581 861.404 384.981 C 865.051 390.924 866.929 392.542 873.035 395.835 C 871.385 402.57 870.977 404.337 868.374 410.603 C 865.671 417.111 852.06 431.988 852.204 436.001 C 842.505 445.983 821.944 463.323 810.447 471.335 C 794.495 457.554 774.873 456.779 757.474 468.427 C 752.976 461.309 743.631 452.013 735.957 448.329 C 738.05 442.001 738.723 438.479 739.97 431.965 C 736.267 423.314 731.844 416.329 726.551 408.634 C 724.878 406.202 724.709 405.365 725.344 403.174 C 735.755 402.674 749.329 433.68 763.557 425.046 C 768.789 421.872 770.638 412.65 772.215 407.243 z" fill="rgb(0,114,90)" transform="translate(0,0)"></path>
<path d="M 809.868 531.429 C 822.952 542.435 836.725 554.136 850.735 563.882 C 824.889 583.368 802.75 608.472 786.318 636.61 C 781.587 644.713 775.545 661.421 771.034 668.071 C 770.777 626.347 777.209 583.18 781.508 541.471 C 794.342 539.553 798.985 538.047 809.868 531.429 z" fill="rgb(0,114,90)" transform="translate(0,0)"></path>
<path d="M 1204.63 561.214 C 1220.94 563.913 1237.3 566.62 1253.83 567.395 L 1257.31 571.472 C 1260.09 573.894 1265.23 575.602 1268.81 577.051 C 1263.78 582.777 1258.8 586.713 1254.04 592.563 C 1245.36 603.238 1237.72 614.626 1229.38 625.618 C 1208.75 614.179 1186.95 600.789 1166.69 588.594 C 1181.21 575.505 1187.38 570.024 1204.63 561.214 z" fill="rgb(0,114,90)" transform="translate(0,0)"></path>
<path d="M 780.804 820.961 C 796.328 844.986 803.726 849.746 819.978 869.689 L 786.763 875.565 C 777.572 864.98 764.421 845.991 754.835 837.262 C 758.293 831.013 759.644 828.853 761.707 821.981 C 766.951 821.974 776.121 822.363 780.804 820.961 z" fill="rgb(0,114,90)" transform="translate(0,0)"></path>
<path d="M 761.1 721.724 L 761.176 722.714 C 761.785 731.399 761.149 740.094 761.838 749.527 C 763.569 773.225 769.491 791.013 777.547 812.989 C 771.438 812.515 768.504 812.558 762.47 812.839 C 756.4 800.987 753.29 795.929 743.915 786.672 C 749 768.125 754.849 738.499 761.1 721.724 z" fill="rgb(0,114,90)" transform="translate(0,0)"></path>
<path d="M 1124.92 602.873 C 1132.57 608.911 1135.36 612.205 1141.05 619.743 L 1138 622.087 L 1124.92 602.873 z" fill="rgb(55,163,141)" transform="translate(0,0)"></path>
<path d="M 1253.83 567.395 C 1258.59 566.924 1264.26 566.87 1268.29 564.695 L 1269.4 565.036 C 1264.04 571.159 1262.59 568.434 1257.31 571.472 L 1253.83 567.395 z" fill="rgb(1,6,70)" transform="translate(0,0)"></path>
<path d="M 962.606 534.596 C 966.018 534.265 969.439 534.038 972.865 533.916 C 1047.5 531.782 1114.06 590.475 1144.22 655.04 C 1207.58 790.724 1116.5 914.444 971.261 916.954 C 875.024 914.36 784.277 859.903 772.494 757.792 C 759.025 641.07 848.822 546.092 962.606 534.596 z" fill="rgb(255,255,255)" transform="translate(0,0)"></path>
<path d="M 962.625 573.429 C 974.47 572.439 992.443 575.942 1003.57 580.165 C 1028.9 589.763 1049.32 609.109 1060.27 633.877 C 1079.95 678.13 1067.12 719.679 1043.64 756.014 C 1039.23 766.865 1067.06 797.716 1049.26 806.077 C 1003.56 827.538 956.576 851.018 910.258 871.628 C 902.428 875.411 890.256 882.384 881.702 880.605 C 874.866 873.325 892.277 858.608 896.167 852.996 C 903.136 842.943 943.903 801.082 943.319 792.621 C 930.738 783.018 917.042 778.483 903.415 767.525 C 851.886 726.088 854.345 634.785 905.414 593.896 C 923.486 579.427 939.157 575.22 962.625 573.429 z" fill="rgb(1,23,87)" transform="translate(0,0)"></path>
<path d="M 963.013 585.404 C 1041.46 585.258 1081.67 663.404 1044.82 730.721 C 1043.21 733.668 1030.32 753.161 1030.16 753.926 C 1027.6 766.477 1045.03 782.028 1042.79 795.245 C 1040.27 799.751 937.255 846.642 925.266 851.668 L 904.32 860.853 C 911.98 851.443 956.619 802.414 956.754 793.217 C 956.921 781.869 939.615 777.439 931.855 773.353 C 926.639 770.606 921.851 767.073 917.326 763.309 C 894.769 744.542 880.4 722.953 877.79 693.334 C 875.405 666.269 883.244 634.703 901.08 613.761 C 917.21 594.821 938.797 587.298 963.013 585.404 z" fill="rgb(255,255,255)" transform="translate(0,0)"></path>
<path d="M 976.18 678.118 C 1015.67 677.217 1035.01 727.03 997.056 744.604 C 957.338 753.243 940.496 690.79 976.18 678.118 z" fill="rgb(1,23,87)" transform="translate(0,0)"></path>
<path d="M 978.017 691.011 C 1000.19 690.14 1016.98 716.986 994.42 731.933 C 971.253 737.26 958.584 706.985 978.017 691.011 z" fill="rgb(255,255,255)" transform="translate(0,0)"></path>
<path d="M 939.124 611.206 C 943.583 611.061 949.404 612.531 953.482 614.256 C 961.588 617.647 967.91 624.27 970.92 632.525 C 974.108 641.399 973.525 651.19 969.307 659.623 C 964.529 669.151 958.414 672.294 949.085 675.462 C 941.193 675.228 937.959 675.037 930.953 670.884 C 922.473 665.817 916.356 657.585 913.952 648.003 C 909.013 628.107 920.179 615.155 939.124 611.206 z" fill="rgb(1,23,87)" transform="translate(0,0)"></path>
<path d="M 937.02 623.127 C 963.206 625.837 969.014 654.133 948.355 664.287 C 926.279 663.279 914.375 632.768 937.02 623.127 z" fill="rgb(255,255,255)" transform="translate(0,0)"></path>
<path d="M 1154.3 398.621 C 1157.12 401.226 1162.55 432.174 1165.7 439.96 C 1171.65 454.702 1175.16 467.024 1185.64 480.248 C 1194.11 490.923 1196.43 484.773 1204.6 491.397 C 1206.67 493.079 1207.99 494.442 1211.16 496.595 L 1210.58 497.323 C 1205.26 504.127 1191.99 526.652 1189.3 528.483 L 1182.93 526.44 C 1177.35 527.528 1170.24 533.983 1165.74 537.704 C 1162 540.622 1159.59 543.382 1156.36 546.806 C 1141.41 518.425 1131.32 501.091 1114.58 473.996 C 1118.39 471.809 1123.02 469.698 1127.01 467.754 C 1127.09 460.863 1126.09 449.622 1125.69 442.497 C 1143.06 441.422 1142.88 437.74 1140.1 422.191 C 1144.77 413.571 1148.93 406.848 1154.3 398.621 z" fill="rgb(0,114,90)" transform="translate(0,0)"></path>
<path d="M 1102.13 477.035 C 1118.59 501.665 1133.87 527.063 1147.92 553.143 L 1140.68 560.693 L 1139.44 560.663 C 1130.52 551.797 1103.61 508.916 1096.44 497.167 C 1098.64 490.262 1100.32 484.06 1102.13 477.035 z" fill="rgb(255,255,255)" transform="translate(0,0)"></path>
<path d="M 1186 537.923 L 1186.73 538.86 C 1182.28 547.262 1183.19 546.889 1187.72 555.046 C 1186.44 556.829 1177.19 563.02 1174.24 565.46 C 1165.54 572.653 1148.32 594.178 1139.59 598.251 C 1136.89 597.992 1137.03 598.13 1134.93 596.45 C 1133.43 593.017 1134.34 587.886 1134.65 583.949 C 1145.16 573.203 1174.13 542.874 1186 537.923 z" fill="rgb(255,255,255)" transform="translate(0,0)"></path>
<path d="M 1296.95 573.689 C 1300.8 574.377 1305.69 575.101 1309.03 577.129 C 1327.99 588.645 1350.38 588.914 1369.96 600.126 C 1379.27 605.46 1392.55 609.112 1401.41 614.869 C 1404.36 616.812 1406.92 619.29 1408.96 622.174 C 1418.9 636.098 1409.28 650.702 1412.1 655.61 C 1414.71 656.253 1415.46 656.482 1418.04 655.301 C 1424.1 652.535 1427.05 643.172 1433.27 641.023 C 1439.16 638.99 1490.4 652.463 1506.71 650.533 C 1513.18 649.767 1519.59 645.125 1525.79 643.028 C 1578.91 659.646 1619.79 707.234 1670.8 729.121 C 1684.05 734.922 1715.54 728.067 1721.63 744.901 C 1731.52 772.205 1730.14 808.817 1729.13 837.416 C 1726.65 907.492 1664.19 932.625 1625.63 980.511 C 1612.71 996.551 1603.13 1023.11 1585.75 1033.26 C 1581.56 1032.41 1578.1 1031.16 1574.22 1032.51 C 1569.58 1037.12 1571.73 1044.72 1570.79 1051 C 1569.52 1059.54 1566.84 1067.81 1566.98 1076.48 C 1566.92 1115.3 1569.93 1166.31 1549.18 1200.29 C 1546.17 1205.22 1540.73 1210.75 1536.69 1214.96 L 1543.46 1222.3 C 1540.57 1257.25 1539.67 1250.93 1518.89 1278.52 C 1515.02 1283.97 1513.11 1292.07 1508.92 1297.14 C 1503.74 1303.42 1496.69 1308.63 1492.65 1315.82 C 1492.23 1316.52 1491.81 1317.23 1491.39 1317.93 C 1515.41 1335.68 1486.24 1340.02 1474.17 1347.66 C 1467.44 1351.91 1459.96 1371.16 1451.5 1371.72 C 1440.93 1372.43 1429.16 1368.59 1418.32 1370.57 C 1411.12 1371.77 1406.7 1377.82 1400.44 1378.18 C 1398.24 1376.71 1396.24 1374.52 1393.46 1375.57 C 1345.48 1393.69 1296.17 1411.99 1250.19 1434.66 C 1239.92 1439.72 1229.8 1455.45 1230.62 1466.52 C 1231.27 1490.89 1245.18 1525.31 1222.31 1543.43 C 1210.6 1552.72 1197.74 1561.51 1188.88 1573.61 C 1175.36 1590.69 1173.79 1608.87 1162.32 1626.75 C 1155.49 1637.4 1143.65 1641.19 1136.73 1650.44 C 1123.64 1668.1 1111.01 1686.09 1098.83 1704.39 C 1088.57 1719.95 1076.95 1738.68 1065.8 1753.32 C 1060.07 1750.04 1058.37 1749.76 1056.72 1743.42 C 1053.24 1729.96 1061.04 1714.78 1067.64 1703.5 C 1063.78 1700.52 1047.83 1687.29 1045.85 1683.56 L 1045.78 1680.78 C 1038.28 1674.54 1025.97 1662.35 1018.98 1657.66 C 1017.28 1658.15 1016.05 1659.1 1014.81 1657.97 C 1004.55 1648.58 995.862 1640.92 984.44 1632.86 C 959.872 1640.83 973.876 1607.24 951.523 1607.84 C 946.104 1610.23 941.648 1617.7 936.386 1614.94 C 924.222 1608.56 936.733 1599.55 940.828 1594.66 C 945.76 1596.64 948.269 1596.79 953.654 1596.06 C 970.006 1579.14 983.921 1556.59 1002.79 1540.78 C 1008.76 1535.77 1016.73 1521.8 1023.77 1518.54 C 1038.89 1511.53 1056.79 1514.22 1065.01 1496.55 C 1071.94 1483.56 1076.38 1469.49 1069.29 1454.85 C 1064.67 1445.31 1064.05 1432.63 1050.21 1432.78 C 1047.9 1432.8 1046.55 1432.77 1044.71 1431.33 C 1043.56 1427.65 1046.65 1417.29 1047.7 1412.59 L 1050.18 1402.65 C 1070.79 1398.63 1091.51 1394.04 1112.17 1390.34 C 1134.59 1386.33 1157.07 1383.56 1179.32 1378.41 C 1173.92 1377.97 1160.38 1373.83 1155.1 1371.53 C 1128.18 1359.79 1123.19 1340.47 1143.53 1319.63 C 1140.72 1315.63 1139.79 1310.03 1138.23 1308.22 C 1127.31 1295.54 1116.89 1293.01 1131.6 1276.52 C 1074.01 1244.08 1174.12 1239.65 1137.5 1205.19 C 1132.56 1200.54 1133.6 1194.1 1134.41 1188.34 C 1134.86 1185.1 1135.41 1182.9 1136.17 1179.77 C 1127.49 1177.28 1106.51 1167.35 1096.99 1163.2 C 1073.72 1153.15 1050.31 1143.48 1026.74 1134.18 C 1029.75 1118.21 1026.65 1109.39 1019.91 1095.46 C 1028.46 1087.04 1037.37 1077.1 1044.85 1067.71 C 1080.94 1022.44 1122.61 979.224 1157.54 933.171 C 1177.77 948.849 1204.92 945.946 1217.4 922.496 L 1323.58 965.165 C 1324.66 981.07 1326.34 988.628 1338.39 999.63 C 1324.65 1018.58 1307.02 1035.59 1294.23 1055.05 C 1297.19 1055.53 1303.06 1056.3 1305.67 1057.15 C 1313.19 1043.93 1336.32 1019.27 1347.08 1005.83 C 1359.74 1009.79 1363.98 1010.04 1377.18 1007.66 L 1434.46 1117.94 C 1443.1 1134.27 1451.52 1151.09 1460.97 1166.93 C 1447.76 1181.84 1447.68 1198.88 1457.43 1215.68 C 1447.81 1228.69 1437.9 1241.47 1427.68 1254.02 C 1426.52 1259.28 1426.97 1263.96 1427.12 1269.36 C 1434.92 1261.15 1456.41 1232.22 1463.25 1222.37 C 1464.75 1223.14 1466.27 1223.87 1467.81 1224.55 C 1480.86 1230.26 1490.22 1229.52 1503.14 1224.51 C 1510.17 1231.26 1518.48 1240.44 1525.23 1247.59 C 1527.85 1243.45 1528.05 1243.29 1528.41 1238.54 C 1525.74 1234.41 1522.28 1229.97 1519.32 1225.98 L 1512.91 1218.17 C 1515.59 1214.22 1517.66 1210.73 1520.04 1206.65 C 1527.44 1185.54 1520.77 1171.19 1502.53 1159.57 C 1522.4 1108.63 1539.82 1056.47 1558.01 1004.79 L 1575.3 955.821 C 1578.52 946.677 1583.52 933.542 1585.53 924.324 C 1600.44 927.819 1615.69 925.805 1626.38 914.289 C 1663.9 873.859 1605.98 819.278 1565.8 866.922 C 1553.39 856.728 1527.57 842.96 1512.84 834.771 L 1416.78 782.361 C 1401.15 773.759 1365.07 751.694 1350.56 745.396 C 1352.82 729.063 1350.56 724.419 1341.04 711.377 C 1354.58 685.444 1370.65 647.057 1382.02 619.857 L 1372.75 615.273 C 1369.13 621.284 1361.56 640.974 1358.49 648.367 C 1350.52 667.497 1342.17 686.469 1333.46 705.273 C 1320.22 699.771 1313.43 697.2 1299.53 702.914 C 1298.58 703.31 1297.63 703.713 1296.68 704.122 C 1280.37 687.606 1261.03 673.655 1245.46 657.983 L 1237.71 650.075 C 1253.43 631.353 1282.42 585.424 1296.95 573.689 z" fill="rgb(1,6,70)" transform="translate(0,0)"></path>
<path d="M 1382.02 619.857 C 1388.41 620.784 1394 623.301 1399.74 626.225 C 1403.73 656.924 1383.82 667.437 1423.31 667.75 C 1430.44 662.083 1432.72 657.646 1438.56 651.981 C 1461.2 657.632 1488.73 665.611 1512.41 660.556 C 1515.96 659.797 1523.96 655.938 1527.52 654.278 C 1577.61 674.106 1623.81 725.466 1670.26 740.165 C 1674.76 741.587 1679.3 742.693 1684 743.205 C 1692.94 744.18 1708.19 741.836 1712.26 752.023 C 1715.42 759.937 1715.57 769.823 1716.41 778.257 C 1719.63 810.408 1721.72 845.194 1707.87 875.378 C 1689.07 916.336 1644.03 936.362 1617.37 971.343 C 1610.15 980.814 1592.63 1016.69 1585.22 1019.53 C 1577.91 1022.33 1565.97 1019.01 1561.61 1027.19 C 1558.53 1033 1560.5 1041.12 1559.83 1047.5 C 1558.97 1055.77 1556.97 1063.88 1556.65 1072.21 C 1555.46 1103.61 1558.46 1155.48 1545.76 1184.23 C 1540.77 1195.54 1533.15 1203.79 1524.27 1212.18 C 1521.74 1210.29 1521.58 1209.42 1520.04 1206.65 C 1527.44 1185.54 1520.77 1171.19 1502.53 1159.57 C 1522.4 1108.63 1539.82 1056.47 1558.01 1004.79 L 1575.3 955.821 C 1578.52 946.677 1583.52 933.542 1585.53 924.324 C 1600.44 927.819 1615.69 925.805 1626.38 914.289 C 1663.9 873.859 1605.98 819.278 1565.8 866.922 C 1553.39 856.728 1527.57 842.96 1512.84 834.771 L 1416.78 782.361 C 1401.15 773.759 1365.07 751.694 1350.56 745.396 C 1352.82 729.063 1350.56 724.419 1341.04 711.377 C 1354.58 685.444 1370.65 647.057 1382.02 619.857 z" fill="rgb(0,114,90)" transform="translate(0,0)"></path>
<path d="M 1179.32 1378.41 C 1180.76 1378.39 1183.5 1378.28 1184.81 1378.45 C 1190.86 1384.59 1197.98 1389.69 1206.48 1391.83 C 1211.12 1396.96 1213.3 1399.4 1215.21 1406.07 C 1217.75 1422.49 1220.69 1429.59 1228.41 1444.42 C 1218.24 1458.69 1219.38 1464.77 1221.41 1481.65 C 1214.5 1492.16 1206.97 1501.24 1199.99 1512.25 C 1194.17 1521.42 1184.16 1541.78 1178.07 1549.28 C 1181.53 1559.95 1180.21 1571.59 1174.46 1581.22 C 1168.7 1590.85 1159.07 1597.53 1148.04 1599.54 C 1134.73 1620.01 1131.62 1621.13 1116.09 1639.62 C 1100.82 1657.49 1086.19 1675.9 1072.23 1694.81 C 1061.26 1683.1 1049.95 1669.31 1036.54 1661.1 L 1036.84 1658.82 C 1035.81 1655.65 995.3 1628.35 988.12 1619.14 C 985.465 1621.91 982.745 1625.08 980.173 1627.96 C 977.575 1621.31 976.533 1612.41 973.279 1606.62 C 970.107 1600.97 959.931 1599.64 953.654 1596.06 C 970.006 1579.14 983.921 1556.59 1002.79 1540.78 C 1008.76 1535.77 1016.73 1521.8 1023.77 1518.54 C 1038.89 1511.53 1056.79 1514.22 1065.01 1496.55 C 1071.94 1483.56 1076.38 1469.49 1069.29 1454.85 C 1064.67 1445.31 1064.05 1432.63 1050.21 1432.78 C 1047.9 1432.8 1046.55 1432.77 1044.71 1431.33 C 1043.56 1427.65 1046.65 1417.29 1047.7 1412.59 L 1050.18 1402.65 C 1070.79 1398.63 1091.51 1394.04 1112.17 1390.34 C 1134.59 1386.33 1157.07 1383.56 1179.32 1378.41 z" fill="rgb(0,114,90)" transform="translate(0,0)"></path>
<path d="M 1148.04 1599.54 C 1127.57 1603.27 1107.78 1590.22 1103.15 1569.94 C 1098.51 1549.65 1110.67 1529.31 1130.73 1523.77 C 1150.79 1518.24 1171.65 1529.48 1178.07 1549.28 C 1181.53 1559.95 1180.21 1571.59 1174.46 1581.22 C 1168.7 1590.85 1159.07 1597.53 1148.04 1599.54 z" fill="rgb(255,255,255)" transform="translate(0,0)"></path>
<path d="M 1179.32 1378.41 C 1180.76 1378.39 1183.5 1378.28 1184.81 1378.45 C 1190.86 1384.59 1197.98 1389.69 1206.48 1391.83 C 1211.12 1396.96 1213.3 1399.4 1215.21 1406.07 C 1206.13 1403.62 1185.91 1389.48 1180.25 1389.57 C 1136.58 1390.28 1090.57 1406.79 1047.7 1412.59 L 1050.18 1402.65 C 1070.79 1398.63 1091.51 1394.04 1112.17 1390.34 C 1134.59 1386.33 1157.07 1383.56 1179.32 1378.41 z" fill="rgb(255,255,255)" transform="translate(0,0)"></path>
<path d="M 1157.54 933.171 C 1177.77 948.849 1204.92 945.946 1217.4 922.496 L 1323.58 965.165 C 1324.66 981.07 1326.34 988.628 1338.39 999.63 C 1324.65 1018.58 1307.02 1035.59 1294.23 1055.05 C 1266.01 1057.87 1240.99 1066.58 1213.83 1074 C 1193.42 1079.58 1167.64 1079.3 1153.35 1097 C 1137.88 1116.05 1130.45 1156.51 1136.17 1179.77 C 1127.49 1177.28 1106.51 1167.35 1096.99 1163.2 C 1073.72 1153.15 1050.31 1143.48 1026.74 1134.18 C 1029.75 1118.21 1026.65 1109.39 1019.91 1095.46 C 1028.46 1087.04 1037.37 1077.1 1044.85 1067.71 C 1080.94 1022.44 1122.61 979.224 1157.54 933.171 z" fill="rgb(0,114,90)" transform="translate(0,0)"></path>
<path d="M 1299.25 589.774 C 1324.12 598.79 1347.66 603.421 1372.75 615.273 C 1369.13 621.284 1361.56 640.974 1358.49 648.367 C 1350.52 667.497 1342.17 686.469 1333.46 705.273 C 1320.22 699.771 1313.43 697.2 1299.53 702.914 C 1298.58 703.31 1297.63 703.713 1296.68 704.122 C 1280.37 687.606 1261.03 673.655 1245.46 657.983 C 1263.74 639.773 1282.22 610.762 1299.25 589.774 z" fill="rgb(0,114,90)" transform="translate(0,0)"></path>
<path d="M 1347.08 1005.83 C 1359.74 1009.79 1363.98 1010.04 1377.18 1007.66 L 1434.46 1117.94 C 1443.1 1134.27 1451.52 1151.09 1460.97 1166.93 C 1447.76 1181.84 1447.68 1198.88 1457.43 1215.68 C 1447.81 1228.69 1437.9 1241.47 1427.68 1254.02 C 1428.38 1230.38 1436.22 1204.02 1432.02 1180.06 C 1427.18 1152.39 1409.78 1102.04 1390.05 1081.34 C 1383.32 1074.27 1319.22 1061.49 1305.67 1057.15 C 1313.19 1043.93 1336.32 1019.27 1347.08 1005.83 z" fill="rgb(0,114,90)" transform="translate(0,0)"></path>
<path d="M 1427.12 1269.36 C 1434.92 1261.15 1456.41 1232.22 1463.25 1222.37 C 1464.75 1223.14 1466.27 1223.87 1467.81 1224.55 C 1480.86 1230.26 1490.22 1229.52 1503.14 1224.51 C 1510.17 1231.26 1518.48 1240.44 1525.23 1247.59 C 1510.07 1270.69 1496.65 1293.56 1479.01 1315.1 C 1476.86 1317.72 1485.72 1326.73 1487.48 1328.96 C 1465.02 1338.45 1466.33 1339.47 1450.6 1356.56 L 1449.91 1355.36 C 1450.15 1353.74 1450.02 1351.38 1449.03 1350.06 C 1430.96 1325.85 1424.05 1299.69 1427.12 1269.36 z" fill="rgb(0,114,90)" transform="translate(0,0)"></path>
<path d="M 1184.81 1378.45 C 1192.08 1378.4 1197.23 1378.29 1204.46 1379.18 C 1204.89 1384.25 1204.9 1386.93 1206.48 1391.83 C 1197.98 1389.69 1190.86 1384.59 1184.81 1378.45 z" fill="rgb(2,82,100)" transform="translate(0,0)"></path>
<path d="M 1520.04 1206.65 C 1521.58 1209.42 1521.74 1210.29 1524.27 1212.18 C 1522.4 1215.68 1522.91 1217.16 1523.82 1221.46 L 1519.32 1225.98 L 1512.91 1218.17 C 1515.59 1214.22 1517.66 1210.73 1520.04 1206.65 z" fill="rgb(2,82,100)" transform="translate(0,0)"></path>
<path d="M 1523.82 1221.46 C 1531.77 1228.16 1531.27 1228.84 1528.41 1238.54 C 1525.74 1234.41 1522.28 1229.97 1519.32 1225.98 L 1523.82 1221.46 z" fill="rgb(0,114,90)" transform="translate(0,0)"></path>
<path d="M 1449.91 1355.36 L 1450.6 1356.56 C 1442.88 1363.3 1434.55 1359.16 1424.72 1357.61 C 1433.73 1357.1 1440.96 1356.51 1449.91 1355.36 z" fill="rgb(100,163,169)" transform="translate(0,0)"></path>
<path d="M 1282.81 1063.34 C 1303.58 1061.8 1324.67 1071.33 1343.69 1075.6 C 1381.98 1084.18 1386.33 1079.94 1402.78 1117.42 C 1420.4 1157.58 1430.43 1181.61 1422.46 1226.52 C 1417.57 1254.08 1415.45 1293.03 1423.41 1320.03 C 1425.93 1328.72 1431.97 1339.42 1436.54 1347.81 C 1393.26 1353.88 1339.48 1346.2 1300.54 1326.85 C 1247.14 1300.07 1248.93 1263.47 1258.89 1211.81 C 1239.72 1196.78 1218.82 1177.89 1208.71 1155.06 C 1206.72 1150.57 1204.41 1143.8 1200.39 1140.98 C 1191.47 1137.94 1157.24 1158.47 1144.17 1162.87 L 1142.79 1163.32 C 1143.44 1146.93 1146.73 1119.2 1156.25 1105.98 C 1171.68 1084.55 1204.34 1085.21 1228.02 1079.01 C 1245.75 1074.37 1264.97 1066.06 1282.81 1063.34 z" fill="rgb(255,255,255)" transform="translate(0,0)"></path>
<path d="M 1194.11 1149.82 C 1194.81 1150.06 1195.52 1150.29 1196.23 1150.53 C 1200.03 1158.32 1204.58 1167.65 1209.5 1174.47 C 1221.3 1190.82 1233.87 1202.58 1249.67 1214.6 C 1242.11 1246.87 1238.53 1281.58 1262.06 1308.16 C 1290.38 1340.14 1339.6 1354.26 1380.82 1357.23 L 1388.28 1368.29 C 1358.36 1380.89 1325.56 1391.52 1295.57 1405.1 C 1271.54 1415.97 1253.24 1419.14 1233.1 1436.99 C 1230.06 1430.08 1226.98 1423.73 1225.2 1416.39 C 1224.85 1414.1 1224.57 1411.8 1224.36 1409.49 C 1223.03 1393.52 1236.67 1379.26 1246.27 1367.82 C 1241.89 1368.04 1237.15 1368.67 1232.76 1369.17 C 1225.36 1379.16 1222.44 1383.53 1217.75 1394.98 C 1215.93 1390.42 1213.91 1385.99 1211.91 1381.5 C 1214.07 1376.74 1215.87 1375.06 1213.81 1370.17 C 1208.95 1366.53 1202.75 1367.55 1196.93 1367.97 C 1178.07 1369.32 1154.24 1368.54 1141.81 1351.81 C 1132.04 1338.67 1151.67 1330.11 1153.89 1319.85 C 1153.29 1316 1152.29 1315.33 1149.8 1312.59 C 1153.5 1310.58 1157.94 1313.11 1164.36 1310.98 C 1174.83 1298.19 1137.31 1295.19 1135.69 1291.39 C 1130.74 1279.79 1152.02 1278.53 1154.14 1268.85 C 1152.82 1265.98 1152.72 1266.22 1150.01 1264.48 C 1147.42 1265.6 1148.06 1265.89 1146.55 1269.41 C 1139.08 1268.8 1130.76 1267.05 1125.6 1261.3 C 1122.79 1249.27 1152.85 1240.27 1153.3 1227.77 C 1154.3 1199.62 1138.77 1206.05 1145.33 1171.79 C 1165.12 1164.71 1175.5 1159.36 1194.11 1149.82 z" fill="rgb(255,255,255)" transform="translate(0,0)"></path>
<path d="M 1170.96 1208.62 C 1177.49 1208.8 1180.52 1208.9 1187.01 1210 C 1193.88 1212.81 1206.05 1218.74 1211.57 1223.38 L 1211.77 1224.98 C 1205.91 1226.94 1202.74 1222.62 1200.78 1228.35 C 1197.32 1238.47 1187.33 1234.55 1179.07 1234.74 L 1176.69 1234.61 C 1171.53 1231.19 1172.64 1225.46 1171.15 1218.63 C 1168.56 1217.78 1168.74 1218.09 1165.96 1218.37 L 1165.06 1216.49 C 1165.87 1213.24 1168.53 1211.15 1170.96 1208.62 z" fill="rgb(1,6,70)" transform="translate(0,0)"></path>
<path d="M 1170.96 1208.62 C 1177.49 1208.8 1180.52 1208.9 1187.01 1210 C 1184.96 1213.74 1185.3 1215.1 1185.27 1219.31 L 1182.62 1219.01 C 1179.43 1221.91 1179.57 1229.69 1179.07 1234.74 L 1176.69 1234.61 C 1171.53 1231.19 1172.64 1225.46 1171.15 1218.63 C 1168.56 1217.78 1168.74 1218.09 1165.96 1218.37 L 1165.06 1216.49 C 1165.87 1213.24 1168.53 1211.15 1170.96 1208.62 z" fill="rgb(1,6,70)" transform="translate(0,0)"></path>
<path d="M 1172.24 1193.27 C 1182.84 1192.38 1204.62 1198.16 1208.29 1208.96 L 1207.09 1210.19 C 1202.43 1210.26 1199.28 1208.3 1194.95 1206.36 C 1175.63 1200.36 1166.31 1207.65 1156.49 1204.28 L 1156.08 1202.73 C 1160.36 1198.08 1166.34 1195.22 1172.24 1193.27 z" fill="rgb(1,23,87)" transform="translate(0,0)"></path>
<path d="M 1224.58 1498.68 L 1225.53 1499.64 C 1234.78 1530.87 1205.64 1543.4 1186.25 1562.08 L 1186.03 1562.2 L 1185.21 1561.3 C 1188.03 1554.23 1193.48 1548.36 1196.52 1542.31 C 1204.49 1526.47 1213.38 1512.55 1224.58 1498.68 z" fill="rgb(0,114,90)" transform="translate(0,0)"></path>
<path d="M 1134.64 1636.85 C 1134.82 1639.23 1134.24 1640.34 1132.75 1642.29 C 1109.4 1672.87 1088.34 1703.79 1067.91 1736.39 C 1067.58 1735.73 1067.15 1735.01 1067.24 1734.34 C 1071.59 1702.75 1114.95 1658.4 1134.64 1636.85 z" fill="url(#Gradient2)" transform="translate(0,0)"></path>
<path d="M 1163.87 1602.02 L 1164.71 1603.11 C 1162.8 1612.55 1155.52 1622.72 1148.95 1629.64 L 1147.94 1628.52 C 1148.23 1622.16 1149.57 1616.18 1150.73 1609.92 C 1155.07 1607.21 1159.45 1604.58 1163.87 1602.02 z" fill="rgb(255,255,255)" transform="translate(0,0)"></path>
<path d="M 538.48 1389.8 C 526.33 1350.96 503.818 1317.69 491.384 1278.13 C 467.157 1201.04 514.164 1124.24 591.332 1105.02 C 659.393 1088.07 723.956 1111.22 782.57 1144.46 C 786.253 1146.55 789.674 1148.16 790.764 1152.31 C 787.191 1162.1 765.861 1167.43 761.832 1173.58 C 780.825 1201.76 775.685 1220.46 775.836 1247.19 C 775.888 1256.24 836.073 1286.47 804.877 1307.42 C 801.531 1310 797.803 1312.74 794.618 1315.47 C 796.372 1320.27 797.702 1324.03 799.923 1328.68 C 797.331 1332.12 793.649 1335.69 794.13 1339.7 C 797.324 1341.45 797.991 1341.57 799.893 1344.76 C 800.082 1349.19 797.889 1351.13 794.458 1353.7 L 793.844 1356.59 C 798.254 1370.66 787.742 1366.07 786.016 1376.25 C 784.692 1385.81 794.363 1396.89 791.063 1406.41 C 781.61 1433.66 728.106 1419.67 709.518 1414.14 C 699.159 1424.02 692.459 1440.31 698.166 1454.29 C 709.891 1483.02 733.521 1508.35 752.014 1532.98 C 756.116 1538.44 762.156 1542.55 765.413 1548.65 C 767.152 1551.7 765.958 1558.13 762.123 1557.56 C 750.448 1555.84 738.201 1551.83 726.515 1549.23 C 664.732 1535.5 607.126 1512.39 553.948 1477.87 C 536.585 1466.72 517.607 1455.84 500.802 1442.8 C 504.365 1439.05 508.51 1435.79 511.957 1431.95 C 523.132 1419.47 529.591 1403.93 538.48 1389.8 z" fill="url(#Gradient1)" transform="translate(0,0)"></path>
<path d="M 761.832 1173.58 C 780.825 1201.76 775.685 1220.46 775.836 1247.19 C 775.888 1256.24 836.073 1286.47 804.877 1307.42 C 801.531 1310 797.803 1312.74 794.618 1315.47 C 796.372 1320.27 797.702 1324.03 799.923 1328.68 C 797.331 1332.12 793.649 1335.69 794.13 1339.7 C 797.324 1341.45 797.991 1341.57 799.893 1344.76 C 800.082 1349.19 797.889 1351.13 794.458 1353.7 L 793.844 1356.59 L 793.074 1355.96 C 792.594 1353.54 792.711 1353.65 791.268 1351.67 L 786.332 1351.49 C 784.444 1357.97 783.369 1362.71 779.484 1368.38 C 777.952 1382.08 781.329 1386.3 783.006 1399.67 C 783.435 1403.09 783.514 1406.16 780.979 1408.58 C 777.198 1412.2 769.998 1413.49 765.109 1413.58 C 735.143 1414.15 702.448 1407.43 677.931 1389.44 C 667.723 1381.94 659.011 1372.85 649.829 1364.36 C 660.57 1390.02 675.512 1401.99 699.888 1413.08 C 673.083 1442.15 694.115 1470.86 712.646 1496.12 C 725.11 1513.12 737.792 1529.53 750.758 1546.14 C 722.19 1538.08 688.565 1530.8 660.929 1520.89 C 610.106 1502.66 560.763 1470.95 515.599 1442 C 523.926 1432.43 528.127 1426.36 534.392 1415.08 C 538.094 1408.42 542.599 1399.59 547.334 1393.93 C 588.931 1376.28 610.897 1387.2 627.229 1335.11 C 632.413 1337.22 643.837 1340.35 646.635 1333.81 C 646.14 1331.09 646.243 1331.9 644.713 1329.34 C 633.372 1334.03 628.938 1331.15 624.02 1319.45 C 619.715 1309.21 616.51 1279.87 630.311 1275.1 C 641.207 1271.33 653.964 1286.71 664.248 1290.55 C 670.185 1292.76 679.674 1294.89 683.587 1286.61 C 685.042 1281.92 683.721 1274.01 684.858 1268.17 C 686.683 1258.8 690.656 1252.08 693.906 1243.27 L 692.551 1244.03 C 715.011 1226.83 707.148 1212.44 695.133 1191.4 C 705.781 1189.93 712.892 1188.73 723.203 1185.94 C 729.107 1184.34 749.526 1176.5 753.478 1176.4 L 756.346 1179.91 L 756.785 1176.61 C 758.632 1175.34 759.857 1174.66 761.832 1173.58 z" fill="rgb(255,255,255)" transform="translate(0,0)"></path>
<path d="M 761.832 1173.58 C 780.825 1201.76 775.685 1220.46 775.836 1247.19 C 775.888 1256.24 836.073 1286.47 804.877 1307.42 C 801.531 1310 797.803 1312.74 794.618 1315.47 C 796.372 1320.27 797.702 1324.03 799.923 1328.68 C 797.331 1332.12 793.649 1335.69 794.13 1339.7 C 797.324 1341.45 797.991 1341.57 799.893 1344.76 C 800.082 1349.19 797.889 1351.13 794.458 1353.7 L 793.844 1356.59 L 793.074 1355.96 C 792.594 1353.54 792.711 1353.65 791.268 1351.67 L 786.332 1351.49 C 784.444 1357.97 783.369 1362.71 779.484 1368.38 C 771.592 1364.49 767.781 1361.23 761.142 1355.71 C 753.668 1348.42 751.901 1353.51 749.35 1349.59 C 751.249 1341.07 785.634 1327.97 788.243 1322.96 L 787.593 1318.49 C 786.559 1311.6 787.026 1310.56 791.782 1305.5 C 784.977 1308.6 773.925 1312.9 770.164 1301.33 C 769.487 1299.25 770.875 1297.43 771.955 1295.81 C 775.34 1294.42 773.706 1294.5 776.972 1295.1 C 776.844 1297.79 776.584 1298.91 776.086 1301.51 C 779.982 1307.12 784.641 1303.03 788.463 1300.19 C 792.338 1300.51 790.993 1300.25 794.508 1303.01 L 795.086 1303.11 C 800.665 1300.06 804.744 1298.27 804.971 1291.25 C 798.973 1280.47 776.48 1259.26 766.523 1249.37 C 756.478 1250.4 738.128 1250.25 731.504 1256.54 L 729.481 1256.06 C 726.764 1250.43 730.561 1245.34 734.799 1241.69 C 745.067 1232.84 756.157 1231.61 769.124 1232.89 C 770 1212.37 765.933 1197.84 756.346 1179.91 L 756.785 1176.61 C 758.632 1175.34 759.857 1174.66 761.832 1173.58 z" fill="rgb(1,23,87)" transform="translate(0,0)"></path>
<path d="M 761.142 1355.71 C 767.012 1351.27 778.054 1349.7 785.364 1349.22 L 786.332 1351.49 C 784.444 1357.97 783.369 1362.71 779.484 1368.38 C 771.592 1364.49 767.781 1361.23 761.142 1355.71 z" fill="rgb(2,57,110)" transform="translate(0,0)"></path>
<path d="M 794.13 1339.7 C 797.324 1341.45 797.991 1341.57 799.893 1344.76 C 800.082 1349.19 797.889 1351.13 794.458 1353.7 L 793.844 1356.59 L 793.074 1355.96 C 792.594 1353.54 792.711 1353.65 791.268 1351.67 L 786.332 1351.49 L 785.364 1349.22 C 782.041 1348.99 779.9 1349.55 778.229 1347.75 C 780.507 1344.84 790.253 1341.16 794.13 1339.7 z" fill="rgb(1,6,70)" transform="translate(0,0)"></path>
<path d="M 758.284 1252.96 C 763.956 1253.25 768.359 1256.09 765.029 1262.49 C 759.269 1273.57 748.034 1271.42 738.198 1268.07 C 735.349 1267.23 732.36 1267.41 729.322 1267.14 L 728.811 1265.65 C 731.795 1262.55 753.012 1254.55 758.284 1252.96 z" fill="rgb(1,23,87)" transform="translate(0,0)"></path>
<path d="M 633.514 1282.13 C 639.748 1282.79 650.762 1284.63 650.602 1293.14 C 642.179 1288.79 637.391 1283.37 630.55 1292.07 C 628.781 1297.61 628.64 1303 626.775 1308.76 L 625.496 1308.13 C 621.537 1298.48 623.761 1287.19 633.514 1282.13 z" fill="rgb(2,57,110)" transform="translate(0,0)"></path>
<path d="M 428.046 831.379 C 425.81 827.468 416.884 818.828 416.836 818.663 C 415.084 812.519 401.177 788.689 404.158 783.84 C 410.393 786.367 456.285 790.516 465.648 791.627 L 609.708 809.026 C 633.288 811.824 658.244 813.789 681.572 817.403 C 683.616 830.169 686.459 839.531 697.595 847.841 C 706.089 854.193 716.802 856.819 727.271 855.114 C 736.292 853.612 742.089 850.076 748.704 844.023 C 783.451 888.118 818.681 931.83 854.388 975.152 L 910.578 1043.27 C 924.654 1060.14 938.852 1075.78 951.805 1093.63 C 937.131 1116.08 938.634 1139.52 963.025 1154.59 C 972.799 1160.62 984.603 1162.44 995.742 1159.63 C 1007.25 1156.76 1015.46 1150.43 1022.12 1140.84 C 1032.99 1146.74 1046.12 1152.27 1057.68 1156.82 C 1083.24 1166.89 1108.72 1178.74 1134.41 1188.34 C 1133.6 1194.1 1132.56 1200.54 1137.5 1205.19 C 1174.12 1239.65 1074.01 1244.08 1131.6 1276.52 C 1116.89 1293.01 1127.31 1295.54 1138.23 1308.22 C 1139.79 1310.03 1140.72 1315.63 1143.53 1319.63 C 1123.19 1340.47 1128.18 1359.79 1155.1 1371.53 C 1160.38 1373.83 1173.92 1377.97 1179.32 1378.41 C 1157.07 1383.56 1134.59 1386.33 1112.17 1390.34 C 1091.51 1394.04 1070.79 1398.63 1050.18 1402.65 L 1047.7 1412.59 C 1046.65 1417.29 1043.56 1427.65 1044.71 1431.33 C 1046.55 1432.77 1047.9 1432.8 1050.21 1432.78 C 1064.05 1432.63 1064.67 1445.31 1069.29 1454.85 C 1076.38 1469.49 1071.94 1483.56 1065.01 1496.55 C 1056.79 1514.22 1038.89 1511.53 1023.77 1518.54 C 1016.73 1521.8 1008.76 1535.77 1002.79 1540.78 C 983.921 1556.59 970.006 1579.14 953.654 1596.06 C 948.269 1596.79 945.76 1596.64 940.828 1594.66 C 957.627 1572.4 977.053 1551.82 996.339 1531.76 C 1000.81 1527.74 1013.57 1510.46 1017.96 1508.73 C 1045.82 1497.75 1052.51 1507.68 1062.95 1471.22 C 1060.29 1460.43 1058.88 1453.93 1053.72 1444.15 C 1046.1 1443.94 1038.38 1445.79 1033.29 1437.1 C 1026.86 1426.12 1049.65 1388.72 1042.66 1381.38 C 1030.66 1368.78 995.471 1392.8 1009.67 1354.33 C 1002.55 1347.59 997.786 1344.11 996.997 1333.75 C 996.394 1325.84 994.005 1323.44 988.652 1318.15 C 973.768 1303.42 952.562 1315.85 934.562 1308.81 C 919.679 1302.99 928.917 1290.07 933.767 1280.23 C 931.394 1267.82 926.859 1236.61 927.619 1224.57 C 928.282 1214.06 945.212 1190.34 943.127 1176.61 C 941.621 1166.7 934.882 1162.75 930.901 1154.06 C 928.549 1148.93 928.169 1141.5 926.622 1136.18 C 925.802 1133.35 918.806 1130.18 915.897 1128.64 C 900.65 1130.64 879.414 1127.21 867.096 1116.7 C 860.126 1110.75 869.181 1090.71 868.392 1081.9 C 867.641 1073.52 865.357 1065.42 863.924 1057.1 C 862.566 1047.64 865.973 1033.32 852.166 1033.71 C 842.201 1023.35 837.13 1033.81 826.985 1033.25 C 818.726 1031.62 813.173 1022.58 805.492 1019.28 C 781.834 1009.09 758.342 998.866 735.283 987.424 C 730.035 984.82 714.901 985.205 711.139 982.048 C 692.245 966.189 677.399 940.232 686.736 915.138 C 688.373 910.578 694.582 896.058 691.694 892.536 C 681.876 889.013 659.73 889.404 650.702 895.297 C 639.794 902.418 630.215 911.76 619.207 918.866 C 607.534 926.401 592.708 926.893 584.979 939.619 C 583.309 942.22 580.786 942.462 578.067 942.675 C 574.223 941.059 572.475 938.389 569.69 935.2 C 551.937 933.484 535.964 939.542 520.472 937.944 C 501.947 936.034 524.504 886.758 504.759 884.462 C 499.822 886.106 494.062 895.443 491.747 895.618 C 480.136 896.494 466.165 894.79 454.174 894.9 C 447.158 885.301 444.432 863.37 431.099 863.725 C 421.047 863.993 418.51 859.957 417.463 850.636 C 422.946 850.342 425.021 850.126 429.348 853.914 L 429.104 852.742 C 427.622 845.858 428.01 838.48 428.046 831.379 z" fill="rgb(0,114,90)" transform="translate(0,0)"></path>
<path d="M 417.463 850.636 C 422.946 850.342 425.021 850.126 429.348 853.914 C 437.902 857.636 446.403 850.704 451.935 863.259 C 453.57 866.97 458.81 880.184 461.197 882.315 C 470.405 884.546 478.34 883.635 487.587 885.2 C 498.598 868.546 520.362 869.113 523.943 890.144 C 525.846 901.32 522.657 914.284 524.583 925.321 C 534.694 931.772 563.385 914.315 579.018 930.243 C 593.483 916.528 599.053 918.309 614.752 908.611 C 622.135 904.05 632.495 893.956 640.407 888.616 C 643.41 886.6 646.591 884.862 649.911 883.424 C 661.014 878.72 709.895 872.882 703.63 895.171 C 696.843 919.314 686.553 933.305 702.832 957.872 C 706.742 963.726 711.418 969.029 716.736 973.64 L 718.692 973.486 C 734.728 972.369 794.743 1005.7 812.677 1011.45 C 815.322 1012.3 826.552 1020.97 829.474 1023.3 C 844.247 1013.61 858.523 1015.18 870.132 1029.01 C 876.277 1036.33 872.57 1043.6 873.063 1051.75 C 878.849 1072.53 883.543 1088.08 873.305 1108.79 C 881.509 1113.97 883.991 1114.99 893.738 1117.29 C 906.33 1120.26 936.195 1117.44 940.238 1133.32 C 941.229 1137.21 937.856 1142.97 936 1146.63 C 967.489 1194.08 948.566 1181.45 937.741 1228.48 C 937.146 1231.06 942.995 1276.02 944.356 1280.92 C 942.296 1285.85 938.649 1292.26 938.053 1296.93 C 943.534 1303.28 964.22 1299.84 972.436 1300.7 C 983.44 1301.84 996.064 1308.23 1003.59 1316.4 C 1010.29 1323.67 1009.49 1329.74 1006.64 1338.17 L 1014.47 1343.62 C 1023.63 1349.98 1018.85 1357.42 1015.62 1365.89 C 1036.88 1366.89 1046.28 1363.84 1055.85 1385.4 C 1053.92 1390.72 1051.27 1397.21 1050.18 1402.65 L 1047.7 1412.59 C 1046.65 1417.29 1043.56 1427.65 1044.71 1431.33 C 1046.55 1432.77 1047.9 1432.8 1050.21 1432.78 C 1064.05 1432.63 1064.67 1445.31 1069.29 1454.85 C 1076.38 1469.49 1071.94 1483.56 1065.01 1496.55 C 1056.79 1514.22 1038.89 1511.53 1023.77 1518.54 C 1016.73 1521.8 1008.76 1535.77 1002.79 1540.78 C 983.921 1556.59 970.006 1579.14 953.654 1596.06 C 948.269 1596.79 945.76 1596.64 940.828 1594.66 C 957.627 1572.4 977.053 1551.82 996.339 1531.76 C 1000.81 1527.74 1013.57 1510.46 1017.96 1508.73 C 1045.82 1497.75 1052.51 1507.68 1062.95 1471.22 C 1060.29 1460.43 1058.88 1453.93 1053.72 1444.15 C 1046.1 1443.94 1038.38 1445.79 1033.29 1437.1 C 1026.86 1426.12 1049.65 1388.72 1042.66 1381.38 C 1030.66 1368.78 995.471 1392.8 1009.67 1354.33 C 1002.55 1347.59 997.786 1344.11 996.997 1333.75 C 996.394 1325.84 994.005 1323.44 988.652 1318.15 C 973.768 1303.42 952.562 1315.85 934.562 1308.81 C 919.679 1302.99 928.917 1290.07 933.767 1280.23 C 931.394 1267.82 926.859 1236.61 927.619 1224.57 C 928.282 1214.06 945.212 1190.34 943.127 1176.61 C 941.621 1166.7 934.882 1162.75 930.901 1154.06 C 928.549 1148.93 928.169 1141.5 926.622 1136.18 C 925.802 1133.35 918.806 1130.18 915.897 1128.64 C 900.65 1130.64 879.414 1127.21 867.096 1116.7 C 860.126 1110.75 869.181 1090.71 868.392 1081.9 C 867.641 1073.52 865.357 1065.42 863.924 1057.1 C 862.566 1047.64 865.973 1033.32 852.166 1033.71 C 842.201 1023.35 837.13 1033.81 826.985 1033.25 C 818.726 1031.62 813.173 1022.58 805.492 1019.28 C 781.834 1009.09 758.342 998.866 735.283 987.424 C 730.035 984.82 714.901 985.205 711.139 982.048 C 692.245 966.189 677.399 940.232 686.736 915.138 C 688.373 910.578 694.582 896.058 691.694 892.536 C 681.876 889.013 659.73 889.404 650.702 895.297 C 639.794 902.418 630.215 911.76 619.207 918.866 C 607.534 926.401 592.708 926.893 584.979 939.619 C 583.309 942.22 580.786 942.462 578.067 942.675 C 574.223 941.059 572.475 938.389 569.69 935.2 C 551.937 933.484 535.964 939.542 520.472 937.944 C 501.947 936.034 524.504 886.758 504.759 884.462 C 499.822 886.106 494.062 895.443 491.747 895.618 C 480.136 896.494 466.165 894.79 454.174 894.9 C 447.158 885.301 444.432 863.37 431.099 863.725 C 421.047 863.993 418.51 859.957 417.463 850.636 z" fill="rgb(1,6,70)" transform="translate(0,0)"></path>
<path d="M 1562.2 906.132 L 1562.94 906.337 C 1568.16 912.899 1571.32 915.908 1577.94 920.78 C 1570.1 938.653 1559.54 971.228 1552.55 990.779 L 1494.98 1156.19 C 1483.22 1154.27 1478.36 1155.12 1467.71 1159.98 C 1459.93 1145.69 1452.32 1131.31 1444.91 1116.83 C 1425.45 1078.87 1405.77 1041.02 1385.88 1003.29 C 1398.89 992.631 1405.82 980.461 1403.04 963.26 C 1429.65 955.324 1462.08 942.484 1488.87 933.086 C 1507.96 926.391 1545.35 914.261 1562.2 906.132 z" fill="rgb(0,114,90)" transform="translate(0,0)"></path>
<path d="M 1346.56 753.643 C 1379.42 773.68 1404.29 785.565 1436.79 803.365 L 1561.6 873.01 C 1558.99 883.321 1558.99 887.522 1559.71 897.964 C 1542.32 904.408 1524.84 910.586 1507.26 916.495 L 1401.33 955.074 C 1392.7 936.387 1380.53 931.379 1361.44 928.781 C 1352.52 892.928 1348.48 849.08 1340.68 812.348 C 1337.47 797.216 1335.89 781.167 1330.77 766.347 C 1338.8 762.11 1340.64 760.121 1346.56 753.643 z" fill="rgb(0,114,90)" transform="translate(0,0)"></path>
<path d="M 989.883 926.851 C 1039.79 920.435 1069.55 909.557 1110.36 878.548 C 1120.72 886.596 1132.41 892.098 1144.7 896.648 C 1143.95 911.023 1145.51 914.901 1152.25 927.066 C 1137.93 940.821 1124.94 956.88 1112.12 972.093 C 1093.1 994.663 1074.25 1017.37 1055.56 1040.22 C 1044.82 1053.33 1025.84 1076.37 1013.47 1088.21 C 1003.8 1081.51 1001.3 1080.27 989.861 1077.69 L 989.883 926.851 z" fill="rgb(0,114,90)" transform="translate(0,0)"></path>
<path d="M 1300.62 765.557 C 1309.17 768.503 1313.18 768.107 1322.01 767.841 C 1332.64 819.427 1342.05 879.17 1350.5 931.477 C 1337.57 938.14 1331.81 942.623 1325.38 955.658 C 1310.07 949.848 1294.46 943.154 1279.29 936.871 C 1260.26 929.067 1240.42 920.595 1221.2 913.472 C 1222.85 897.577 1222.48 890.746 1212.65 877.627 L 1300.62 765.557 z" fill="rgb(0,114,90)" transform="translate(0,0)"></path>
<path d="M 1308.89 715.088 C 1336.51 713.827 1347.31 739.967 1322.41 752.431 C 1312.56 754.016 1303.59 753.132 1298.47 743.34 C 1296.03 738.619 1295.56 733.126 1297.15 728.057 C 1299.33 721.144 1302.89 718.37 1308.89 715.088 z" fill="rgb(0,114,90)" transform="translate(0,0)"></path>
<path d="M 998.633 63.5525 C 1007.21 66.2453 1025.57 82.8931 1033.09 89.211 C 1070.71 59.1167 1059.97 56.965 1095.13 91.169 C 1105.56 83.7148 1117.56 75.0943 1128.81 69.1704 C 1139.44 75.9016 1148.55 88.8369 1158.59 98.0755 C 1201.21 74.3885 1188.38 68.9414 1221.72 109.678 C 1263.97 90.0658 1251.19 80.0631 1281.82 125.052 C 1292.79 119.976 1305.82 112.016 1317.18 109.05 C 1324.72 117.163 1335.69 136.096 1341.78 146.031 C 1352.34 142.249 1365.75 134.747 1377.78 130.141 C 1385.07 138.784 1392.25 156.316 1397.81 167.251 C 1443.24 151.149 1432.11 148.805 1450.82 190.344 C 1498.91 176.961 1485.63 179.066 1500.31 218.949 L 1500.76 220.147 C 1549.68 211.387 1537.52 205.106 1550.55 252.571 C 1600.65 244.345 1591.33 239.91 1599.5 289.294 C 1648.65 287.745 1642.02 274.03 1647.83 330.485 C 1698.92 329.229 1689.85 320.606 1692.39 372.917 C 1745.24 377.298 1735.37 367.797 1734.96 422.606 C 1746.86 423.339 1765.81 424.368 1777.04 426.993 C 1777.44 442.277 1775.02 457.407 1774.93 473.079 C 1825.49 483.539 1817.38 472.94 1809.56 525.996 C 1859.04 541.012 1853.38 531.573 1840.61 582.038 C 1852.86 587.345 1869.61 591.999 1880.52 598.555 C 1877.99 612.093 1872.94 626.861 1868.52 639.95 C 1916.99 663.763 1911.48 648.983 1894.68 699.823 C 1906.94 706.826 1919.38 712.956 1929.48 722.757 C 1926.76 731.366 1917.28 752.528 1912.55 760.336 C 1956.91 785.448 1952.62 781.626 1928.51 821.69 C 1938.5 830.495 1954.37 839.586 1962.49 848.938 C 1957.63 858.495 1946.4 874.884 1940.2 884.514 L 1941.08 885.496 C 1948.11 893.479 1957.51 900.361 1965.72 907.375 C 1977.64 917.557 1968.36 925.023 1960.88 934.034 C 1956.38 939.443 1951.35 944.823 1946.62 950.13 C 1956.72 961.727 1969.24 971.484 1977.99 981.95 C 1968.49 993.172 1959.6 1003.64 1949.36 1014.21 C 1979.64 1056.4 1991.42 1037.7 1946.91 1080.27 C 1978.21 1121.92 1983.58 1108.17 1939.81 1145.76 C 1966.53 1192.37 1973.13 1171.92 1929.7 1209.13 C 1948.75 1253.81 1966.68 1240.97 1912.99 1272.78 C 1917.97 1280.31 1921.55 1289.29 1926.4 1296.53 C 1941.16 1318.53 1909.7 1325.76 1892.77 1332.72 C 1896.96 1345.17 1904.22 1358.59 1909.11 1371.74 C 1900.56 1385.13 1882.99 1387.32 1867.29 1392.45 C 1879.19 1440.11 1900.67 1434.31 1840.15 1450.99 C 1853.67 1498.37 1861.8 1496.97 1810.52 1504.51 C 1814.4 1556.42 1835.43 1549.16 1775.3 1562.73 C 1778.16 1616.82 1786.77 1602.58 1737.62 1619.56 C 1735.21 1666.77 1741.7 1659.98 1694.43 1665.8 C 1688.95 1712.95 1695.99 1707.75 1649.56 1708.47 C 1640.45 1755.02 1652.16 1753.75 1601.13 1749.14 C 1585.51 1793.01 1605.25 1796.23 1549.46 1787.15 C 1544.79 1801.56 1542.08 1813.64 1537.93 1827.54 C 1526.09 1826.6 1510.08 1821.53 1497.12 1819.48 C 1493.33 1828.5 1485.96 1853.06 1480.54 1857.29 C 1473.83 1859.54 1452.02 1852.13 1441.91 1850.31 C 1417.45 1894.98 1433.72 1892.25 1381.17 1874.71 C 1375.14 1886.93 1367.85 1901.84 1360.22 1912.98 C 1347.92 1907.31 1335.48 1901.95 1322.91 1896.9 C 1296.02 1937.01 1306.69 1938.35 1262.45 1913.9 C 1230.27 1955.81 1244.01 1951.94 1200.46 1928.19 C 1191.39 1937.69 1181.45 1950.44 1171.94 1960.79 C 1160.3 1955.92 1148.32 1946.3 1137.74 1938.92 C 1128.25 1948.5 1118.61 1957.93 1108.85 1967.23 C 1097.31 1963.43 1085.34 1951.92 1075.72 1943.92 C 1065.43 1952.11 1054.93 1963.48 1044.74 1972.68 C 1037.22 1967.64 1022.07 1952.85 1013.1 1945.7 C 1005.5 1952.64 989.876 1967.54 981.934 1972.4 C 971.875 1963.22 961.302 1952.27 951.548 1942.57 C 941.472 1951.07 929.019 1959.71 918.203 1967.54 C 910.366 1960.58 897.594 1945.67 889.794 1937.39 C 843.187 1962.89 862.589 1964.87 825.275 1925.71 C 780.853 1948.47 796.202 1949.26 763.351 1910.84 C 721.027 1931.8 729.106 1930.75 704.679 1891.66 C 664.346 1906 669.028 1918.05 648.893 1869.16 C 605.861 1884.51 612.959 1890.87 594.997 1846.32 C 551.148 1858.45 559.674 1866.62 545.325 1821.26 C 535.422 1823.68 505.291 1835.8 502.055 1821.63 C 498.672 1806.81 494.679 1792.64 489.964 1778.02 C 497.046 1781.85 499.745 1783.45 505.56 1789.04 C 508.162 1798.03 510.457 1808.49 513.096 1817.95 C 556.44 1809.36 550.24 1794.97 563.453 1845.05 C 607.564 1830.79 598.056 1827 616.843 1869.28 C 664.949 1853.08 647.705 1851.76 673.651 1893.1 C 717.474 1875.1 705.099 1873.58 731.902 1913.83 C 779.711 1894.72 758.792 1890.56 793.619 1931.39 C 804.168 1925.77 816.113 1917.29 826.926 1912.88 C 835.882 1919.24 849.366 1935.75 856.924 1944.46 C 868.004 1937.33 879.455 1929.68 890.888 1923.23 C 900.86 1932.6 909.106 1943.05 919.524 1952.72 C 960.708 1927.37 942.883 1920.31 982.977 1957.14 C 1023.65 1926.39 1004.31 1926.01 1043.72 1958.34 C 1053.95 1951.74 1066.43 1934.04 1074.08 1932.38 C 1081.6 1933.31 1097.68 1948.03 1105.37 1953.99 C 1112.09 1948.76 1131.05 1930.07 1135.03 1928.26 C 1141.4 1927.6 1161.77 1942.37 1169.99 1947.26 C 1177.1 1939.98 1189.9 1920.71 1196.52 1916.82 C 1201.78 1913.72 1222.76 1929.36 1231.24 1933.19 L 1232.5 1933.74 C 1241.77 1923.2 1250.92 1909.83 1259.8 1900.47 C 1268.61 1904.07 1285.85 1914.4 1295.59 1919.4 C 1301.57 1910.33 1314.13 1891.6 1321.07 1884.4 C 1332.08 1888.24 1344.85 1894.31 1355.93 1898.86 C 1358.16 1894.73 1361.32 1888.99 1363.31 1885.35 C 1374.78 1864.39 1375.01 1858.35 1399.59 1869.58 C 1403.57 1871.4 1413.3 1874.13 1418.13 1875.35 C 1439.29 1831.01 1425.63 1836.71 1475.29 1846.89 C 1491.14 1800.99 1483.11 1805.98 1530.46 1815.22 C 1534 1802.25 1538 1786.54 1543.31 1774.44 C 1556.91 1778.12 1567.71 1779.4 1581.54 1780.96 C 1595.84 1733.81 1581.74 1738.42 1633.18 1740.31 C 1635.63 1726.92 1638.18 1711.02 1641.61 1698.07 C 1654.12 1698.14 1666.63 1697.9 1679.12 1697.35 C 1681.67 1683.34 1682.74 1669.25 1685.11 1655.21 C 1698.96 1653.33 1710.46 1653.48 1724.98 1650.58 C 1724.9 1638.53 1726.22 1622.39 1726.9 1610.08 C 1741.98 1606.67 1752.78 1603.64 1767.15 1598.26 C 1766.62 1584.81 1765.21 1569.66 1764.26 1556.11 C 1776.52 1551.74 1794.12 1546.87 1806.75 1544.34 C 1793.15 1494.17 1791.15 1497.58 1840.32 1488.88 C 1835.67 1475.63 1831.56 1464.85 1828.59 1451.05 L 1833.56 1441.34 C 1847.37 1438.35 1856.42 1436.04 1869.73 1431.27 C 1865.9 1420.18 1861.08 1408.05 1856.95 1396.93 C 1858.47 1390.73 1858.78 1389 1861.95 1383.2 C 1873.65 1379.28 1885.62 1375.47 1897.03 1370.79 C 1893.23 1360.61 1886.18 1346.18 1881.24 1336.59 L 1886.27 1325.35 C 1892.56 1320.8 1910.07 1313.92 1920.39 1307.15 C 1891.55 1258.72 1901.95 1273.41 1937.26 1243.52 C 1907.29 1198.83 1916.45 1209.28 1950 1178.8 C 1917.56 1137.08 1927.6 1145.91 1960.33 1114.47 C 1945.34 1093.11 1924.22 1084.3 1950.25 1062.39 C 1954.58 1058.74 1960.75 1051.82 1964.54 1047.54 C 1933.45 1010.97 1930.38 1022.51 1963.73 982.432 C 1956.56 974.458 1945.97 964.744 1938.1 957.081 C 1935.76 950.826 1937.06 947.051 1940.96 941.859 C 1947.25 933.472 1954.19 925.244 1960.74 917.033 C 1923.55 885.176 1922.63 892.145 1949.34 851.215 C 1938.31 841.586 1926.32 835.572 1916.94 823.414 C 1920.12 813.606 1930.13 798.538 1934.97 786.929 C 1890.63 755.744 1899.09 776.515 1916.42 725.216 C 1905.64 717.794 1893.85 713.565 1882.89 704.261 C 1884.33 695.841 1892.74 672.986 1895.78 664.07 C 1844.15 638.093 1855.86 659.467 1868.3 604.223 C 1821.13 584.244 1825.94 598.333 1837.77 546.689 C 1824.92 542.158 1810.36 537.884 1798.14 532.42 C 1798.45 520.074 1802.75 501.251 1805.27 488.742 C 1752.29 481.895 1764.6 482.545 1765.1 435.665 C 1716.09 430.874 1723.12 437.585 1724.92 386.024 C 1710.88 385.032 1697.22 385.477 1683.13 383.918 C 1682.5 369.351 1681.2 355.297 1680.83 340.555 C 1633.45 341.98 1636.23 347.122 1632.7 296.755 C 1619.03 298.044 1605.36 299.49 1591.71 301.094 C 1589.06 292.517 1585.19 268.499 1583.32 258.498 C 1573.99 259.576 1550.49 265.366 1544.21 262.873 C 1538.72 258.032 1535.02 235.473 1532.48 225.799 C 1487.73 235.016 1493.58 238.379 1481.99 194.318 C 1469.44 197.205 1456.96 200.385 1444.56 203.854 C 1440.38 196.41 1433 177.057 1429.48 168.352 C 1384.69 182.927 1395.04 185.735 1373.76 144.918 C 1328.36 158.469 1340.66 167.691 1315.21 122.685 C 1302.98 126.255 1290.67 134.866 1278.06 138.015 C 1271.33 129.918 1261.19 114.23 1254.24 104.769 C 1241.97 110.969 1230.18 117.836 1217.99 124.202 C 1207.51 111.426 1204.24 104.765 1191.78 91.7723 C 1180.78 97.3425 1168.45 105.331 1157.03 111.44 C 1147.53 103.1 1137.6 91.198 1127.82 81.9908 C 1119.9 86.7307 1100.52 101.948 1094.95 103.009 C 1088.39 102.102 1071.65 83.8693 1065.17 77.7452 C 1054.36 86.2876 1043.43 94.6815 1032.39 102.925 C 1024.2 97.3622 1009.65 84.1993 1000.76 77.1671 C 991.244 84.8874 979.886 95.8677 970.679 104.346 C 962.252 99.669 945.634 86.8893 937.358 80.8729 C 930.715 88.234 915.645 103.658 907.845 109.433 C 896.351 102.714 884.857 95.679 873.438 88.8063 C 840.795 123.02 856.766 126.249 811.318 101.568 C 802.742 111.652 793.237 125.899 785.557 134.201 C 774.58 129.945 760.259 122.98 748.958 118.091 C 741.241 129.22 733.785 141.197 726.462 152.64 C 715.996 149.519 699.63 142.599 689.011 138.45 C 681.524 148.323 675.189 165.149 666.466 174.138 C 653.383 170.213 641.319 166.605 628.49 161.932 C 608.82 203.059 622.776 205.997 571.681 190.902 C 555.6 239.096 561.259 228.935 514.423 223.946 C 500.224 268.244 518.361 266.059 463.309 259.461 C 450.646 306.85 464.897 301.914 412.362 299.496 C 405.166 348.378 414.742 342.186 364.492 341.859 C 360.551 394.146 371.132 382.659 318.873 386.633 C 322.638 439.466 327.236 427.229 278.708 437.574 C 286.847 483.051 284.531 480.841 242.634 488.93 C 243.843 502.086 246.702 519.223 248.623 532.645 C 239.676 536.911 219.075 542.62 208.663 545.754 C 220.068 594.662 225.089 586.114 177.114 603.325 C 180.15 614.836 188.609 632.718 188.415 643.644 C 188.3 650.123 158.471 660.696 151.573 664.869 C 166.789 712.198 177.129 701.815 127.098 726.121 C 132.065 738.436 141.237 754.484 144.9 766.238 C 133.171 775.536 119.472 781.126 109.304 789.542 C 133.017 832.91 141.298 822.023 96.1115 852.806 C 120.083 893.614 130.918 881.512 85.6947 916.798 C 115.139 956.94 123.774 945.011 81.8977 982.561 C 91.5786 995.262 105.047 1004.18 109.136 1018.6 C 103.785 1028.03 90.3572 1039.96 82.4029 1049.57 C 104.238 1074.21 124.783 1074.16 94.3242 1105.34 C 91.7205 1108.01 88.1948 1112.6 85.6484 1115.61 C 122.648 1146.9 127.628 1138.09 95.5617 1180.01 C 108.316 1191.85 122.361 1197.59 129.304 1211.56 C 123.843 1224.66 116.455 1233.04 110.711 1246.06 C 115.351 1249.46 121.466 1253.25 125.789 1256.29 C 141.319 1267.18 150.674 1268.25 139.471 1288.58 C 136.947 1293.16 131.693 1305.24 130.113 1310.32 C 141.903 1317.98 156.397 1323.64 164.626 1334.83 C 161.192 1346.17 155.105 1359.42 151.08 1371.78 C 174.992 1386.24 196.994 1384.69 182.446 1415.05 C 180.514 1419.09 178.556 1428.29 177.731 1432.73 L 177.372 1434.72 C 230.54 1450.71 216.822 1447.51 207.135 1493.8 C 219.086 1497.52 231.606 1498.61 243.208 1502.71 C 245.665 1505.12 247.522 1507.78 249.603 1510.52 C 245.966 1524.22 243.952 1535.76 242.21 1549.66 C 296.274 1551.83 280.254 1554.53 279.05 1598.88 C 293.968 1601.61 321.825 1596.32 321.077 1615.62 C 320.702 1625.29 319.932 1636.91 319.415 1646.77 C 329.619 1647.73 339.833 1648.58 350.055 1649.3 C 351.553 1653.18 353.319 1657.49 353.047 1661.55 L 352.015 1662.01 C 342.685 1654.39 320.501 1662.12 311.51 1652.45 C 307.665 1648.32 310.009 1621.31 309.945 1612.13 C 259.925 1607.01 265.366 1615.35 271.891 1561.6 C 222.901 1558.15 227.182 1563.5 237.48 1512.41 C 191.022 1499.69 190.372 1509.11 206.363 1455.88 C 158.889 1441.44 160.11 1443.9 177.589 1398.28 C 133.781 1371.98 132.675 1388.26 152.27 1337.13 C 117.118 1310.57 108.466 1324.57 133.326 1275.04 C 92.6039 1244.1 92.072 1257.28 117.729 1211.11 C 79.2415 1178.34 75.901 1191.61 105.699 1147.06 C 98.9901 1140.09 77.8836 1123.91 75.3755 1116.67 C 73.2124 1110.42 94.0431 1090.38 99.527 1082.68 L 100.161 1081.77 C 94.7337 1075.91 85.7329 1067.78 79.9391 1062.41 C 64.305 1047.93 73.264 1042.75 84.816 1030.29 C 88.7632 1026.03 93.6945 1021.24 97.9742 1016.95 C 63.2335 972.275 59.0171 996.144 100.088 951.165 C 92.2487 941.851 77.7578 926.008 73.1811 915.35 C 81.8466 906.738 95.7689 895.383 105.476 886.457 C 98.4697 876.189 87.7619 861.101 83.3319 849.977 C 90.9644 842.558 108.741 830.814 118.293 823.611 C 111.339 813.668 100.583 797.476 96.7701 786.251 C 104.912 778.36 121.606 769.039 132.023 762.751 C 112.047 714.447 103.314 724.665 154.603 700.84 C 148.393 687.048 143.419 673.505 138.162 659.342 C 146.134 653.4 167.321 645.051 177.63 640.243 C 164.16 589.287 155.329 600.242 205.305 581.041 C 193.908 531.806 188.308 539.806 237.373 525.478 C 236.22 518.851 234.935 512.247 233.517 505.671 C 232.306 499.922 228.302 486.102 232.299 482.056 C 237.504 476.787 262.299 473.387 270.708 471.661 L 268.042 427.733 C 281.028 425.077 296.053 422.839 309.225 420.552 C 309.438 410.024 307.313 385.211 311.472 378.947 C 318.039 374.203 341.872 375.08 351.77 374.704 C 353.323 360.28 353.612 344.956 355.867 330.897 L 396.679 331.32 C 403.36 282.261 394.712 286.678 445.309 289.877 C 456.643 244.298 443.133 245.234 495.413 252.937 C 514.709 201.498 492.48 212.326 550.232 217.324 C 555.65 204.758 558.302 191.665 564.465 178.697 C 579.871 181.095 591.259 184.771 606.226 187.987 C 628.428 142.976 609.046 147.557 662.98 161.253 C 669.878 150.194 676.18 134.698 683.723 124.711 C 694.113 127.636 709.815 134.842 720.863 138.921 C 730.356 127.9 736.558 114.625 745.319 104.815 C 755.503 108.315 772.041 116.364 781.467 121.385 C 815.116 82.817 794.705 80.4274 843.567 105.539 C 853.268 96.3524 861.476 84.425 872.122 74.7019 C 885.068 81.9521 893.932 87.7402 906.379 95.8556 C 914.374 88.0956 928.217 73.9512 936.457 67.5142 C 945.187 72.0444 960.814 83.5808 969.505 89.6898 C 979.049 82.1795 989.622 71.9013 998.633 63.5525 z" fill="rgb(2,57,110)" transform="translate(0,0)"></path>
<metadata><recraft-signature>{"signed_by": "recraft", "signature_b64": "mbXk9tjtoast+DaRvatWR9Fnh5ZQx/HeOj/IRE+j9LTvbgFcgl9Zq0SgXSffrcdTznZSZXqPjQ627fj0oQxJAw==", "signing_algo": "Ed25519", "generation_timestamp": 1782919057, "identifier": "eaf6fc5d-eb82-46eb-a132-bea4da87e958"}</recraft-signature></metadata></svg>