<svg xmlns="http://www.w3.org/2000/svg" height="1024" preserveAspectRatio="none" style="display: block;" version="1.1" viewBox="0 0 2048 1365" width="1536">
<path d="M 0 0 L 2048 0 L 2048 1365 L 0 1365 L 0 0 z" fill="rgb(255,255,255)" transform="translate(0,0)"></path>
<path d="M 328.168 320.426 C 380.457 316.526 428.647 330.417 472.929 357.397 C 483.105 342.237 495.515 330.904 513.542 326.129 C 529.209 321.843 545.947 324.121 559.899 332.438 C 573.641 340.54 584.031 353.442 587.817 368.988 C 594.924 398.172 580.356 415.842 566.244 439.128 C 574.267 458.86 580.12 479.407 583.7 500.406 C 592.715 550.277 586.228 615.207 561.421 659.7 C 547.375 684.893 523.563 718.044 506.971 742.481 L 415.421 874.803 C 434.224 879.372 452.261 886.657 468.965 896.426 C 486.062 906.559 504.563 923.402 508.61 943.528 C 520.278 1001.55 449.788 1027.78 406.345 1037.81 C 346.477 1049.67 271.115 1045.02 217.777 1012.79 C 201.055 1002.67 183.57 986.145 179.535 966.122 C 168.398 910.863 236.326 882.119 278.276 872.436 L 188.466 749.777 C 165.025 717.098 139.263 682.198 123.199 645.368 C 112.034 620.216 105.407 593.286 103.624 565.825 C 94.3568 429.734 195.026 328.87 328.168 320.426 z" fill="rgb(6,41,87)" transform="translate(0,0)"></path>
<path d="M 151.223 427.811 C 163.627 405.346 197.904 376.57 219.757 363.867 C 276.837 330.687 343.891 324.138 407.127 340.097 C 412.136 341.69 419.123 343.684 423.853 345.601 C 440.765 351.12 453.831 359.285 469.382 367.726 C 462.08 393.714 467.115 403.641 479.309 425.687 L 496.383 456.228 C 501.174 464.764 518.638 497.239 523.553 503.662 C 525.949 503.451 526.376 502.764 528.179 501.169 C 531.966 493.523 536.185 487.152 540.76 479.967 C 546.538 470.45 552.487 460.244 558.433 450.901 C 580.897 510.764 582.915 584.178 556.601 643.458 C 543.26 673.511 526.687 690.536 509.821 716.904 C 507.847 720 499.257 734.055 497.612 735.951 C 450.742 811.032 390.115 883.922 347.767 962.307 C 343.172 954.466 338.191 946.421 333.871 938.459 C 318.227 909.621 299.292 883.71 280.207 857.079 L 274.118 849.227 C 272.893 847.878 268.099 840.489 266.485 838.238 C 259.217 828.11 251.885 818.029 244.489 807.994 C 216.62 770.557 177.125 718.716 153.696 678.914 L 149.985 672.923 C 134.206 651.261 120.878 611.808 117.202 585.418 C 111.316 543.17 114.149 500.784 132.098 461.614 C 134.665 456.011 140.563 443.425 143.966 438.787 C 146.39 434.631 148.408 431.729 151.223 427.811 z" fill="rgb(66,131,146)" transform="translate(0,0)"></path>
<path d="M 312.583 512.814 L 314.694 508.664 C 316.847 519.328 317.64 526.7 307.801 533.203 C 302.355 536.803 303.001 538.204 302.858 544.256 C 305.697 549.929 315.788 553.621 320.682 558.761 C 328.624 567.104 331.836 575.502 335.943 585.872 C 339.706 594.153 336.495 592.375 336.497 598.277 C 339.884 618.284 334.878 677.842 332.086 698.458 C 325.012 703.435 322.789 705.655 314.322 704.761 C 312.033 708.236 306.717 742.054 304.803 749.5 C 301.49 762.381 299.051 776.713 294.079 789.902 C 302.924 789.005 306.437 788.784 314.031 784.354 C 315.475 783.83 314.714 783.995 316.609 784.599 C 321.46 800.202 284.292 825.377 272.285 814.936 C 267.599 810.862 269.871 781.826 270.083 774.775 C 268.857 775.592 267.617 776.389 266.364 777.163 C 225.331 802.519 224.166 785.472 234.055 749.483 L 237.118 738.273 C 240.299 723.858 252.218 675.541 250.081 664.732 C 247.737 665.607 247.546 665.448 245.113 665.355 C 242.088 663.534 243.076 664.337 241.622 660.194 L 240.396 652.462 C 238.505 647.882 236.687 643.749 239.783 639.564 L 239.872 638.716 C 237.827 637.419 237.485 636.551 236.664 634.485 C 228.452 615.469 229.817 602.066 235.036 582.621 C 239.461 566.133 244.022 541.651 265 539.142 C 273.366 538.141 275.888 538.079 279.087 530.558 L 279.594 529.351 L 281.422 530.602 C 279.956 535.098 279.008 535.263 280.38 538.918 C 284.182 542.047 293.773 543.705 299.253 545.311 C 299.203 543.287 299.202 541.262 299.249 539.237 C 299.617 526.187 314.132 537.19 312.583 512.814 z" fill="rgb(0,1,4)" transform="translate(0,0)"></path>
<path d="M 257.209 633.03 C 277.256 641.613 290.004 643.35 311.972 639.016 C 315.949 670.794 314.917 682.624 308.472 714.18 C 303.182 740.084 298.636 763.2 291.396 788.94 L 289.021 790.201 L 273.043 789.839 C 273.743 768.816 274.579 674.896 268.273 660.847 L 267.204 660.939 C 263.356 669.078 276.502 728.6 264.881 743.408 C 260.54 748.941 258.062 759.844 251.176 767.297 C 247.483 766.991 245.131 767.344 241.487 767.702 C 238.961 766.731 235.785 765.973 234.432 763.823 C 235.565 754.352 239.269 742.042 241.638 732.455 C 245.204 718.196 248.333 703.832 251.022 689.383 C 254.904 668.892 254.308 651.863 257.209 633.03 z" fill="rgb(255,255,255)" transform="translate(0,0)"></path>
<path d="M 239.666 582.454 L 256.842 592.802 C 252.056 600.474 248.983 605.647 246.495 614.613 C 248.762 620.132 250.604 624.558 253.318 629.885 C 252.656 641.008 254.129 654.218 245.382 661.75 C 243.111 657.296 243.832 654.769 245.012 649.891 L 244.241 649.004 C 241.012 645.232 240.687 644.393 239.783 639.564 L 239.872 638.716 L 239.754 637.712 C 235.993 607.466 227.862 615.594 239.666 582.454 z" fill="rgb(255,255,255)" transform="translate(0,0)"></path>
<path d="M 294.079 789.902 C 302.924 789.005 306.437 788.784 314.031 784.354 C 313.051 793.472 307.98 800.525 300.605 805.532 C 276.672 821.778 271.72 817.743 273.007 792.522 C 278.412 792.275 284.272 792.539 289.021 790.201 L 291.396 788.94 L 294.079 789.902 z" fill="rgb(6,41,87)" transform="translate(0,0)"></path>
<path d="M 251.176 767.297 C 256.755 769.27 264.633 764.024 269.311 764.458 L 270.584 766.358 C 270.546 767.753 270.831 770.464 269.875 771.385 C 263.06 777.945 240.848 789.341 232.114 782.515 C 226.895 773.866 234.099 767.274 243.846 768.098 L 244.763 768.872 L 247.039 768.668 C 244.556 768.422 243.904 768.312 241.487 767.702 C 245.131 767.344 247.483 766.991 251.176 767.297 z" fill="rgb(6,41,87)" transform="translate(0,0)"></path>
<path d="M 265.431 542.168 C 276.64 541.079 295.51 546.45 305.137 551.86 C 321.767 561.206 329.115 575.802 334.159 593.306 C 324.306 599.036 318.333 600.164 307.416 602.634 C 305.357 596.353 304.835 593.893 300.779 588.794 L 299.388 589.454 L 300.503 588.647 C 295.321 594.927 309.92 609.691 311.668 614.398 C 313.406 619.079 312.918 629.346 312.717 634.38 C 291.11 640.034 277.035 638.046 257.569 628.654 C 259.242 619.56 266.419 583.035 262.717 577.325 C 260.997 578.936 260.301 588.257 259.859 591.431 C 254.222 587.622 243.343 580.773 239.077 576.087 C 244.685 561.022 248.938 547.385 265.431 542.168 z" fill="rgb(161,208,79)" transform="translate(0,0)"></path>
<path d="M 332.031 599.155 L 332.702 599.748 C 337.222 614.113 330.539 679.476 328.615 696.671 C 323.915 699.447 320.901 701.994 315.373 699.895 L 314.761 697.853 C 316.25 694.967 316.37 694.899 318.929 692.814 L 320.305 692.969 L 321.447 692.031 C 323.514 677.886 318.931 673.939 317.453 658.595 L 324.001 653.245 C 320.938 637.272 316.917 620.758 313.293 604.855 C 320.644 603.052 324.853 601.976 332.031 599.155 z" fill="rgb(255,255,255)" transform="translate(0,0)"></path>
<path d="M 269.424 741.682 C 270.394 745.409 270.006 755.757 269.981 760.117 C 266.629 761.576 262.984 762.808 259.532 764.055 C 258.842 760.856 267.524 745.353 269.424 741.682 z" fill="rgb(66,131,146)" transform="translate(0,0)"></path>
<path d="M 258.734 595.805 C 258.427 600.148 256.07 622.412 253.736 624.603 C 252.402 621.291 251.156 617.206 250.007 613.768 C 252.649 606.453 254.983 602.498 258.734 595.805 z" fill="rgb(66,131,146)" transform="translate(0,0)"></path>
<path d="M 558.433 450.901 C 580.897 510.764 582.915 584.178 556.601 643.458 C 543.26 673.511 526.687 690.536 509.821 716.904 C 500.654 700.447 488.754 682.596 478.712 666.586 L 433.144 593.306 C 473.233 574.055 545.666 532.701 540.76 479.967 C 546.538 470.45 552.487 460.244 558.433 450.901 z" fill="rgb(66,131,146)" transform="translate(0,0)"></path>
<path d="M 280.207 857.079 C 289.17 854.265 302.313 850.02 310.424 845.453 C 343.12 827.046 368.385 800.373 401.003 780.665 C 432.254 761.782 464.127 749.818 497.612 735.951 C 450.742 811.032 390.115 883.922 347.767 962.307 C 343.172 954.466 338.191 946.421 333.871 938.459 C 318.227 909.621 299.292 883.71 280.207 857.079 z" fill="rgb(66,131,146)" transform="translate(0,0)"></path>
<path d="M 151.223 427.811 C 163.627 405.346 197.904 376.57 219.757 363.867 C 276.837 330.687 343.891 324.138 407.127 340.097 C 372.558 353.01 334.03 364.553 298.805 376.204 C 249.28 392.446 200.077 409.651 151.223 427.811 z" fill="rgb(66,131,146)" transform="translate(0,0)"></path>
<path d="M 540.76 479.967 C 545.666 532.701 473.233 574.055 433.144 593.306 L 478.712 666.586 C 488.754 682.596 500.654 700.447 509.821 716.904 C 507.847 720 499.257 734.055 497.612 735.951 C 464.127 749.818 432.254 761.782 401.003 780.665 C 368.385 800.373 343.12 827.046 310.424 845.453 C 302.313 850.02 289.17 854.265 280.207 857.079 L 274.118 849.227 C 275.943 848.016 285.442 845.584 288.249 844.678 C 322.397 833.647 347.388 806.365 376.416 786.061 C 415.208 758.927 459.859 739.686 504.419 724.01 C 480.731 683.369 450.075 638.314 424.428 597.959 C 404.345 607.051 384.111 615.805 363.734 624.216 C 358.685 626.355 341.932 635.264 338.227 633.331 C 337.538 630.267 337.842 629.424 338.261 626.231 C 344.182 620.127 369.783 612.331 378.801 608.2 C 425.249 586.918 510.14 554.066 528.179 501.169 C 531.966 493.523 536.185 487.152 540.76 479.967 z" fill="rgb(255,255,255)" transform="translate(0,0)"></path>
<path d="M 149.985 672.923 C 155.207 663.698 162.114 643.074 165.379 632.757 C 174.168 604.925 181.722 577.373 190.038 549.315 C 200.629 513.579 210.963 465.183 248.899 448.608 C 270.148 439.839 295.558 443.157 316.06 451.316 C 359.499 468.603 385.117 518.415 365.685 562.558 C 360.737 573.798 348.373 593.409 336.497 598.277 C 336.495 592.375 339.706 594.153 335.943 585.872 C 415.743 518.782 303.255 411.858 236.949 466.987 C 209.39 489.9 197.869 566.654 185.06 599.912 C 176.799 622.718 164.812 658.977 153.696 678.914 L 149.985 672.923 z" fill="rgb(255,255,255)" transform="translate(0,0)"></path>
<path d="M 407.127 340.097 C 412.136 341.69 419.123 343.684 423.853 345.601 C 418.016 348.099 405.981 351.295 399.462 353.283 C 386.824 357.19 374.219 361.201 361.648 365.315 C 314.352 380.457 267.237 396.162 220.315 412.427 C 210.643 415.814 150.133 438.802 143.966 438.787 C 146.39 434.631 148.408 431.729 151.223 427.811 C 200.077 409.651 249.28 392.446 298.805 376.204 C 334.03 364.553 372.558 353.01 407.127 340.097 z" fill="rgb(255,255,255)" transform="translate(0,0)"></path>
<path d="M 279.594 529.351 C 258.841 508.291 265.804 487.389 294.675 475.903 C 307.216 470.914 315.053 482.836 317.303 494.911 C 315.259 500.51 313.463 502.594 314.694 508.664 L 312.583 512.814 C 314.132 537.19 299.617 526.187 299.249 539.237 C 299.202 541.262 299.203 543.287 299.253 545.311 C 293.773 543.705 284.182 542.047 280.38 538.918 C 279.008 535.263 279.956 535.098 281.422 530.602 L 279.594 529.351 z" fill="rgb(6,41,87)" transform="translate(0,0)"></path>
<path d="M 281.422 530.602 C 283.595 529.257 297.097 530.191 299.849 525.35 C 298.315 523.798 297.028 522.895 295.306 521.6 C 295.428 516.883 297.165 511.025 298.352 506.333 L 300.065 505.742 L 304.221 508.482 C 306.862 507.377 307.621 504.093 309.091 500.906 L 310.356 500.5 L 311.098 502.378 C 310.223 504.245 310.156 504.157 310.032 506.19 C 312.072 508.902 311.974 509.349 312.583 512.814 C 314.132 537.19 299.617 526.187 299.249 539.237 C 299.202 541.262 299.203 543.287 299.253 545.311 C 293.773 543.705 284.182 542.047 280.38 538.918 C 279.008 535.263 279.956 535.098 281.422 530.602 z" fill="rgb(255,255,255)" transform="translate(0,0)"></path>
<path d="M 241.622 660.194 C 243.076 664.337 242.088 663.534 245.113 665.355 C 247.546 665.448 247.737 665.607 250.081 664.732 C 252.218 675.541 240.299 723.858 237.118 738.273 C 226.309 723.998 208.87 689.279 200.832 672.225 C 208.601 669.947 238.108 663.981 241.622 660.194 z" fill="rgb(66,131,146)" transform="translate(0,0)"></path>
<path d="M 240.396 652.462 L 241.622 660.194 C 238.108 663.981 208.601 669.947 200.832 672.225 C 208.87 689.279 226.309 723.998 237.118 738.273 L 234.055 749.483 C 221.884 735.142 196.222 685.018 186.853 666.869 C 202.353 661.958 224.641 655.962 240.396 652.462 z" fill="rgb(255,255,255)" transform="translate(0,0)"></path>
<path d="M 282.665 881.177 C 286.901 881.471 315.946 928.725 320.556 936.199 C 301.197 946.286 281.778 956.257 262.299 966.11 C 290.403 980.749 318.759 994.899 347.354 1008.55 C 376.379 994.404 405.284 980.012 434.068 965.377 C 417.463 955.653 393.05 943.399 375.803 934.509 C 385.393 918.234 398.866 899.202 409.623 883.285 C 435.078 889.539 455.395 898.516 476.363 914.034 C 496.497 929.685 508.291 953.196 494.728 977.114 C 481.206 1000.96 447.273 1016.91 421.407 1023.77 C 360.377 1039.96 286.081 1038.75 229.533 1008.05 C 212.485 998.519 194.761 985.473 189.51 965.794 C 186.379 953.89 188.253 941.223 194.696 930.734 C 211.574 902.707 252.588 888.4 282.665 881.177 z" fill="rgb(255,255,255)" transform="translate(0,0)"></path>
<path d="M 524.319 332.253 C 550.196 331.634 573.104 344.757 580.134 370.693 C 582.542 379.347 582.413 388.51 579.763 397.092 C 575.143 412.286 539.166 466.366 528.52 484.529 C 527.016 487.009 526.689 487.384 524.678 489.498 C 518.403 483.543 495.555 434.095 487.805 422.859 C 462.854 386.689 474.602 339.977 524.319 332.253 z" fill="rgb(28,155,136)" transform="translate(0,0)"></path>
<path d="M 519.961 349.47 C 540.922 345.304 561.269 358.994 565.308 379.98 C 569.347 400.966 555.534 421.23 534.524 425.142 C 513.693 429.021 493.639 415.351 489.634 394.544 C 485.63 373.736 499.178 353.6 519.961 349.47 z" fill="rgb(6,41,87)" transform="translate(0,0)"></path>
<path d="M 519.587 357.086 C 536.38 352.747 553.488 362.938 557.667 379.771 C 561.847 396.604 551.494 413.615 534.622 417.635 C 517.975 421.601 501.24 411.416 497.116 394.807 C 492.992 378.198 503.018 361.367 519.587 357.086 z" fill="rgb(255,255,255)" transform="translate(0,0)"></path>
<path d="M 371.237 942.683 L 412.532 964.87 C 391.215 976.054 369.325 986.986 347.851 997.937 C 335.822 992.57 321.661 985.234 309.642 979.389 C 300.967 975.069 292.394 970.267 283.884 965.605 C 297.883 958.839 311.521 951.609 325.69 944.856 C 330.21 952.132 342.635 977.237 346.926 979.912 C 351.624 978.66 367.012 949.604 371.237 942.683 z" fill="rgb(255,255,255)" transform="translate(0,0)"></path>
<path d="M 1876.86 523.516 C 1876.9 520.487 1877.43 512.509 1874.15 511.923 C 1857.21 508.9 1862.1 489.154 1864.24 474.786 C 1867.26 454.588 1882.1 449.313 1900.94 455.225 C 1912.54 462.281 1916.65 482.242 1914.02 494.829 C 1909.19 503.492 1906.26 505.914 1897.8 511.401 C 1898.54 515.517 1898.74 519.18 1901.62 522.203 L 1906.21 523.483 C 1927.24 546.617 1915.66 582.975 1923.92 609.229 C 1934.09 641.513 1953.39 676.2 1966.08 707.127 C 1957.16 712.596 1949.36 717.3 1940.1 722.148 L 1954.37 804.161 C 1956.86 818.117 1959.56 832.122 1961.51 846.152 C 1961.81 848.32 1959.84 851.915 1958.88 853.933 L 1959.29 859.029 C 1964.14 866.241 1965.39 869.663 1967.71 878.04 C 1956.57 884.081 1920.1 901.077 1909.65 892.34 C 1907.86 884.398 1928.03 873.23 1933.99 868.419 L 1936.32 864.874 C 1936.69 861.27 1935.5 859.891 1933.68 856.826 C 1931.06 856.191 1930.17 856.49 1928.84 853.628 C 1920.33 835.332 1913.7 815.299 1905.77 796.779 C 1902.99 806.762 1889.17 865.013 1883.88 869.761 L 1883.17 870.411 C 1882.54 870.977 1881.98 871.454 1881.32 871.985 L 1880.36 875.101 C 1880 876.536 1879.54 878.036 1879.14 879.466 C 1878.35 876.499 1877.97 873.918 1877.48 870.908 C 1868.37 871.147 1864.29 870.684 1855.28 869.522 C 1853.72 867.622 1852.41 865.253 1852.43 862.747 C 1852.78 815.406 1852.35 767.113 1853.9 719.866 C 1844.18 716.708 1840.14 714.243 1833.37 706.994 C 1834.06 699.354 1838.02 682.806 1839.72 674.296 C 1842.89 658.222 1845.74 642.088 1848.28 625.903 C 1836.12 631.375 1830.01 634.091 1816.82 636.62 C 1814.67 638.527 1808.67 644.092 1806.19 644.471 C 1798.81 645.599 1778.86 635.915 1777.05 629.154 C 1781.74 623.888 1802.23 622.909 1809.35 622.892 C 1823.52 610.719 1837.28 601.6 1852 587.943 C 1842.83 565.697 1844.42 552.163 1863.09 535.547 C 1866.57 531.825 1872.8 526.915 1876.86 523.516 z" fill="rgb(6,15,49)" transform="translate(0,0)"></path>
<path d="M 1868.63 539.025 L 1869.38 539.701 C 1871.55 538.524 1873.77 537.432 1876.03 536.428 C 1883.56 533.08 1899.24 526.175 1906.8 529.103 C 1919.09 540.882 1913.73 556.459 1906.34 569.091 C 1887.96 600.366 1857.93 623.074 1822.83 632.233 C 1820.67 628.612 1818.34 625.205 1815.98 621.71 C 1845.23 599.863 1872.37 580.437 1880.44 542.971 L 1879.66 542.08 C 1877.56 545.026 1874.43 554.602 1872.88 558.547 C 1868.06 570.806 1862.38 577.326 1853.75 586.679 C 1845.88 562.907 1849.11 555.287 1866.21 536.325 L 1867.23 535.803 L 1868.63 539.025 z" fill="rgb(28,155,136)" transform="translate(0,0)"></path>
<path d="M 1922.98 725.184 L 1937.02 724.835 C 1945.27 765.14 1951.12 806.73 1959.08 847.191 C 1952.3 850.326 1949.65 851.635 1942.25 853.386 C 1939.04 853.74 1937.76 853.746 1934.77 854.842 C 1934.66 854.752 1934.56 854.66 1934.45 854.572 C 1927.52 849.012 1911.94 802.54 1907.3 790.955 C 1911.1 771.528 1918.26 745.179 1922.98 725.184 z" fill="rgb(255,255,255)" transform="translate(0,0)"></path>
<path d="M 1876.86 523.516 C 1876.9 520.487 1877.43 512.509 1874.15 511.923 C 1857.21 508.9 1862.1 489.154 1864.24 474.786 C 1867.26 454.588 1882.1 449.313 1900.94 455.225 C 1912.54 462.281 1916.65 482.242 1914.02 494.829 C 1909.19 503.492 1906.26 505.914 1897.8 511.401 C 1898.54 515.517 1898.74 519.18 1901.62 522.203 C 1894.23 523.865 1886.63 523.801 1879.36 525.138 C 1877.02 527.316 1868.41 534.465 1867.23 535.803 L 1866.21 536.325 L 1863.09 535.547 C 1866.57 531.825 1872.8 526.915 1876.86 523.516 z" fill="rgb(0,1,4)" transform="translate(0,0)"></path>
<path d="M 1870.51 464.988 C 1873.14 460.192 1875.49 458.237 1880.81 456.695 C 1906.2 449.334 1919.39 479.98 1908.39 499.364 C 1905.14 505.09 1899.97 508.551 1893.43 509.604 C 1895.26 512.276 1895.78 517.417 1896.4 520.834 C 1890.34 520.88 1886.2 521.308 1880.16 522.003 C 1878.73 506.927 1881.8 510.443 1869.01 506.824 C 1861.36 500.22 1866.84 473.283 1870.51 464.988 z" fill="rgb(255,255,255)" transform="translate(0,0)"></path>
<path d="M 1870.51 464.988 C 1873.14 460.192 1875.49 458.237 1880.81 456.695 C 1906.2 449.334 1919.39 479.98 1908.39 499.364 C 1905.14 505.09 1899.97 508.551 1893.43 509.604 C 1889.76 506.646 1888.73 501.555 1891.19 497.511 C 1904.12 496.461 1906.6 477.927 1886.09 479.067 C 1882.05 477.353 1873.87 468.494 1870.51 464.988 z" fill="rgb(6,41,87)" transform="translate(0,0)"></path>
<path d="M 1886.09 479.067 C 1906.6 477.927 1904.12 496.461 1891.19 497.511 C 1897.48 493.339 1899.33 491.953 1898.21 483.995 C 1893.37 479.69 1888.89 488.367 1884.22 487.961 C 1883.86 485.091 1885.19 481.948 1886.09 479.067 z" fill="rgb(6,15,49)" transform="translate(0,0)"></path>
<path d="M 1942.25 853.386 L 1942.91 854.811 C 1950.07 856.951 1952.91 849.387 1954.52 854.475 C 1954.88 855.602 1957.01 859.97 1957.62 860.829 L 1959.29 859.029 C 1964.14 866.241 1965.39 869.663 1967.71 878.04 C 1956.57 884.081 1920.1 901.077 1909.65 892.34 C 1907.86 884.398 1928.03 873.23 1933.99 868.419 L 1936.32 864.874 C 1936.69 861.27 1935.5 859.891 1933.68 856.826 L 1934.77 854.842 C 1937.76 853.746 1939.04 853.74 1942.25 853.386 z" fill="rgb(6,41,87)" transform="translate(0,0)"></path>
<path d="M 1942.25 853.386 L 1942.91 854.811 C 1950.07 856.951 1952.91 849.387 1954.52 854.475 C 1954.88 855.602 1957.01 859.97 1957.62 860.829 C 1952.39 870.289 1943.67 868.361 1933.99 868.419 L 1936.32 864.874 C 1936.69 861.27 1935.5 859.891 1933.68 856.826 L 1934.77 854.842 C 1937.76 853.746 1939.04 853.74 1942.25 853.386 z" fill="rgb(11,69,117)" transform="translate(0,0)"></path>
<path d="M 1901.62 522.203 L 1906.21 523.483 C 1898.18 525.678 1871.92 531.982 1868.63 539.025 L 1867.23 535.803 C 1868.41 534.465 1877.02 527.316 1879.36 525.138 C 1886.63 523.801 1894.23 523.865 1901.62 522.203 z" fill="rgb(11,69,117)" transform="translate(0,0)"></path>
<path d="M 1914.75 556.868 C 1918.19 560.651 1917.52 608.887 1918.33 617.257 C 1921.75 652.583 1929.02 688.316 1936.81 722.871 C 1908.85 722.96 1889.82 723.662 1862.24 718.625 C 1850.72 715.86 1844.68 714.129 1836.59 705.532 C 1842.28 678.473 1847.23 651.266 1851.45 623.94 C 1884.97 605.22 1898.54 591.84 1914.75 556.868 z" fill="rgb(28,155,136)" transform="translate(0,0)"></path>
<path d="M 1857.02 720.886 C 1876.15 725.231 1900.2 725.916 1919.67 725.863 C 1910.44 764.243 1900.68 802.495 1890.4 840.607 L 1882.91 867.036 C 1872.59 869.112 1865.73 868.329 1855.71 865.789 L 1857.02 720.886 z" fill="rgb(255,255,255)" transform="translate(0,0)"></path>
<path d="M 1920.95 610.585 C 1924.37 617.619 1929.1 630.868 1932.49 638.961 C 1941.76 661.496 1951.64 683.78 1962.1 705.79 L 1953.68 711.058 C 1948.54 713.682 1943.86 716.565 1938.93 719.535 C 1933.83 690.983 1920.75 638.013 1920.95 610.585 z" fill="rgb(28,155,136)" transform="translate(0,0)"></path>
<path d="M 1809.58 626.486 C 1814.5 625.993 1815.71 625.484 1817.89 630.651 C 1816.96 636.422 1809.98 638.807 1804.97 641.591 C 1798.19 639.251 1787.7 635.805 1782.52 630.997 C 1789.17 629.672 1794.7 635.595 1801.85 630.699 C 1799.55 629.395 1794.65 629.283 1790.86 628.266 L 1791.62 627.418 C 1798.15 626.021 1802.97 626.36 1809.58 626.486 z" fill="rgb(255,255,255)" transform="translate(0,0)"></path>
<path d="M 1683.06 580.142 C 1693.04 580.116 1703.03 580.272 1713.01 580.611 C 1714.13 626.638 1712.37 673.568 1713.07 719.689 C 1713.36 739.312 1713.55 760.567 1712.71 780.044 C 1695.97 780.845 1674.06 780.169 1656.93 780.121 L 1656.22 687.461 C 1638.87 711.144 1621.2 734.585 1603.2 757.777 L 1581.92 757.858 C 1564.32 738.633 1542.77 703.398 1525.57 685.985 C 1527.89 709.05 1527.17 735.725 1527.1 759.25 L 1527 775.838 C 1508.72 775.839 1489.27 776.133 1471.12 775.472 L 1471.01 581.789 C 1480.19 581.11 1493.93 581.437 1503.45 581.378 C 1506.58 585.253 1509.81 589.845 1512.73 593.918 C 1538.44 629.754 1567.01 663.708 1593.07 699.23 C 1623.35 659.909 1652.48 619.108 1683.06 580.142 z" fill="rgb(6,41,87)" transform="translate(0,0)"></path>
<path d="M 1251.85 581.882 C 1306.26 580.463 1368.92 581.356 1423.76 581.79 C 1423.79 595.576 1423.64 609.362 1423.33 623.145 C 1388.78 623.68 1352.78 623.118 1318.11 623.07 L 1318.11 658.834 C 1348.75 658.642 1379.39 658.703 1410.03 659.017 C 1410.32 671.059 1410.01 684.038 1409.94 696.15 C 1383.58 696.975 1352.46 696.249 1325.75 696.271 C 1322.43 696.101 1321.19 695.66 1318.61 697.404 C 1317.62 703.538 1318.17 726.104 1318.19 733.462 C 1353.31 733.135 1390.75 732.659 1425.75 733.38 C 1425.95 747.453 1425.91 761.528 1425.65 775.6 C 1413.72 776.701 1380.93 775.841 1367.79 775.796 L 1251.87 775.539 C 1250.31 712.784 1251.79 645.148 1251.85 581.882 z" fill="rgb(6,41,87)" transform="translate(0,0)"></path>
<path d="M 745.014 579.398 C 778.478 575.007 813.49 583.334 843.834 597.082 C 838.076 610.243 831.089 624.473 824.946 637.571 C 807.664 628.174 789.045 623.625 769.495 622.085 C 758.54 621.061 727.801 620.725 729.108 637.835 C 730.236 652.595 772.364 657.928 783.905 660.391 C 791.816 662.045 799.64 664.092 807.348 666.523 C 846.901 679.116 872.742 711.46 840.338 750.61 C 822.308 772.394 785.144 777.605 757.607 778.616 C 720.141 777.631 696.097 772.707 661.017 759.214 C 668.461 743.905 675.398 728.353 681.816 712.586 C 686.105 716.052 690.177 718.891 695.043 721.503 C 711.621 730.401 771.191 743.401 784.193 728.999 C 786.284 726.713 787.274 723.629 786.906 720.553 C 784.937 704.774 745.426 701.158 732.112 698.05 C 704.785 691.67 668.778 683.755 665.214 649.439 C 660.25 601.642 705.123 583.629 745.014 579.398 z" fill="rgb(6,41,87)" transform="translate(0,0)"></path>
<path d="M 1020.2 581.616 L 1211.47 582.053 C 1205.77 593.119 1185.62 620.924 1177.7 632.294 C 1155.39 664.281 1132.04 698.907 1108.25 729.782 C 1140.54 730.194 1175 728.564 1206.77 729.682 C 1207.37 743.727 1206.96 761.171 1207.01 775.472 C 1202.01 776.501 1150.42 775.912 1141.88 775.886 C 1102.5 775.769 1062.38 775.745 1022.9 776.017 C 1019.49 776.041 1015.14 775.761 1011.99 774.389 L 1011.5 772.162 C 1019.04 759.005 1038.7 732.223 1047.93 719.149 L 1112.88 626.945 L 1020.25 626.822 C 1019.79 611.818 1020.07 596.638 1020.2 581.616 z" fill="rgb(6,41,87)" transform="translate(0,0)"></path>
<path d="M 650.956 890.903 L 1406.05 890.934 L 1654.07 890.934 L 1734.16 890.944 C 1748.24 890.947 1762.5 890.851 1776.58 891.103 C 1780.25 891.169 1780.68 891.595 1783.01 893.547 C 1784.44 897.077 1784.13 898.005 1783.62 901.839 C 1777 904.213 1714.82 903.039 1704.53 903.049 L 1525.29 903.07 L 651.021 902.928 L 650.956 890.903 z" fill="rgb(66,131,146)" transform="translate(0,0)"></path>
<path d="M 899.999 581.257 C 921.027 581.817 943.056 581.386 964.167 581.252 C 963.956 626.037 963.985 670.824 964.256 715.609 C 964.285 725.665 964.98 768.647 963.545 775.889 L 899.591 775.247 C 898.701 733.999 899.725 690.827 899.495 649.474 C 899.416 635.243 898.431 593.511 899.999 581.257 z" fill="rgb(6,41,87)" transform="translate(0,0)"></path>
<path d="M 1900.94 455.225 C 1903.86 449.157 1905.37 445.652 1910.27 441.065 C 1924.61 427.666 1946.53 437.745 1951.41 455.412 C 1953.8 464.34 1952.51 473.85 1947.85 481.826 C 1940.52 494.252 1927.88 499.775 1914.02 494.829 C 1916.65 482.242 1912.54 462.281 1900.94 455.225 z" fill="rgb(6,41,87)" transform="translate(0,0)"></path>
<path d="M 1855.28 869.522 C 1864.29 870.684 1868.37 871.147 1877.48 870.908 C 1877.97 873.918 1878.35 876.499 1879.14 879.466 C 1879.54 878.036 1880 876.536 1880.36 875.101 C 1881.03 886.128 1881.75 892.962 1880.32 903.922 C 1868.41 904.757 1813.19 908.251 1809.69 896.831 C 1810.22 894.436 1810.31 891.913 1812.8 890.735 C 1824.4 885.245 1840.76 882.083 1853.1 878.143 C 1855.64 876.745 1855.09 872.292 1855.28 869.522 z" fill="rgb(6,41,87)" transform="translate(0,0)"></path>
<path d="M 1855.28 869.522 C 1864.29 870.684 1868.37 871.147 1877.48 870.908 C 1877.29 874.411 1877.53 878.718 1874.79 881.297 C 1868.5 887.215 1858.43 884.284 1853.1 878.143 C 1855.64 876.745 1855.09 872.292 1855.28 869.522 z" fill="rgb(11,69,117)" transform="translate(0,0)"></path>
<path d="M 1002.14 825.072 C 1005.53 824.476 1008.15 824.377 1011.25 825.995 C 1016.76 828.865 1012.89 825.572 1018.27 824.92 C 1021.61 828.904 1020.57 836.525 1020.65 841.84 C 1020.5 848.705 1019.87 856.628 1014.54 861.551 C 1009.71 866.007 999.553 864.43 995.688 859.452 C 997 858.294 997.481 858.197 999.079 857.445 C 1004.59 859.412 1009.85 860.655 1014.02 855.381 C 1015.04 852.282 1015.15 852.148 1014.5 849.048 C 1008.57 850.319 1001.75 852.588 996.877 848.164 C 992.666 840.537 995.712 830.619 1002.14 825.072 z" fill="rgb(6,15,49)" transform="translate(0,0)"></path>
<path d="M 1005.67 828.754 C 1017.6 830.804 1016.99 840.241 1010.03 847.792 C 997.976 846.653 998.804 835.954 1005.67 828.754 z" fill="rgb(255,255,255)" transform="translate(0,0)"></path>
<path d="M 1106.68 813.533 L 1110.06 814.356 C 1112.5 817.7 1112.07 850.113 1110.03 852.614 L 1104.27 851.662 C 1099.44 853.763 1098.65 854.234 1093.44 853.57 C 1080.3 844.024 1084.99 819.247 1104.99 826.606 L 1105.84 826.029 C 1105.93 821.182 1106.02 818.331 1106.68 813.533 z" fill="rgb(6,15,49)" transform="translate(0,0)"></path>
<path d="M 1095.84 829.595 C 1109.11 829.113 1109.16 841.169 1101.85 848.693 C 1088.57 849.581 1089.66 837.7 1095.84 829.595 z" fill="rgb(255,255,255)" transform="translate(0,0)"></path>
<path d="M 1735.46 824.445 L 1739.38 826.328 C 1755.8 823.432 1764.43 829.602 1757.67 847.468 C 1756.44 850.718 1750.26 852.426 1747.06 853.216 C 1744.72 852.383 1741.83 850.999 1739.51 849.975 C 1739.72 854.772 1740.43 860.32 1737.4 864.195 C 1732.78 859.481 1732.96 829.843 1735.46 824.445 z" fill="rgb(6,15,49)" transform="translate(0,0)"></path>
<path d="M 1742.9 829.902 C 1756.13 828.581 1757.8 839.825 1750.22 848.206 C 1737.51 848.451 1735.68 838.54 1742.9 829.902 z" fill="rgb(255,255,255)" transform="translate(0,0)"></path>
<path d="M 1402.42 828.784 C 1402.1 824.402 1401.56 820.615 1402.6 816.343 L 1404.15 814.625 C 1409.08 818.705 1409.51 847.945 1406.29 852.989 C 1403.57 852.889 1404.46 852.94 1401.89 850.361 C 1376.49 871.072 1378.16 807.15 1402.42 828.784 z" fill="rgb(255,255,255)" transform="translate(0,0)"></path>
<path d="M 1401.89 850.361 C 1376.49 871.072 1378.16 807.15 1402.42 828.784 L 1402.29 833.221 C 1399.33 830.834 1398.63 829.964 1394.9 829.751 C 1382.89 833.858 1386.84 853.764 1401.11 847.258 L 1401.89 850.361 z" fill="rgb(6,15,49)" transform="translate(0,0)"></path>
<path d="M 1402.42 828.784 C 1402.1 824.402 1401.56 820.615 1402.6 816.343 L 1404.15 814.625 C 1409.08 818.705 1409.51 847.945 1406.29 852.989 C 1403.57 852.889 1404.46 852.94 1401.89 850.361 L 1401.11 847.258 C 1402.38 843.345 1402.2 837.508 1402.29 833.221 L 1402.42 828.784 z" fill="rgb(6,41,87)" transform="translate(0,0)"></path>
<path d="M 1199.63 813.202 C 1201.27 813.81 1203.35 814.2 1203.53 816.123 C 1204.11 822.731 1205.65 848.654 1202.89 853.065 C 1198.76 854.009 1202.1 851.775 1197.5 850.95 C 1191.29 854.181 1191.57 854.35 1185.03 852.799 C 1178.41 846.294 1175.52 832.28 1184.82 826.087 C 1188.57 823.593 1194.13 826.52 1198.18 828.031 C 1198.74 826.79 1199.28 816.114 1199.63 813.202 z" fill="rgb(6,15,49)" transform="translate(0,0)"></path>
<path d="M 1188.5 829.643 L 1189.5 829.737 C 1191.77 829.933 1193.81 829.932 1195.7 831.306 C 1197.8 832.836 1199.11 835.208 1199.3 837.794 C 1199.67 842.657 1197.82 845.67 1194.98 849.137 C 1182.32 848.534 1182.65 838.107 1188.5 829.643 z" fill="rgb(255,255,255)" transform="translate(0,0)"></path>
<path d="M 1565.97 841.122 C 1569.62 834.276 1574.14 816.5 1581.75 815.775 C 1586.38 819.746 1585.11 848.309 1581.93 854.016 L 1580.94 853.346 C 1578.7 846.3 1579.02 842.039 1579.01 834.75 C 1579.1 831.582 1579.09 830.776 1578.47 827.678 C 1574.33 830.829 1574.42 844.154 1565.29 846.223 C 1559.36 843.491 1555.86 832.213 1553.12 825.816 C 1553.08 831.601 1553.6 848.824 1550.51 852.868 L 1549.12 852.72 C 1545.87 847.528 1547.92 822.903 1548.13 815.38 L 1552.1 815.805 C 1556.56 818.143 1562.63 834.641 1565.97 841.122 z" fill="rgb(6,15,49)" transform="translate(0,0)"></path>
<path d="M 1428 824.989 C 1446.64 824.774 1450.55 845.23 1433.94 853.943 C 1415.06 853.462 1411.92 833.944 1428 824.989 z" fill="rgb(6,15,49)" transform="translate(0,0)"></path>
<path d="M 1428.78 829.744 C 1441.77 830.045 1441.89 841.891 1433.24 849.392 C 1421.1 847.9 1420.02 837.217 1428.78 829.744 z" fill="rgb(255,255,255)" transform="translate(0,0)"></path>
<path d="M 1130.08 825.108 C 1149.68 822.15 1153.91 842.766 1139.44 853.428 C 1121.41 856.033 1116.22 835.768 1130.08 825.108 z" fill="rgb(6,15,49)" transform="translate(0,0)"></path>
<path d="M 1133.82 828.698 C 1145.3 831.987 1145.03 843.354 1136.12 849.695 C 1133.46 849.095 1131.25 848.408 1129.5 846.13 C 1127.63 843.674 1126.88 840.545 1127.43 837.507 C 1128.26 832.856 1130.11 831.127 1133.82 828.698 z" fill="rgb(255,255,255)" transform="translate(0,0)"></path>
<path d="M 798.046 823.891 C 800.586 824.296 802.469 824.373 804.407 826.035 C 805.437 826.926 806.449 827.838 807.441 828.772 C 811.633 825.403 814.249 823.196 819.879 825.253 C 825.222 829.628 826.401 847.345 823.94 852.511 L 821.91 852.968 C 815.561 849.26 822.556 837.282 817.54 830.539 C 813.356 829.056 814.935 828.998 811.292 830.128 C 807.35 834.788 808.249 841.221 808.385 847.25 L 808.29 850.563 C 806.424 853.102 807.608 852.366 804.809 853.119 C 801.821 848.963 805.561 832.234 796.965 828.997 C 789.442 833.901 792.65 849.706 789.804 852.657 L 787.756 852.295 C 786.327 849.385 786.207 829.878 787.974 826.9 C 794.446 825.833 792.242 827.805 798.046 823.891 z" fill="rgb(6,15,49)" transform="translate(0,0)"></path>
<path d="M 1060.07 825.106 C 1062.18 824.855 1064.03 824.812 1066.14 824.719 C 1076.91 824.24 1080.92 848.654 1073.66 853.606 L 1070.53 851.604 C 1065.04 853.71 1064.12 854.204 1058.38 853.31 C 1043.49 839.766 1067.29 837.504 1070.34 832.93 C 1066.76 827.124 1060.82 832.657 1056.61 829.47 C 1057.54 826.711 1057.56 827.347 1060.07 825.106 z" fill="rgb(6,15,49)" transform="translate(0,0)"></path>
<path d="M 1063.33 840.095 C 1067.52 839.98 1069.19 839.346 1071 843.28 C 1070.12 846.674 1069.12 847.23 1066.42 849.581 C 1062.57 849.339 1060.85 849.273 1059.12 845.648 C 1060.4 841.927 1060.04 843.053 1063.33 840.095 z" fill="rgb(255,255,255)" transform="translate(0,0)"></path>
<path d="M 764.295 823.971 C 771.484 824.577 777.764 829.143 777.386 836.861 C 772.845 842.59 766.662 839.068 758.575 841.679 L 757.848 843.218 C 761.904 850.574 766.437 849.229 773.769 848.391 C 774.116 848.572 775.016 849.669 775.33 850.019 L 774.521 851.447 C 766.231 855.667 757.705 854.941 753.727 845.565 C 751.972 841.404 751.967 836.711 753.712 832.545 C 756.006 827.213 759.372 825.956 764.295 823.971 z" fill="rgb(6,15,49)" transform="translate(0,0)"></path>
<path d="M 762.916 828.506 C 766.967 829.196 772.631 830.554 771.41 836.068 L 769.094 836.83 C 764.803 836.872 761.966 837.474 758.723 835.35 C 759.489 831.55 760.209 831.674 762.916 828.506 z" fill="rgb(255,255,255)" transform="translate(0,0)"></path>
<path d="M 1773.22 825.12 C 1777.79 824.722 1782.81 823.898 1786.41 827.166 C 1791.76 832.028 1793.1 848.215 1788.14 853.138 C 1784.07 853.052 1785.74 849.617 1783.6 850.527 C 1776.9 853.385 1777.8 853.807 1770.81 851.971 C 1767.27 847.621 1766.14 844.863 1769.01 840.164 C 1773.3 837.15 1779.17 836.441 1784.45 835.246 L 1784.24 832.402 C 1779.36 827.205 1776.5 831.36 1770.46 829.741 C 1770.57 826.959 1770.64 827.773 1773.22 825.12 z" fill="rgb(6,15,49)" transform="translate(0,0)"></path>
<path d="M 1773.84 841.107 C 1777.32 840.789 1780.75 840.014 1783.73 841.455 C 1784.87 844.41 1784.11 844.756 1783.11 848.309 C 1779.2 848.95 1777.02 849.308 1773.76 847.275 C 1772.56 843.663 1772.67 845.229 1773.84 841.107 z" fill="rgb(255,255,255)" transform="translate(0,0)"></path>
<path d="M 1358.08 825.118 C 1363.85 824.622 1368.39 824.68 1370.84 830.865 C 1372.71 835.594 1376.74 851.463 1370.34 853.373 L 1367.26 851.438 C 1360.59 853.543 1360.5 854.378 1353.85 852.662 C 1351.23 849.78 1350.21 848.085 1350.08 844.313 C 1353.16 837.443 1358.18 838.546 1366.26 834.976 L 1366.86 833.222 C 1362.14 827.701 1356.79 831.935 1352.53 829.624 C 1353.84 827.248 1355.65 826.552 1358.08 825.118 z" fill="rgb(6,41,87)" transform="translate(0,0)"></path>
<path d="M 1356.56 841.118 C 1360.96 840.736 1363.7 839.972 1366.92 842.369 C 1367.36 845.311 1366.78 845.916 1365.48 848.773 C 1361.51 849.09 1359.87 849.407 1356.75 847.297 C 1355.52 843.646 1355.68 845.218 1356.56 841.118 z" fill="rgb(255,255,255)" transform="translate(0,0)"></path>
<path d="M 971.847 824.925 C 979.861 824.656 987.373 827.183 987.844 836.644 C 983.73 843.276 976.196 839.411 969.186 843.015 C 969.778 849.825 977.981 849.042 982.782 848.954 L 984.457 848.357 L 985.358 849.875 L 983.806 851.93 C 967.488 860.714 952.401 837.307 971.847 824.925 z" fill="rgb(6,15,49)" transform="translate(0,0)"></path>
<path d="M 973.674 828.539 C 977.486 829.167 982.261 831.5 981.377 835.986 L 979.093 836.883 C 975.004 836.998 972.183 837.666 969.331 835.075 C 970.176 831.501 971.014 831.472 973.674 828.539 z" fill="rgb(255,255,255)" transform="translate(0,0)"></path>
<path d="M 1224.15 824.938 C 1232.28 824.466 1239.61 827.545 1239.98 836.743 C 1235.77 843.587 1226.63 839.066 1221.21 842.875 C 1222.81 850.086 1228.94 849.147 1234.65 848.802 L 1236.07 848.454 L 1236.89 849.928 L 1235.91 851.819 C 1222.09 861.205 1203.66 840.223 1224.15 824.938 z" fill="rgb(6,15,49)" transform="translate(0,0)"></path>
<path d="M 1226.91 828.635 C 1230.34 829.896 1231.55 830.72 1233.01 834.003 C 1231.49 836.735 1232.31 835.838 1228.4 836.994 C 1224.64 836.925 1223.09 837.578 1221.31 834.236 C 1222.53 831.242 1224.23 830.504 1226.91 828.635 z" fill="rgb(255,255,255)" transform="translate(0,0)"></path>
<path d="M 850.22 832.837 C 846.355 825.364 841.913 831.715 836.515 828.757 C 839.508 824.993 847.008 821.632 851.16 825.149 C 857.343 830.388 856.999 845.013 855.146 851.885 L 853.848 852.601 L 851.998 851.99 L 850.649 850.626 C 848.098 851.425 843.587 853.745 841.323 853.35 C 828.778 851.161 833.77 836.474 844.584 836.315 C 846.554 836.287 847.31 836.237 849.19 835.787 L 850.22 832.837 z" fill="rgb(6,15,49)" transform="translate(0,0)"></path>
<path d="M 850.22 832.837 C 846.355 825.364 841.913 831.715 836.515 828.757 C 839.508 824.993 847.008 821.632 851.16 825.149 C 857.343 830.388 856.999 845.013 855.146 851.885 L 853.848 852.601 L 851.998 851.99 C 851.625 845.493 852.989 839.014 850.22 832.837 z" fill="rgb(6,41,87)" transform="translate(0,0)"></path>
<path d="M 841.572 840.068 C 845.565 839.742 847.767 838.955 850.241 842.292 C 849.955 845.818 849.218 846.293 846.97 849.268 C 841.957 848.354 843.353 849.239 840.037 846.442 C 839.614 842.534 839.432 844.125 841.572 840.068 z" fill="rgb(255,255,255)" transform="translate(0,0)"></path>
<path d="M 1501.08 824.976 C 1503.28 824.809 1507.97 824.644 1509.67 825.824 C 1516.08 830.286 1518.19 845.829 1514.57 852.096 C 1507.86 852.395 1501.5 853.96 1495.83 851.687 C 1489.17 837.957 1500.56 839.606 1509.07 834.431 L 1509.18 832.645 C 1504.64 828.491 1498.7 832.482 1495.06 829.467 C 1496.28 827.26 1498.79 826.249 1501.08 824.976 z" fill="rgb(6,15,49)" transform="translate(0,0)"></path>
<path d="M 1503.56 839.88 C 1507.61 839.979 1508.99 839.856 1510.25 843.862 C 1509.16 847.217 1508.07 847.615 1505.05 849.588 C 1501.26 848.586 1500.17 848.24 1498.92 844.614 C 1500.66 841.192 1500.05 842.28 1503.56 839.88 z" fill="rgb(255,255,255)" transform="translate(0,0)"></path>
<path d="M 1310.02 824.993 C 1317.85 824.853 1324.5 826.825 1324.88 838.346 C 1325.03 842.847 1310.6 838.231 1306.12 841.968 C 1306.36 848.581 1314.03 848.818 1318.75 849.057 C 1320.02 848.23 1319.48 848.591 1321.36 848.53 L 1321.7 850.268 C 1311.77 864.764 1286.77 838.66 1310.02 824.993 z" fill="rgb(6,41,87)" transform="translate(0,0)"></path>
<path d="M 1311.83 828.507 C 1315.22 829.573 1317.59 830.721 1319.12 834.025 L 1318.36 835.673 L 1315.18 836.543 C 1311.17 836.356 1309.29 836.873 1306.72 834.55 C 1307.44 831.508 1309.31 830.544 1311.83 828.507 z" fill="rgb(255,255,255)" transform="translate(0,0)"></path>
<path d="M 662.768 815.076 C 667.042 814.936 676.019 814.35 677.175 819.834 C 670.248 822.849 666.626 817.345 660.431 823.278 C 660.859 832.558 695.427 841.446 669.318 854.146 C 664.355 854.145 657.202 853.639 654.818 848.529 C 659.157 846.297 668.321 849.717 672.115 845.625 C 671.534 835.536 639.069 827.87 662.768 815.076 z" fill="rgb(6,15,49)" transform="translate(0,0)"></path>
<path d="M 1615.38 833.393 C 1615.35 830.705 1615.04 827.87 1616.11 825.471 C 1622.27 825.425 1621.96 848.725 1619.93 852.591 C 1617.13 852.972 1618.18 853.017 1615.21 851.022 C 1610.04 850.935 1609.41 855.097 1600.09 851.82 C 1597.57 848.759 1595.39 827.732 1600.8 825.94 C 1605.17 830.571 1598.79 843.289 1609.11 848.738 C 1616.25 846.513 1615.48 839.615 1615.38 833.393 z" fill="rgb(6,15,49)" transform="translate(0,0)"></path>
<path d="M 1615.38 833.393 C 1615.35 830.705 1615.04 827.87 1616.11 825.471 C 1622.27 825.425 1621.96 848.725 1619.93 852.591 C 1617.13 852.972 1618.18 853.017 1615.21 851.022 C 1616.34 844.165 1617.21 840.098 1615.38 833.393 z" fill="rgb(6,41,87)" transform="translate(0,0)"></path>
<path d="M 1287.1 820.98 C 1284.93 821.022 1282.77 821.041 1280.6 821.037 C 1277.01 821.019 1270.41 821.277 1268.13 818.988 C 1272.07 815.454 1288.17 813.328 1292.5 817.911 C 1292.82 824.503 1279.49 839.155 1275.34 847.795 L 1274.9 848.734 C 1272.41 850.947 1270.59 850.88 1267.27 851.426 C 1270.86 843.421 1281.95 828.222 1287.1 820.98 z" fill="rgb(6,41,87)" transform="translate(0,0)"></path>
<path d="M 707.662 825.151 C 712.215 824.689 719.405 823.712 721.802 828.744 C 719.498 829.815 713.906 828.969 709.039 830.822 L 708.579 832.204 C 712.844 838.785 723.53 837.698 722.836 847.135 C 720.814 850.609 720.106 850.967 716.765 853.277 C 716.218 853.349 715.669 853.414 715.12 853.472 C 709.692 854.039 707.63 853.789 703.335 850.301 C 704.693 847.269 712.598 850.722 717.392 846.196 L 716.789 843.661 C 711.507 837.759 704.148 840.096 702.852 832.228 C 704.169 828.448 704.782 827.991 707.662 825.151 z" fill="rgb(6,15,49)" transform="translate(0,0)"></path>
<path d="M 943.128 818.215 C 949.776 818.699 945.374 821.435 948.508 825.103 C 951.776 825.328 952.201 825.268 955.2 826.43 L 955.744 828.437 C 953.957 830.568 952.525 829.477 948.317 830.37 C 947.039 833.836 947.532 840.383 948.123 844.068 C 949.211 850.847 950.663 846.405 955.781 850.123 C 953.887 852.83 951.417 854.263 948.106 854.27 C 939.986 849.795 944.074 836.559 941.586 830.396 C 939.457 829.976 939.085 830.128 937.574 828.57 L 937.952 826.509 C 939.965 825.742 940.147 825.637 941.961 824.467 L 943.128 818.215 z" fill="rgb(6,15,49)" transform="translate(0,0)"></path>
<path d="M 734.237 818.405 C 735.19 818.5 736.46 818.991 737.384 819.286 C 737.679 821.728 737.584 822.797 739.029 824.805 C 741.439 824.95 742.869 824.756 744.781 826.193 L 745.103 828.589 L 744.007 829.844 C 741.607 829.781 740.744 829.6 738.449 830.449 C 736.97 834.963 737.858 841.932 738.899 846.536 C 742.931 850.164 740.947 845.384 747.123 849.078 C 745.283 852.105 744.146 852.489 741.095 854.368 C 731.747 855.059 733.238 837.395 732.466 830.745 L 729.955 829.289 L 729.468 826.987 C 732.461 823.657 733.135 822.828 734.237 818.405 z" fill="rgb(6,15,49)" transform="translate(0,0)"></path>
<path d="M 1692.93 824.876 C 1699.58 824.623 1700.24 823.99 1704.91 828.835 L 1704.74 829.977 C 1700.73 830.155 1693.09 829.929 1691.05 833.701 C 1688.04 839.283 1689.8 844.988 1694.99 848.038 C 1698.44 848.739 1699.85 847.914 1703.2 846.786 L 1705.05 847.113 L 1705.93 848.516 C 1704.48 852.199 1698.15 854.522 1695.15 853.418 C 1681.46 848.38 1682.45 832.081 1692.93 824.876 z" fill="rgb(6,15,49)" transform="translate(0,0)"></path>
<path d="M 1803.65 812.329 C 1811.71 815.616 1805.46 842.09 1809.57 849.769 C 1810.11 850.767 1809.35 852.621 1809.06 853.835 L 1805.49 852.548 C 1800.17 847.281 1801.15 818.385 1803.65 812.329 z" fill="rgb(6,15,49)" transform="translate(0,0)"></path>
<path d="M 1334.93 814.028 L 1338.45 814.842 C 1341.57 819.025 1340.09 846.777 1339.99 853.487 L 1336.53 852.72 C 1333.26 848.831 1334.8 820.071 1334.93 814.028 z" fill="rgb(6,15,49)" transform="translate(0,0)"></path>
<path d="M 1638.19 826.979 C 1641.48 827.389 1642.91 824.808 1647.69 824.306 C 1657.53 827.524 1657.91 843.091 1655.27 851.312 C 1653.46 852.894 1654.49 852.54 1652.09 852.402 C 1648.88 845.146 1655.23 834.021 1645.76 830.324 C 1642.46 830.778 1641.79 830.917 1638.71 832.172 L 1638.19 826.979 z" fill="rgb(6,15,49)" transform="translate(0,0)"></path>
<path d="M 1043.5 823.526 C 1045.36 824.362 1044.99 824.323 1046.42 825.995 C 1045.66 830.158 1039.66 831.489 1038.49 834.106 C 1035.25 841.293 1042.96 850.18 1033.28 853.885 C 1032.43 849.274 1031.73 829.036 1034.12 825.593 C 1036.2 825.846 1037.48 826.141 1039.47 826.606 L 1043.5 823.526 z" fill="rgb(6,15,49)" transform="translate(0,0)"></path>
<path d="M 908.979 826.11 L 910.673 827.332 L 911.602 826.963 C 915.836 825.307 919.241 824.123 923.551 825.993 C 928.793 831.082 928.407 845.488 925.848 851.924 L 924.242 853.259 C 918.361 846.62 929.863 824.145 910.682 831.18 C 909.064 829.497 909.224 828.456 908.979 826.11 z" fill="rgb(6,15,49)" transform="translate(0,0)"></path>
<path d="M 1464.68 824.744 C 1466.8 825.059 1466.76 825.23 1468.69 826.148 L 1468.79 827.793 C 1466.02 829.857 1463.27 831.935 1460.52 834.027 C 1456.67 842.251 1463.7 847.75 1456.26 854.604 C 1453.91 850.33 1453.97 831.487 1455.08 826.724 L 1457.23 825.446 C 1459.04 827.023 1459.13 827.364 1461.51 827.868 L 1464.68 824.744 z" fill="rgb(6,41,87)" transform="translate(0,0)"></path>
<path d="M 1668.71 824.394 L 1672.38 825.404 C 1675.73 830.411 1674.01 847.231 1673.47 853.652 L 1669.95 852.753 C 1666.39 848.272 1668.36 830.633 1668.71 824.394 z" fill="rgb(6,15,49)" transform="translate(0,0)"></path>
<path d="M 1638.71 832.172 C 1638.23 837.206 1639 848.727 1637.46 852.436 L 1635.35 852.899 C 1632.05 849.178 1632.02 829.959 1634.48 825.763 L 1636.3 825.442 L 1638.19 826.979 L 1638.71 832.172 z" fill="rgb(6,15,49)" transform="translate(0,0)"></path>
<path d="M 688.456 824.215 C 690.444 824.979 691.978 825.032 692.485 827.018 C 693.89 832.521 693.867 849.318 691.834 854.148 L 689.338 853.334 C 686.451 849.038 687.866 829.944 688.456 824.215 z" fill="rgb(6,15,49)" transform="translate(0,0)"></path>
<path d="M 886.743 825.214 L 889.96 826.112 C 893.123 830.865 891.495 848.281 890.746 854.182 L 887.639 852.904 C 884.53 848.262 886.061 831.08 886.743 825.214 z" fill="rgb(6,15,49)" transform="translate(0,0)"></path>
<path d="M 1478.43 825.222 C 1480.06 825.765 1481.95 825.969 1482.32 827.153 C 1484.12 832.858 1483.77 849.013 1481.86 854.204 C 1480.6 853.803 1479.41 853.719 1478.96 852.769 C 1476.59 847.858 1478 830.337 1478.43 825.222 z" fill="rgb(6,15,49)" transform="translate(0,0)"></path>
<path d="M 1716.78 825.243 L 1720.38 825.954 C 1723.28 830.265 1721.39 847.702 1721 853.837 L 1718.37 852.967 C 1714.92 849.17 1716.53 831.205 1716.78 825.243 z" fill="rgb(6,15,49)" transform="translate(0,0)"></path>
<path d="M 910.682 831.18 C 909.118 836.818 911.069 850.347 907.817 853.252 C 904.239 849.467 902.805 829.326 906.506 825.422 L 908.979 826.11 C 909.224 828.456 909.064 829.497 910.682 831.18 z" fill="rgb(6,41,87)" transform="translate(0,0)"></path>
<path d="M 1274.9 848.734 C 1280.12 848.461 1285.67 847.819 1290.65 849.263 L 1291.68 850.583 C 1287.3 854.898 1271.67 854.589 1267.27 851.426 C 1270.59 850.88 1272.41 850.947 1274.9 848.734 z" fill="rgb(6,15,49)" transform="translate(0,0)"></path>
<metadata><recraft-signature>{"signed_by": "recraft", "signature_b64": "4D0nrdg81dQFE6IsVCp+NPofVhuDTZcUW5OZ4Zjg2Zi0vXWWxFyFpdViNq1VYeZrNr/rtLMP5UPbjfnzSD0jAA==", "signing_algo": "Ed25519", "generation_timestamp": 1782919060, "identifier": "b8afed27-35be-445a-8472-49d533410363"}</recraft-signature></metadata></svg>