<svg xmlns="http://www.w3.org/2000/svg" height="512" preserveAspectRatio="none" style="display: block;" version="1.1" viewBox="0 0 2048 2048" width="512">
<defs>
	<linearGradient gradientUnits="userSpaceOnUse" id="Gradient1" x1="1021.86" x2="1025.54" y1="531.887" y2="215.63">
		<stop class="stop0" offset="0" stop-color="rgb(24,154,249)" stop-opacity="1"></stop>
		<stop class="stop1" offset="1" stop-color="rgb(140,210,249)" stop-opacity="1"></stop>
	</linearGradient>
	<linearGradient gradientUnits="userSpaceOnUse" id="Gradient2" x1="1059.12" x2="1006.51" y1="1871.95" y2="167.675">
		<stop class="stop0" offset="0" stop-color="rgb(0,90,178)" stop-opacity="1"></stop>
		<stop class="stop1" offset="1" stop-color="rgb(11,158,255)" stop-opacity="1"></stop>
	</linearGradient>
</defs>
<path d="M 1002.45 166.013 C 1038.8 165.975 1076.17 165.769 1112.2 171.279 C 1372.96 211.159 1589.99 425.271 1622.48 688.786 C 1634.47 786.044 1625.6 827.054 1599.21 915.35 C 1501.96 1240.72 1248.3 1589.59 1036.98 1863.24 C 1033.45 1867.39 1029.1 1873.37 1025.67 1877.8 C 824.567 1620.91 569.996 1274.55 465.223 970.552 C 444.862 911.475 426.286 851.701 424.007 788.741 C 407.547 506.836 610.719 244.186 884.733 181.298 C 925.103 172.042 961.335 168.58 1002.45 166.013 z M 1398.13 1008.96 C 1395.85 996.237 1388.73 1007.62 1401.7 994.011 L 1400.69 991.499 C 1402.34 988.875 1431.09 945.156 1431.38 944.955 C 1437.67 938.039 1446.36 909.819 1449.73 899.982 C 1481.74 806.52 1477 700.496 1441.46 608.754 C 1436.09 594.908 1428.63 581.367 1425.37 566.758 L 1424.97 564.944 C 1419.4 560.996 1404.59 535.65 1399.57 527.738 C 1209.35 228.003 763.414 261.21 617.452 585.024 C 549.561 730.616 571.021 898.656 664.234 1026.71 C 814.856 1233.64 1119.68 1269.31 1314.01 1102.98 C 1342.06 1078.96 1379.72 1041.45 1398.13 1008.96 z" fill="url(#Gradient2)" transform="translate(0,0)"></path>
<path d="M 1319.4 1033.51 C 1174.34 1193.23 928.653 1208.85 764.537 1068.79 C 600.422 928.732 577.229 683.642 712.16 515.285 C 847.09 346.927 1091.35 316.186 1263.79 445.859 C 1436.23 575.532 1474.49 818.726 1350.2 995.083 C 1350.21 1000.06 1345.3 1005.24 1342.13 1009.18 L 1343.82 1009.4 C 1348.25 1005.75 1349.68 1000.78 1353.77 997.592 L 1354.33 999.169 C 1347.64 1006.75 1350.97 1008.51 1349.37 1010.99 C 1346.66 1015.17 1322.6 1040.4 1319.4 1033.51 z M 1337.88 842.841 C 1380.02 670.644 1276.24 496.481 1104.74 451.588 C 933.242 406.695 757.439 507.674 709.806 678.433 C 662.173 849.192 760.323 1026.59 930.298 1076.95 C 1100.27 1127.31 1279.22 1032.01 1332.3 862.869 L 1330.93 862.037 C 1329.28 857.94 1330.91 846.57 1332.11 841.927 L 1334.29 841.085 L 1337.88 842.841 z" fill="rgb(1,90,177)" transform="translate(0,0)"></path>
<path d="M 1350.2 995.083 C 1350.21 1000.06 1345.3 1005.24 1342.13 1009.18 L 1343.82 1009.4 C 1348.25 1005.75 1349.68 1000.78 1353.77 997.592 L 1354.33 999.169 C 1347.64 1006.75 1350.97 1008.51 1349.37 1010.99 C 1346.66 1015.17 1322.6 1040.4 1319.4 1033.51 C 1330.44 1021.35 1340.73 1008.51 1350.2 995.083 z" fill="rgb(253,253,253)" transform="translate(0,0)"></path>
<path d="M 1002.45 452.047 C 1206.93 440.968 1376.66 630.884 1328.11 832.66 C 1243.01 779.313 1153.14 732.77 1063.71 687.139 C 1065.58 634.869 1091.62 633.909 1096.56 585.024 L 1086.55 587.529 C 1090.03 565.768 1102.77 545.322 1093.21 526.016 C 1070.62 480.38 1020.96 476.357 978.675 496.49 C 929.8 542.037 953.643 534.574 960.757 590.175 L 960.967 591.879 C 958.236 588.015 957.603 586.177 953.638 584.714 L 951.803 586.027 C 948.166 598.37 955.725 615.393 960.967 626.331 C 961.349 626.822 965.785 630.581 966.55 631.243 C 972.036 645.958 980.962 672.104 981.903 687.139 C 945.011 705.549 909.017 716.942 872.008 740.116 C 842.601 760.569 764.453 872.985 738.955 905.151 C 725.312 869.984 716.349 846.671 711.33 808.393 C 686.94 622.406 822.267 473.563 1002.45 452.047 z" fill="rgb(1,90,177)" transform="translate(0,0)"></path>
<path d="M 1158.38 944.955 C 1050.97 957.877 1013.47 834.368 1093.65 785.507 C 1157.05 746.877 1240.16 803.393 1224.37 876.45 C 1222.66 884.385 1219.42 891.547 1217.47 899.193 L 1217.08 900.773 L 1216.39 901.423 C 1206.77 910.721 1201.84 919.777 1190.22 928.107 C 1181.42 934.409 1165.23 938.735 1158.38 944.955 z" fill="rgb(0,131,237)" transform="translate(0,0)"></path>
<path d="M 1128.84 789.199 C 1167.85 783.571 1204.05 810.575 1209.77 849.567 C 1215.49 888.559 1188.57 924.823 1149.59 930.633 C 1110.48 936.463 1074.07 909.434 1068.33 870.314 C 1062.6 831.193 1089.71 794.847 1128.84 789.199 z" fill="rgb(253,253,253)" transform="translate(0,0)"></path>
<path d="M 1153.71 864.246 C 1194.43 867.04 1196.88 933.386 1119.42 916.938 C 1107.5 912.784 1100.14 909.756 1091.05 900.773 C 1095.59 881.418 1100.26 871.725 1119.42 864.246 C 1134 875.627 1138.9 877.836 1153.71 864.246 z" fill="rgb(0,131,237)" transform="translate(0,0)"></path>
<path d="M 1130.33 801.176 C 1167.31 799.731 1172.34 848.676 1141.04 861.304 C 1105.92 865.28 1096.03 815.032 1130.33 801.176 z" fill="rgb(0,131,237)" transform="translate(0,0)"></path>
<path d="M 1217.08 900.773 C 1249.85 886.957 1273.45 878.75 1308.24 892.763 L 1309.03 893.085 C 1273.07 973.568 1221.83 1012.68 1149.58 1054.33 C 1150 1025.3 1155.43 975.459 1158.38 944.955 C 1165.23 938.735 1181.42 934.409 1190.22 928.107 C 1201.84 919.777 1206.77 910.721 1216.39 901.423 L 1217.08 900.773 z" fill="rgb(1,90,177)" transform="translate(0,0)"></path>
<path d="M 874.998 850.683 L 876.651 851.21 C 878.33 862.981 879.291 876.654 880.917 888.983 L 895.042 991.745 C 897.29 1008.99 903.491 1043.45 903.311 1058.97 C 892.38 1035.84 899.156 1038.3 880.57 1013.48 C 859.156 986.205 828.266 945.211 808.702 916.938 C 826.952 897.472 854.382 867.348 874.998 850.683 z" fill="rgb(1,90,177)" transform="translate(0,0)"></path>
<path d="M 1332.3 862.869 L 1330.93 862.037 C 1329.28 857.94 1330.91 846.57 1332.11 841.927 L 1334.29 841.085 L 1337.88 842.841 C 1336.23 849.575 1334.37 856.254 1332.3 862.869 z" fill="rgb(253,253,253)" transform="translate(0,0)"></path>
<path d="M 903.311 217.427 C 962.12 195.158 1088.62 200.094 1149.58 217.427 C 1284.36 242.168 1415.67 341.455 1492.62 451.253 C 1506.12 470.52 1546 539.698 1548.57 559.433 C 1543.15 551.525 1536.4 529.2 1529.04 518.08 C 1521.27 517.162 1498.6 511.589 1496.26 511.475 C 1480.35 510.696 1402.14 497.611 1393.23 512.647 C 1394.78 517.563 1420.27 556.866 1424.73 562.608 L 1424.97 564.944 C 1419.4 560.996 1404.59 535.65 1399.57 527.738 C 1209.35 228.003 763.414 261.21 617.452 585.024 C 612.176 573.689 652.933 525.094 650.551 513.627 C 646.596 521.752 646.932 510.8 646.313 506.941 L 644.439 505.764 C 638.91 506.729 637.914 505.567 641.582 501.131 C 616.597 496.361 581.781 492.503 557.077 502.807 C 550.778 505.435 537.388 516.007 532.799 517.011 L 529.841 514.99 C 522.421 518.21 521.432 525.29 516.652 526.617 L 515.782 524.325 C 505.048 555.544 501.555 551.872 516.314 520.565 C 582.114 380.992 706.611 272.443 854.352 227.674 C 870.076 222.909 886.902 217.582 903.311 217.427 z" fill="url(#Gradient1)" transform="translate(0,0)"></path>
<path d="M 903.311 217.427 C 962.12 195.158 1088.62 200.094 1149.58 217.427 C 1142.63 218.536 1136.93 221.32 1130.23 222.511 C 1070.79 233.08 973.233 240.678 919.194 222.453 C 913.461 220.519 909.389 218.283 903.311 217.427 z" fill="rgb(161,218,248)" transform="translate(0,0)"></path>
<path d="M 1398.13 1008.96 C 1395.85 996.237 1388.73 1007.62 1401.7 994.011 L 1400.69 991.499 C 1402.34 988.875 1431.09 945.156 1431.38 944.955 C 1425.01 962.601 1409.12 993.137 1398.13 1008.96 z" fill="rgb(253,253,253)" transform="translate(0,0)"></path>
<metadata><recraft-signature>{"signed_by": "recraft", "signature_b64": "qwjiEXNXZWNIobvGZWqVN5cdhkXri1eVjTcrlAD5jtCU/188fF73OWoXt2u/LEFHjkYLMwTU/E98aLkhxoNvCw==", "signing_algo": "Ed25519", "generation_timestamp": 1782919058, "identifier": "a68efdd9-415c-4e3c-8c4d-577aed8ce903"}</recraft-signature></metadata></svg>