<svg xmlns="http://www.w3.org/2000/svg" height="512" preserveAspectRatio="none" style="display: block;" version="1.1" viewBox="0 0 2048 2048" width="512">
<path d="M 1002.42 188.489 C 1343.56 172.84 1613.12 469.794 1614.35 803.706 C 1616.2 857.407 1597.07 906.135 1579.98 956.021 C 1492.75 1210.61 1290.77 1508.5 1119.58 1724.95 C 1093.64 1757.76 1068.16 1796.39 1038.55 1826.27 C 1021.38 1841.14 1005.75 1823.18 995.089 1809.98 C 797.535 1565.2 577.731 1251.99 469.332 961.686 C 451.898 914.988 434.724 864.697 432.904 814.486 C 423.236 496.145 678.929 199.236 1002.42 188.489 z M 1045.44 1110.61 C 1232.9 1100.03 1376.16 939.269 1365.15 751.834 C 1354.14 564.399 1193.04 421.514 1005.63 432.962 C 818.839 444.371 676.527 604.822 687.501 791.641 C 698.475 978.459 858.594 1121.14 1045.44 1110.61 z" fill="rgb(121,173,235)" transform="translate(0,0)"></path>
<path d="M 998.852 334.616 C 1240.74 320.459 1448.15 505.416 1461.67 747.341 C 1475.2 989.265 1289.7 1196.19 1047.75 1209.09 C 806.677 1221.93 600.678 1037.27 587.202 796.235 C 573.725 555.2 757.854 348.721 998.852 334.616 z M 1045.44 1110.61 C 1232.9 1100.03 1376.16 939.269 1365.15 751.834 C 1354.14 564.399 1193.04 421.514 1005.63 432.962 C 818.839 444.371 676.527 604.822 687.501 791.641 C 698.475 978.459 858.594 1121.14 1045.44 1110.61 z" fill="rgb(36,171,95)" transform="translate(0,0)"></path>
<path d="M 875.06 741.713 C 885.638 745.318 890.428 750.413 902.328 750.824 C 910.351 751.101 928.548 738.991 932.586 742.024 L 933.425 747.294 C 933.459 751.636 933.642 756.854 933.425 761.117 L 965.787 761.117 C 977.277 764.787 996.931 769.935 1006.91 774.419 C 1067.24 807.053 1075.73 858.151 1075.29 920.071 C 1073.35 937.623 1073.13 966.619 1070.24 982.023 C 1070.02 992.197 1069.86 1004.82 1070.24 1015.01 L 1010.89 1015.01 L 1010.96 937.138 C 1010.96 926.924 1017.09 879.857 999.503 890.549 C 995.079 895.984 996.936 922.456 996.932 930.915 L 996.889 1015.01 L 816.105 1015.01 L 816.093 932.871 C 816.104 920.892 819.634 893.568 809.478 886.834 C 794.963 886.439 802.984 994.207 802.373 1011.37 C 784.887 992.814 750.283 954.061 743.038 929.79 C 733.176 838.5 769.296 759.322 875.06 761.117 C 874.647 754.344 874.866 748.486 875.06 741.713 z" fill="rgb(16,119,235)" transform="translate(0,0)"></path>
<path d="M 965.787 761.117 C 977.277 764.787 996.931 769.935 1006.91 774.419 C 1067.24 807.053 1075.73 858.151 1075.29 920.071 C 1073.35 937.623 1073.13 966.619 1070.24 982.023 C 1068.05 948.436 1033.56 835.481 1012.52 807.635 C 996.861 786.917 963.591 776.976 965.787 761.117 z" fill="rgb(16,101,203)" transform="translate(0,0)"></path>
<path d="M 875.06 741.713 C 885.638 745.318 890.428 750.413 902.328 750.824 C 910.351 751.101 928.548 738.991 932.586 742.024 L 933.425 747.294 C 933.459 751.636 933.642 756.854 933.425 761.117 L 931.929 762.192 C 914.388 775.003 891.882 787.826 875.06 761.117 C 874.647 754.344 874.866 748.486 875.06 741.713 z" fill="rgb(8,67,146)" transform="translate(0,0)"></path>
<path d="M 1006.91 774.419 C 1028.4 744.485 1075.33 705.599 1114.25 710.973 C 1117.52 742.828 1159.63 741.778 1169.14 710.973 C 1198.39 711.373 1235.45 736.886 1254.51 757.784 C 1300.73 806.045 1303.25 870.307 1309.42 933.632 C 1286.6 965.14 1271.88 986.799 1244 1015.01 L 1244.08 928.892 C 1244.08 921.708 1245.47 884.654 1241.7 880.712 C 1224.48 874.909 1230.67 912.076 1230.67 923.866 L 1230.61 1015.01 L 1070.24 1015.01 C 1069.86 1004.82 1070.02 992.197 1070.24 982.023 C 1073.13 966.619 1073.35 937.623 1075.29 920.071 C 1075.73 858.151 1067.24 807.053 1006.91 774.419 z" fill="rgb(8,67,146)" transform="translate(0,0)"></path>
<path d="M 1006.91 774.419 C 1028.4 744.485 1075.33 705.599 1114.25 710.973 C 1117.52 742.828 1159.63 741.778 1169.14 710.973 C 1198.39 711.373 1235.45 736.886 1254.51 757.784 C 1215.44 829.782 1148.59 885.601 1075.29 920.071 C 1075.73 858.151 1067.24 807.053 1006.91 774.419 z" fill="rgb(248,213,16)" transform="translate(0,0)"></path>
<path d="M 1114.25 710.973 C 1117.81 699.822 1100.44 693.546 1094.2 685.261 C 978.383 531.247 1164.56 475.06 1214.58 559.418 C 1241.35 603.106 1209.83 666.471 1174.65 697.347 C 1166.27 704.975 1150.75 708.74 1169.14 710.973 C 1159.63 741.778 1117.52 742.828 1114.25 710.973 z" fill="rgb(8,67,146)" transform="translate(0,0)"></path>
<path d="M 875.06 741.713 C 858.198 722.733 854.019 726.392 839.289 700.984 C 751.243 549.109 989.533 523.353 977.166 647.05 C 971.808 700.646 933.844 736.62 933.425 747.294 L 932.586 742.024 C 928.548 738.991 910.351 751.101 902.328 750.824 C 890.428 750.413 885.638 745.318 875.06 741.713 z" fill="rgb(16,101,203)" transform="translate(0,0)"></path>
<path d="M 1026.29 224.537 C 1028.68 224.435 1031.13 224.329 1033.53 224.384 C 1341.91 231.419 1578.73 486.459 1577.83 791.145 L 1543.91 791.145 L 1543.94 785.776 C 1544.08 499.822 1314.33 260.297 1026.29 259.816 L 1026.29 224.537 z" fill="rgb(160,200,240)" transform="translate(0,0)"></path>
<metadata><recraft-signature>{"signed_by": "recraft", "signature_b64": "i4eF1TZ+lqUBMP5GOJAtZwttyzTm5HShHkGqQlit+9QsnghXTRfzWEqfmF2Z9Y0H5jC7C/ccGLiPGM56a5m5DQ==", "signing_algo": "Ed25519", "generation_timestamp": 1782919053, "identifier": "45983bf1-c9d3-43da-a5b3-94814fe96077"}</recraft-signature></metadata></svg>