<svg xmlns="http://www.w3.org/2000/svg" height="512" preserveAspectRatio="none" style="display: block;" version="1.1" viewBox="0 0 2048 2048" width="512">
<path d="M 1013.7 189.812 C 1311.35 172.411 1571.02 427.784 1605.27 718.345 C 1624.71 883.309 1571.43 1026.37 1499.27 1171.92 C 1392.04 1388.2 1201.22 1660.19 1029.27 1838.29 L 1022.86 1844.63 C 1010.24 1827.01 987.841 1806.76 973.176 1789.64 C 766.75 1548.63 472.827 1153.66 441.691 832.955 C 409.861 505.09 679.063 196.901 1013.7 189.812 z" fill="rgb(113,180,205)" transform="translate(0,0)"></path>
<path d="M 1001.75 342.355 C 1248.57 330.462 1458.35 520.798 1470.44 767.608 C 1482.54 1014.42 1292.38 1224.36 1045.58 1236.65 C 798.487 1248.97 588.252 1058.54 576.141 811.438 C 564.031 564.339 754.637 354.261 1001.75 342.355 z" fill="rgb(212,212,212)" transform="translate(0,0)"></path>
<path d="M 1008.5 384.211 C 1233 376.01 1421.67 551.31 1429.96 775.81 C 1438.25 1000.31 1263.02 1189.05 1038.53 1197.42 C 813.904 1205.8 625.041 1030.46 616.747 805.835 C 608.454 581.211 783.872 392.417 1008.5 384.211 z" fill="rgb(252,252,252)" transform="translate(0,0)"></path>
<path d="M 1023.06 1105.59 C 845.116 1106.51 700.367 962.519 700.352 784.57 C 700.336 606.62 845.06 462.605 1023.01 463.494 C 1199.68 464.376 1342.44 607.839 1342.46 784.514 C 1342.47 961.19 1199.74 1104.68 1023.06 1105.59 z" fill="rgb(248,201,77)" transform="translate(0,0)"></path>
<path d="M 1023.01 463.494 C 1199.68 464.376 1342.44 607.839 1342.46 784.514 C 1342.47 961.19 1199.74 1104.68 1023.06 1105.59 L 1022.86 1079.93 C 1022.87 1017.18 1021.42 948.527 1022.86 886.339 C 1029.8 883.323 1043.42 882.306 1048.44 875.334 C 1043.56 861.516 1031.2 842.285 1029.27 830.242 C 1025.86 825.884 1025.22 824.789 1022.86 819.778 C 1021.47 787.867 1022.88 743.875 1022.88 711.049 L 1022.86 484.97 L 1022.86 484.97 C 1022.65 478.119 1022.92 470.418 1023.01 463.494 z" fill="rgb(7,146,44)" transform="translate(0,0)"></path>
<path d="M 1130.69 704.008 C 1059.5 687.365 1114.3 560.619 1184.78 614.118 C 1217.47 638.936 1212.35 687.268 1175.71 704.008 C 1199.41 717.179 1218.86 728.56 1230.83 753.496 C 1241 774.69 1267.36 832.758 1272.83 852.923 C 1277.14 868.8 1260.07 884.107 1245.13 874.727 C 1233.69 867.543 1210.31 795.265 1200.92 777.36 C 1211.47 864.601 1207.3 930.696 1209.5 1017.6 L 1209.5 1031.93 C 1198.89 1031.61 1189.76 1031.68 1179.17 1031.93 L 1180.34 1034.57 C 1167.41 1061.3 1050.42 1083.73 1022.86 1079.93 C 1022.87 1017.18 1021.42 948.527 1022.86 886.339 C 1029.8 883.323 1043.42 882.306 1048.44 875.334 C 1043.56 861.516 1031.2 842.285 1029.27 830.242 C 1036.38 814.457 1048.99 796.689 1058.37 781.78 C 1085.21 739.079 1087.61 730.895 1130.69 704.008 z" fill="rgb(252,252,252)" transform="translate(0,0)"></path>
<path d="M 1101.56 777.36 C 1092.95 820.599 1095.65 853.789 1095.67 897.421 L 1095.67 1031.93 C 1102.38 1031.94 1145.78 1033 1148.64 1031.93 C 1152.53 1030.97 1152.38 1031.1 1156.38 1031.93 C 1163.8 1032.44 1171.7 1032.1 1179.17 1031.93 L 1180.34 1034.57 C 1167.41 1061.3 1050.42 1083.73 1022.86 1079.93 C 1022.87 1017.18 1021.42 948.527 1022.86 886.339 C 1029.8 883.323 1043.42 882.306 1048.44 875.334 C 1063.97 845.107 1083.63 806.217 1101.56 777.36 z" fill="rgb(7,146,44)" transform="translate(0,0)"></path>
<path d="M 1148.64 1031.93 L 1148.61 915.367 C 1148.61 909.014 1144.65 877.702 1154.42 879.051 C 1158.76 883.763 1156.21 1019.19 1156.38 1031.93 C 1152.38 1031.1 1152.53 1030.97 1148.64 1031.93 z" fill="rgb(7,146,44)" transform="translate(0,0)"></path>
<path d="M 1023.01 463.494 C 1199.68 464.376 1342.44 607.839 1342.46 784.514 C 1342.47 961.19 1199.74 1104.68 1023.06 1105.59 L 1022.86 1079.93 C 1050.42 1083.73 1167.41 1061.3 1180.34 1034.57 L 1179.17 1031.93 C 1189.76 1031.68 1198.89 1031.61 1209.5 1031.93 L 1209.5 1017.6 C 1210.92 1013.13 1210.67 1000.74 1210.74 995.372 C 1211.48 997.722 1209.87 1014.31 1209.5 1017.6 C 1213.56 1013.15 1218.69 1008.91 1223.43 1005.21 C 1436.69 841.856 1286.35 474.548 1022.86 484.97 C 1022.65 478.119 1022.92 470.418 1023.01 463.494 z" fill="rgb(1,119,25)" transform="translate(0,0)"></path>
<path d="M 878.2 703.225 C 890.154 707.229 903.085 707.239 915.045 703.254 C 992.764 723.067 984.687 767.286 1022.86 819.778 C 1025.22 824.789 1025.86 825.884 1029.27 830.242 C 1031.2 842.285 1043.56 861.516 1048.44 875.334 C 1043.42 882.306 1029.8 883.323 1022.86 886.339 C 1021.42 948.527 1022.87 1017.18 1022.86 1079.93 C 987.45 1071.86 929.421 1078.25 899.389 1051.84 C 881.526 1048.52 852.058 1032.66 839.983 1019.98 C 840.754 984.735 839.991 946.554 839.983 911.062 C 839.494 902.23 839.52 896.709 839.983 887.869 L 818.672 887.869 C 819.677 862.841 832.45 814.525 836.671 785.178 C 821.073 819.866 808.659 850.878 794.847 886.339 L 754.613 875.334 L 787.324 796.676 C 808.014 746.893 821.95 715.147 878.2 703.225 z" fill="rgb(5,109,194)" transform="translate(0,0)"></path>
<path d="M 839.983 911.062 C 877.167 912.55 920.825 910.526 958.928 911.062 C 958.952 930.328 960.982 1037.14 957.231 1049.2 C 949.293 1052.83 910.178 1051.88 899.389 1051.84 C 881.526 1048.52 852.058 1032.66 839.983 1019.98 C 840.754 984.735 839.991 946.554 839.983 911.062 z" fill="rgb(0,64,143)" transform="translate(0,0)"></path>
<path d="M 956.02 785.178 C 972.35 807.039 999.694 859.806 1011.98 884.555 C 1015.36 886.474 1018.93 886.189 1022.86 886.339 C 1021.42 948.527 1022.87 1017.18 1022.86 1079.93 C 987.45 1071.86 929.421 1078.25 899.389 1051.84 C 910.178 1051.88 949.293 1052.83 957.231 1049.2 C 960.982 1037.14 958.952 930.328 958.928 911.062 L 958.928 887.869 C 965.813 888.309 971.283 888.939 978.12 887.869 C 974.862 859.945 963.81 812.203 956.02 785.178 z" fill="rgb(248,201,77)" transform="translate(0,0)"></path>
<path d="M 1023.06 1105.59 C 845.116 1106.51 700.367 962.519 700.352 784.57 C 700.336 606.62 845.06 462.605 1023.01 463.494 C 1022.92 470.418 1022.65 478.119 1022.86 484.97 L 1022.86 484.97 C 757.475 491.211 623.844 807.87 812.915 999.247 C 819.794 1006.21 831.282 1015.39 839.983 1019.98 C 852.058 1032.66 881.526 1048.52 899.389 1051.84 C 929.421 1078.25 987.45 1071.86 1022.86 1079.93 L 1023.06 1105.59 z" fill="rgb(250,185,1)" transform="translate(0,0)"></path>
<path d="M 878.2 703.225 C 851.166 694.17 834.686 666.85 839.284 638.713 C 843.883 610.577 868.204 589.925 896.714 589.948 C 925.223 589.971 949.511 610.662 954.064 638.806 C 958.617 666.949 942.093 694.243 915.045 703.254 C 903.085 707.239 890.154 707.229 878.2 703.225 z" fill="rgb(50,45,51)" transform="translate(0,0)"></path>
<metadata><recraft-signature>{"signed_by": "recraft", "signature_b64": "M/hptWHzfweXWWPK7578f7AInu404KpY2hf6peEN6w/enrHdoojFOPMXS3pffRQT4iQarx+FSks35+IpNfrsCg==", "signing_algo": "Ed25519", "generation_timestamp": 1782919053, "identifier": "6af6f4e4-5852-4d1e-b37d-69a86ead34cc"}</recraft-signature></metadata></svg>