<svg xmlns="http://www.w3.org/2000/svg" height="512" preserveAspectRatio="none" style="display: block;" version="1.1" viewBox="0 0 2048 2048" width="512">
<path d="M 1002.24 222.186 C 1273.5 216.542 1509.14 380.824 1586.96 641.353 C 1688.4 980.935 1434.28 1315.76 1236.5 1568.07 C 1171.09 1651.51 1104.95 1733.59 1035.08 1813.27 C 1031.31 1817.3 1027.13 1821.23 1023.17 1825.1 C 977.67 1767.43 927.818 1711.91 881.504 1652.98 L 771.337 1510.38 C 635.178 1331.08 456.574 1092.12 437.191 858.497 C 408.82 516.539 666.758 243.336 1002.24 222.186 z M 1031.52 1263.21 C 1285.02 1259.08 1487.18 1050.23 1483.04 796.728 C 1478.91 543.226 1270.05 341.077 1016.55 345.22 C 763.056 349.364 560.919 558.212 565.053 811.701 C 569.188 1065.19 778.029 1267.34 1031.52 1263.21 z" fill="rgb(87,164,233)" transform="translate(0,0)"></path>
<path d="M 1016.55 345.22 C 1270.05 341.077 1478.91 543.226 1483.04 796.728 C 1487.18 1050.23 1285.02 1259.08 1031.52 1263.21 C 778.029 1267.34 569.188 1065.19 565.053 811.701 C 560.919 558.212 763.056 349.364 1016.55 345.22 z M 1125.05 800.677 C 1125.12 813.648 1126.43 822.938 1115.73 832.034 L 1191.17 832.034 C 1185.45 821.23 1186.84 806.964 1187.02 794.758 C 1200.14 773.606 1204.43 774.272 1210.78 747.652 C 1223.53 743.441 1224.44 741.535 1226.31 728.872 C 1208.09 706.478 1181.19 697.35 1156.54 665.423 C 1145.3 680.99 1131.3 695.697 1114.43 705.894 C 1107.36 711.124 1051.68 723.875 1097.02 747.652 C 1106.01 775.38 1112.52 778.213 1124.59 799.828 L 1125.05 800.677 z M 1286.93 1126.98 C 1288.15 1122.46 1292.89 1119.11 1296.78 1115.11 C 1282.74 1109.39 1250 1078.45 1261.37 1065.15 L 1261.25 1063.87 L 1260.5 1063.76 C 1257.62 1066.05 1255.68 1068.24 1251.92 1068.58 C 1248.88 1070.26 1225.24 1089.04 1218.46 1093.62 C 1051.61 1206.32 833.821 1152.46 724.361 986.491 L 724.361 983.247 C 693.49 953.443 673.913 849.138 673.973 805.976 C 674.244 611.674 827.823 457.188 1023.17 456.942 C 1025.34 455.025 1031.77 455.426 1035.45 455.221 C 1023.69 454.6 974.4 457.604 969.271 453.767 L 971.47 452.501 C 945.179 421.783 1032.61 429.377 1050.82 412.651 C 1049.79 412.076 1044.17 412.671 1042.99 412.956 C 1033.61 415.218 1022.55 412.388 1012.58 410.927 L 1010.25 407.327 L 1009.8 409.708 L 1008.47 409.934 C 1007.15 407.623 1008.06 403.542 1008.06 400.558 C 1035.27 397.439 1053.51 401.776 1072.76 400.148 L 1073.94 401.371 C 1062.9 403.4 1045.77 401.134 1041.08 402.986 C 1054.88 415.208 1092.57 402.858 1105.66 402.707 L 1107.18 402.7 C 1107.75 401.74 1107.29 402.366 1109.14 401.258 L 1110.84 400.251 L 1110.58 399.309 L 1107.98 399.67 L 1102.97 395.496 C 913.411 358.814 723.501 457.272 644.232 633.329 C 564.962 809.386 617.134 1016.84 770.258 1134.45 C 923.381 1252.07 1137.27 1248.97 1286.93 1126.98 z" fill="rgb(49,138,223)" transform="translate(0,0)"></path>
<path d="M 1102.97 395.496 C 1261.66 426.202 1388.23 545.972 1427.65 702.719 C 1467.07 859.466 1412.21 1024.86 1286.93 1126.98 C 1288.15 1122.46 1292.89 1119.11 1296.78 1115.11 C 1282.74 1109.39 1250 1078.45 1261.37 1065.15 L 1261.25 1063.87 L 1260.5 1063.76 C 1257.62 1066.05 1255.68 1068.24 1251.92 1068.58 C 1248.88 1070.26 1225.24 1089.04 1218.46 1093.62 C 1051.61 1206.32 833.821 1152.46 724.361 986.491 L 724.361 983.247 C 693.49 953.443 673.913 849.138 673.973 805.976 C 674.244 611.674 827.823 457.188 1023.17 456.942 C 1025.34 455.025 1031.77 455.426 1035.45 455.221 C 1023.69 454.6 974.4 457.604 969.271 453.767 L 971.47 452.501 C 945.179 421.783 1032.61 429.377 1050.82 412.651 C 1049.79 412.076 1044.17 412.671 1042.99 412.956 C 1033.61 415.218 1022.55 412.388 1012.58 410.927 L 1010.25 407.327 L 1009.8 409.708 L 1008.47 409.934 C 1007.15 407.623 1008.06 403.542 1008.06 400.558 C 1035.27 397.439 1053.51 401.776 1072.76 400.148 L 1073.94 401.371 C 1062.9 403.4 1045.77 401.134 1041.08 402.986 C 1054.88 415.208 1092.57 402.858 1105.66 402.707 L 1107.18 402.7 C 1107.75 401.74 1107.29 402.366 1109.14 401.258 L 1110.84 400.251 L 1110.58 399.309 L 1107.98 399.67 L 1102.97 395.496 z M 1125.05 800.677 C 1125.12 813.648 1126.43 822.938 1115.73 832.034 L 1191.17 832.034 C 1185.45 821.23 1186.84 806.964 1187.02 794.758 C 1200.14 773.606 1204.43 774.272 1210.78 747.652 C 1223.53 743.441 1224.44 741.535 1226.31 728.872 C 1208.09 706.478 1181.19 697.35 1156.54 665.423 C 1145.3 680.99 1131.3 695.697 1114.43 705.894 C 1107.36 711.124 1051.68 723.875 1097.02 747.652 C 1106.01 775.38 1112.52 778.213 1124.59 799.828 L 1125.05 800.677 z" fill="rgb(83,165,69)" transform="translate(0,0)"></path>
<path d="M 1175.83 805.992 L 1176.42 806.474 L 1175.92 807.848 C 1165.22 817.159 1161.53 818.453 1147.59 820.658 C 1141.65 817.688 1140.71 817.014 1135.69 812.844 C 1127.26 803.327 1150.79 826.371 1175.83 805.992 z" fill="rgb(149,145,147)" transform="translate(0,0)"></path>
<path d="M 923.211 785.829 C 922.64 793.851 922.742 797.925 923.211 805.992 C 958.904 828.451 1006.89 849.453 1042.36 872.725 C 1048.43 865.301 1058.91 857.416 1066.9 852.213 C 1085.9 841.645 1095.28 838.234 1115.73 832.034 L 1191.17 832.034 C 1205.16 835.494 1245.94 857.313 1247.11 857.376 C 1247.43 857.988 1265.88 875.413 1269.18 879.152 C 1298.85 912.74 1301.34 943.74 1301.2 986.491 C 1307.74 987.259 1314.25 986.762 1320.85 986.491 C 1304.15 1019.24 1277.02 1043 1251.92 1068.58 C 1248.88 1070.26 1225.24 1089.04 1218.46 1093.62 C 1051.61 1206.32 833.821 1152.46 724.361 986.491 L 724.361 983.247 C 726.645 948.786 714.444 897.315 743.028 870.455 C 760.07 854.442 832.566 818.272 857.235 805.992 C 857.332 799.213 857.311 792.608 857.235 785.829 C 882.511 803.694 898.377 798.567 923.211 785.829 z" fill="rgb(27,129,45)" transform="translate(0,0)"></path>
<path d="M 923.211 785.829 C 922.64 793.851 922.742 797.925 923.211 805.992 C 958.904 828.451 1006.89 849.453 1042.36 872.725 C 1008.4 914.086 1008.01 936.645 1008.06 986.491 L 749.764 986.287 C 745.228 986.24 727.872 985.756 724.361 986.491 L 724.361 983.247 C 726.645 948.786 714.444 897.315 743.028 870.455 C 760.07 854.442 832.566 818.272 857.235 805.992 C 857.332 799.213 857.311 792.608 857.235 785.829 C 882.511 803.694 898.377 798.567 923.211 785.829 z" fill="rgb(87,164,233)" transform="translate(0,0)"></path>
<path d="M 1115.73 832.034 L 1191.17 832.034 C 1205.16 835.494 1245.94 857.313 1247.11 857.376 C 1247.43 857.988 1265.88 875.413 1269.18 879.152 C 1298.85 912.74 1301.34 943.74 1301.2 986.491 L 1008.06 986.491 C 1008.01 936.645 1008.4 914.086 1042.36 872.725 C 1048.43 865.301 1058.91 857.416 1066.9 852.213 C 1085.9 841.645 1095.28 838.234 1115.73 832.034 z" fill="rgb(94,94,94)" transform="translate(0,0)"></path>
<path d="M 1023.17 456.942 C 1048.46 457.006 1072.3 458.354 1097.02 464.469 C 1040.51 506.649 991.233 559.499 938.676 606.364 C 985.11 642.011 958.597 654.944 960.641 699.963 C 967.055 715.289 961.358 719.465 949.902 728.872 C 941.363 754.587 936.868 762.27 923.211 785.829 C 898.377 798.567 882.511 803.694 857.235 785.829 C 857.311 792.608 857.332 799.213 857.235 805.992 C 832.566 818.272 760.07 854.442 743.028 870.455 C 714.444 897.315 726.645 948.786 724.361 983.247 C 693.49 953.443 673.913 849.138 673.973 805.976 C 674.244 611.674 827.823 457.188 1023.17 456.942 z" fill="rgb(246,213,83)" transform="translate(0,0)"></path>
<path d="M 813.786 706.329 C 814.329 682.566 807.127 644.988 818.941 623.993 C 839.966 586.626 904.772 587.849 938.676 606.364 C 985.11 642.011 958.597 654.944 960.641 699.963 C 967.055 715.289 961.358 719.465 949.902 728.872 C 941.363 754.587 936.868 762.27 923.211 785.829 C 898.377 798.567 882.511 803.694 857.235 785.829 C 849.895 774.573 813.112 717.664 813.786 706.329 z" fill="rgb(111,183,235)" transform="translate(0,0)"></path>
<path d="M 813.786 706.329 C 814.329 682.566 807.127 644.988 818.941 623.993 C 839.966 586.626 904.772 587.849 938.676 606.364 C 985.11 642.011 958.597 654.944 960.641 699.963 C 939.914 732.39 952.108 649.412 931.383 646.025 C 929.119 645.655 859.444 646.6 852.897 647.057 C 831.698 664.714 840.975 726.606 813.786 706.329 z" fill="rgb(6,77,183)" transform="translate(0,0)"></path>
<path d="M 1102.97 395.496 C 1261.66 426.202 1388.23 545.972 1427.65 702.719 C 1467.07 859.466 1412.21 1024.86 1286.93 1126.98 C 1288.15 1122.46 1292.89 1119.11 1296.78 1115.11 C 1282.74 1109.39 1250 1078.45 1261.37 1065.15 L 1261.25 1063.87 L 1260.5 1063.76 C 1257.62 1066.05 1255.68 1068.24 1251.92 1068.58 C 1277.02 1043 1304.15 1019.24 1320.85 986.491 C 1314.25 986.762 1307.74 987.259 1301.2 986.491 C 1301.34 943.74 1298.85 912.74 1269.18 879.152 C 1265.88 875.413 1247.43 857.988 1247.11 857.376 C 1263.2 851.464 1271.31 844.454 1277.01 828.387 C 1269.9 826.018 1261.68 824.852 1260.71 816.343 C 1287.11 788.62 1331.07 746.98 1360.8 723.209 C 1331.68 602.916 1223.17 481.896 1097.02 464.469 C 1072.3 458.354 1048.46 457.006 1023.17 456.942 C 1025.34 455.025 1031.77 455.426 1035.45 455.221 C 1023.69 454.6 974.4 457.604 969.271 453.767 L 971.47 452.501 C 945.179 421.783 1032.61 429.377 1050.82 412.651 C 1049.79 412.076 1044.17 412.671 1042.99 412.956 C 1033.61 415.218 1022.55 412.388 1012.58 410.927 L 1010.25 407.327 L 1009.8 409.708 L 1008.47 409.934 C 1007.15 407.623 1008.06 403.542 1008.06 400.558 C 1035.27 397.439 1053.51 401.776 1072.76 400.148 L 1073.94 401.371 C 1062.9 403.4 1045.77 401.134 1041.08 402.986 C 1054.88 415.208 1092.57 402.858 1105.66 402.707 L 1107.18 402.7 C 1107.75 401.74 1107.29 402.366 1109.14 401.258 L 1110.84 400.251 L 1110.58 399.309 L 1107.98 399.67 L 1102.97 395.496 z" fill="rgb(248,248,248)" transform="translate(0,0)"></path>
<path d="M 1360.8 723.209 C 1380.43 806.609 1370.88 904.812 1326.01 979.74 C 1324.94 981.519 1322.41 985.262 1320.85 986.491 C 1314.25 986.762 1307.74 987.259 1301.2 986.491 C 1301.34 943.74 1298.85 912.74 1269.18 879.152 C 1265.88 875.413 1247.43 857.988 1247.11 857.376 C 1263.2 851.464 1271.31 844.454 1277.01 828.387 C 1269.9 826.018 1261.68 824.852 1260.71 816.343 C 1287.11 788.62 1331.07 746.98 1360.8 723.209 z" fill="rgb(246,213,83)" transform="translate(0,0)"></path>
<path d="M 1042.36 777.867 C 1095.59 743.113 1068.81 767.317 1066.44 708.856 C 1056.74 576.246 1235.37 563.824 1242.18 709.247 C 1242.94 725.507 1237.95 741.654 1242.11 757.603 C 1245.74 771.943 1269.88 775.785 1272.39 781.212 C 1269.87 801.299 1249.15 789.052 1260.71 816.343 C 1261.68 824.852 1269.9 826.018 1277.01 828.387 C 1271.31 844.454 1263.2 851.464 1247.11 857.376 C 1245.94 857.313 1205.16 835.494 1191.17 832.034 C 1185.45 821.23 1186.84 806.964 1187.02 794.758 C 1200.14 773.606 1204.43 774.272 1210.78 747.652 C 1223.53 743.441 1224.44 741.535 1226.31 728.872 C 1208.09 706.478 1181.19 697.35 1156.54 665.423 C 1145.3 680.99 1131.3 695.697 1114.43 705.894 C 1107.36 711.124 1051.68 723.875 1097.02 747.652 C 1106.01 775.38 1112.52 778.213 1124.59 799.828 L 1125.05 800.677 C 1125.12 813.648 1126.43 822.938 1115.73 832.034 C 1095.28 838.234 1085.9 841.645 1066.9 852.213 C 1048.41 842.744 1042.84 842.235 1042.36 820.658 C 1078.58 824.47 1054.19 791.258 1042.36 777.867 z" fill="rgb(6,77,183)" transform="translate(0,0)"></path>
<metadata><recraft-signature>{"signed_by": "recraft", "signature_b64": "gWCFTYrd7Ed4L+BYhbW2J3Pti18hhSKyUW/jRdUC12E83ksMPfoPCTq+AOrDZVV94YBo60p6xbO3/aLBeeCPCg==", "signing_algo": "Ed25519", "generation_timestamp": 1782919053, "identifier": "14e5dbbc-665e-44b9-ac02-347c4589561e"}</recraft-signature></metadata></svg>