<svg xmlns="http://www.w3.org/2000/svg" height="1024" preserveAspectRatio="none" style="display: block;" version="1.1" viewBox="0 0 2048 1365" width="1536">
<path d="M 0 0 L 2048 0 L 2048 1365 L 0 1365 L 0 0 z" fill="rgb(255,255,255)" transform="translate(0,0)"></path>
<path d="M 249.768 380.079 C 279.647 360.426 295.305 350.156 330.743 340.671 C 463.046 305.261 601.586 397.954 621.728 532.978 C 631.886 601.073 611.998 660.358 583.565 721.314 C 557.966 776.196 528.874 828.997 496.371 880.154 C 481.477 903.496 465.496 926.182 451.275 949.921 C 448.821 953.309 446.326 956.86 443.806 960.18 L 388.928 1038.65 C 376.67 1034.75 349.103 1036.06 333.386 1034.5 C 269.586 1028.14 207.296 1004.15 158.285 961.984 C 99.4466 911.359 61.3235 836.275 54.2366 758.987 C 47.6306 686.944 72.1281 606.37 116.845 549.677 C 124.257 540.28 132.789 530.791 141.319 522.344 C 148.48 515.253 157.053 508.38 163.471 500.696 L 164.294 499.697 C 158.365 491.23 152.344 485.495 147.558 475.546 C 139.17 458.107 138.047 436.839 144.28 418.622 C 150.486 400.295 163.861 385.27 181.346 376.983 C 206.384 365.083 225.774 371.534 249.768 380.079 z" fill="rgb(26,56,96)" transform="translate(0,0)"></path>
<path d="M 375.365 341.5 C 423.819 336.979 479.784 354.612 519.23 382.492 C 568.839 417.059 602.601 469.996 613.023 529.556 C 623.899 593.281 610.54 637.283 586.441 695.347 C 538.244 811.472 464.471 913.544 392.071 1015.42 C 391.169 1016.44 387.367 1022 386.387 1023.37 C 365.355 995.916 347.135 968.229 327.886 939.804 C 293.013 888.139 259.467 834.677 230.6 779.376 C 204.337 729.062 172.623 671.02 163.355 614.461 C 141.64 481.951 238.607 349.956 375.365 341.5 z" fill="rgb(17,166,111)" transform="translate(0,0)"></path>
<path d="M 369.008 399.885 C 466.362 389.004 554.092 459.131 564.925 556.489 C 575.758 653.848 505.588 741.544 408.224 752.329 C 310.928 763.107 223.306 692.996 212.481 595.705 C 201.655 498.414 271.723 410.758 369.008 399.885 z" fill="rgb(26,56,96)" transform="translate(0,0)"></path>
<path d="M 379.684 403.418 C 389.288 402.105 408.609 404.391 418.17 406.116 C 459.742 413.739 496.624 437.467 520.792 472.141 C 491.403 476.783 441.928 489.895 412.023 497.516 C 412.107 496.177 412.161 494.837 412.184 493.496 C 412.753 465.925 404.072 451.098 374.439 450.736 C 371.796 450.953 367.054 452.056 364.572 452.971 C 356.253 455.998 349.506 462.249 345.852 470.312 C 340.657 481.865 341.754 496.678 346.137 508.331 C 331.771 511.487 317.521 513.873 302.987 517.208 C 299.104 488.915 283.278 475.221 254.556 474.795 C 287.252 428.569 323.898 408.901 379.684 403.418 z" fill="rgb(255,255,255)" transform="translate(0,0)"></path>
<path d="M 372.632 536.496 C 376.991 536.861 380.322 536.871 383.967 539.213 C 400.081 549.566 419.914 551.348 437.284 559.156 C 442.765 561.62 443.944 567.495 445.962 573.141 C 437.554 576.195 424.322 580.045 417.158 584.187 C 403.176 616.56 396.572 653.409 378.062 681.558 C 370.632 681.855 360.179 684.641 351.34 685.444 L 347.319 684.506 C 333.499 672.451 345.047 598.368 339.183 586.948 L 337.721 586.504 C 333.18 590.605 334.085 614.219 333.912 621.449 C 322.602 615.841 318.974 614.365 313.756 602.973 C 318.637 568.157 320.997 568.307 354.439 554.856 C 365.186 550.533 372.674 548.869 372.632 536.496 z" fill="rgb(20,144,220)" transform="translate(0,0)"></path>
<path d="M 225.546 541.582 C 227.475 542.898 232.209 547.644 235.496 549.915 C 249.72 559.743 259.327 559.315 275.758 556.646 C 280.094 578.812 286.596 602.627 292.115 624.659 C 297.889 647.776 303.421 670.953 308.71 694.186 C 310.171 700.33 317.798 729.571 317.449 734.104 C 274.614 712.258 247.25 676.045 231.05 631.53 C 219.987 601.132 220.033 573.156 225.546 541.582 z" fill="rgb(255,255,255)" transform="translate(0,0)"></path>
<path d="M 502.211 482.274 C 503.621 483.796 497.055 489.74 495.235 492.3 C 489.414 500.484 485.649 508.811 485.83 518.999 C 485.966 528.349 489.858 537.251 496.628 543.701 C 507.126 553.838 518.417 555.15 532.081 554.977 L 515.507 569.745 C 500.374 569.088 486.451 562.079 472.539 564.094 C 467.792 564.781 458.781 570.117 452.311 569.499 L 451.143 567.504 C 449.288 563.834 446.646 559.589 444.527 555.987 C 438.9 552.757 432.161 550.085 425.938 548.318 C 373.004 533.297 402.63 536.754 410.64 503.768 C 414.246 503.281 417.776 502.512 421.31 501.659 C 448.254 495.156 475.479 489.617 502.211 482.274 z" fill="rgb(255,255,255)" transform="translate(0,0)"></path>
<path d="M 497.469 612.503 C 501.719 614.81 506.982 624.517 509.611 628.945 C 493.979 655.74 487.828 672.095 476.28 700.943 C 455.698 692.868 428.901 684.366 407.586 676.921 C 402.589 675.355 397.324 673.898 392.279 672.419 C 393.357 666.26 407.988 628.78 411.371 619.136 C 432.197 623.122 461.86 641.335 474.553 641.835 C 479.43 640.059 493.282 618.252 497.469 612.503 z" fill="rgb(255,255,255)" transform="translate(0,0)"></path>
<path d="M 344.68 515.27 C 351.475 514.433 350.788 519.755 355.128 524.456 C 359.438 529.124 364.3 530.038 365.521 536.465 C 362.105 550.492 316.839 556.516 312.263 576.036 C 309.609 587.357 309.546 596.27 308.945 607.701 C 315.335 623.152 329.283 622.764 332.833 630.484 C 333.813 638.103 324.656 654.54 320.814 661.761 C 317.12 666.795 314.95 668.848 310.4 673.224 C 301.913 635.325 288.774 590.454 282.4 554.033 C 295.753 544.54 298.646 538.715 302.493 523.513 C 315.854 520.543 331.129 517.897 344.68 515.27 z" fill="rgb(255,255,255)" transform="translate(0,0)"></path>
<path d="M 251.498 481.943 C 297.871 477.657 314.946 533.618 272.798 550.465 C 254.119 556.428 238.088 548.321 227.914 532.495 C 231.084 521.133 241.972 487.695 251.498 481.943 z" fill="rgb(243,201,127)" transform="translate(0,0)"></path>
<path d="M 369.248 458.169 C 418.768 453.687 414.614 508.138 385.257 531.481 C 353.461 537.085 329.482 473.196 369.248 458.169 z" fill="rgb(20,144,220)" transform="translate(0,0)"></path>
<path d="M 377.769 687.332 C 378.831 688.441 378.615 689.579 378.886 691.479 C 380.295 693.098 404.091 699.168 408.536 700.553 L 405.569 720.622 C 385.755 722.776 365.101 726.565 345.238 729.543 C 339.383 730.615 329.052 733.795 324.638 728.752 C 319.041 722.359 318.435 707.388 317.74 698.968 C 337.141 694.26 357.98 691.234 377.769 687.332 z" fill="rgb(255,255,255)" transform="translate(0,0)"></path>
<path d="M 525.416 481.251 L 527.443 481.903 C 536.45 492.316 547.458 520.967 550.517 534.907 C 549.743 535.73 548.959 536.545 548.167 537.35 C 538.605 547.046 531.582 548.103 518.49 548.168 C 479.715 539.429 488.017 486.464 525.416 481.251 z" fill="rgb(243,201,127)" transform="translate(0,0)"></path>
<path d="M 551.651 541.689 C 553.577 543.56 554.4 548.873 554.749 551.613 C 558.055 577.639 556.733 603.813 548.509 628.706 C 544.361 624.436 540.911 620.007 537.192 615.379 C 529.559 604.67 523.74 594.486 517.869 582.786 C 522.228 566.739 539.343 557.714 551.651 541.689 z" fill="rgb(255,255,255)" transform="translate(0,0)"></path>
<path d="M 515.282 634.771 C 524.188 643.318 527.965 646.937 537.995 653.863 C 528.926 672.863 515.599 687.621 501.219 702.659 L 494.958 707.984 L 482.147 702.918 C 490.39 680.834 501.791 653.848 515.282 634.771 z" fill="rgb(255,255,255)" transform="translate(0,0)"></path>
<path d="M 415.776 703.088 C 427.616 707.587 450.91 715.822 461.296 721.311 L 453.278 734.863 L 443.157 738.797 C 431.462 743.528 419.208 745.835 406.808 747.619 C 409.531 732.808 412.998 718.039 415.776 703.088 z" fill="rgb(17,166,111)" transform="translate(0,0)"></path>
<path d="M 507.002 575.789 C 510.1 575.903 511.523 575.379 513.531 577.032 C 511.743 582.477 476.614 632.622 472.215 636.202 C 465.778 634.542 455.068 628.594 448.373 625.737 C 439.33 621.879 430.913 618.798 421.689 615.425 C 419.245 614.717 415.251 614.131 412.634 613.663 C 414.24 607.602 415.302 604.848 417.788 599.049 C 475.965 629.145 473.334 623.538 507.002 575.789 z" fill="rgb(255,255,255)" transform="translate(0,0)"></path>
<path d="M 474.337 569.17 C 479.226 569.627 492.625 574.355 498.246 576.064 C 495.434 583.028 479.193 608.384 471.821 611.668 C 467.412 613.631 464.386 612.121 460.096 610.713 C 451.281 606.436 441.759 603.723 432.351 599.052 C 442.009 594.602 452.303 590.503 462.054 586.24 C 473.723 581.138 473.608 581.491 474.337 569.17 z" fill="rgb(255,255,255)" transform="translate(0,0)"></path>
<path d="M 388.103 676.964 C 393.064 678.321 398.317 680.102 403.159 681.894 C 431.588 692.413 461.454 701.1 489.511 712.441 C 486.515 714.848 482.034 717.827 478.797 720.117 C 475.775 722.225 474.889 722.933 471.46 724.197 C 468.747 723.331 466.32 720.431 464.71 717.969 C 456.611 705.577 389.184 691.827 384.945 685.7 C 384.921 682.055 386.351 680.207 388.103 676.964 z" fill="rgb(255,255,255)" transform="translate(0,0)"></path>
<path d="M 513.444 588.704 C 514.938 590.427 520.72 600.005 522.182 602.37 C 530.228 615.385 535.907 624.501 546.484 635.402 C 545.117 638.916 543.034 645.752 540.457 647.894 L 538.33 647.062 C 521.894 634.543 512.713 624.342 501.808 606.715 C 505.567 599.2 508.504 595.409 513.444 588.704 z" fill="rgb(255,255,255)" transform="translate(0,0)"></path>
<path d="M 402.739 727.487 C 403.797 730.325 400.637 743.739 399.893 747.546 C 375.396 748.436 363.699 748.633 340.223 741.766 C 336.369 740.691 336.545 741.368 334.154 738.909 C 337.075 736.026 395.314 728.334 402.739 727.487 z" fill="rgb(255,255,255)" transform="translate(0,0)"></path>
<path d="M 333.657 650.718 C 337.171 663.075 330.159 669.539 342.321 688.108 L 319.26 692.731 C 317.367 693.01 317.782 692.853 315.778 692.414 C 313.198 689.099 312.506 683.294 311.644 679.001 C 323.758 671.09 326.576 663.412 333.657 650.718 z" fill="rgb(255,255,255)" transform="translate(0,0)"></path>
<path d="M 465.006 572.079 C 466.947 573.507 466.346 572.776 466.848 575.833 C 463.507 580.365 430.195 592.897 423.313 595.495 L 421.663 594.869 C 420.554 592.147 420.677 593.578 421.816 590.42 C 427.256 584.58 456.42 575.044 465.006 572.079 z" fill="rgb(255,255,255)" transform="translate(0,0)"></path>
<path d="M 151.635 580.694 C 152.795 585.795 153.241 595.758 153.767 601.362 C 158.165 648.259 177.54 689.636 197.333 731.824 C 230.357 802.213 270.72 867.14 312.684 932.436 C 324.592 951.105 336.785 969.592 349.258 987.889 C 355.409 996.797 370.54 1017.31 374.891 1025.77 L 375.326 1026.63 C 357.822 1027.21 344.714 1026.84 327.221 1025.55 C 328.1 1014.48 327.949 1002.41 328.021 991.222 C 307.6 990.992 285.963 983.949 266.552 977.929 C 262.233 984.782 255.526 999.776 252.078 1007.35 C 245.818 1005.4 235.133 1000.15 228.827 997.215 C 218.83 992.279 209.122 986.78 199.749 980.742 C 203.333 971.495 210.931 959.958 216.356 951.241 C 199.264 936.662 182.724 928.877 167.834 908.514 C 159.391 917.017 150.876 925.447 142.289 933.805 C 130.825 922.413 112.914 901.203 106.195 886.657 C 115.43 878.583 125.945 872.181 135.327 863.362 C 135.18 863.175 135.032 862.988 134.885 862.802 L 134.164 861.857 C 122.033 846.202 113.665 823.982 107.968 805.203 C 96.7529 807.94 85.7632 811.401 74.7217 814.763 C 69.5007 800.611 63.6036 772.212 62.8694 757.221 C 75.2164 755.201 85.8549 752.363 97.8366 748.913 C 96.6169 723.449 97.7112 711.741 101.328 686.329 C 90.1024 682.774 79.9436 679.426 68.3694 676.993 C 69.8786 659.651 78.9216 633.842 85.9678 618.065 C 93.6236 621.356 111.218 630.745 118.235 630.257 C 121.205 627.198 131.156 608.783 134.534 603.737 C 140.192 595.285 145.239 588.81 151.635 580.694 z" fill="rgb(255,255,255)" transform="translate(0,0)"></path>
<path d="M 202.625 377.246 C 205.38 377.105 208.138 377.018 210.896 376.983 C 218.314 376.917 234.786 379.213 240.26 384.614 C 241.64 389.48 232.608 395.214 228.766 398.82 C 203.605 422.431 187.206 448.357 173.512 479.749 L 167.929 492.368 C 129.917 450.394 145.695 387.045 202.625 377.246 z" fill="rgb(255,255,255)" transform="translate(0,0)"></path>
<path d="M 122.189 555.901 C 127.885 559.941 140.629 571.459 145.981 576.498 C 134.868 591.731 124.383 610.778 114.732 623.669 C 110.169 621.526 93.373 614.027 90.5972 610.821 C 90.2522 599.039 114.093 565.485 122.189 555.901 z" fill="rgb(17,166,111)" transform="translate(0,0)"></path>
<path d="M 65.6744 682.367 C 73.8022 684.097 86.5927 687.998 94.3745 690.806 C 90.0603 706.453 91.5299 728.073 89.8818 744.264 C 89.7749 745.313 87.3082 745.678 85.7979 746.142 L 61.4531 751.437 C 59.4723 732.075 61.4905 701.191 65.6744 682.367 z" fill="rgb(17,166,111)" transform="translate(0,0)"></path>
<path d="M 100.235 814.116 L 101.894 813.922 C 104.403 815.913 105.969 821.892 107.099 825.067 C 112.039 838.948 118.723 851.437 125.833 864.317 C 117.821 869.394 109.858 875.561 102.511 881.548 C 95.5646 870.733 75.5232 833.033 76.4869 822.05 C 80.2901 817.493 93.8881 815.635 100.235 814.116 z" fill="rgb(17,166,111)" transform="translate(0,0)"></path>
<path d="M 166.908 918.817 C 182.177 933.682 190.069 940.373 207.122 953.232 C 203.62 958.941 196.499 972.013 192.811 976.375 L 191.289 976.187 C 173.3 962.502 163.88 955.239 147.394 939.251 C 152.342 932.828 160.924 924.757 166.908 918.817 z" fill="rgb(17,166,111)" transform="translate(0,0)"></path>
<path d="M 269.247 985.803 C 281.63 991.296 308.211 996.721 321.93 999.743 C 321.58 1007.18 322.791 1015.32 319.627 1021.52 C 316.664 1023.4 316.512 1022.66 312.401 1022.22 C 291.254 1018.26 279.946 1015.6 259.249 1009.18 C 262.023 1001.79 266.034 993.144 269.247 985.803 z" fill="rgb(17,166,111)" transform="translate(0,0)"></path>
<path d="M 158.673 516.912 C 159.994 519.364 155.831 536.948 155.203 541.536 C 153.743 552.202 152.769 562.735 151.788 573.443 L 138.896 561.667 L 125.762 551.22 C 135.842 537.5 146.011 528.188 158.673 516.912 z" fill="rgb(255,255,255)" transform="translate(0,0)"></path>
<path d="M 1805.24 556.402 C 1814.63 556.164 1835.08 554.617 1838.97 563.034 C 1843.25 572.274 1841.75 606.526 1841.77 616.59 L 1841.87 694.403 C 1841.86 721.133 1843.34 770.862 1840.92 795.247 C 1831.37 810.846 1814.7 808.03 1798.54 806.569 C 1791.19 805.905 1787.81 801.625 1783.99 795.83 C 1782.91 781.585 1783.48 761.263 1783.45 746.392 L 1783.16 663.115 C 1775.84 675.484 1724.89 766.334 1718.73 770.91 C 1713.79 774.584 1696.18 773.808 1690.25 772.412 C 1686.8 771.6 1684.01 770.15 1681.7 767.413 C 1672.46 756.458 1665.81 741.158 1658.66 728.701 C 1646.42 707.389 1633.89 686.239 1621.08 665.257 L 1621.33 727.089 C 1621.63 745.516 1622.11 764.381 1621.95 782.816 C 1621.61 789.934 1619.2 797.84 1613.65 802.585 C 1610.26 805.476 1607.06 806.08 1602.8 806.667 C 1591.29 808.256 1574.82 808.742 1567.19 798.071 C 1565.18 795.273 1563.98 783.181 1563.9 779.591 C 1562.94 735.561 1563.91 691.49 1563.74 647.452 C 1563.67 628.333 1563.57 609.176 1563.62 590.058 C 1563.63 583.839 1563.29 573.016 1564.43 567.279 C 1567.16 553.479 1599.74 555.453 1607.92 557.547 C 1614.68 559.316 1620.67 563.231 1625.01 568.704 C 1628.13 572.56 1645.08 603.506 1648.48 609.416 L 1703.89 704.884 C 1717.67 676.93 1736.43 647.851 1751.59 620.211 C 1761.13 602.816 1772.94 581.959 1783.98 565.454 C 1788.89 558.108 1797.14 557.198 1805.24 556.402 z" fill="rgb(26,56,96)" transform="translate(0,0)"></path>
<path d="M 797.644 554.369 C 826.509 550.218 885.54 559.31 901.878 586.717 C 910.051 600.428 893.114 617.346 880.863 622.871 C 867.281 617.615 858.021 605.167 841.922 601.134 C 817.989 595.138 790.648 590.308 781.421 619.052 C 782.883 623.862 784.063 628.071 787.726 631.736 C 806.103 650.123 858.38 647.271 890.752 673.776 C 904.742 685.195 913.46 701.832 914.887 719.834 C 920.326 783.042 862.316 803.747 810.945 807.873 C 791.584 808.227 771.066 806.164 752.53 800.241 C 737.477 795.101 717.452 787.182 709.425 772.855 C 702.563 760.342 712.245 741.209 724.12 735.506 C 733.948 730.786 749.148 745.776 757.327 750.983 C 762.754 754.433 768.563 757.242 774.637 759.355 C 798.031 767.501 836.643 768.557 846.134 739.91 C 840.72 716.708 810.26 709.047 789.352 706.081 C 680.352 690.622 687.241 565.981 797.644 554.369 z" fill="rgb(26,56,96)" transform="translate(0,0)"></path>
<path d="M 1342.98 557.183 C 1376.17 556.557 1409.9 557.295 1443.16 557.021 C 1462.01 557.293 1481.01 556.528 1499.83 557.546 C 1509.32 558.059 1514.97 564.4 1515.14 573.699 C 1515.41 588.31 1517.77 602.246 1498.73 603.455 C 1487.02 604.198 1475.62 603.957 1463.88 603.933 L 1400.05 603.619 L 1400.34 656.917 L 1455.87 656.72 C 1474.82 656.655 1500.56 651.618 1498.81 677.14 C 1498.16 686.592 1500.08 698.186 1486.61 699.47 C 1475.94 700.489 1465.43 699.997 1454.91 699.908 L 1399.87 699.406 L 1399.99 720.75 L 1399.9 756.832 L 1470.75 756.937 C 1482.17 756.946 1494.79 756.5 1506.08 757.552 C 1512.73 758.172 1516.1 763.451 1519.74 768.594 C 1521.63 784.236 1522.41 801.566 1501.47 803.236 C 1484.43 804.595 1466.71 803.92 1449.56 803.918 L 1344.43 803.871 C 1339.64 801.397 1333.64 797.487 1331.63 792.241 C 1328.89 785.079 1329 571.073 1331.77 565.102 C 1333.89 560.537 1338.6 558.805 1342.98 557.183 z" fill="rgb(26,56,96)" transform="translate(0,0)"></path>
<path d="M 1091.85 557.318 C 1154.09 556.883 1216.34 556.84 1278.58 557.188 C 1287.9 562.972 1293.71 573.341 1287.41 583.608 C 1276.05 602.153 1261.93 619.958 1249.11 637.651 L 1162.4 756.805 L 1237.18 756.792 C 1247.37 756.794 1270.63 756.119 1279.5 758.208 C 1296.02 771.765 1293.72 791.137 1275.96 802.374 C 1268.81 804.877 1242.43 803.9 1233.85 803.891 L 1143.26 803.651 C 1126.3 803.619 1109.25 804.382 1092.28 803.797 C 1075.23 803.864 1061.99 788.206 1071.45 772.194 C 1080.35 757.141 1093.01 741.559 1103.31 727.297 C 1120.03 703.675 1136.95 680.193 1154.06 656.855 C 1166.27 640.146 1180.98 621.002 1192.18 603.936 C 1174.5 603.911 1095.45 606.625 1084.82 601.838 C 1080.95 600.095 1078.54 596.151 1077.3 592.243 C 1074.71 584.127 1075.22 573.617 1079.35 566.072 C 1082.12 561.017 1086.65 558.945 1091.85 557.318 z" fill="rgb(26,56,96)" transform="translate(0,0)"></path>
<path d="M 969.02 558.088 C 976.529 557.359 984.35 557.119 991.906 557.107 C 1006.57 557.082 1028.14 554.153 1029.07 574.647 C 1035.09 587.88 1033.92 754.777 1029.08 767.394 C 1028.6 777.729 1031.89 790.484 1024.72 798.759 C 1017.21 807.424 967.826 806.004 962.554 797.975 C 957.233 789.875 959.117 749.76 959.123 738.347 L 959.298 645.871 C 959.372 631.092 959.307 616.313 959.103 601.536 C 958.984 590.539 957.719 576.618 961.399 566.125 C 962.537 562.882 966.318 560.2 969.02 558.088 z" fill="rgb(26,56,96)" transform="translate(0,0)"></path>
<path d="M 1029.07 574.647 C 1035.09 587.88 1033.92 754.777 1029.08 767.394 C 1028.33 743.76 1028.97 716.94 1028.95 693.097 C 1028.78 653.614 1028.83 614.13 1029.07 574.647 z" fill="rgb(255,255,255)" transform="translate(0,0)"></path>
<path d="M 443.806 960.18 C 446.326 956.86 448.821 953.309 451.275 949.921 C 509.72 947.317 579.997 949.046 639.236 949.072 L 966.941 949.147 L 1896.41 949.805 C 1896.33 952.82 1896.33 956.692 1896.1 959.617 C 1835.5 957.605 1766.7 959.033 1705.65 959.064 L 1357.25 959.4 L 443.806 960.18 z" fill="rgb(74,111,146)" transform="translate(0,0)"></path>
<path d="M 1890.93 811.061 C 1891.76 809.82 1893.11 809.266 1894.5 808.416 C 1894.66 810.328 1894.66 811.906 1895.18 813.738 L 1896.62 813.372 C 1898.08 814.458 1904 818.875 1905.33 819.412 C 1922.32 826.288 1945.01 826.204 1962.77 824.449 L 1958.65 823.214 C 1960.5 822.195 1961.05 822.861 1963.78 823.418 C 1965.18 824.605 1965.65 825.127 1966.88 826.505 C 1975.87 842.529 1971.15 871.549 1969.42 889.602 L 1963.8 949.94 C 1968.95 949.889 1969.23 949.112 1973.23 951.244 C 1975.04 954.254 1974.8 952.864 1974.1 956.184 C 1971.66 958.651 1971.66 959.157 1967.66 959.157 C 1966.16 959.147 1964.67 959.116 1963.18 959.063 C 1960.06 984.285 1959.5 985.406 1960.27 1009.59 C 1946.69 1009.82 1938.84 1014.94 1924.97 1015.29 C 1916.74 1015.5 1912.55 1009.48 1909.4 1010.2 C 1897.3 1012.98 1894.52 1016.41 1881.35 1016.19 C 1876.79 1016.03 1875.46 1016.02 1872.43 1013.57 L 1872.27 1011.25 C 1873.89 1007.49 1876.53 1005.83 1879.73 1003.17 C 1885.14 999.203 1887.1 997.761 1893.12 994.979 C 1896.24 992.596 1895.56 991.965 1895.98 988.185 C 1895.48 980.609 1896.02 967.593 1896.1 959.617 C 1896.33 956.692 1896.33 952.82 1896.41 949.805 C 1896.45 946.591 1899.25 848.612 1898.22 847.723 C 1875.19 827.856 1890.3 831.553 1890.93 811.061 z" fill="rgb(18,51,79)" transform="translate(0,0)"></path>
<path d="M 1902.48 985.597 C 1901.4 979.522 1901.84 965.354 1901.86 958.73 C 1901.98 937.415 1902.31 916.102 1902.86 894.795 C 1903.1 883.647 1902.77 858.872 1904.16 848.91 L 1905.18 847.582 C 1909.12 847.938 1907.82 847.28 1910.59 849.66 C 1912.11 853.514 1912.5 857.169 1913.13 861.256 C 1916.73 880.92 1927.11 919.468 1925.44 936.544 C 1924.44 946.713 1916.98 973.276 1914.89 986.259 C 1911.32 986.235 1905.71 986.432 1902.48 985.597 z" fill="rgb(20,144,220)" transform="translate(0,0)"></path>
<path d="M 1895.18 813.738 L 1896.62 813.372 C 1898.08 814.458 1904 818.875 1905.33 819.412 C 1922.32 826.288 1945.01 826.204 1962.77 824.449 C 1964.21 831.66 1963.88 836.1 1963.69 843.348 C 1944.77 848.117 1920.46 843.544 1901.32 841.04 C 1885.85 839.017 1892.3 823.708 1895.18 813.738 z" fill="rgb(255,255,255)" transform="translate(0,0)"></path>
<path d="M 1902.48 985.597 C 1903.3 988.974 1903.63 988.039 1902.32 990.375 C 1907.4 990.895 1913.89 990.829 1912.96 997.599 C 1907.98 1006.12 1896.1 1006.89 1889.94 1009.7 C 1887.37 1012.58 1884.58 1014.14 1881.35 1016.19 C 1876.79 1016.03 1875.46 1016.02 1872.43 1013.57 L 1872.27 1011.25 C 1873.89 1007.49 1876.53 1005.83 1879.73 1003.17 C 1885.14 999.203 1887.1 997.761 1893.12 994.979 C 1896.24 992.596 1895.56 991.965 1895.98 988.185 C 1898.03 986.707 1900.04 986.323 1902.48 985.597 z" fill="rgb(162,90,55)" transform="translate(0,0)"></path>
<path d="M 1879.73 1003.17 L 1881.64 1008.89 C 1883.77 1010.49 1886.77 1009.83 1889.94 1009.7 C 1887.37 1012.58 1884.58 1014.14 1881.35 1016.19 C 1876.79 1016.03 1875.46 1016.02 1872.43 1013.57 L 1872.27 1011.25 C 1873.89 1007.49 1876.53 1005.83 1879.73 1003.17 z" fill="rgb(12,37,66)" transform="translate(0,0)"></path>
<path d="M 1902.48 985.597 C 1903.3 988.974 1903.63 988.039 1902.32 990.375 C 1900.01 997.262 1899.82 997.338 1893.29 1000.8 L 1893.12 994.979 C 1896.24 992.596 1895.56 991.965 1895.98 988.185 C 1898.03 986.707 1900.04 986.323 1902.48 985.597 z" fill="rgb(12,37,66)" transform="translate(0,0)"></path>
<path d="M 1879.73 1003.17 C 1885.14 999.203 1887.1 997.761 1893.12 994.979 L 1893.29 1000.8 C 1889.36 1002.42 1883.74 1005.05 1881.64 1008.89 L 1879.73 1003.17 z" fill="rgb(26,56,96)" transform="translate(0,0)"></path>
<path d="M 1963.8 949.94 C 1968.95 949.889 1969.23 949.112 1973.23 951.244 C 1975.04 954.254 1974.8 952.864 1974.1 956.184 C 1971.66 958.651 1971.66 959.157 1967.66 959.157 C 1966.16 959.147 1964.67 959.116 1963.18 959.063 L 1963.8 949.94 z" fill="rgb(74,111,146)" transform="translate(0,0)"></path>
<path d="M 1917.62 848.697 C 1936.94 849.724 1947.73 850.846 1967.05 848.725 C 1966.99 864.805 1964.44 882.162 1962.8 898.382 C 1960.15 923.947 1957.79 949.541 1955.72 975.16 C 1955.25 980.766 1952.68 989.241 1945.37 986.966 C 1941.27 982.494 1936.29 943.532 1934.33 933.866 C 1928.73 906.169 1920.74 876.637 1917.62 848.697 z" fill="rgb(20,144,220)" transform="translate(0,0)"></path>
<path d="M 1926.6 959.533 C 1933.04 959.908 1932.93 961.654 1934.25 967.804 C 1935.77 974.908 1935.93 980.951 1938.34 987.917 L 1938.77 989.124 C 1934.72 992.946 1929.45 996.505 1924.88 999.791 L 1917.75 1005.07 C 1917.5 989.11 1922.45 975.037 1926.6 959.533 z" fill="rgb(255,255,255)" transform="translate(0,0)"></path>
<path d="M 1944.93 991.006 C 1949.99 990.915 1953.12 989.849 1955.64 994.731 C 1954.19 1002.42 1942.93 1005.29 1936.55 1007.18 C 1933.57 1007.51 1928.58 1008.6 1926.71 1006.07 C 1930.61 1000.75 1937.34 1000.18 1944.13 991.978 L 1944.93 991.006 z" fill="rgb(162,90,55)" transform="translate(0,0)"></path>
<path d="M 1932.6 673.843 C 1935.16 664.106 1936.86 661.522 1944.78 656.055 C 1951.61 651.339 1966.83 653.522 1970.8 660.617 C 1977.75 673.038 1979.85 670.016 1991.1 675.661 C 1993.87 677.049 1993.28 687.941 1992.06 690.284 C 1989.11 696.979 1980.46 696.129 1981.44 705.414 C 1982.19 712.516 1972.06 718.081 1966.32 717.199 C 1955.66 715.561 1953.77 712.698 1945.55 720.98 C 1943.66 722.887 1939.26 724.466 1936.39 725.55 C 1937.03 729.874 1937.49 733.628 1938.7 737.844 C 1959.68 739.021 1963.93 748.073 1969.93 767.426 C 1974.03 780.686 1976.92 794.389 1978.83 808.125 C 1980.55 820.502 1968.95 820.543 1966.88 826.505 C 1965.65 825.127 1965.18 824.605 1963.78 823.418 C 1961.05 822.861 1960.5 822.195 1958.65 823.214 L 1962.77 824.449 C 1945.01 826.204 1922.32 826.288 1905.33 819.412 C 1904 818.875 1898.08 814.458 1896.62 813.372 L 1895.18 813.738 C 1894.66 811.906 1894.66 810.328 1894.5 808.416 C 1893.11 809.266 1891.76 809.82 1890.93 811.061 C 1880.52 806.928 1854.77 773.494 1848.26 763.304 C 1848.19 760.197 1847.72 761.553 1849.85 759.152 C 1871.81 758.321 1878.36 769.056 1890.66 784.768 C 1897.13 770.983 1908.1 755.278 1917.25 742.954 C 1916.97 735.567 1914.29 737.587 1909.81 731.821 C 1902.56 722.481 1904 714.397 1904.93 703.774 C 1903.84 696.568 1902.96 691.273 1904.18 684.069 C 1909.06 668.238 1919.65 669.739 1932.6 673.843 z" fill="rgb(26,56,96)" transform="translate(0,0)"></path>
<path d="M 1930.24 748.829 L 1932.18 749.117 C 1935.46 744.937 1936.5 742.069 1942.2 743.065 C 1963.58 744.271 1965.8 770.503 1970.21 786.938 C 1972.24 794.463 1975.96 809.212 1971.64 815.943 C 1959.59 824.456 1907.6 823.102 1899.75 808.449 C 1907.88 804.504 1912.55 807.955 1920.51 799.903 L 1919.41 799.144 C 1913.2 802.69 1911.23 803.668 1904.07 802.813 L 1901.38 797.731 C 1899.56 790.004 1899.69 793.587 1895.37 788.727 C 1894.24 781.827 1905.34 766.885 1910.13 761.823 C 1912.38 759.439 1915.2 760.479 1918.06 760.843 L 1917.07 758.196 C 1921.22 756.227 1926.14 751.718 1930.24 748.829 z" fill="rgb(255,255,255)" transform="translate(0,0)"></path>
<path d="M 1923.9 794.396 C 1926.73 797.996 1935.67 799.579 1940.02 798.711 C 1942.57 794.21 1934.61 780.079 1938.24 770.829 L 1938.02 771.886 L 1940.67 772.804 C 1942.57 781.733 1946.14 797.28 1946.79 805.561 C 1941.02 805.287 1938.15 805.178 1932.5 803.979 C 1928.9 803.212 1922.53 799.957 1920.51 799.903 L 1919.41 799.144 L 1920.27 794.051 L 1923.9 794.396 z" fill="rgb(12,37,66)" transform="translate(0,0)"></path>
<path d="M 1901.38 797.731 C 1904.1 783.73 1913.34 781.122 1920.27 794.051 L 1919.41 799.144 C 1913.2 802.69 1911.23 803.668 1904.07 802.813 L 1901.38 797.731 z" fill="rgb(162,90,55)" transform="translate(0,0)"></path>
<path d="M 1895.37 788.727 C 1906.12 777.907 1917.24 781.657 1923.9 794.396 L 1920.27 794.051 C 1913.34 781.122 1904.1 783.73 1901.38 797.731 C 1899.56 790.004 1899.69 793.587 1895.37 788.727 z" fill="rgb(26,56,96)" transform="translate(0,0)"></path>
<path d="M 1930.24 748.829 L 1932.18 749.117 C 1935.46 744.937 1936.5 742.069 1942.2 743.065 C 1940.8 744.092 1939.85 744.53 1938.89 745.206 C 1933.15 749.281 1926.48 763.226 1918.06 760.843 L 1917.07 758.196 C 1921.22 756.227 1926.14 751.718 1930.24 748.829 z" fill="rgb(12,37,66)" transform="translate(0,0)"></path>
<path d="M 1909.7 702.757 C 1913.77 697.576 1917.31 702.915 1923.73 699.62 C 1925.98 696.531 1926.66 695.739 1930.07 693.996 C 1930.23 699.98 1929.49 704.778 1933.59 708.932 C 1936.1 709.578 1938.15 710.082 1940.58 710.96 C 1940.72 713.939 1941.14 715.168 1939.56 717.472 C 1934.02 718.776 1934.21 717.01 1931.52 720.223 C 1928.66 733.988 1936.93 735.329 1930.24 748.829 C 1926.14 751.718 1921.22 756.227 1917.07 758.196 C 1914.95 752.916 1917.02 751.284 1919.78 746.666 C 1918.36 745.515 1918.06 744.577 1917.25 742.954 C 1916.97 735.567 1914.29 737.587 1909.81 731.821 C 1902.56 722.481 1904 714.397 1904.93 703.774 L 1908.61 701.459 L 1909.7 702.757 z" fill="rgb(162,90,55)" transform="translate(0,0)"></path>
<path d="M 1904.93 703.774 L 1908.61 701.459 L 1909.7 702.757 C 1900.57 735.973 1928.87 725.659 1919.78 746.666 C 1918.36 745.515 1918.06 744.577 1917.25 742.954 C 1916.97 735.567 1914.29 737.587 1909.81 731.821 C 1902.56 722.481 1904 714.397 1904.93 703.774 z" fill="rgb(12,37,66)" transform="translate(0,0)"></path>
<path d="M 1890.66 784.768 C 1897.13 770.983 1908.1 755.278 1917.25 742.954 C 1918.06 744.577 1918.36 745.515 1919.78 746.666 C 1917.02 751.284 1914.95 752.916 1917.07 758.196 L 1918.06 760.843 C 1915.2 760.479 1912.38 759.439 1910.13 761.823 C 1905.34 766.885 1894.24 781.827 1895.37 788.727 C 1899.69 793.587 1899.56 790.004 1901.38 797.731 L 1904.07 802.813 C 1901.87 802.54 1900.5 802.071 1898.64 803.18 C 1883.76 786.699 1878.64 768.408 1855.12 763.494 C 1852.08 762.253 1851.81 761.823 1849.85 759.152 C 1871.81 758.321 1878.36 769.056 1890.66 784.768 z" fill="rgb(18,51,79)" transform="translate(0,0)"></path>
<path d="M 1855.12 763.494 C 1878.64 768.408 1883.76 786.699 1898.64 803.18 C 1896.13 803.657 1893.3 804.416 1890.74 804.257 C 1885.12 803.905 1859.96 771.689 1854.8 765.535 L 1855.12 763.494 z" fill="rgb(20,144,220)" transform="translate(0,0)"></path>
<path d="M 1904.18 684.069 C 1918.21 693.227 1928.04 682.628 1933.32 693.233 C 1933.31 696.553 1933.85 696.211 1932.27 698.362 C 1930.32 696.475 1930.91 696.978 1930.07 693.996 C 1926.66 695.739 1925.98 696.531 1923.73 699.62 C 1917.31 702.915 1913.77 697.576 1909.7 702.757 L 1908.61 701.459 L 1904.93 703.774 C 1903.84 696.568 1902.96 691.273 1904.18 684.069 z" fill="rgb(12,37,66)" transform="translate(0,0)"></path>
<path d="M 1026.66 872.542 C 1028.04 872.15 1029.15 872.391 1030.64 872.486 C 1032.38 875.549 1030.17 875.275 1029.45 877.999 C 1029.22 878.848 1030.15 885.491 1030.32 886.731 C 1027.06 895.12 1017.25 891.051 1012.58 894.957 C 1018.35 896.613 1027.36 898.177 1030.12 903.863 C 1030.81 907.627 1029.82 909.266 1028.41 912.75 C 1022.42 916.925 1011.55 918.682 1006.24 912.863 C 1005.11 908.429 1006.81 908.335 1007.63 904.735 C 1012.09 885.186 994.813 872.832 1026.66 872.542 z" fill="rgb(0,0,0)" transform="translate(0,0)"></path>
<path d="M 1016.23 877.078 C 1021.5 877.583 1023.78 877.291 1026.13 882.354 C 1025.17 886.592 1025.87 884.996 1022.37 888.588 C 1017.27 888.43 1012.68 888.602 1011.6 882.715 C 1012.75 879.506 1013.42 879.303 1016.23 877.078 z" fill="rgb(255,255,255)" transform="translate(0,0)"></path>
<path d="M 1011.04 902.064 C 1015.88 902.816 1018.88 901.476 1023.47 903.61 C 1025.54 906.781 1025.04 905.3 1024.73 909.807 C 1020.14 911.109 1016.44 912.699 1012.19 909.78 C 1010.19 905.904 1010.8 906.881 1011.04 902.064 z" fill="rgb(255,255,255)" transform="translate(0,0)"></path>
<path d="M 1509.89 862.056 C 1516.44 863.239 1524.02 879.177 1529.32 886.4 C 1532.6 881.374 1540.58 864.837 1546.35 864.832 C 1549.58 869.948 1547.54 886.101 1547.92 892.654 C 1548.12 896.146 1548.48 901.476 1545.31 903.194 L 1543.46 902.213 C 1541.28 898.903 1541.95 896.137 1542.18 892.036 L 1542.04 877.375 C 1538.61 882.808 1535.12 891.427 1528.54 892.262 C 1522.63 890.401 1519.01 881.805 1515.79 876.17 C 1515.75 883.044 1515.96 895.231 1515.21 901.621 L 1513.28 902.547 L 1511.51 901.889 C 1508.49 895.814 1509.78 870.165 1509.89 862.056 z" fill="rgb(0,0,0)" transform="translate(0,0)"></path>
<path d="M 1679.59 873.588 C 1682.89 874.116 1682.42 874.174 1684.54 876.171 C 1688.37 877.139 1694.39 873.4 1698.9 874.951 C 1705.87 877.346 1705.63 890.391 1704.08 896.12 C 1702.99 900.154 1697.46 902.589 1693.49 904.073 C 1690.28 903.335 1689.59 902.689 1687.02 900.6 L 1685.41 900.797 C 1682.76 905.417 1686.76 909.68 1684.36 914.491 C 1681.32 915.698 1682.84 915.589 1679.65 914.806 C 1678.61 911.193 1679.27 878.719 1679.59 873.588 z" fill="rgb(0,0,0)" transform="translate(0,0)"></path>
<path d="M 1686.84 878.84 C 1700.09 878.842 1701.58 887.224 1697.02 897.897 C 1683.58 899.576 1682.31 888.256 1686.84 878.84 z" fill="rgb(255,255,255)" transform="translate(0,0)"></path>
<path d="M 1111.64 859.365 C 1113.27 859.779 1113.5 860.04 1114.97 860.911 C 1116.5 865.909 1116.46 896.407 1115.1 901.566 C 1110.65 903.598 1101.47 903.272 1096.69 901.588 C 1083.86 888.542 1090.9 876.268 1107.69 872.955 L 1108.78 872.743 C 1111.4 869.356 1108.24 864.988 1111.64 859.365 z" fill="rgb(0,0,0)" transform="translate(0,0)"></path>
<path d="M 1102.72 877.664 C 1105.81 877.996 1105.99 877.945 1108.55 879.567 C 1112.62 886.746 1111.75 894.379 1104.87 899.077 C 1095.27 893.515 1092.82 884.382 1102.72 877.664 z" fill="rgb(255,255,255)" transform="translate(0,0)"></path>
<path d="M 1379.59 860.238 C 1381.19 860.712 1383.15 860.884 1383.51 862.082 C 1385.62 869.122 1385.04 896.301 1383.22 902.203 C 1376.97 902.042 1372.64 903.096 1366.86 901.759 C 1360.53 895.733 1357.81 886.752 1363.16 878.589 C 1368.74 870.057 1374.33 875.109 1378.4 874.349 C 1379.27 872.282 1379.43 863.066 1379.59 860.238 z" fill="rgb(0,0,0)" transform="translate(0,0)"></path>
<path d="M 1371.74 877.589 C 1381.44 878.744 1380.29 887.219 1378.64 894.812 C 1378.05 897.499 1376.61 897.452 1374.18 898.653 C 1363.87 894.272 1363.11 884.313 1371.74 877.589 z" fill="rgb(255,255,255)" transform="translate(0,0)"></path>
<path d="M 1195.59 861.248 C 1197.7 861.434 1198.47 861.704 1200.44 862.274 C 1201.69 865.776 1201.64 899.591 1199.63 901.685 C 1194.08 902.332 1189.03 903.324 1183.65 901.773 C 1169.8 887.042 1176.25 876.956 1194.23 873 C 1196.02 870.027 1195.54 865 1195.59 861.248 z" fill="rgb(0,0,0)" transform="translate(0,0)"></path>
<path d="M 1189.67 877.688 C 1191.65 878.014 1192.47 878.63 1194.19 879.593 C 1198.21 886.209 1197.71 894.829 1190.87 899.131 C 1180.78 893.78 1179.85 883.96 1189.67 877.688 z" fill="rgb(255,255,255)" transform="translate(0,0)"></path>
<path d="M 1401.79 873.552 C 1406.84 871.953 1412.35 873.238 1416.17 876.902 C 1419.99 880.566 1421.5 886.024 1420.11 891.131 C 1418.72 896.237 1414.66 900.177 1409.51 901.4 C 1401.94 903.199 1394.31 898.689 1392.23 891.193 C 1390.15 883.698 1394.38 875.903 1401.79 873.552 z" fill="rgb(0,0,0)" transform="translate(0,0)"></path>
<path d="M 1402.85 877.57 C 1415.39 877.549 1418.22 888.1 1409.97 896.854 C 1395.83 897.61 1393.96 886.558 1402.85 877.57 z" fill="rgb(255,255,255)" transform="translate(0,0)"></path>
<path d="M 1130.97 873.131 C 1151.52 871.324 1153.75 893.127 1139.81 902.889 C 1119.94 904.137 1117.51 883.353 1130.97 873.131 z" fill="rgb(0,0,0)" transform="translate(0,0)"></path>
<path d="M 1135.04 876.752 C 1145.65 880.845 1144.38 892.666 1136.05 899.092 C 1126.29 894.191 1125.74 882.59 1135.04 876.752 z" fill="rgb(255,255,255)" transform="translate(0,0)"></path>
<path d="M 813.673 872.368 C 815.431 872.822 816.931 873.817 818.525 874.718 C 823.614 874.254 823.958 872.471 829.404 873.685 C 838.378 882.488 834.677 872.231 846.27 873.342 C 853.568 877.922 854.488 895.408 850.881 901.973 L 848.875 902.498 C 845.735 898.019 849.431 886.482 844.067 880.06 C 841.169 878.475 840.473 878.797 837.143 879.279 L 836.13 879.432 C 835.287 886.309 836.7 897.628 835.078 902.174 L 833.526 902.829 C 832.735 902.671 831.811 902.486 830.753 902.275 C 828.43 895.309 833.259 886.306 827.995 880.177 C 824.911 878.628 824.664 878.792 821.089 879.213 C 814.352 886.002 824.477 901.258 815.011 902.824 C 811.84 898.237 812.949 878.278 813.673 872.368 z" fill="rgb(0,0,0)" transform="translate(0,0)"></path>
<path d="M 1713.97 874.438 C 1719.58 873.629 1724.66 872.649 1729.84 875.342 C 1733.28 880.635 1734 895.765 1733.36 902.097 C 1724.31 901.9 1728.48 899.932 1720.62 904.246 C 1715.08 902.945 1710.6 900.359 1710.58 893.579 C 1710.54 882.523 1722.39 887.809 1726.84 883.025 L 1726.42 880.078 C 1722.76 877.199 1721.36 879.593 1715.2 877.938 L 1713.97 874.438 z" fill="rgb(0,0,0)" transform="translate(0,0)"></path>
<path d="M 1717.24 889.136 C 1720.79 888.921 1723.31 888.357 1726.42 889.897 C 1727.55 893.463 1726.87 893.396 1725.74 897.406 C 1722.14 898.149 1720.59 898.266 1717.69 896.738 C 1716.12 893.828 1716.7 892.537 1717.24 889.136 z" fill="rgb(255,255,255)" transform="translate(0,0)"></path>
<path d="M 867.318 873.008 C 872.62 873.132 875.066 872.811 878.214 878.284 C 880.385 882.057 883.303 900.781 877.815 902.251 C 874.685 903.089 864.667 903.116 861.177 901.359 C 850.57 883.73 870.765 887.31 874.074 881.141 C 870.663 877.542 864.742 880.103 860.652 876.888 C 862.469 874.246 864.22 874.059 867.318 873.008 z" fill="rgb(0,0,0)" transform="translate(0,0)"></path>
<path d="M 866.453 889.295 C 868.761 887.725 871.899 888.277 873.533 890.54 C 875.168 892.802 874.706 895.955 872.491 897.653 C 871.001 898.795 869.008 899.038 867.287 898.286 C 865.567 897.534 864.391 895.906 864.217 894.037 C 864.044 892.167 864.9 890.351 866.453 889.295 z" fill="rgb(255,255,255)" transform="translate(0,0)"></path>
<path d="M 1256.97 863.22 C 1263.72 862.523 1279.54 860.657 1283.76 866.052 C 1284.24 872.351 1268.8 890.964 1264.12 897.38 C 1269.25 897.607 1278.19 895.942 1282.29 898.416 C 1283.35 899.06 1283.23 901.132 1283.45 902.775 L 1253.89 902.737 C 1260.53 892.224 1270.3 879.151 1277.57 868.125 C 1272.18 868.012 1264.65 869.201 1259.54 867.42 C 1257.85 866.828 1257.84 865.408 1256.97 863.22 z" fill="rgb(0,0,0)" transform="translate(0,0)"></path>
<path d="M 1066.24 873.294 C 1069.89 872.826 1074.6 871.877 1077.75 874.054 C 1084.97 879.035 1086 895.001 1081.98 902.037 C 1074.97 902.141 1071.49 903.568 1064.93 901.837 C 1054.5 887.48 1069.97 887.462 1077.14 882.924 L 1077.49 881.011 C 1073.75 876.525 1070.01 879.404 1063.51 878.432 C 1063.6 875.537 1063.91 876.137 1066.24 873.294 z" fill="rgb(0,0,0)" transform="translate(0,0)"></path>
<path d="M 1070.33 888.977 C 1074.38 888.834 1075.83 888.328 1078.13 891.781 C 1077.64 895.43 1076.91 895.784 1074.31 898.68 C 1070.35 898.094 1069.43 897.883 1067.2 895.04 C 1067.74 891.099 1067.26 892.587 1070.33 888.977 z" fill="rgb(255,255,255)" transform="translate(0,0)"></path>
<path d="M 986.213 872.896 C 993.993 872.536 1000.79 875.953 1001.85 884.255 C 998.319 890.978 989.553 886.876 983.456 890.969 L 983.232 893.118 C 987.065 899.563 991.342 898.637 997.559 896.697 C 999.61 898.994 999.455 899.32 998.717 901.855 C 985.47 908.881 961.848 888.09 986.213 872.896 z" fill="rgb(0,0,0)" transform="translate(0,0)"></path>
<path d="M 986.909 877.482 C 990.647 877.713 995.421 879.152 995.139 883.611 L 992.75 884.586 C 989.347 884.632 986.626 885.111 983.83 883.415 C 984.129 879.982 984.36 880.738 986.909 877.482 z" fill="rgb(255,255,255)" transform="translate(0,0)"></path>
<path d="M 793.136 872.869 C 800.643 873.016 806.611 877.505 807.286 885.146 C 803.98 891.253 795.886 887.119 789.639 890.958 L 789.345 892.923 C 793.135 899.031 797.557 898.391 803.64 896.509 L 804.793 897.951 C 798.13 915.471 765.283 887.501 793.136 872.869 z" fill="rgb(0,0,0)" transform="translate(0,0)"></path>
<path d="M 792.741 877.637 C 796.841 877.992 800.233 878.845 800.554 883.459 L 798.979 885.106 C 795.631 885.208 792.152 885.809 789.539 884.095 C 789.576 880.859 790.532 880.653 792.741 877.637 z" fill="rgb(255,255,255)" transform="translate(0,0)"></path>
<path d="M 1340.62 873.081 C 1341.56 873.059 1342.49 873.053 1343.43 873.062 C 1357.42 873.229 1357.32 897.971 1352.67 902.364 C 1346.95 902.662 1341.13 903.367 1335.67 901.739 C 1324.34 888.144 1344.55 887.304 1348.67 882.661 C 1347.23 876.308 1339.91 881.047 1335.63 876.926 C 1336.73 874.717 1338.37 874.243 1340.62 873.081 z" fill="rgb(0,0,0)" transform="translate(0,0)"></path>
<path d="M 1339.98 889.842 C 1344.6 889.932 1345.39 889.183 1348.8 891.393 C 1349.37 894.297 1348.81 894.927 1347.61 897.815 C 1344.17 897.886 1342.69 898.249 1339.73 896.523 C 1338.47 893.018 1338.86 894.124 1339.98 889.842 z" fill="rgb(255,255,255)" transform="translate(0,0)"></path>
<path d="M 1217.03 872.995 C 1223.87 872.994 1230.79 875.49 1231.41 883.323 C 1227.14 890.973 1218.57 887.638 1213.3 891.977 C 1216.37 898.589 1223.28 897.267 1228.88 895.918 C 1230.6 897.351 1230.12 896.459 1230.39 898.661 C 1223.38 905.22 1215.18 904.513 1210.18 896.055 C 1207.91 892.264 1207.25 887.713 1208.38 883.436 C 1209.91 877.707 1212.39 875.778 1217.03 872.995 z" fill="rgb(0,0,0)" transform="translate(0,0)"></path>
<path d="M 1218.73 877.622 C 1221.82 878.431 1225.36 879.443 1225.45 883.024 L 1223.18 884.313 C 1219.47 884.242 1217.26 884.696 1214.44 882.899 C 1215.47 879.59 1215.62 880.312 1218.73 877.622 z" fill="rgb(255,255,255)" transform="translate(0,0)"></path>
<path d="M 1468.67 872.895 C 1471.98 872.862 1475.91 872.911 1478.58 875.306 C 1483.27 879.526 1485.17 897.308 1480.71 901.524 C 1475.48 902.366 1468.07 902.858 1463.38 900.131 C 1454.68 886.465 1473.36 887.508 1476.85 882.029 C 1473.98 875.633 1469.03 880.682 1463.86 877.357 C 1464.93 874.822 1466.1 874.659 1468.67 872.895 z" fill="rgb(0,0,0)" transform="translate(0,0)"></path>
<path d="M 1469.17 890.012 C 1473.11 889.95 1474.27 889.496 1477.13 891.465 C 1477.26 895.073 1476.92 894.381 1474.97 898.088 C 1470.99 897.226 1468.12 897.215 1467.17 893.12 L 1469.17 890.012 z" fill="rgb(255,255,255)" transform="translate(0,0)"></path>
<path d="M 1297.98 872.935 C 1300.43 873.303 1305.23 873.908 1306.95 875.567 C 1320.05 888.229 1297.43 888.321 1294.44 892.32 C 1295.5 894.829 1296.69 895.118 1299.11 896.932 C 1303 897.802 1305.72 896.899 1309.66 896.108 C 1311.62 905.921 1292.24 903.241 1288.22 892.716 C 1284.5 882.961 1290.2 876.798 1297.98 872.935 z" fill="rgb(0,0,0)" transform="translate(0,0)"></path>
<path d="M 704.727 863.005 C 709.231 862.943 714.009 862.096 717.153 865.518 L 716.988 867.895 C 713.001 870.2 704.114 864.432 702.475 873.259 C 707.042 882.331 732.986 887.489 710.906 902.946 C 706.181 903.251 700.914 903.579 698.009 899.328 C 702.349 896.164 707.313 900.846 713.36 894.259 C 713.973 884.516 680.643 877.006 704.727 863.005 z" fill="rgb(0,0,0)" transform="translate(0,0)"></path>
<path d="M 935.133 872.771 C 950.79 873.527 952.544 900.605 944.012 902.712 C 939.131 895.227 947.852 881.421 934.01 878.062 L 932.96 877.813 C 924.549 885.611 931.384 896.474 927.826 903.276 L 926.02 903.011 C 920.309 897.066 923.184 885.186 923.152 877.407 C 923.141 874.517 929.064 875.657 930.861 875.395 C 930.895 875.39 934.756 873.003 935.133 872.771 z" fill="rgb(0,0,0)" transform="translate(0,0)"></path>
<path d="M 1579.14 872.679 C 1583.58 875.937 1583.47 899.055 1580.44 903.279 C 1576.74 903.314 1577.55 900.965 1576.58 900.975 C 1571.55 901.026 1565.58 903.037 1560.99 900.574 C 1557.19 896.864 1557.28 892.297 1557.07 887.25 C 1556.92 882.302 1556.73 879.5 1557.48 874.586 L 1559.11 873.754 C 1568.28 876.937 1555.51 895.935 1569.91 897.517 C 1584.03 892.922 1570.85 881.86 1579.14 872.679 z" fill="rgb(0,0,0)" transform="translate(0,0)"></path>
<path d="M 1590.66 873.194 L 1593.49 873.769 L 1595.43 876.939 L 1597.68 876.911 C 1616.93 865.008 1617.3 894.943 1611.06 902.991 L 1609.81 902.6 C 1608.21 897.785 1608.65 891.377 1608.69 886.176 C 1607.5 880.249 1604.42 878.046 1598.5 880.171 C 1593.3 886.006 1597.78 895.729 1595.16 903.103 L 1593.64 903.599 C 1588.76 900.514 1589.67 878.676 1590.66 873.194 z" fill="rgb(0,0,0)" transform="translate(0,0)"></path>
<path d="M 957.456 866.233 C 960.134 866.553 960.014 866.518 962.396 867.787 C 962.376 870.066 962.319 870.251 962.848 872.573 C 966.75 875.58 967.359 872.253 972.497 874.658 C 973.085 877.637 973.363 876.338 971.969 878.739 C 969.247 878.864 966.969 879.058 964.261 879.358 C 959.328 885.009 961.777 889.529 964.592 895.455 C 968.052 898.091 967.49 897.254 972.73 897.297 C 971.75 903.914 966.399 904.852 961.22 901.893 C 956.327 896.416 958.556 888.238 957.247 880.041 C 956.061 879.221 954.867 878.617 953.537 878.061 C 953.328 871.523 956.44 877.505 957.456 866.233 z" fill="rgb(0,0,0)" transform="translate(0,0)"></path>
<path d="M 765.607 866.221 C 767.795 866.549 768.53 866.446 770.106 868.002 C 770.228 870.229 770.026 871.838 771.333 873.574 C 774.304 873.611 775.821 873.247 778.021 874.95 L 778.275 877.529 L 777.044 878.827 C 774.276 878.78 773.332 878.568 770.803 879.52 C 769.503 883.21 770.086 885.878 770.221 889.565 C 770.611 900.178 775.878 895.267 780.822 900.292 C 776.577 902.856 772.944 904.133 768.469 901.591 C 763.632 895.876 765.977 887.497 764.398 879.59 L 760.697 878.413 C 759.877 873.968 761.712 875.134 764.971 871.54 C 765.227 869.4 765.439 867.627 765.607 866.221 z" fill="rgb(0,0,0)" transform="translate(0,0)"></path>
<path d="M 747.866 873.223 C 750.731 873.5 754.386 873.784 756.005 876.304 C 751.538 878.847 747.176 878.43 745.07 881.44 C 747.515 887.256 755.579 886.386 757.509 894.918 C 756.03 900.159 753.313 901.215 748.682 903.809 C 744.209 903.23 741.957 903.56 739.831 899.116 C 741.262 897.752 745.863 898.259 749.952 896.635 L 750.795 894.601 C 749.565 890.432 742.692 888.628 738.838 883.011 C 738.126 879.381 737.933 880.837 739.548 877.53 C 742.941 874.791 743.846 874.58 747.866 873.223 z" fill="rgb(0,0,0)" transform="translate(0,0)"></path>
<path d="M 1643.87 874.148 C 1648.45 873.756 1651.99 873.836 1656.17 875.88 C 1656.07 880.264 1644.68 878.946 1641.34 884.741 C 1640.23 885.918 1639.24 888.621 1640.05 890.171 C 1645.23 900.117 1648.68 899.657 1657.48 897.617 C 1657.73 900.764 1658.13 899.949 1656.76 902.225 C 1643.5 909.034 1623.5 889.585 1643.87 874.148 z" fill="rgb(0,0,0)" transform="translate(0,0)"></path>
<path d="M 1318.25 860.257 C 1330.44 862.141 1319.44 888.591 1324.8 896.381 C 1326.96 896.807 1327.82 896.852 1329.8 897.947 L 1329.19 902.93 C 1323.46 903.017 1319.56 901.742 1318.55 895.6 C 1316.75 884.709 1318.02 871.29 1318.25 860.257 z" fill="rgb(0,0,0)" transform="translate(0,0)"></path>
<path d="M 1741.46 859.43 L 1745.48 860.239 C 1750.25 865.159 1744.37 890.696 1748.76 897.337 C 1750.39 899.801 1750.32 900.593 1750.08 903.596 C 1747.91 903.244 1745.18 902.856 1743.94 900.978 C 1739.54 894.281 1741.1 866.98 1741.46 859.43 z" fill="rgb(0,0,0)" transform="translate(0,0)"></path>
<path d="M 1050.45 872.892 C 1054.76 873.091 1055.25 873.226 1058.94 875.458 L 1059.26 877.276 C 1053.85 882.461 1052.22 878.695 1046.73 879.963 C 1042.94 884.608 1044.03 896.423 1044.1 902.729 C 1040.95 902.824 1042.24 903.297 1039.93 901.853 C 1037.98 895.693 1038.06 880.496 1040.79 874.649 L 1046.63 875.769 L 1050.45 872.892 z" fill="rgb(0,0,0)" transform="translate(0,0)"></path>
<path d="M 1439.15 871.614 C 1441.8 872.816 1442.07 872.801 1443.52 875.18 C 1442.05 878.552 1438.05 877.988 1435.06 880.656 C 1431.65 883.697 1433.03 897.668 1432.76 903.604 C 1431.13 903.105 1430.37 902.703 1428.85 902.007 C 1427.06 897.928 1426.93 883.921 1427.42 879.527 C 1428.23 872.27 1429.62 875.228 1435.26 874.656 C 1436.77 873.472 1438.07 872.458 1439.15 871.614 z" fill="rgb(0,0,0)" transform="translate(0,0)"></path>
<path d="M 1449.26 872.257 C 1450.55 872.506 1453.28 872.722 1453.65 873.588 C 1456.24 879.615 1454.9 896.431 1454.74 902.802 C 1453.3 902.552 1450.75 902.441 1450.28 901.51 C 1447.5 895.986 1449.05 877.921 1449.26 872.257 z" fill="rgb(0,0,0)" transform="translate(0,0)"></path>
<path d="M 910.337 873.199 L 913.468 874.146 C 916.644 878.68 914.975 897.608 914.553 903.768 L 911.045 902.748 C 907.998 897.516 909.44 879.615 910.337 873.199 z" fill="rgb(0,0,0)" transform="translate(0,0)"></path>
<path d="M 1625.11 873.443 L 1627.11 874.394 C 1629.57 878.308 1629.03 899.922 1626.57 904.16 L 1624.26 903.028 C 1621.37 898.903 1621.84 878.163 1625.11 873.443 z" fill="rgb(0,0,0)" transform="translate(0,0)"></path>
<path d="M 1665.93 873.515 L 1668.8 874.616 C 1671.76 879.292 1670.16 897.778 1669.74 903.897 C 1668.09 903.384 1666.38 903.262 1665.85 902.011 C 1663.61 896.677 1664.5 878.56 1665.93 873.515 z" fill="rgb(0,0,0)" transform="translate(0,0)"></path>
<path d="M 726.047 874.162 C 727.273 874.43 729.698 874.664 730.083 875.52 C 732.597 881.116 731.34 897.152 731.206 903.246 L 727.906 902.563 C 724.525 898.91 725.979 880.171 726.047 874.162 z" fill="rgb(0,0,0)" transform="translate(0,0)"></path>
<metadata><recraft-signature>{"signed_by": "recraft", "signature_b64": "hxtD8npSKXKq/qi17n/ht5JdfEKBp27f95wGnK1vcPtDu/QmxAwzZa0MpWXCFuacrUCj8ijmWjSD2ZMG+ZPCAA==", "signing_algo": "Ed25519", "generation_timestamp": 1782919060, "identifier": "40a5c490-ee84-470c-a467-f0eaf36a08d3"}</recraft-signature></metadata></svg>