<svg xmlns="http://www.w3.org/2000/svg" height="512" preserveAspectRatio="none" style="display: block;" version="1.1" viewBox="0 0 2048 2048" width="512">
<path d="M 999.289 258.194 C 1422.33 244.024 1776.74 575.495 1790.88 998.533 C 1805.01 1421.57 1473.51 1775.96 1050.47 1790.06 C 627.483 1804.16 273.144 1472.71 259.011 1049.72 C 244.878 626.729 576.301 272.363 999.289 258.194 z M 1023.76 1485.87 C 1033.76 1477.19 1044.61 1460.11 1052.54 1449.02 C 1127.79 1343.78 1343.69 1049.39 1350.55 917.68 C 1369.87 732.438 1204.06 559.941 1019.31 570.939 C 804.582 572.522 630.936 802.721 710.485 997.706 C 787.054 1145.79 879.786 1287.75 976.798 1423.38 C 982.377 1431.18 1019.3 1484.91 1023.76 1485.87 z" fill="rgb(58,97,210)" transform="translate(0,0)"></path>
<path d="M 1018.38 690.851 C 1127.16 687.332 1218.28 772.456 1222.18 881.218 C 1226.07 989.979 1141.26 1081.4 1032.51 1085.67 C 923.235 1089.95 831.27 1004.64 827.359 895.349 C 823.447 786.058 909.077 694.387 1018.38 690.851 z M 1066.75 1005.43 C 1085.31 1005.48 1122.7 1006.78 1140.11 1005.43 C 1157.55 964.617 1120.17 891.982 1073.47 890.373 C 1047.03 889.461 1009.2 887.813 982.943 889.535 C 917.371 894.15 891.769 987.558 910.089 1003.83 C 913.957 1007.26 1049.94 1005.43 1066.75 1005.43 z M 1032.58 862.037 C 1062.83 857.619 1083.87 829.654 1079.73 799.364 C 1075.6 769.074 1047.83 747.77 1017.51 751.62 C 986.772 755.521 965.121 783.74 969.311 814.435 C 973.5 845.13 1001.92 866.515 1032.58 862.037 z" fill="rgb(58,97,210)" transform="translate(0,0)"></path>
<metadata><recraft-signature>{"signed_by": "recraft", "signature_b64": "CFkHDYHhciJg/y7sbLHTCMrPY3yhdCSIHFBfiBLSCxGTwYbez+FenWJDNqIpSYlkFK2Qrt7pBN98rG1b+ySqDA==", "signing_algo": "Ed25519", "generation_timestamp": 1782919311, "identifier": "599254e6-771b-48e1-be63-7a537f52ed2a"}</recraft-signature></metadata></svg>