<svg xmlns="http://www.w3.org/2000/svg" height="1024" preserveAspectRatio="none" style="display: block;" version="1.1" viewBox="0 0 2048 2048" width="1024">
<path d="M 0 0 L 2048 0 L 2048 2048 L 0 2048 L 0 0 z" fill="rgb(255,255,255)" transform="translate(0,0)"></path>
<path d="M 1006.69 209.4 C 1042.88 203.06 1093.39 221.514 1122.1 242.789 C 1157.7 269.523 1181.19 309.322 1187.4 353.404 C 1190.94 378.145 1188.97 403.362 1181.62 427.251 C 1172.57 456.243 1152.1 491.584 1138.05 519.325 C 1117.39 560.108 1096.13 601.871 1073.62 641.583 C 1063.02 660.296 1043.93 697.989 1031.91 714.008 C 1029.88 715.086 1027.75 716.376 1025.51 716.972 C 1020.89 718.202 1014.43 717.814 1010.5 714.85 C 999.095 706.258 882.303 483.826 868.539 451.713 C 860.943 433.992 855.239 416.338 853.292 397.089 C 848.304 351.563 861.868 305.946 890.92 270.542 C 921.545 233.15 958.755 214.27 1006.69 209.4 z" fill="rgb(22,53,115)" transform="translate(0,0)"></path>
<path d="M 1003.79 235.377 C 1033.85 231.226 1066.49 238.754 1092.46 254.212 C 1125.46 273.658 1149.32 305.488 1158.73 342.618 C 1175.04 408.126 1143.05 453.519 1114.37 508.855 C 1086.17 563.289 1059.16 620.498 1027.75 673.046 C 1024.16 678.507 1023.51 679.435 1018.64 683.92 C 1008.42 668.559 998.385 648.419 989.727 631.875 C 975.43 604.665 961.355 577.339 947.505 549.899 C 928.773 513.132 908.778 476.061 890.964 438.85 C 886.518 428.055 881.649 415.773 879.891 404.241 C 867.17 320.801 919.136 247.105 1003.79 235.377 z" fill="rgb(255,255,255)" transform="translate(0,0)"></path>
<path d="M 1009.22 250.407 C 1093.81 240.175 1165.95 327.142 1143.54 408.305 C 1135.5 437.44 1115.51 471.809 1101.5 499.497 C 1076.56 549.616 1050.85 599.352 1024.39 648.688 L 1020.01 656.74 C 1001.99 624.781 983.729 586.265 966.387 553.274 L 928.834 480.331 C 920.077 463.221 910.99 446.183 903.618 428.426 C 885.652 385.154 893.396 329.939 923.728 293.912 C 945.253 268.55 976.049 252.879 1009.22 250.407 z" fill="rgb(91,144,140)" transform="translate(0,0)"></path>
<path d="M 1013.49 316.576 C 1042.4 312.756 1068.95 333.068 1072.83 361.975 C 1076.7 390.883 1056.44 417.471 1027.54 421.402 C 998.565 425.345 971.888 405.017 968.002 376.03 C 964.116 347.044 984.495 320.406 1013.49 316.576 z" fill="rgb(255,255,255)" transform="translate(0,0)"></path>
<path d="M 1393.52 475.743 C 1397.25 478.689 1412.14 497.603 1416.55 502.479 C 1434.25 522.099 1451.32 542.217 1470.31 560.693 C 1473.56 564.761 1485.13 573.55 1486.12 578.552 C 1489.64 596.222 1476.6 598.832 1464.77 600.449 C 1464.86 616.126 1464.82 631.803 1464.65 647.479 C 1466.45 648.637 1470.9 651.515 1472.04 652.857 C 1478.48 660.389 1476.1 682.071 1476.01 692.657 C 1469.3 699.965 1465.02 700.973 1455.88 704.752 C 1460.13 754.446 1461.96 809.783 1464.05 859.856 C 1514.84 880.949 1569.45 905.728 1620.33 928.097 C 1617.31 937.155 1614.72 946.955 1612.12 956.186 C 1582.67 943.909 1548.9 931.934 1518.77 920.229 C 1453.86 894.261 1388.59 869.18 1322.99 844.995 L 1323 867.093 C 1331.41 871.322 1341.64 875.674 1350.5 878.889 C 1435.83 909.843 1520.5 944.695 1606.33 974.089 L 1602.54 983.202 C 1590.58 979.399 1578.96 975.071 1567.13 970.915 C 1485.74 942.309 1405.66 909.523 1324.44 880.55 C 1324.36 884.121 1324.62 888.685 1324.71 892.339 C 1369.86 911.091 1422.27 929.623 1468.31 946.142 L 1599.12 993.54 L 1595.28 1002.92 C 1505.27 969.929 1414.36 939.198 1325.16 903.726 L 1324.97 1104.74 C 1330.83 1105.38 1336.61 1107 1342.35 1108.43 C 1359.33 1111.91 1380.8 1118.09 1398.05 1122.35 C 1439.59 1132.79 1481.2 1142.94 1522.87 1152.82 L 1518.05 1162.98 C 1480.41 1154.11 1442.83 1144.99 1405.32 1135.62 C 1381.42 1129.62 1346.89 1119.22 1322.87 1116.54 C 1319.09 1116.11 1294.35 1127.16 1287.11 1129.39 L 1285.48 1129.88 L 1276.95 1122.95 L 1280.41 1120.02 C 1283.82 1112.69 1281.7 1094.46 1281.04 1086.06 C 1266.9 1091.03 1252.52 1095.92 1238.66 1101.57 C 1233.53 1098.84 1230.56 1096.64 1225.91 1093.3 C 1243.93 1086.72 1262.27 1081.59 1280.78 1074.63 L 1280.38 1046.59 C 1253.12 1055.86 1225.26 1066.5 1197.78 1076.04 C 1194.98 1074.78 1191.69 1073.66 1189.54 1071.4 C 1186.39 1068.1 1187.89 973.169 1187.8 959.192 C 1197.9 954.74 1212.81 949.761 1223.68 945.542 C 1246.03 936.877 1268.27 927.927 1290.39 918.694 C 1292.03 984.268 1290.07 1050.34 1292.54 1116.15 L 1315.12 1107.52 L 1314.58 879.977 C 1292.39 887.806 1265.48 901.2 1243.63 910.914 C 1216.38 923.024 1187.69 934.637 1161.04 947.563 L 1161.01 1055.18 L 1149.29 1049.34 L 1149.77 924.253 C 1134.53 911.464 1117.27 899.447 1101.52 886.384 C 1142.54 858.569 1182.39 829.061 1223.84 802.034 C 1234.13 795.324 1253.35 780.015 1263.1 775.057 C 1282.58 782.225 1301.89 789.804 1321.05 797.789 C 1321.35 766.953 1323.02 736.697 1323.1 705.238 C 1315.6 703.211 1308.72 700.9 1303.26 695.26 C 1301.11 688.702 1300.79 663.411 1303.29 656.093 C 1304.23 653.353 1311.5 650.073 1314.26 648.859 C 1314.16 633.888 1314.18 618.918 1314.32 603.948 C 1276.94 593.415 1295.05 576.97 1313.79 559.25 C 1341.59 532.961 1365.66 502.107 1393.52 475.743 z" fill="rgb(22,53,115)" transform="translate(0,0)"></path>
<path d="M 1379.2 684.58 C 1400.26 682.362 1425.72 684.592 1444.47 695.185 C 1448.34 746.655 1450.42 802.398 1453 854.118 C 1435.55 847.032 1418.21 839.693 1400.98 832.104 L 1401.17 788.5 C 1401.31 781.116 1403.45 763.86 1398.73 757.982 C 1397.24 756.14 1395.78 755.734 1393.54 755.689 C 1391.14 755.642 1389.04 756.633 1387.4 758.336 C 1383.88 761.999 1385.11 817.523 1385.02 826.185 L 1332.81 803.252 C 1332.93 787.877 1331.57 703.95 1336.58 697.21 C 1343.63 687.712 1368.24 685.691 1379.2 684.58 z" fill="rgb(255,255,255)" transform="translate(0,0)"></path>
<path d="M 1277.8 936.055 C 1279.92 937.941 1279.66 1024.81 1279.73 1035.11 C 1258.28 1041.16 1222.5 1055.66 1199.78 1063.7 L 1198.87 1063.16 C 1196.6 1054.5 1198.8 981.43 1198.89 966.779 C 1220.17 959.428 1256.6 944.742 1277.8 936.055 z" fill="rgb(255,255,255)" transform="translate(0,0)"></path>
<path d="M 1381.22 644.415 C 1407.61 641.533 1441.45 648.906 1465.08 660.925 C 1465.46 670.577 1465.41 678.933 1465.23 688.538 C 1463.05 689.797 1458.86 691.979 1456.39 692.861 C 1451.33 692.128 1449.64 685.403 1443.49 682.575 C 1428.06 675.485 1413.5 674.513 1396.66 673.283 C 1372.8 672.883 1340.94 674.39 1325.22 694.519 C 1321.04 692.758 1317.16 690.601 1313.14 688.483 C 1312.14 678.832 1312.53 671.449 1312.83 661.834 C 1331.07 652.567 1360.87 645.927 1381.22 644.415 z" fill="rgb(255,255,255)" transform="translate(0,0)"></path>
<path d="M 1311.3 844.844 C 1312 844.891 1312.63 845.295 1313.27 845.556 C 1314.21 851.207 1313.85 861.457 1313.82 867.577 L 1162.43 934.352 C 1161.85 934.217 1161.27 934.082 1160.69 933.947 C 1159.45 928.961 1159.93 920.983 1159.99 915.599 C 1165.43 912.423 1171.84 909.267 1177.57 906.586 C 1222.05 885.793 1266.42 864.76 1311.3 844.844 z" fill="rgb(255,255,255)" transform="translate(0,0)"></path>
<path d="M 1374.56 553.383 C 1398.64 549.599 1435.66 554.962 1457.31 566.234 C 1463.08 569.239 1479.03 579.833 1474.28 587.037 C 1466.69 589.126 1459.96 579.874 1451.81 577.008 C 1435.24 571.18 1422.52 569.223 1405.25 568.004 C 1375.83 566.597 1350.88 569.545 1323.63 580.994 C 1317.43 583.596 1316.27 589.635 1309.36 590.673 C 1306.27 588.975 1306.51 589.039 1304.73 585.942 C 1304.73 583.635 1304.71 581.801 1306.53 580.099 C 1323.89 563.866 1352.72 555.802 1374.56 553.383 z" fill="rgb(255,255,255)" transform="translate(0,0)"></path>
<path d="M 1370.33 579.439 C 1383.64 578.802 1395.88 578.904 1409.21 579.019 C 1409.49 597.283 1409.59 615.549 1409.49 633.815 C 1395.91 632.691 1383.94 633.451 1370.42 634.19 C 1370.28 615.94 1370.26 597.689 1370.33 579.439 z" fill="rgb(255,255,255)" transform="translate(0,0)"></path>
<path d="M 1420.95 580.466 C 1432.62 583.048 1442.87 585.257 1453.84 590.01 L 1454.38 644.716 C 1442.79 640.046 1433 637.95 1420.76 635.544 L 1420.95 580.466 z" fill="rgb(255,255,255)" transform="translate(0,0)"></path>
<path d="M 1355.46 582.08 L 1357.73 581.94 C 1360.17 585.436 1359.06 628.407 1359.02 635.909 C 1347.89 638.056 1338.86 640.706 1328.21 644.406 C 1327.3 644.885 1327.98 644.592 1326 644.698 C 1323.58 639.68 1325.82 599.966 1326.26 592.347 C 1336.43 587.632 1344.73 585.115 1355.46 582.08 z" fill="rgb(255,255,255)" transform="translate(0,0)"></path>
<path d="M 726.118 353.271 C 733.915 352.091 742.079 354.608 743.043 363.448 C 741.159 370.636 731.659 373.932 725.112 375.152 C 638.169 391.346 557.564 429.643 494.524 493.505 C 443.335 544.638 406.655 608.456 388.237 678.425 C 374.174 733.408 376.598 769.363 376.535 826.095 L 376.613 956.583 L 376.876 1378.43 C 409.102 1358.14 444.548 1338.03 477.404 1318.51 L 684.839 1196.25 L 1018.6 998.15 L 1018.44 818.794 C 1018.49 792.349 1018.16 765.805 1018.4 739.389 C 1018.5 728.198 1038.19 724.181 1038.25 743.348 C 1038.35 770.839 1038.03 798.441 1037.99 825.9 L 1038.51 996.995 C 1053.07 1007.1 1078.31 1020.72 1094.06 1029.88 C 1126.3 1048.75 1158.34 1067.94 1190.19 1087.45 L 1668.54 1379.91 L 1668.81 1254.5 C 1668.83 1192.19 1670.21 1123.36 1668.01 1061.44 L 1688.23 1061.99 L 1688.04 1414.94 C 1673.31 1403.12 1628.75 1377.79 1610.83 1367.06 L 1486.43 1291.16 L 1240.07 1141.62 C 1169.58 1098.6 1100.9 1055.48 1028.38 1015.54 C 998.29 1031.86 963.544 1054 933.896 1071.83 L 783.135 1161.4 C 640.405 1244.52 498.236 1328.6 356.638 1413.64 L 356.793 938.167 L 356.529 817.447 C 356.358 780.435 354.781 744.971 360.887 708.34 C 370.519 651.278 392.064 596.886 424.119 548.705 C 497.301 438.018 597.835 379.517 726.118 353.271 z" fill="rgb(22,53,115)" transform="translate(0,0)"></path>
<path d="M 672.205 448.155 C 707.349 444.296 732.069 467.075 734.769 501.323 C 741.069 504.827 742.564 505.777 748.045 510.506 C 737.012 516.146 728.301 520.27 716.889 525.09 C 717.361 541.414 720.799 554.305 724.282 570.219 C 777.18 582.551 802.828 630.586 824.658 676.441 C 794.935 695.752 747.402 718.921 713.216 728.663 C 726.633 707.96 761.741 672.788 752.565 645.275 C 751.55 642.23 747.457 637.067 744.345 635.841 C 742.577 639.18 748.09 651.624 749.676 657.92 C 745.64 671.513 738.044 684.393 730.756 696.479 C 712.079 727.453 674.761 744.042 641.794 755.65 C 652.829 761.218 683.776 774.803 694.464 783.527 C 698.885 787.136 694.967 797.099 687.003 795.619 C 676.447 793.658 662.415 785.202 652.433 780.447 C 639.083 802.368 622.134 825.14 607.72 846.524 C 595.531 864.609 582.624 885.234 568.913 901.761 C 579.252 911.364 579.434 916.056 582.347 929.538 C 601.6 942.051 590.932 968.36 586.269 986.002 C 593.163 996.158 593.547 998.688 592.946 1010.46 C 586.594 1020.77 584.018 1023.43 572.278 1026.82 L 557.223 1022.81 C 538.57 1018.51 519.842 1013.96 501.268 1009.36 C 493.279 1007.38 484.011 1003.63 480.009 995.989 C 477.432 991.068 477.618 985.654 479.524 980.508 C 482.706 971.915 489.197 967.744 497.123 964.156 C 504.453 937.739 501.868 920.301 534.37 916.055 C 540.316 905.437 543.44 901.588 555.488 898.402 C 546.887 840.18 543.517 775.593 534.456 717.112 C 523.534 709.314 519.19 704.011 532.973 695.702 C 557.821 706.214 581.954 718.575 607.117 729.233 C 615.197 723.81 628.16 717.239 637.07 712.216 C 649.21 705.371 663.529 695.584 676.511 691.453 C 687.432 655.531 708.907 623.725 738.144 600.171 C 736.656 600.414 729.678 601.58 728.354 602.006 C 705.245 609.437 689.265 646.457 678.499 666.849 C 674.905 673.657 673.543 681.253 669.073 688.803 C 666.135 690.68 667.635 690.504 664.614 690.151 C 663.381 683.269 674.756 638.522 677.726 628.842 C 680.029 621.338 686.795 606.716 690.597 598.964 C 679.528 590.246 686.072 589.28 683.597 584.137 C 677.925 582.795 667.738 583.128 661.144 582.848 C 643.802 573.187 637.612 559.877 630.558 542.594 C 623.124 545.241 593.821 557.06 588.636 556.26 L 587.482 554.648 C 588.799 547.965 615.097 527.54 622.262 521.124 C 621.079 484.277 634.235 457.854 672.205 448.155 z" fill="rgb(22,53,115)" transform="translate(0,0)"></path>
<path d="M 549.924 722.213 C 557.827 725.589 570.17 731.067 577.194 735.461 C 577.833 738.11 576.557 742.803 577.223 743.919 C 582.4 752.606 593.995 758.779 602.968 762.913 C 610.909 766.572 613.357 767.34 621.302 764.225 C 628.134 768.341 633.546 770.844 640.822 774.226 C 628.252 790.43 613.781 813.834 601.004 831.5 C 589.967 847.228 579.152 863.111 568.563 879.144 C 563.507 829.281 556.088 772.324 549.924 722.213 z" fill="rgb(255,255,255)" transform="translate(0,0)"></path>
<path d="M 526.182 930.111 C 538.387 929.155 561.68 937.088 574.202 939.972 C 587.08 942.938 577.441 974.316 573.914 982.354 C 570.908 983.523 570.378 982.702 566.567 981.878 C 547.704 977.816 528.017 972.27 509.287 967.288 C 510.93 958.809 513.29 949.408 516.278 941.286 C 518.658 934.815 520.049 933.078 526.182 930.111 z" fill="rgb(255,255,255)" transform="translate(0,0)"></path>
<path d="M 671.671 531.297 C 672.267 531.206 674.562 530.814 675.057 530.948 C 683.817 533.312 684.36 556.295 682.883 562.995 C 678.67 568.53 663.377 571.899 657.116 569.569 C 646.506 559.364 643.612 553.939 639.47 540.136 C 651.618 535.415 658.83 533.486 671.671 531.297 z" fill="rgb(255,255,255)" transform="translate(0,0)"></path>
<path d="M 551.513 912.894 C 558.494 913.023 567.818 914.631 566.328 924.058 L 564.607 924.391 C 559.704 923.416 551.116 922.608 548.035 919.61 C 548.148 915.969 548.718 916.501 551.513 912.894 z" fill="rgb(255,255,255)" transform="translate(0,0)"></path>
<path d="M 1014.38 1072.63 C 1082.66 1068.18 1141.75 1119.62 1146.76 1187.86 C 1151.76 1256.1 1100.8 1315.6 1032.6 1321.15 C 963.625 1326.77 903.288 1275.1 898.228 1206.08 C 893.168 1137.06 945.324 1077.14 1014.38 1072.63 z" fill="rgb(22,53,115)" transform="translate(0,0)"></path>
<path d="M 987.988 1126.36 C 986.306 1122.37 983.023 1115.73 980.233 1112.31 C 979.367 1111.25 977.601 1111.76 975.519 1111.8 C 978.111 1109.61 985.292 1106.34 988.562 1105.25 C 1014.88 1096.43 1042.9 1099.26 1067.6 1110.55 C 1060.99 1117.38 1059.48 1119.48 1056.65 1128.88 L 1069.35 1136.94 C 1073.91 1131.94 1078.76 1126.95 1083.43 1122.02 C 1092.16 1128.73 1095.88 1132.9 1102.08 1141.88 C 1097.45 1145.78 1092.74 1149.58 1087.96 1153.28 C 1091.11 1158.67 1093.74 1164.27 1096.48 1169.89 C 1103.77 1166.22 1106.94 1164.04 1113.66 1159.26 C 1116.28 1164.6 1118.31 1170.2 1119.73 1175.97 C 1120.81 1180.19 1122.5 1188.94 1120.25 1192.67 L 1119.62 1190.44 C 1116.33 1188.65 1104.72 1189.46 1100.11 1189.53 L 1099.07 1207.22 C 1106.54 1207.22 1112.51 1207.46 1119.87 1206.12 C 1122.2 1212.08 1114.9 1231.98 1112.17 1237.85 C 1106.23 1233.67 1101.91 1230.96 1095.62 1227.3 C 1092.66 1232.09 1090.34 1236.1 1086.62 1240.4 C 1093.12 1247.07 1095.53 1247.74 1103.76 1252 C 1099.89 1257.13 1086.88 1273.13 1080.69 1274.01 C 1077.05 1267.66 1074.61 1264.24 1070.21 1258.33 L 1058.29 1265.27 C 1059.4 1269.95 1061.05 1279.59 1063.34 1282.83 L 1064.17 1283.15 L 1064.3 1284.03 C 1059.84 1286.98 1036.33 1294.68 1031.48 1292.02 C 1031.21 1291.4 1030.9 1276.19 1030.51 1272.97 L 1013.2 1273.1 C 1013.13 1280.58 1012.92 1285.33 1014.28 1292.71 C 1000.79 1291.53 991.523 1289.45 979.035 1284.69 C 983.343 1277.81 984.77 1274.04 987.843 1266.44 C 982.013 1262.99 980.709 1262.25 974.239 1260.02 C 969.252 1264.99 966.287 1268.88 962.697 1274.87 C 954.401 1267.39 947.685 1261.43 941.2 1252.35 C 947.539 1248.86 952.355 1246.1 958.368 1242.12 C 955.172 1237.34 952.128 1232.53 948.336 1228.2 L 932.234 1237.69 C 929.557 1230.97 923.51 1214.4 924.79 1207.46 C 932.038 1208.47 934.638 1208.41 941.975 1208.15 L 941.994 1191.05 L 922.477 1190.89 C 923.892 1179.54 926.919 1169.57 931.649 1159.22 C 936.974 1161.67 942.114 1164.61 947.263 1167.43 L 956.322 1153.44 C 951.418 1149.14 945.782 1145.57 940.372 1141.91 C 947.393 1132.75 954.668 1126.38 963.596 1119.25 L 973.362 1135.54 C 978.515 1131.94 982.581 1129.52 987.988 1126.36 z" fill="rgb(255,255,255)" transform="translate(0,0)"></path>
<path d="M 1052.79 1152.62 C 1056.54 1153.07 1058.67 1156.7 1061.18 1159.75 C 1051.92 1170.26 1038.86 1182.71 1028.78 1192.84 C 1033.54 1206.9 1027.31 1211.73 1013.53 1212.45 C 997.989 1206.46 997.823 1187.81 1016.91 1185.63 C 1027.44 1175.8 1041.77 1161.09 1052.79 1152.62 z" fill="rgb(22,53,115)" transform="translate(0,0)"></path>
<path d="M 1014 1103.84 C 1019.86 1103.74 1026.36 1103.98 1032.26 1104.08 C 1032.12 1110.61 1031.54 1114.24 1030.56 1120.66 C 1027.8 1121.19 1018.56 1120.98 1015.25 1120.99 C 1014.36 1114.93 1014.23 1109.94 1014 1103.84 z" fill="rgb(22,53,115)" transform="translate(0,0)"></path>
<path d="M 356.96 1680.8 L 1692.44 1681.51 L 1692.53 1698.76 L 1691.68 1700.51 C 1684.61 1702.36 1626.39 1700.93 1616.04 1700.93 L 1392.44 1700.94 L 356.979 1700.95 L 356.96 1680.8 z" fill="rgb(22,53,115)" transform="translate(0,0)"></path>
<path d="M 1228.77 1338.49 C 1234.61 1338.41 1240.6 1338.6 1246.45 1338.7 L 1320.01 1451.27 C 1345.28 1414.31 1369.61 1376.72 1392.98 1338.54 L 1427.21 1338.73 L 1426.95 1531 C 1413.26 1530.34 1399.78 1530.35 1386.07 1530.28 L 1385.96 1488.5 L 1385.87 1421.83 C 1367.8 1450.56 1349.15 1478.92 1329.93 1506.9 L 1310.27 1506.63 C 1293.32 1480.29 1275.2 1454.9 1258.11 1428.8 C 1257.51 1461.13 1257.87 1494.45 1257.66 1526.93 L 1212.8 1526.87 L 1211.98 1338.78 L 1228.77 1338.49 z" fill="rgb(22,53,115)" transform="translate(0,0)"></path>
<path d="M 1311.97 352.816 C 1320.75 352.678 1342.01 357.941 1351.31 360.419 C 1419.37 378.668 1482.58 411.655 1536.47 457.043 C 1619.28 526.685 1673.81 620.428 1685.31 729.48 C 1689.11 765.469 1682.56 805.512 1677.34 841.229 C 1657.06 980.082 1586.39 1148.64 1495.2 1256.94 C 1490.44 1253.38 1485.12 1249.78 1480.22 1246.34 C 1497.06 1221.85 1515.36 1198.69 1531.25 1173.12 C 1593.13 1073.55 1638.19 960.662 1656.8 844.706 C 1661.59 814.79 1667.64 771.078 1665.63 741.469 C 1654.56 578.859 1539.5 451.544 1391.22 394.422 C 1377.22 388.307 1364.17 385.434 1349.65 380.54 C 1339.24 377.029 1305.67 376.346 1305.6 362.451 C 1305.57 358.12 1308.78 355.274 1311.97 352.816 z" fill="rgb(22,53,115)" transform="translate(0,0)"></path>
<path d="M 842.731 720.888 C 847.146 724.365 852.807 754.304 854.303 761.809 C 844.665 766.092 819.893 779.41 815.216 789.235 L 818.054 790.511 C 818.853 797.318 777.693 882.819 772.32 896.753 C 764.098 918.078 754.493 939.204 755.726 963.712 C 756.177 972.684 759.133 994.004 757.53 999.589 C 755.997 999.949 754.459 1000.28 752.915 1000.59 C 751.932 1004.44 753.044 1020.01 753.184 1025 L 688.27 1025.22 L 676.338 1025.27 C 676.386 1022.83 676.494 1020.39 676.661 1017.95 C 678.647 992.666 704.595 1005.1 703.44 990.814 L 700.324 989.461 C 698.106 986.192 698.511 972.656 698.24 967.576 C 696.544 935.796 699.713 913.671 706.365 883.539 C 711.931 858.32 732.892 795.118 731.395 773.506 C 767.193 762.048 810.247 739.722 842.731 720.888 z" fill="rgb(22,53,115)" transform="translate(0,0)"></path>
<path d="M 712.079 981.505 C 718.613 980.643 745.415 979.156 751.698 982.423 C 752.823 983.009 752.591 985.671 752.713 987.362 C 741.034 986.167 722.878 984.834 711.825 982.819 L 712.079 981.505 z" fill="rgb(255,255,255)" transform="translate(0,0)"></path>
<path d="M 1134.68 1338.5 C 1150.97 1338.38 1167.27 1338.41 1183.57 1338.57 L 1184.05 1378.09 L 1092 1378.06 L 1091.95 1410.91 L 1166.93 1411.02 L 1166.98 1449.53 C 1142.22 1449.11 1116.81 1449.34 1092.01 1449.32 L 1091.91 1488.24 L 1148.54 1488.28 L 1184.94 1488.27 L 1184.89 1527.01 L 1044.01 1527.04 C 1044.06 1464.35 1043.78 1401.66 1043.16 1338.97 L 1134.68 1338.5 z" fill="rgb(22,53,115)" transform="translate(0,0)"></path>
<path d="M 859.23 1338.92 C 910.814 1338.64 962.4 1338.65 1013.98 1338.93 C 1013.94 1345.33 1014.02 1349.29 1014.64 1355.66 C 985.153 1400.82 950.1 1444.81 921.472 1489.53 L 1017.57 1489.55 C 1017.63 1501.88 1017.41 1514.48 1017.32 1526.83 C 1014.78 1528.73 869.225 1528.08 853.061 1528.09 L 853.088 1509.51 C 860.745 1496.92 871.05 1484.45 879.419 1472.2 C 900.136 1441.88 926.49 1408.66 945.659 1377.82 C 919.648 1376.42 885.726 1377.41 859.114 1377.47 L 859.23 1338.92 z" fill="rgb(22,53,115)" transform="translate(0,0)"></path>
<path d="M 673.174 1335.4 C 692.536 1333.36 719.674 1337.72 738.275 1343.09 L 738.17 1382.73 C 718.18 1376.55 674.858 1364.97 655.774 1380.49 C 653.586 1382.27 651.165 1389.76 651.692 1392.69 C 655.094 1411.65 691.189 1409.73 705.481 1416.22 C 716.458 1419.5 727.632 1423.37 736.232 1431.46 C 756.268 1450.3 754.413 1491.39 734.802 1509.99 C 714.055 1529.67 686.885 1531.43 659.75 1530.96 C 638.663 1529.85 624.006 1526.34 604.159 1519.55 L 604.125 1474.5 C 633.568 1485.17 645.03 1495.23 679.586 1492.66 C 710.908 1490.34 709.265 1462.71 684.62 1456.03 C 650.25 1446.71 606.805 1443.52 604.608 1397.21 C 602.486 1352.46 635.43 1338.75 673.174 1335.4 z" fill="rgb(22,53,115)" transform="translate(0,0)"></path>
<path d="M 851.649 771.921 L 853.063 772.196 C 855.52 777.662 852.684 830.59 851.682 839.127 C 845.938 888.071 849.582 924.523 859.719 972.455 C 843.55 973.903 835.832 977.029 820.472 982.075 C 875.886 983.219 855.341 967.873 866.309 1024.38 C 853.15 1025.27 835.187 1024.84 821.668 1024.88 C 816.14 1024.92 790.207 1025.81 787.021 1023.68 C 785.553 1007.96 795.234 1004.94 807.992 1001.42 C 812.931 1000.06 813.461 994.945 810.565 991.278 C 807.859 990.635 807.081 990.686 804.838 989.04 C 797.549 964.05 788.415 916.853 784.466 890.828 C 797.564 860.963 814.467 819.173 823.074 787.723 C 832.379 782.145 842.087 777.063 851.649 771.921 z" fill="rgb(22,53,115)" transform="translate(0,0)"></path>
<path d="M 479.323 1041.31 C 500.413 1040.28 517.128 1049.94 534.562 1050.13 C 567.169 1050.48 582.691 1031.5 611.778 1061.59 C 681.175 1054.52 633.158 1130.02 574.887 1092.99 C 573.569 1089.58 572.457 1085.99 571.308 1082.51 C 567.88 1082.76 564.456 1083.06 561.038 1083.41 C 557.237 1083.82 556.171 1084.14 553.76 1087.16 C 552.643 1090.71 552.514 1090.57 553.316 1094.41 C 555.974 1096.75 556.432 1095.96 560.987 1096.25 C 569.212 1098.5 570.842 1100.21 576.739 1106.26 C 565.149 1116.56 551.62 1119.06 537.407 1112.56 C 530.748 1109.51 529.472 1105.22 533.496 1099.61 C 530.35 1098.89 522.704 1099.68 520.617 1099.01 C 508.685 1095.14 495.118 1087.48 483.607 1081.89 C 466.247 1097.36 440.542 1103.06 418.535 1093.92 C 411.332 1090.92 411.379 1082.85 415.556 1077.37 C 421.29 1069.86 433.167 1070.78 441.667 1069.8 C 444.738 1065.98 440.294 1064.61 444.459 1060.2 C 454.204 1049.86 465.286 1043.27 479.323 1041.31 z" fill="rgb(22,53,115)" transform="translate(0,0)"></path>
<path d="M 448.46 1078.87 C 449.751 1079.04 452.772 1080.37 454.151 1080.91 C 454.431 1083.65 454.841 1082.53 453.589 1084.52 C 447.954 1087.7 443.764 1088.03 437.397 1089.13 C 433.476 1089.08 433.011 1089.83 430.893 1087.84 C 433.54 1083.67 443.676 1080.58 448.46 1078.87 z" fill="rgb(255,255,255)" transform="translate(0,0)"></path>
<path d="M 478.647 1059.44 C 490.312 1058.64 503.104 1063.28 513.23 1068.74 C 505.262 1066.39 497.259 1063.85 489.103 1062.33 C 472.701 1060.79 470.404 1063.23 454.825 1065.5 L 455.526 1064.3 C 462.555 1060.86 470.944 1059.96 478.647 1059.44 z" fill="rgb(151,161,194)" transform="translate(0,0)"></path>
<path d="M 571.809 1060.32 C 580.392 1059.53 588.821 1060.07 596.614 1064.09 C 592.03 1064.51 580.859 1062.49 575.215 1061.93 C 564.292 1063.35 562.303 1064.97 551.967 1067.76 L 551.755 1066.75 C 557.132 1062.96 565.383 1061.31 571.809 1060.32 z" fill="rgb(151,161,194)" transform="translate(0,0)"></path>
<path d="M 626.14 1075.32 L 626.729 1075.79 C 623.459 1079.68 592.222 1084.69 585.295 1085.63 L 584.139 1084.6 C 586.887 1082.97 619.106 1077.07 626.14 1075.32 z" fill="rgb(121,134,174)" transform="translate(0,0)"></path>
<path d="M 505.624 1081.99 C 507.612 1082.14 528.234 1086.88 529.575 1087.52 C 519.666 1088.9 514.089 1086.53 505.624 1081.99 z" fill="rgb(121,134,174)" transform="translate(0,0)"></path>
<path d="M 776.562 1338.63 L 826.02 1338.66 L 825.811 1528.01 L 777.001 1528.02 L 776.562 1338.63 z" fill="rgb(22,53,115)" transform="translate(0,0)"></path>
<path d="M 1383.13 966.162 C 1410.39 972.968 1436.45 981.06 1464.59 987.638 C 1464.13 1015.43 1465.36 1043.2 1464.51 1071.35 C 1437.36 1064.3 1410.06 1057.88 1382.61 1052.09 C 1382.04 1030.62 1382.73 1008.84 1382.46 987.346 C 1382.37 980.57 1382.29 972.86 1383.13 966.162 z" fill="rgb(22,53,115)" transform="translate(0,0)"></path>
<path d="M 1393.39 980.532 C 1412.98 985.572 1433.53 992.035 1452.86 996.463 L 1453.02 1057.56 C 1433.69 1052.08 1413.04 1047.73 1393.38 1042.53 L 1393.39 980.532 z" fill="rgb(255,255,255)" transform="translate(0,0)"></path>
<path d="M 1127.53 1717.88 L 1154.95 1718.11 C 1149.46 1724.45 1142.61 1731.14 1136.69 1737.2 C 1127.52 1746.89 1116.83 1756.85 1107.31 1766.5 C 1079.2 1795.22 1050.7 1823.56 1021.81 1851.51 C 984.732 1812.95 945.449 1776.39 908.168 1738.03 C 902.599 1732.3 895.757 1726.22 890.816 1720.03 L 891.745 1718.77 L 896.33 1718.53 L 916.539 1718.06 C 926.224 1725.88 945.294 1746.22 954.703 1755.72 C 976.938 1778.22 999.562 1800.34 1022.57 1822.06 C 1055.97 1787.36 1093.88 1753.53 1127.53 1717.88 z" fill="rgb(22,53,115)" transform="translate(0,0)"></path>
<path d="M 828.132 686.831 C 831.261 688.344 838.467 707.547 840.339 712.11 C 814.915 727.937 758.166 751.879 730.221 762.272 L 728.111 762.588 C 724.044 759.138 720.565 745.65 718.807 739.928 C 753.584 727.53 797.943 708.533 828.132 686.831 z" fill="rgb(22,53,115)" transform="translate(0,0)"></path>
<path d="M 1522.95 999.442 C 1544.54 1005.89 1566.21 1012.06 1587.96 1017.94 C 1586.32 1021.28 1584.31 1024.71 1582.49 1027.97 C 1567.5 1023.16 1550.08 1018.78 1534.75 1014.57 C 1534.13 1025.17 1534.18 1036.58 1534.04 1047.25 L 1534.01 1059.72 L 1568.46 1066.77 L 1565.2 1077.17 C 1551.53 1073.8 1536.86 1070.78 1523.05 1067.7 L 1522.95 999.442 z" fill="rgb(22,53,115)" transform="translate(0,0)"></path>
<path d="M 484.164 1102.22 C 520.801 1100.32 537.782 1125.53 496.529 1132.91 C 460.249 1133.93 441.362 1111.32 484.164 1102.22 z" fill="rgb(22,53,115)" transform="translate(0,0)"></path>
<path d="M 472.242 1120.47 C 481.931 1119.41 489.153 1120.22 498.664 1121.65 C 491.314 1122.02 478.899 1123.19 472.242 1120.47 z" fill="rgb(151,161,194)" transform="translate(0,0)"></path>
<path d="M 929.464 1592.13 C 931.443 1592.39 937.953 1595.44 937.963 1595.44 C 939.88 1594.79 939.858 1592.8 942.759 1592.33 L 944.532 1594.41 C 948.139 1609.38 945.228 1649.77 920.524 1631.42 C 918.671 1627.99 918.962 1629.71 919.173 1626.15 L 920.695 1625.64 C 929.217 1633.31 940.001 1629.71 939.129 1619.91 L 938 1619.07 C 917.437 1632.24 903.32 1598.07 929.464 1592.13 z" fill="rgb(7,24,85)" transform="translate(0,0)"></path>
<path d="M 926.389 1598.78 C 929.512 1597.33 933.177 1597.71 935.939 1599.76 C 938.701 1601.81 940.117 1605.22 939.627 1608.62 C 939.138 1612.03 936.822 1614.9 933.594 1616.09 C 928.871 1617.84 923.612 1615.54 921.677 1610.9 C 919.743 1606.25 921.822 1600.9 926.389 1598.78 z" fill="rgb(255,255,255)" transform="translate(0,0)"></path>
<path d="M 1027.77 1576.41 C 1030.48 1576.99 1030.4 1576.86 1032.67 1578.39 C 1033.39 1583.78 1033.88 1618.95 1031.41 1622.24 C 1027.46 1622.49 1029.73 1620.54 1027.37 1619.61 C 1025.96 1619.06 1019.2 1624.49 1009.5 1620.91 C 994.815 1604.48 1007.44 1585.39 1025.5 1594.7 L 1026.85 1595.41 C 1027.82 1593.61 1027.69 1579.64 1027.77 1576.41 z" fill="rgb(7,24,85)" transform="translate(0,0)"></path>
<path d="M 1014.41 1597.85 C 1019.46 1595.92 1025.12 1598.36 1027.17 1603.36 C 1029.22 1608.36 1026.91 1614.08 1021.96 1616.24 C 1018.65 1617.69 1014.82 1617.23 1011.95 1615.05 C 1009.08 1612.87 1007.61 1609.3 1008.12 1605.72 C 1008.63 1602.15 1011.04 1599.14 1014.41 1597.85 z" fill="rgb(255,255,255)" transform="translate(0,0)"></path>
<path d="M 1598.67 1592.22 C 1602.31 1593.43 1600.89 1592.34 1602.95 1595.73 C 1607.69 1595.88 1623.53 1589.09 1624.95 1600.59 C 1626.67 1614.52 1623.65 1621.67 1610.9 1625.07 C 1608.04 1623.62 1606.84 1621.59 1603.82 1620.97 C 1601.41 1625.21 1606.76 1633.44 1601.44 1637.44 L 1599.01 1636.97 C 1597.36 1634.23 1598.06 1597.58 1598.67 1592.22 z" fill="rgb(7,24,85)" transform="translate(0,0)"></path>
<path d="M 1610.09 1596.8 C 1623.06 1598.95 1622.6 1614.59 1613.19 1619.77 C 1599.94 1618.53 1598.89 1602.35 1610.09 1596.8 z" fill="rgb(255,255,255)" transform="translate(0,0)"></path>
<path d="M 1436.97 1578.08 C 1437.61 1578.2 1440.19 1578.61 1440.51 1578.91 C 1445.65 1583.67 1453.75 1602.68 1457.01 1608.82 C 1461.36 1601.5 1467.49 1583.61 1473.48 1579.46 L 1475.24 1579.82 C 1479.04 1586.27 1477.68 1616.08 1474.7 1623.27 L 1473.52 1623.2 C 1471.17 1618.08 1471.64 1613.53 1471.65 1607.94 L 1471.07 1591.67 C 1468.37 1597.58 1461.93 1616.15 1455.63 1615.32 C 1450.98 1610.76 1446.1 1599.35 1443.04 1593.14 C 1442.92 1600.58 1445.41 1619.66 1439.9 1623.37 L 1438.5 1622.26 C 1437.18 1614.35 1437.2 1587.42 1436.97 1578.08 z" fill="rgb(7,24,85)" transform="translate(0,0)"></path>
<path d="M 1304.5 1577.23 L 1307.88 1578.63 C 1309.91 1583.58 1311.03 1619.65 1307.89 1623.3 L 1306.08 1623.19 L 1304.36 1620.65 C 1297.17 1622.83 1296.26 1623.66 1288.96 1622.35 C 1276.14 1607.61 1286.21 1582.85 1303.2 1594.5 C 1304.32 1592.03 1304.2 1581.16 1304.5 1577.23 z" fill="rgb(7,24,85)" transform="translate(0,0)"></path>
<path d="M 1293.35 1595.77 C 1306.68 1596.33 1307.53 1610.16 1299.85 1618.19 C 1285.22 1618.79 1285.71 1603.64 1293.35 1595.77 z" fill="rgb(255,255,255)" transform="translate(0,0)"></path>
<path d="M 1110.54 1576.22 L 1113.88 1577.26 C 1115.91 1581.34 1116.02 1618.46 1113.83 1622.05 L 1111.77 1622.04 L 1110.24 1619.37 C 1103.69 1622.46 1102.53 1623.61 1095.63 1622 C 1090.82 1617.16 1088.12 1611.83 1088.65 1604.91 C 1089.71 1591.05 1098.73 1591.61 1108.9 1592.19 C 1110.09 1589.61 1110.27 1579.81 1110.54 1576.22 z" fill="rgb(7,24,85)" transform="translate(0,0)"></path>
<path d="M 1098.66 1595.8 C 1114.7 1594.14 1112.58 1610.04 1105.06 1618.23 C 1090.67 1618 1091.14 1604.26 1098.66 1595.8 z" fill="rgb(255,255,255)" transform="translate(0,0)"></path>
<path d="M 774.816 1593.01 C 781.76 1592.54 782.385 1593.38 788.84 1595.36 C 791.6 1591.88 791.685 1591.85 795.299 1593.55 L 795.641 1596.73 C 796.265 1602.8 797.603 1616.75 793.812 1621.4 C 790.11 1621.67 791.964 1621.99 788.295 1619.43 C 772.325 1632.03 754.306 1606 774.816 1593.01 z" fill="rgb(7,24,85)" transform="translate(0,0)"></path>
<path d="M 777.133 1598.67 C 780.308 1597.51 783.857 1598.16 786.427 1600.35 C 788.996 1602.54 790.19 1605.94 789.553 1609.26 C 788.915 1612.58 786.545 1615.3 783.345 1616.38 C 778.473 1618.03 773.18 1615.45 771.478 1610.6 C 769.775 1605.74 772.297 1600.42 777.133 1598.67 z" fill="rgb(255,255,255)" transform="translate(0,0)"></path>
<path d="M 1049.93 1591.03 C 1072.78 1590.14 1073.46 1615.08 1057.33 1622.58 C 1037.33 1624.14 1032.34 1599.59 1049.93 1591.03 z" fill="rgb(7,24,85)" transform="translate(0,0)"></path>
<path d="M 1049.93 1595.9 C 1066.26 1595.03 1065.11 1608.84 1057.17 1618.15 C 1042.14 1617.85 1041.32 1604.8 1049.93 1595.9 z" fill="rgb(255,255,255)" transform="translate(0,0)"></path>
<path d="M 1326.89 1592.05 C 1334.8 1591.71 1340.25 1593.45 1343.9 1601.12 C 1345.85 1605.22 1346.06 1609.94 1344.46 1614.2 C 1342.51 1619.45 1340.13 1620.96 1335.33 1623.23 C 1313.1 1625.16 1310.47 1600.92 1326.89 1592.05 z" fill="rgb(7,24,85)" transform="translate(0,0)"></path>
<path d="M 1328.76 1595.93 C 1342.46 1598.08 1343.75 1614.03 1332.13 1619.46 C 1318.55 1616.46 1319.14 1603.07 1328.76 1595.93 z" fill="rgb(255,255,255)" transform="translate(0,0)"></path>
<path d="M 604.509 1577.06 C 608.722 1577.44 616.81 1578.86 619.526 1582.3 L 618.799 1584.94 C 611.593 1587.64 605.067 1580.31 600.22 1587.25 C 602.324 1596.58 644.17 1613.01 606.198 1623.43 C 601.171 1622.23 595.356 1621.12 592.088 1616.92 C 591.831 1614.38 591.877 1614.56 593.173 1612.33 C 598.411 1612.04 607.76 1621.64 614.216 1613.09 C 612.684 1604.09 570.312 1589.39 604.509 1577.06 z" fill="rgb(7,24,85)" transform="translate(0,0)"></path>
<path d="M 706.311 1591.13 C 719.532 1592.74 720.513 1597.2 723.677 1609.02 C 716.309 1609.21 705.129 1607.19 700.178 1610.9 C 700.364 1618.75 711.36 1620.16 716.968 1611.63 C 719.41 1612.11 718.707 1611.91 720.935 1612.97 L 720.925 1614.97 C 707.781 1639.11 672.693 1602.47 706.311 1591.13 z" fill="rgb(7,24,85)" transform="translate(0,0)"></path>
<path d="M 703.699 1596.8 C 708.979 1596.86 713.181 1596.98 715.767 1602.48 L 715.051 1603.93 L 712.249 1604.44 C 708.639 1604.57 702.678 1605.34 699.91 1603.61 C 700.178 1600.03 700.968 1600.26 703.699 1596.8 z" fill="rgb(255,255,255)" transform="translate(0,0)"></path>
<path d="M 1389.17 1593.21 C 1400.05 1591.71 1407.94 1591.8 1410.18 1605.1 C 1410.89 1609.29 1410.83 1619.97 1408.23 1623.33 L 1406.36 1623.51 L 1403.45 1620.71 C 1397.34 1623.08 1396.17 1623.7 1389.45 1623.15 C 1373.38 1607.32 1400.1 1604.62 1403.46 1599.28 C 1400.09 1595.75 1394.63 1597.06 1390.3 1597.74 L 1388.31 1598.07 L 1387.61 1596.71 L 1389.17 1593.21 z" fill="rgb(7,24,85)" transform="translate(0,0)"></path>
<path d="M 1401.63 1607.08 C 1403.57 1607.06 1402.59 1606.91 1404.5 1608.31 C 1404.2 1615.53 1401.17 1617.82 1394.5 1619.5 C 1392.46 1618.05 1392.47 1617.9 1390.7 1616.06 C 1389.14 1608.98 1396.08 1608.35 1401.63 1607.08 z" fill="rgb(255,255,255)" transform="translate(0,0)"></path>
<path d="M 982.016 1592.18 C 983.485 1592.25 988.265 1592.81 989.435 1593.43 C 997.535 1597.69 1000.17 1613.67 996.305 1621.06 C 988.155 1623.55 978.728 1623.45 972.514 1617.26 C 971.676 1614.09 971.785 1613.47 971.699 1610.26 C 975.944 1602.2 984.342 1606.55 990.066 1602.05 C 989.299 1599.11 990.04 1600.38 987.465 1598.31 C 982.246 1598.24 978.299 1598.75 973.162 1599.32 L 972.818 1597.45 C 976.476 1593.77 976.95 1593.22 982.016 1592.18 z" fill="rgb(7,24,85)" transform="translate(0,0)"></path>
<path d="M 978.107 1609.34 C 982.921 1609.09 986.754 1608.21 990.612 1610.26 C 990.807 1614.13 990.49 1613.27 988.283 1617.27 C 984.015 1618.09 981.215 1618.55 977.849 1615.14 C 976.884 1611.42 976.929 1613.29 978.107 1609.34 z" fill="rgb(255,255,255)" transform="translate(0,0)"></path>
<path d="M 893.851 1593.1 C 903.601 1592.46 915.88 1595.77 912.094 1608.16 C 907.488 1610.35 898.135 1608.08 891.571 1610.16 L 891.783 1611.51 C 894.199 1614.97 894.261 1615.31 897.896 1617.16 C 901.726 1617.1 900.202 1617.76 902.853 1615.78 C 906.222 1613.26 904.464 1613.7 908.026 1613.57 L 909.273 1615.11 C 903.77 1634.16 867.959 1611.79 893.851 1593.1 z" fill="rgb(7,24,85)" transform="translate(0,0)"></path>
<path d="M 895.181 1597.88 C 899.88 1597.55 904.255 1597.59 905.928 1602.51 L 904.915 1604.38 C 901.325 1604.47 895.775 1605.09 892.793 1603.58 L 892.464 1601.61 L 895.181 1597.88 z" fill="rgb(255,255,255)" transform="translate(0,0)"></path>
<path d="M 1263.57 1591.21 C 1263.91 1591.22 1264.24 1591.23 1264.58 1591.24 C 1277.5 1587.89 1279.83 1616.84 1274.11 1622.01 C 1262.29 1618.49 1263.79 1626.92 1253.12 1619.8 C 1248.56 1602.78 1262.46 1608.24 1269.88 1601.99 C 1270.58 1599.31 1270.81 1600.56 1269.46 1598.12 C 1265.1 1596.33 1259.95 1596.5 1255.12 1596.25 L 1254.38 1595.32 C 1258.23 1592.3 1258.66 1592.37 1263.57 1591.21 z" fill="rgb(7,24,85)" transform="translate(0,0)"></path>
<path d="M 1266.84 1608.04 L 1269.73 1608.41 C 1273.15 1613.31 1265.73 1617.6 1262.11 1619.63 L 1258.43 1617.02 C 1256.95 1613.71 1256.94 1615.28 1258.06 1612.17 C 1261.22 1609.32 1262.6 1609.28 1266.84 1608.04 z" fill="rgb(255,255,255)" transform="translate(0,0)"></path>
<path d="M 1217.04 1591.03 C 1225 1590.93 1228.05 1591.73 1231.25 1600.13 C 1232.31 1602.9 1231.93 1603.39 1230.61 1605.72 C 1224.33 1608.91 1216.62 1605.12 1212.32 1609.95 C 1212.32 1613.38 1212.41 1613.14 1214.37 1616.01 C 1219.27 1619.26 1223.13 1618.15 1228.81 1617.16 C 1230.59 1617.85 1229.75 1617.34 1230.95 1619.43 L 1230 1620.99 C 1204.32 1630.59 1197.03 1599.8 1217.04 1591.03 z" fill="rgb(7,24,85)" transform="translate(0,0)"></path>
<path d="M 1217.82 1594.67 C 1222.26 1595.74 1223.8 1596.53 1225.73 1601.01 L 1224.94 1602.72 L 1222.25 1603.19 C 1218.15 1603.38 1215.25 1604.3 1212.43 1601.18 C 1213.2 1598.04 1215.29 1596.85 1217.82 1594.67 z" fill="rgb(255,255,255)" transform="translate(0,0)"></path>
<path d="M 1132.04 1591.03 L 1133.31 1591.04 C 1141.99 1591.12 1146.9 1595.38 1145.71 1604.33 C 1141.42 1610.03 1135.82 1607.73 1127.75 1609.95 L 1126.9 1611.48 C 1128.4 1614.86 1128.86 1614.94 1131.55 1617.38 C 1134.98 1618.61 1138.6 1617.93 1142.29 1617.62 L 1144.12 1617.18 L 1144.92 1619 L 1143.85 1620.8 C 1119.88 1630.83 1113.39 1599.86 1132.04 1591.03 z" fill="rgb(7,24,85)" transform="translate(0,0)"></path>
<path d="M 1130.66 1595.59 C 1135.49 1595.75 1141.05 1596.19 1140.7 1602.59 L 1138.96 1603.97 C 1134.52 1604.08 1130.67 1604.81 1127.35 1602.45 C 1127.71 1598.67 1128.15 1599.21 1130.66 1595.59 z" fill="rgb(255,255,255)" transform="translate(0,0)"></path>
<path d="M 1172.73 1579.34 C 1181.33 1578.81 1193.62 1579.2 1202.49 1579.21 C 1196.98 1590.65 1186.36 1605.74 1179.34 1617.24 C 1184.48 1617.31 1196.59 1616.95 1200.8 1617.95 L 1202.26 1620.52 C 1196.51 1623.27 1177.77 1621.92 1170.4 1621.64 C 1174.35 1613.49 1188.12 1593.42 1193.82 1584.23 C 1188.21 1584.21 1180.33 1585.2 1175.11 1583.44 C 1173.45 1582.88 1173.64 1581.73 1172.73 1579.34 z" fill="rgb(7,24,85)" transform="translate(0,0)"></path>
<path d="M 1653.37 1598.94 L 1653.96 1598.82 C 1656.39 1602.92 1656.94 1617.98 1656.2 1622.59 L 1654.23 1623.64 C 1652.8 1622.76 1651.62 1622.06 1650.14 1621.28 C 1644.74 1623.47 1639.41 1626.35 1634.3 1621.45 C 1632.49 1619.72 1631.45 1617.32 1631.43 1614.81 C 1631.4 1603.86 1644.27 1606.59 1649.4 1600.85 C 1651.81 1600.38 1651.55 1600.43 1653.37 1598.94 z" fill="rgb(7,24,85)" transform="translate(0,0)"></path>
<path d="M 1642.6 1609.22 C 1645.34 1608.97 1645.73 1608.97 1648.46 1609.23 C 1650.65 1611.51 1650.05 1610.19 1650.32 1613.34 C 1648.81 1617.31 1648.23 1617.48 1644.83 1620.32 C 1642.68 1619.78 1641.28 1619.25 1639.19 1618.49 C 1636.56 1615.42 1637.1 1617.08 1636.74 1613.66 C 1639.27 1610.09 1638.25 1611.25 1642.6 1609.22 z" fill="rgb(255,255,255)" transform="translate(0,0)"></path>
<path d="M 745.061 1591.09 C 761.902 1593.41 760.21 1604.1 759.6 1618.32 C 759.51 1620.43 756.976 1621.84 755.402 1622.69 C 747.759 1616.96 762.207 1597.92 742.32 1596.87 C 730.626 1606.45 741.438 1619.11 732.715 1622.17 L 731.464 1621.25 C 729.799 1616.47 729.189 1597.45 732.585 1593.99 C 741.428 1593.43 736.486 1595.56 745.061 1591.09 z" fill="rgb(7,24,85)" transform="translate(0,0)"></path>
<path d="M 851.158 1591.87 C 866.101 1591.91 863.666 1609.65 862.67 1620.5 C 860.269 1622.25 861.614 1621.71 858.34 1621.54 C 855.845 1615.59 858.427 1607.6 855.998 1600.53 C 853.505 1598.53 852.071 1598.86 848.829 1598.77 L 847.624 1598.74 C 839.654 1607.02 846.544 1615.66 842.679 1621.68 L 840.6 1621.65 L 838.735 1619.68 C 836.911 1614.55 838.063 1603 837.935 1597.23 C 837.839 1592.9 844.037 1594.78 846.609 1594.54 C 846.609 1594.54 850.601 1592.19 851.158 1591.87 z" fill="rgb(7,24,85)" transform="translate(0,0)"></path>
<path d="M 649.936 1591.07 C 654.797 1591.2 657.176 1591.03 661.938 1592.43 C 663.874 1595.44 663.69 1593.91 663.356 1596.99 C 659.026 1599.02 654.893 1596.06 648.855 1597.49 L 648.45 1599.07 C 651.935 1605.73 659.579 1605.84 664.799 1612.56 C 666.285 1619.7 660.52 1621.39 654.653 1623.46 C 649.987 1622.7 647.03 1622.32 643.257 1619.62 C 641.998 1616.68 642.092 1618.17 643.166 1614.99 C 648.692 1613.45 653.295 1621.45 658.581 1615.51 C 655.784 1609.02 629.295 1602.89 649.936 1591.07 z" fill="rgb(7,24,85)" transform="translate(0,0)"></path>
<path d="M 1506.85 1591.47 L 1509.56 1592.48 C 1512.05 1595.91 1512.79 1619.21 1509.96 1623.35 C 1503.6 1623.64 1509.39 1620.53 1505.32 1621.2 C 1500.18 1622.04 1495.71 1624.12 1490.48 1621.91 C 1486.16 1617.6 1486.8 1613.17 1486.71 1607.25 C 1486.44 1600.25 1485.64 1596.85 1490.36 1591.53 C 1493.72 1598.77 1486.75 1623.91 1501.73 1617.53 C 1507.94 1614.89 1505.21 1598.19 1506.85 1591.47 z" fill="rgb(7,24,85)" transform="translate(0,0)"></path>
<path d="M 1520.66 1591.37 C 1530.17 1597.46 1531.07 1588.72 1539.22 1594.2 C 1546.32 1598.98 1544.43 1617.73 1540.07 1623.31 L 1539.05 1622.83 C 1538.08 1616.39 1538.21 1610.25 1538.17 1603.75 C 1537.79 1601.51 1537.45 1601.31 1536.46 1599.17 C 1533.77 1597.32 1533.22 1597.67 1529.94 1597.69 C 1519.83 1602.82 1528.47 1616.24 1523.27 1623.9 C 1517.66 1620.34 1519.4 1597.65 1520.66 1591.37 z" fill="rgb(7,24,85)" transform="translate(0,0)"></path>
<path d="M 676.138 1583.27 C 682.523 1586.02 676.94 1589.13 681.006 1592.61 C 683.781 1592.59 686.194 1592.2 688.479 1593.58 L 688.566 1596.21 C 684.904 1599.12 684.962 1596.16 679.636 1598.33 C 678.627 1601.52 678.812 1606.2 679.092 1609.58 C 680.149 1622.35 683.41 1613.36 690.217 1619.2 C 688.661 1620.93 685.346 1622.58 683.125 1623.04 C 672.075 1625.31 673.482 1605.41 672.601 1598.67 C 670.841 1597.67 670.281 1597.3 668.682 1596.06 L 668.99 1593.5 C 671.266 1592.56 671.341 1592.58 673.283 1591.1 C 674.056 1587.03 674.028 1586.74 676.138 1583.27 z" fill="rgb(7,24,85)" transform="translate(0,0)"></path>
<path d="M 1562.09 1592.07 C 1564.7 1592.15 1566.99 1592.46 1569.57 1592.74 C 1572.67 1594.91 1572.08 1593.8 1573.5 1596.78 C 1568.76 1597.42 1557.84 1596.91 1556.29 1601.44 C 1551.19 1616.42 1559.65 1620.28 1571.72 1617.91 C 1572.2 1617.65 1572.82 1617.86 1573.37 1617.88 L 1573.77 1620.38 L 1572.05 1622.45 C 1551.99 1631.68 1538.37 1601.77 1562.09 1592.07 z" fill="rgb(7,24,85)" transform="translate(0,0)"></path>
<path d="M 871.004 1584.46 C 873.818 1584.81 874.374 1584.52 876.471 1586.26 C 876.723 1588.72 876.683 1590.19 877.655 1592.46 C 880.461 1592.63 879.669 1592.45 882.368 1593.3 L 882.717 1595.35 C 874.44 1603.41 871.294 1611.3 881.629 1619.88 C 878.098 1622.24 877.198 1622.37 873.498 1620.88 C 869.437 1615.63 870.568 1606.16 870.613 1599.25 C 869.099 1597.92 868.702 1597.69 866.966 1596.81 L 866.786 1594.27 C 870.026 1590.35 870.726 1589.57 871.004 1584.46 z" fill="rgb(7,24,85)" transform="translate(0,0)"></path>
<path d="M 1665.15 1574.24 L 1668.35 1575.21 C 1670.56 1579.55 1669.45 1614.38 1669.52 1622.35 C 1667.24 1623.2 1667.4 1623.15 1664.97 1622.91 C 1662.88 1619.09 1664.95 1581.34 1665.15 1574.24 z" fill="rgb(7,24,85)" transform="translate(0,0)"></path>
<path d="M 1238.86 1575.24 L 1242.09 1576.62 C 1244.67 1582.14 1243.53 1616.08 1242.76 1623.39 C 1241.59 1622.88 1240.38 1622.21 1239.24 1621.61 C 1236.97 1615.85 1238.19 1582.51 1238.86 1575.24 z" fill="rgb(7,24,85)" transform="translate(0,0)"></path>
<path d="M 963.064 1591.57 C 965.549 1592.33 965.541 1592.49 967.696 1594.02 C 968.276 1597.15 968.544 1595.76 967.174 1598.38 C 947.166 1601.21 965.904 1615.25 954.388 1623.22 C 951.219 1619.15 950.734 1596.6 953.816 1593.22 C 955.848 1593.82 957.543 1594.27 959.605 1594.76 L 963.064 1591.57 z" fill="rgb(7,24,85)" transform="translate(0,0)"></path>
<path d="M 1351.01 1592.34 L 1354.62 1592.69 C 1356.36 1594.2 1356.29 1594.3 1357.41 1596.29 C 1360.32 1594.1 1362.09 1591.89 1365.44 1594.02 C 1365.17 1599.17 1359.2 1599.26 1356.28 1607.29 C 1356.27 1611.44 1356.52 1618.72 1355.64 1622.51 L 1353.81 1623 L 1352.3 1621.61 C 1350.03 1614.54 1350.89 1600.49 1351.01 1592.34 z" fill="rgb(7,24,85)" transform="translate(0,0)"></path>
<path d="M 627.43 1591.25 C 629.571 1591.47 630.24 1591.68 632.331 1592.26 C 635.369 1596.91 634.051 1616.13 633.963 1622.73 L 629.471 1621.89 C 625.571 1616.84 627.222 1598.6 627.43 1591.25 z" fill="rgb(7,24,85)" transform="translate(0,0)"></path>
<path d="M 824.483 1592.39 C 826.602 1592.65 827.171 1592.85 829.23 1593.48 C 832.167 1598.24 830.889 1615.97 830.854 1622.52 C 829.254 1622.21 827.657 1621.89 826.063 1621.54 C 822.735 1616.74 824.366 1598.89 824.483 1592.39 z" fill="rgb(7,24,85)" transform="translate(0,0)"></path>
<path d="M 1374.01 1591.55 L 1376.72 1592.63 C 1379.41 1597.23 1378.01 1617.82 1377.48 1623.77 L 1374.07 1622.61 C 1371.46 1617.37 1372.27 1597.21 1374.01 1591.55 z" fill="rgb(7,24,85)" transform="translate(0,0)"></path>
<path d="M 1580.91 1592.24 L 1584.08 1593.08 C 1587.43 1596.74 1585.96 1617.62 1585.86 1623.8 L 1582.5 1622.97 C 1579.28 1618.51 1580.73 1599.16 1580.91 1592.24 z" fill="rgb(7,24,85)" transform="translate(0,0)"></path>
<path d="M 1653.37 1598.94 C 1649.06 1595.79 1641.02 1598.04 1634.94 1596.77 L 1635.21 1595.3 C 1640.23 1591.89 1650.84 1591.5 1655.21 1596.03 C 1654.85 1598.09 1655.26 1597.15 1653.96 1598.82 L 1653.37 1598.94 z" fill="rgb(7,24,85)" transform="translate(0,0)"></path>
<path d="M 629.337 1576.61 C 631.469 1576.01 633.705 1577.13 634.501 1579.2 C 635.296 1581.27 634.391 1583.6 632.41 1584.59 C 630.949 1585.31 629.202 1585.15 627.901 1584.17 C 626.6 1583.18 625.969 1581.54 626.274 1579.94 C 626.578 1578.34 627.765 1577.05 629.337 1576.61 z" fill="rgb(7,24,85)" transform="translate(0,0)"></path>
<metadata><recraft-signature>{"signed_by": "recraft", "signature_b64": "WbS5TmtRn7rLvEXu7yDKYbhHIKPglJHCE4cnoyOdNjhWO7AUK+rJfh6eYDn8Cy1CA1x3PkYgu3iP0zTZ2nYUDw==", "signing_algo": "Ed25519", "generation_timestamp": 1782918836, "identifier": "c0bd71a6-ba22-4f05-b8b5-ec72f549d718"}</recraft-signature></metadata></svg>