<svg xmlns="http://www.w3.org/2000/svg" height="1024" preserveAspectRatio="none" style="display: block;" version="1.1" viewBox="0 0 2048 2048" width="1024">
<path d="M 0 0 L 2048 0 L 2048 2048 L 0 2048 L 0 0 z" fill="rgb(255,255,255)" transform="translate(0,0)"></path>
<path d="M 1272.56 102.419 C 1351.14 95.9732 1443.69 121.396 1513.12 156.515 C 1624.61 212.916 1712.65 316.922 1751.48 435.515 C 1768.58 487.72 1778.58 547.429 1775.7 602.484 C 1765.81 791.796 1630.45 983.769 1521.37 1132.26 L 1412.11 1281.62 C 1394.72 1305.61 1375.73 1330.07 1359.08 1354.35 C 1333.76 1391.24 1314.73 1427.84 1294.58 1467.51 C 1292.16 1473.54 1290.37 1477.17 1287.35 1482.91 C 1283.28 1467.43 1270.92 1441.73 1263.3 1427.46 C 1250.61 1403.33 1236.76 1379.84 1221.79 1357.05 C 1211.75 1341.94 1201.12 1328.17 1191.25 1313.56 C 1118.68 1206.13 1038.77 1103.43 967.128 995.481 C 959.127 983.426 949.588 971.547 941.914 959.548 C 903.494 899.478 860.651 828.525 835.294 761.819 C 816.793 712.703 806.288 660.938 804.18 608.496 C 799.481 480.465 853.687 341.911 941.135 249.138 C 1026.95 158.098 1148.28 106.835 1272.56 102.419 z" fill="rgb(5,108,57)" transform="translate(0,0)"></path>
<path d="M 1265.51 321.402 C 1285.82 318.301 1317.85 323.427 1338.54 327.388 C 1446.49 348.047 1534.12 449.593 1548.11 557.195 C 1567.58 706.813 1461.68 842.28 1311.79 859.808 C 1239.7 865.457 1180.28 848.334 1123.59 802.689 C 1067.65 757.646 1034.33 691.444 1026.93 620.315 C 1019 547.034 1040.91 473.646 1087.7 416.696 C 1134.02 360.175 1192.95 328.537 1265.51 321.402 z" fill="rgb(255,255,255)" transform="translate(0,0)"></path>
<path d="M 1294.33 506.998 C 1288.97 530.937 1273.22 617.046 1254.33 630.775 L 1252.42 631.002 L 1251.23 629.963 C 1251.24 626.677 1263.72 577.859 1265.35 572.025 C 1275.49 535.777 1268.65 453.565 1320.87 452.046 C 1344.97 451.345 1385.09 502.563 1380.82 527.62 C 1378.97 538.47 1379.82 549.748 1376.96 560.614 C 1374.98 573.485 1369.86 588.876 1370.45 601.411 C 1370.69 606.504 1381.42 621.452 1382.12 626.196 C 1347.83 634.662 1370.47 538.59 1360.74 524.206 C 1358.2 520.452 1356.65 515.785 1353.11 512.674 C 1347.88 518.751 1360.65 526.82 1358.69 535.504 C 1357.67 535.221 1356.65 534.939 1355.64 534.656 C 1354.55 542.499 1354.91 555.794 1354.76 564.13 C 1354.54 575.04 1353.79 585.934 1352.53 596.773 C 1359.09 610.706 1360.88 618.898 1361.14 634.453 C 1361.98 681.005 1380.31 724.292 1397.73 766.629 C 1398.69 770.632 1412.48 793.58 1412.44 795.234 C 1412.01 814.995 1360.64 823.86 1351.65 807.805 C 1345.7 797.198 1370.77 792.93 1376.06 791.489 L 1382.06 780.24 C 1379.3 782.333 1377.25 784.426 1373.92 784.879 C 1364.59 781.844 1324.55 693.298 1320.06 680.431 C 1316.68 691.449 1313.8 702.362 1311.77 713.728 C 1309.69 725.38 1306.61 766.905 1302.67 773.616 C 1302.33 774.196 1302.01 774.788 1301.67 775.366 C 1301.42 775.784 1301.16 776.193 1300.9 776.606 C 1302.31 790.523 1304.45 794.007 1302.32 808.626 C 1297.76 808.722 1293.52 809.011 1288.98 809.357 C 1274.72 810.444 1261 819.027 1251.69 803.969 L 1250.84 801.182 C 1254.56 792.722 1264.56 792.339 1271.45 786.941 C 1275.48 783.777 1279.93 778.453 1284.08 775.937 C 1280.62 774.738 1275.45 773.254 1272.52 771.408 C 1274.3 766.586 1269.84 756.379 1269.59 749.401 C 1268.19 711.344 1273.84 673.201 1288.65 637.976 C 1292.43 628.966 1299.26 620.119 1302.43 610.616 C 1300.94 608.483 1297.15 603.153 1296.67 600.892 C 1290.44 571.831 1297.5 536.437 1294.33 506.998 z" fill="rgb(15,41,82)" transform="translate(0,0)"></path>
<path d="M 1196.7 593.49 C 1206.18 596.115 1218.18 597.976 1223.83 605.835 C 1231.69 619.095 1234.2 631.33 1243.61 643.458 C 1241.19 652.352 1240.19 681.301 1237.82 684.901 C 1234.87 681.144 1234.81 671.583 1233.25 666.488 C 1229.85 655.417 1224.16 641.041 1218.52 631.012 L 1218.66 632.368 C 1220.07 645.705 1223.69 659.232 1225.53 672.665 C 1226.2 677.586 1226.87 685.486 1227.46 690.718 C 1228.28 691.704 1229.1 692.691 1229.93 693.677 C 1230.37 705.567 1225.47 717.383 1227.65 729.375 C 1230.16 743.174 1252.1 780.001 1245.29 792.401 C 1242.57 794.912 1240.9 794.777 1237.22 795.348 C 1232.56 792.853 1208.14 747.191 1203.55 739.008 C 1202.1 747.762 1194 788.022 1189.87 793.771 L 1186.68 795.5 C 1181.85 792.519 1184.03 792.977 1178.53 793.695 C 1176.23 754.391 1178.76 727.538 1188.55 689.651 C 1191.46 678.381 1187.92 654.23 1185.86 642.296 C 1184.79 650.461 1183.57 656.235 1180.54 663.942 C 1176.89 673.229 1170.24 677.808 1171.89 687.642 L 1170.88 688.962 L 1167.9 688.258 C 1166.49 693.111 1162.94 703.835 1156.58 700.667 C 1154.31 693.852 1162.01 685.001 1165.16 678.151 C 1174.68 657.417 1173.41 630.984 1180.82 610.692 C 1186.71 605.392 1191.13 604.665 1196.41 599.924 L 1194.48 595.373 L 1196.7 593.49 z" fill="rgb(15,41,82)" transform="translate(0,0)"></path>
<path d="M 1196.7 593.49 C 1206.18 596.115 1218.18 597.976 1223.83 605.835 C 1217.28 602.577 1202.56 595.749 1196.41 599.924 L 1194.48 595.373 L 1196.7 593.49 z" fill="rgb(9,23,54)" transform="translate(0,0)"></path>
<path d="M 1297.26 372.162 C 1318.95 374.142 1335.9 371.83 1344.27 398.471 C 1349.31 414.525 1353.73 437.596 1330.78 440.306 C 1324.11 441.094 1313.09 446.467 1307.35 449.731 C 1281.86 462.832 1287.44 455.481 1276.95 438.33 L 1276.3 437.283 C 1276.99 433.491 1277.39 431.647 1277.49 427.832 C 1275.65 426.487 1274.98 426.02 1273.39 424.419 C 1274.25 420.128 1278.13 416.916 1280.18 413.261 C 1287.3 400.586 1261.16 383.066 1282.03 376.482 C 1287.54 374.746 1291.32 373.226 1297.26 372.162 z" fill="rgb(15,41,82)" transform="translate(0,0)"></path>
<path d="M 1194.48 595.373 C 1142.63 600.526 1168.98 514.866 1202.63 545.257 C 1214.79 556.245 1209.35 582.411 1196.7 593.49 L 1194.48 595.373 z" fill="rgb(15,41,82)" transform="translate(0,0)"></path>
<path d="M 1225.05 817.102 L 1222.91 815.997 L 1222.41 813.543 C 1224.76 805.345 1236.66 795.846 1245.11 795.482 C 1248.48 797.747 1248.77 797.808 1250.84 801.182 L 1251.69 803.969 C 1251.11 807.108 1251.43 808.504 1248.59 810.417 C 1243.13 814.102 1231.36 818.924 1225.05 817.102 z" fill="rgb(15,41,82)" transform="translate(0,0)"></path>
<path d="M 1225.05 817.102 L 1222.91 815.997 L 1222.41 813.543 C 1224.76 805.345 1236.66 795.846 1245.11 795.482 C 1235.01 803.654 1229.97 803.046 1226.41 815.929 L 1225.05 817.102 z" fill="rgb(9,23,54)" transform="translate(0,0)"></path>
<path d="M 1178.53 793.695 C 1184.03 792.977 1181.85 792.519 1186.68 795.5 C 1190.47 795.756 1191.55 795.774 1193.14 798.965 C 1192.97 815.853 1171.06 809.701 1167.06 803.659 C 1169.1 796.647 1170.75 794.115 1178.53 793.695 z" fill="rgb(15,41,82)" transform="translate(0,0)"></path>
<path d="M 1240.51 685.949 C 1242.36 686.002 1242.47 686.204 1244.29 686.735 C 1247.31 691.791 1244.26 694.706 1239.58 696.733 C 1234.58 696.324 1232.96 697.084 1231.22 692.269 C 1232.75 687.33 1235.97 686.622 1240.51 685.949 z" fill="rgb(15,41,82)" transform="translate(0,0)"></path>
<path d="M 1214.86 205.429 C 1266.44 202.367 1318.11 209.847 1366.71 227.411 C 1399.1 239.187 1422.8 252.633 1451.01 271.985 C 1674.47 425.3 1667.53 753.114 1433.73 892.94 C 1408.27 908.17 1385.72 916.887 1358.97 929.088 C 1349.8 944.548 1333.91 992.304 1328.31 1009.98 C 1302.24 1092.38 1289.12 1184.8 1292.98 1271.17 C 1295.13 1319.17 1302.41 1368.18 1308.08 1415.8 C 1301.11 1427.27 1295.45 1439.77 1287.69 1450.7 C 1284.36 1440.01 1281.75 1428.67 1279.2 1417.75 C 1272.38 1382.36 1265.96 1340.95 1263.27 1305.36 C 1255.14 1189.54 1271.07 1073.29 1310.06 963.932 C 1316.67 945.555 1326.03 923.939 1333.72 905.986 C 1349.05 898.113 1366.47 893.155 1382.26 885.437 C 1526.71 815.07 1610.43 669.491 1575.98 508.563 C 1541.09 342.622 1381.61 221.103 1211.63 237.057 C 1202.97 237.87 1144.16 253.871 1164.14 216.198 C 1168.22 208.511 1203.78 206.379 1214.86 205.429 z" fill="rgb(255,255,255)" transform="translate(0,0)"></path>
<path d="M 610.665 334.445 C 660.866 329.827 732.095 345.292 779.277 362.349 C 795.301 368.142 812.105 376.049 827.637 383.207 C 823.943 393.92 819.819 407.002 815.218 417.156 C 797.819 424.207 768.843 431.256 749.749 437.694 C 659.114 468.253 577.174 510.106 519.619 589.217 C 475.117 650.386 448.891 729.842 459.81 805.735 C 417.064 768.936 366.084 696.366 361.29 639.059 C 351.473 521.697 473.367 454.711 570.872 427.471 C 615.944 414.88 661.68 409.369 709.749 405.688 L 710.394 404.881 C 704.385 402.445 687.562 404.552 680.029 404.656 C 527.304 406.432 296.37 479.391 290.846 663.597 C 288.277 749.286 357.315 839.614 413.824 898.385 C 454.237 938.751 491.833 971.85 537.821 1006.14 C 557.619 1020.91 577.906 1034.8 597.674 1049.56 C 586.032 1144.27 584.229 1239.93 592.293 1335.01 C 595.26 1368.13 601.23 1401.68 604.796 1434.84 C 607.29 1458.04 612.312 1492 626.503 1510.95 C 629.188 1510.44 628.872 1510.21 631.133 1508.57 C 630.615 1511.47 619.011 1527.94 616.648 1531.59 L 615.291 1531.66 C 615.332 1526.27 615.609 1522.8 613.118 1517.78 C 581.765 1454.6 535.022 1392.96 493.548 1336.84 L 397.592 1205.97 C 313.102 1090.07 196.34 926.459 188.802 780.008 C 183.302 673.174 229.046 550.778 301.671 472.573 C 386.073 381.686 488.941 340.753 610.665 334.445 z" fill="rgb(15,41,82)" transform="translate(0,0)"></path>
<path d="M 1461.6 1252.55 C 1488.39 1258.91 1514.75 1269.2 1540.55 1278.72 C 1629.34 1311.49 1787.08 1378.59 1840.68 1458.25 C 1855 1479.52 1862.7 1503.76 1857.44 1529.37 C 1853.08 1550.58 1838.64 1566.34 1821.31 1578.39 C 1735.8 1637.83 1530.47 1673.88 1423.55 1694.39 C 1354.27 1707.68 1284.85 1720.64 1215.77 1734.88 C 1144.47 1749.64 1074.05 1768.31 1004.81 1790.81 C 897.322 1824.58 789.494 1877.23 695.952 1940.42 C 691.436 1943.48 687.08 1946.64 682.504 1949.66 C 676.342 1879.7 594.385 1815.35 542.323 1775.72 C 526.027 1763.31 507.016 1752.36 491.369 1739.21 L 490.241 1738.26 C 678.984 1637.41 917.719 1590.06 1128.17 1555.56 L 1241.06 1536.46 C 1282.52 1529.56 1323.74 1523.2 1364.55 1512.27 C 1376.61 1509.04 1413.14 1498.06 1413.56 1481.25 C 1413.79 1471.86 1394.97 1457.03 1387.94 1451.37 C 1374.02 1440.99 1353.75 1429.28 1341.85 1419.78 C 1347.82 1411.15 1353.11 1402.58 1359.34 1393.76 C 1386.91 1410.41 1430.86 1436.07 1445.23 1465.01 C 1465.3 1505.44 1418.04 1532.19 1386.05 1541.61 C 1342.91 1554.31 1299.94 1560.76 1255.8 1568.2 L 1112.26 1592.98 C 941.321 1622.29 767.706 1659.31 605.357 1721.44 C 589.799 1727.39 573.809 1735.85 558.016 1742.55 C 571.484 1754.81 584.798 1763.45 598.136 1774.8 C 638.917 1809.51 676.901 1845.59 701.176 1893.84 C 712.132 1889.29 723.773 1880.59 734.288 1874.64 C 752.374 1864.39 771.575 1852.46 789.99 1843.01 C 868.813 1802.49 951.277 1769.49 1036.29 1744.43 C 1081.58 1731.08 1127.31 1719.26 1173.39 1708.99 C 1256.7 1690.36 1341.18 1675.93 1424.96 1659.41 C 1495.56 1645.49 1566.17 1631.88 1635.89 1613.89 C 1685.26 1601.16 1737.09 1587.27 1781.95 1562.3 C 1797.06 1553.88 1819.5 1539.33 1824.12 1521.47 C 1827.64 1507.82 1822.32 1494.35 1815.58 1482.69 C 1766.63 1398.07 1536.3 1305.24 1442.03 1279.9 C 1447.94 1270.81 1455.39 1262.05 1461.6 1252.55 z" fill="rgb(15,41,82)" transform="translate(0,0)"></path>
<path d="M 806.897 439.969 C 807.422 443.534 802.322 457.098 801.119 461.488 C 779.633 539.893 779.785 610.347 793.787 689.859 C 785.339 698.323 773.743 708.159 766.079 716.864 C 713.789 776.258 662.747 851.71 633.909 925.424 C 624.686 920.384 613.089 912.213 604.123 906.262 C 602.423 902.751 600.776 898.94 599.154 895.366 C 592.738 882.624 586.774 869.661 581.27 856.499 C 551.611 784.522 554.677 703.474 583.896 631.584 C 615.302 554.314 680.341 501.829 752.217 463.633 C 769.416 454.493 788.78 447.29 806.897 439.969 z" fill="rgb(15,41,82)" transform="translate(0,0)"></path>
<path d="M 643.59 1076.33 C 649.247 1079.39 655.221 1083.13 660.718 1086.51 C 703.7 1112.96 747.524 1137.75 791.419 1162.63 C 812.859 1174.78 833.422 1187.86 855.4 1199.23 C 843.068 1219.01 816.732 1253.1 802.193 1272.62 L 716.832 1388.09 C 688.662 1428.05 663.569 1460.27 637.053 1502.66 L 636.368 1502.43 C 646.4 1484.12 640.702 1465.46 638.649 1445.28 C 636.204 1420.97 633.901 1396.65 631.74 1372.31 C 628.892 1339.49 628.769 1307.92 628.462 1275.06 C 627.839 1208.46 630.941 1141.89 643.59 1076.33 z" fill="rgb(15,41,82)" transform="translate(0,0)"></path>
<path d="M 808.847 747.105 C 811.278 749.817 821.214 776.658 823.465 781.882 C 834.76 808.087 846.342 834.63 860.027 859.674 C 880.581 896.87 902.544 933.269 925.868 968.793 C 941.905 992.725 960.733 1016.26 974.628 1041.5 C 961.707 1055.02 943.405 1083.75 932.509 1099.84 C 914.223 1088.91 893.068 1077.39 874.343 1067.33 C 808.445 1031.63 742.789 995.497 677.38 958.918 C 694.401 907.285 724.134 855.493 755.778 811.401 C 771.674 789.25 791.102 767.787 808.847 747.105 z" fill="rgb(15,41,82)" transform="translate(0,0)"></path>
<path d="M 870.328 1208.95 C 873.049 1210.62 889.504 1216.69 893.755 1218.34 C 917.243 1227.37 940.818 1236.18 964.478 1244.75 C 1018.66 1264.98 1072.55 1285.99 1126.13 1307.77 C 1135.8 1311.74 1169.5 1324.01 1175.11 1329.78 C 1187.04 1342.02 1206.68 1373.51 1214.82 1388.4 L 1202.61 1381.71 C 1168.59 1362.98 1129.51 1346.35 1093.79 1331.28 C 1049.09 1312.39 1003.95 1294.55 958.409 1277.79 C 925.003 1265.77 882.121 1252.07 849.826 1238.96 C 855.555 1229.64 863.956 1218.13 870.328 1208.95 z" fill="rgb(15,41,82)" transform="translate(0,0)"></path>
<path d="M 976.033 1089.13 C 1005.73 1086.46 1024.29 1112.75 1040.6 1133.13 C 1047.89 1142.24 1055.63 1151.42 1062.33 1160.96 C 1056.57 1158.79 1050.42 1155.69 1044.8 1153.02 C 1012.46 1137.58 981.298 1124.47 949.467 1107.32 C 959.001 1096.88 962.037 1092.66 976.033 1089.13 z" fill="rgb(15,41,82)" transform="translate(0,0)"></path>
<metadata><recraft-signature>{"signed_by": "recraft", "signature_b64": "XBT3deKUbXAjgE00nWZdakBFKtji7DWPbIXMRfy9oRwTlRoYbEVduBzdeeDEUBw+J6VP9Xej3HaPDNRlwV89Ag==", "signing_algo": "Ed25519", "generation_timestamp": 1782918869, "identifier": "67465da7-fb9a-4603-b99a-5f094c2dfe33"}</recraft-signature></metadata></svg>