<svg version="1.1" xmlns="http://www.w3.org/2000/svg" style="display: block;" viewBox="0 0 2048 2048" width="512" height="512" preserveAspectRatio="none">
<path transform="translate(0,0)" fill="rgb(212,226,239)" d="M 982.215 1594.02 C 965.205 1572.08 946.837 1544.53 930.925 1521.64 L 857.781 1416.69 C 776.031 1298.61 694.139 1178.52 622.621 1053.9 C 579.345 978.5 526.681 888.931 513.23 802.359 C 493.945 678.232 529.77 539.104 601.943 436.795 C 681.824 323.182 803.935 251.167 939.531 228.18 C 1074.78 203.937 1214.08 235.486 1325.69 315.637 C 1432.86 391.985 1513.84 516.061 1535.21 646.423 C 1549.2 735.034 1540.04 825.757 1508.62 909.785 C 1482.94 979.275 1446.95 1030.77 1405.91 1092.14 L 1324.68 1213.53 C 1263.41 1306.27 1200.87 1398.18 1137.09 1489.21 C 1113.83 1522.93 1089.92 1559.83 1066.39 1592.7 C 1057.02 1600.18 1034.66 1631.54 1032.14 1642.34 C 1037.08 1636.89 1043.5 1625.8 1047.8 1619.29 C 1054.85 1608.63 1059.93 1602.23 1068.72 1593.09 C 1086.84 1587.03 1164.7 1594.31 1186.06 1596.57 C 1249.38 1603.27 1446.02 1629.57 1484.75 1678.95 C 1489.58 1685.1 1493.03 1692.71 1491.9 1700.68 C 1490.27 1712.19 1480.16 1721.54 1471.2 1728.1 C 1437.35 1752.91 1391.77 1764.87 1351.37 1774.16 C 1218.31 1804.79 1079.81 1808.09 943.947 1803.22 C 881.538 1800.98 819.066 1797.51 757.259 1788.08 C 705.675 1780.22 591.173 1759.67 559.504 1714.7 C 555.382 1708.85 552.952 1702.14 554.28 1694.95 C 556.871 1680.93 567.601 1670.69 578.949 1663.08 C 648.225 1616.64 823.782 1600.36 908.168 1595.11 C 928.45 1593.85 961.536 1589.63 980.981 1593.73 C 981.394 1593.82 981.804 1593.92 982.215 1594.02 z M 1033.49 983.258 C 1169.29 978.098 1275.21 863.851 1270.1 728.048 C 1264.99 592.244 1150.78 486.284 1014.97 491.348 C 879.098 496.414 773.073 610.694 778.188 746.565 C 783.302 882.436 897.619 988.421 1033.49 983.258 z"/>
<path transform="translate(0,0)" fill="rgb(9,125,248)" d="M 1007.07 349.959 C 1221.75 340.162 1404.07 505.544 1415.17 720.163 C 1426.28 934.783 1262.01 1118.1 1047.46 1130.51 C 831.056 1143.03 645.804 977.032 634.602 760.555 C 623.401 544.077 790.529 359.841 1007.07 349.959 z M 1033.49 983.258 C 1169.29 978.098 1275.21 863.851 1270.1 728.048 C 1264.99 592.244 1150.78 486.284 1014.97 491.348 C 879.098 496.414 773.073 610.694 778.188 746.565 C 783.302 882.436 897.619 988.421 1033.49 983.258 z"/>
<path transform="translate(0,0)" fill="rgb(54,159,254)" d="M 1011.91 391.303 C 1204.85 384.326 1367.01 534.888 1374.34 727.818 C 1381.68 920.747 1231.41 1083.19 1038.5 1090.88 C 845.078 1098.59 682.121 947.846 674.768 754.411 C 667.415 560.977 818.457 398.299 1011.91 391.303 z M 1033.49 983.258 C 1169.29 978.098 1275.21 863.851 1270.1 728.048 C 1264.99 592.244 1150.78 486.284 1014.97 491.348 C 879.098 496.414 773.073 610.694 778.188 746.565 C 783.302 882.436 897.619 988.421 1033.49 983.258 z"/>
<path transform="translate(0,0)" fill="rgb(6,193,75)" d="M 1149.85 613.499 C 1151.2 613.718 1150.42 613.438 1151.87 614.925 C 1152.17 692.09 1150.26 764.795 1090.85 822.958 C 1049.88 863.065 991.762 873.277 936.898 873.528 C 950.106 822.381 982.018 776.664 1022.53 742.933 C 1031.91 735.12 1043.04 729.056 1053.23 722.027 C 1045.8 723.931 1040.51 725.859 1033.27 728.526 C 1033.03 728.591 1032.79 728.657 1032.55 728.722 C 972.472 752.373 936.875 803.891 909.576 859.157 C 863.57 704.009 971.724 610.759 1120.73 614.62 C 1130.21 614.866 1140.4 614.505 1149.85 613.499 z"/>
<path transform="translate(0,0)" fill="rgb(212,226,239)" fill-opacity="0.882353" d="M 1068.72 1593.09 C 1059.93 1602.23 1054.85 1608.63 1047.8 1619.29 C 1043.5 1625.8 1037.08 1636.89 1032.14 1642.34 C 1034.66 1631.54 1057.02 1600.18 1066.39 1592.7 L 1068.72 1593.09 z"/>
</svg>