<svg xmlns="http://www.w3.org/2000/svg" height="512" preserveAspectRatio="none" style="display: block;" version="1.1" viewBox="0 0 2048 2048" width="512">
<path d="M 980.678 1592.71 C 980.266 1592 979.853 1591.29 979.44 1590.57 C 836.356 1384.18 686.353 1179.71 569.367 956.849 C 525.226 872.758 500.868 793.48 510.384 697.829 C 531.66 407.292 776.426 205.928 1061.33 221.697 C 1361.13 238.291 1592.92 527.73 1531.39 824.11 C 1509.66 931.374 1479.73 979.767 1419.51 1070.74 L 1223.05 1364.09 C 1211.24 1381.56 1069.33 1584.26 1067.51 1591.4 L 1068.69 1592.71 C 1060.3 1594.35 1031.31 1641.03 1027.51 1651.28 C 1009.86 1632.59 998.247 1609.63 980.678 1592.71 z M 1037.6 984.82 C 1174.47 977.349 1279.29 860.2 1271.55 723.344 C 1263.81 586.487 1146.46 481.898 1009.62 489.902 C 873.156 497.884 768.917 614.844 776.633 751.324 C 784.349 887.803 901.105 992.27 1037.6 984.82 z" fill="rgb(212,227,241)" transform="translate(0,0)"></path>
<path d="M 1418 767.843 C 1413.62 783.234 1411.59 800.093 1408.37 815.881 C 1358.88 1056.78 1097.76 1200.84 868.292 1099.48 C 546.275 957.228 563.728 497.019 889.108 372.66 C 1089.91 295.913 1317.46 405.394 1392.13 606.998 C 1404.15 639.41 1407.39 657.729 1413.34 691.27 C 1413.97 699.357 1415.72 724.709 1418 731.747 C 1416.88 743.752 1416.11 755.851 1418 767.843 z M 1037.6 984.82 C 1174.47 977.349 1279.29 860.2 1271.55 723.344 C 1263.81 586.487 1146.46 481.898 1009.62 489.902 C 873.156 497.884 768.917 614.844 776.633 751.324 C 784.349 887.803 901.105 992.27 1037.6 984.82 z" fill="rgb(11,125,247)" transform="translate(0,0)"></path>
<path d="M 1000.39 391.769 C 1192.97 378.451 1360 523.495 1373.82 716.037 C 1387.64 908.579 1243.03 1075.99 1050.52 1090.31 C 857.307 1104.68 689.145 959.422 675.276 766.17 C 661.406 572.918 807.101 405.135 1000.39 391.769 z M 1037.6 984.82 C 1174.47 977.349 1279.29 860.2 1271.55 723.344 C 1263.81 586.487 1146.46 481.898 1009.62 489.902 C 873.156 497.884 768.917 614.844 776.633 751.324 C 784.349 887.803 901.105 992.27 1037.6 984.82 z" fill="rgb(55,159,253)" transform="translate(0,0)"></path>
<path d="M 1094.14 615.104 C 1112.68 614.654 1133.57 617.117 1151.01 615.104 L 1151.04 651.586 C 1150.32 794.288 1077.76 874.526 937.959 872.938 C 949.547 821.799 987.632 772.995 1027.51 739.714 C 1035.68 733.331 1043.96 729.568 1052.14 722.208 C 982.519 737.885 938.898 797.097 909.497 857.537 C 870.119 710.63 956.53 626.493 1094.14 615.104 z" fill="rgb(8,191,75)" transform="translate(0,0)"></path>
<path d="M 1068.69 1592.71 C 1158.25 1584.89 1420.93 1623.56 1474.98 1669.13 C 1491.93 1683.42 1498.32 1700.83 1481.84 1718.42 C 1423.38 1780.83 1183.08 1802.61 1097.93 1804.13 C 960.905 1806.56 652.291 1804.98 564.818 1720.98 C 550.207 1706.94 551.7 1688.37 565.742 1674.32 C 626.9 1613.14 888.14 1592.35 980.678 1592.71 C 998.247 1609.63 1009.86 1632.59 1027.51 1651.28 C 1031.31 1641.03 1060.3 1594.35 1068.69 1592.71 z" fill="rgb(212,227,241)" transform="translate(0,0)"></path>
<metadata><recraft-signature>{"signed_by": "recraft", "signature_b64": "Ol/Vo/W7Zvm3nD2rfh9eS5nx7LYhL9A3QwjUMezOBtxyJSFBj1IffWoT/b66vVYUgIXAJg3S3C2041UQLJulDw==", "signing_algo": "Ed25519", "generation_timestamp": 1782918865, "identifier": "cd73169a-eedd-40e9-9a27-bc373d0e6bdd"}</recraft-signature></metadata></svg>